<?xml version="1.0" encoding="utf-8"?>
<!-- Generator: Adobe Illustrator 16.0.0, SVG Export Plug-In . SVG Version: 6.00 Build 0)  -->
<!DOCTYPE svg PUBLIC "-//W3C//DTD SVG 1.1//EN" "http://www.w3.org/Graphics/SVG/1.1/DTD/svg11.dtd">

<svg version="1.1" xmlns="http://www.w3.org/2000/svg" xmlns:xlink="http://www.w3.org/1999/xlink" x="0px" y="0px" width="250px"
	 height="250px" viewBox="0 0 250 250" enable-background="new 0 0 250 250" xml:space="preserve">
<style>
@keyframes slide {
  0% {
    transform: translate(0px, 0px);
  }
	25% {
    transform: translate(0px, 0px);
  }
	40% {
    transform: translate(3.4px, 0px);
  }
	85% {
    transform: translate(3.4px, 0px);
  }
  100% {
    transform: translate(0px, 0px);
  }
}
@keyframes slide2 {
  0% {
    transform: translate(0px, 0px);
  }
	50% {
    transform: translate(0px, 0px);
  }
	65% {
    transform: translate(3.5px, 0px);
  }
  85% {
    transform: translate(3.5px, 0px);
  }
	100% {
		transform: translate(0px, 0px);
	}
}
@keyframes appear {
  0% {
    opacity:0
  }
	50% {
    opacity:0
  }
	65% {
    opacity:1
  }
	85% {
    opacity:1
  }
  100% {
    opacity:0
  }
}
#Layer_4{
  opacity:0;
	-webkit-animation: appear 10s cubic-bezier(0.670, 0.005, 0.200, 1.000) infinite;
	-webkit-animation-fill-mode: forwards;
}
#Layer_1{
  -webkit-animation: slide 10s cubic-bezier(0.670, 0.005, 0.200, 1.000) infinite;
  -webkit-animation-fill-mode: forwards;
}
#lines2{
-webkit-animation: slide2 10s cubic-bezier(0.670, 0.005, 0.200, 1.000) infinite;
-webkit-animation-fill-mode: forwards;
anim
}
</style>
<rect width="100%" height="100%" fill="white"/>
<g id="Layer_1">
	<path id="lines" d="M-192.588,392.857l-3.273-0.877l155.265-579.458l3.273,0.877L-192.588,392.857z M-30.775-184.847l-3.273-0.877
		l-155.265,579.458l3.273,0.877L-30.775-184.847z M-24.229-183.093l-3.273-0.877l-155.265,579.458l3.273,0.877L-24.229-183.093z
		 M-17.681-181.338l-3.274-0.878L-176.22,397.242l3.273,0.877L-17.681-181.338z M-11.135-179.584l-3.273-0.877l-155.266,579.457
		l3.274,0.877L-11.135-179.584z M-4.588-177.83l-3.273-0.877l-155.265,579.459l3.274,0.877L-4.588-177.83z M1.959-176.076
		l-3.274-0.877L-156.58,402.506l3.274,0.877L1.959-176.076z M8.506-174.321l-3.273-0.877L-150.033,404.26l3.274,0.877L8.506-174.321
		z M15.053-172.567l-3.273-0.877l-155.265,579.458l3.273,0.877L15.053-172.567z M21.6-170.813l-3.274-0.877l-155.265,579.458
		l3.273,0.877L21.6-170.813z M28.147-169.059l-3.273-0.877l-155.265,579.459l3.273,0.877L28.147-169.059z M34.693-167.305
		l-3.273-0.877l-155.265,579.459l3.273,0.877L34.693-167.305z M41.241-165.55l-3.274-0.877l-155.265,579.458l3.274,0.877
		L41.241-165.55z M47.788-163.796l-3.273-0.877l-155.266,579.458l3.274,0.877L47.788-163.796z M54.334-162.042l-3.273-0.877
		l-155.266,579.458l3.274,0.877L54.334-162.042z M60.881-160.287l-3.274-0.878L-97.657,418.293l3.273,0.877L60.881-160.287z
		 M67.428-158.533l-3.273-0.877L-91.11,420.047l3.273,0.877L67.428-158.533z M73.975-156.779l-3.273-0.877L-84.563,421.801
		l3.273,0.879L73.975-156.779z M80.522-155.025l-3.273-0.877L-78.016,423.557l3.273,0.877L80.522-155.025z M87.069-153.271
		l-3.273-0.877L-71.47,425.311l3.274,0.877L87.069-153.271z M93.616-151.516l-3.273-0.877L-64.923,427.064l3.274,0.877
		L93.616-151.516z M100.163-149.762l-3.273-0.877L-58.376,428.818l3.274,0.879L100.163-149.762z M106.709-148.008l-3.273-0.877
		L-51.829,430.574l3.273,0.877L106.709-148.008z M113.256-146.253l-3.273-0.878L-45.282,432.328l3.273,0.877L113.256-146.253z
		 M119.804-144.499l-3.274-0.877L-38.735,434.082l3.273,0.877L119.804-144.499z M126.351-142.745l-3.273-0.877L-32.188,435.836
		l3.273,0.877L126.351-142.745z M132.897-140.991l-3.273-0.877L-25.641,437.59l3.273,0.877L132.897-140.991z M139.444-139.237
		l-3.273-0.877L-19.095,439.344l3.274,0.877L139.444-139.237z M145.991-137.482l-3.273-0.877L-12.548,441.098l3.274,0.879
		L145.991-137.482z M152.538-135.728l-3.273-0.877L-6.001,442.854l3.274,0.877L152.538-135.728z M159.085-133.974l-3.273-0.877
		L0.546,444.607l3.273,0.877L159.085-133.974z M165.632-132.219l-3.273-0.878L7.093,446.361l3.273,0.877L165.632-132.219z
		 M172.179-130.465l-3.273-0.877L13.64,448.115l3.273,0.877L172.179-130.465z M178.726-128.711l-3.273-0.877L20.187,449.869
		l3.273,0.877L178.726-128.711z M185.272-126.957l-3.273-0.877L26.733,451.625l3.274,0.877L185.272-126.957z M191.819-125.203
		l-3.273-0.877L33.28,453.379l3.274,0.877L191.819-125.203z M198.366-123.448l-3.273-0.878L39.827,455.133l3.274,0.877
		L198.366-123.448z M204.913-121.694l-3.273-0.877L46.375,456.887l3.273,0.877L204.913-121.694z M211.46-119.94l-3.273-0.877
		L52.921,458.641l3.273,0.877L211.46-119.94z M218.007-118.186l-3.273-0.877L59.468,460.395l3.273,0.877L218.007-118.186z
		 M224.554-116.431l-3.272-0.877L66.015,462.15l3.273,0.877L224.554-116.431z M231.1-114.677l-3.272-0.877L72.562,463.904
		l3.274,0.877L231.1-114.677z M237.647-112.923l-3.273-0.877L79.108,465.658l3.274,0.877L237.647-112.923z M244.194-111.169
		l-3.273-0.877L85.656,467.412l3.274,0.877L244.194-111.169z M250.741-109.415l-3.273-0.878L92.203,469.166l3.273,0.877
		L250.741-109.415z M257.288-107.661l-3.273-0.877L98.75,470.92l3.273,0.877L257.288-107.661z M263.835-105.906l-3.273-0.877
		L105.296,472.676l3.273,0.877L263.835-105.906z M270.382-104.152l-3.272-0.877L111.844,474.43l3.273,0.877L270.382-104.152z
		 M276.929-102.397l-3.273-0.877L118.391,476.184l3.272,0.877L276.929-102.397z M283.477-100.644l-3.274-0.877L124.937,477.938
		l3.274,0.877L283.477-100.644z M290.022-98.89l-3.273-0.877L131.483,479.691l3.274,0.877L290.022-98.89z M296.57-97.135
		l-3.274-0.877L138.031,481.447l3.273,0.877L296.57-97.135z M303.116-95.38l-3.273-0.878L144.578,483.201l3.272,0.877L303.116-95.38
		z M309.663-93.626l-3.273-0.877L151.125,484.955l3.272,0.877L309.663-93.626z M316.21-91.873l-3.272-0.877L157.672,486.709
		l3.273,0.877L316.21-91.873z M322.758-90.119l-3.274-0.877L164.219,488.463l3.273,0.877L322.758-90.119z M329.305-88.364
		l-3.274-0.877L170.765,490.217l3.274,0.877L329.305-88.364z M335.851-86.609l-3.273-0.877L177.312,491.971l3.273,0.877
		L335.851-86.609z M342.398-84.855l-3.274-0.877L183.859,493.725l3.273,0.879L342.398-84.855z M348.944-83.102l-3.272-0.877
		L190.406,495.48l3.273,0.877L348.944-83.102z M355.491-81.347l-3.273-0.878L196.953,497.234l3.272,0.877L355.491-81.347z
		 M362.038-79.593l-3.272-0.877L203.5,498.988l3.273,0.877L362.038-79.593z M368.586-77.838l-3.274-0.877L210.047,500.742
		l3.272,0.879L368.586-77.838z M375.133-76.084l-3.274-0.877L216.593,502.498l3.274,0.877L375.133-76.084z M381.679-74.33
		l-3.273-0.878L223.141,504.252l3.273,0.877L381.679-74.33z M388.227-72.576l-3.273-0.877L229.687,506.006l3.275,0.877
		L388.227-72.576z M394.772-70.822l-3.272-0.877L236.234,507.76l3.273,0.877L394.772-70.822z M401.319-69.067l-3.273-0.877
		L242.781,509.514l3.272,0.877L401.319-69.067z M407.867-67.313l-3.273-0.877L249.329,511.268l3.272,0.877L407.867-67.313z
		 M414.414-65.559l-3.274-0.877L255.875,513.021l3.273,0.877L414.414-65.559z M420.961-63.805l-3.273-0.877L262.423,514.775
		l3.273,0.879L420.961-63.805z M427.507-62.051l-3.272-0.877L268.969,516.531l3.273,0.877L427.507-62.051z M434.055-60.296
		l-3.273-0.877L275.516,518.285l3.274,0.877L434.055-60.296z M440.601-58.542l-3.272-0.877L282.062,520.039l3.273,0.877
		L440.601-58.542z M447.148-56.788l-3.274-0.877L288.609,521.793l3.272,0.877L447.148-56.788z M453.695-55.034l-3.273-0.877
		L295.157,523.549l3.272,0.877L453.695-55.034z M460.242-53.28l-3.274-0.877L301.703,525.303l3.273,0.877L460.242-53.28z
		 M466.789-51.525l-3.273-0.877L308.251,527.057l3.273,0.877L466.789-51.525z"/>
	<path id="lines2" d="M-192.588,392.857l-3.273-0.877l155.265-579.458l3.273,0.877L-192.588,392.857z M-30.775-184.847l-3.273-0.877
		l-155.265,579.458l3.273,0.877L-30.775-184.847z M-24.229-183.093l-3.273-0.877l-155.265,579.458l3.273,0.877L-24.229-183.093z
		 M-17.681-181.338l-3.274-0.878L-176.22,397.242l3.273,0.877L-17.681-181.338z M-11.135-179.584l-3.273-0.877l-155.266,579.457
		l3.274,0.877L-11.135-179.584z M-4.588-177.83l-3.273-0.877l-155.265,579.459l3.274,0.877L-4.588-177.83z M1.959-176.076
		l-3.274-0.877L-156.58,402.506l3.274,0.877L1.959-176.076z M8.506-174.321l-3.273-0.877L-150.033,404.26l3.274,0.877L8.506-174.321
		z M15.053-172.567l-3.273-0.877l-155.265,579.458l3.273,0.877L15.053-172.567z M21.6-170.813l-3.274-0.877l-155.265,579.458
		l3.273,0.877L21.6-170.813z M28.147-169.059l-3.273-0.877l-155.265,579.459l3.273,0.877L28.147-169.059z M34.693-167.305
		l-3.273-0.877l-155.265,579.459l3.273,0.877L34.693-167.305z M41.241-165.55l-3.274-0.877l-155.265,579.458l3.274,0.877
		L41.241-165.55z M47.788-163.796l-3.273-0.877l-155.266,579.458l3.274,0.877L47.788-163.796z M54.334-162.042l-3.273-0.877
		l-155.266,579.458l3.274,0.877L54.334-162.042z M60.881-160.287l-3.274-0.878L-97.657,418.293l3.273,0.877L60.881-160.287z
		 M67.428-158.533l-3.273-0.877L-91.11,420.047l3.273,0.877L67.428-158.533z M73.975-156.779l-3.273-0.877L-84.563,421.801
		l3.273,0.879L73.975-156.779z M80.522-155.025l-3.273-0.877L-78.016,423.557l3.273,0.877L80.522-155.025z M87.069-153.271
		l-3.273-0.877L-71.47,425.311l3.274,0.877L87.069-153.271z M93.616-151.516l-3.273-0.877L-64.923,427.064l3.274,0.877
		L93.616-151.516z M100.163-149.762l-3.273-0.877L-58.376,428.818l3.274,0.879L100.163-149.762z M106.709-148.008l-3.273-0.877
		L-51.829,430.574l3.273,0.877L106.709-148.008z M113.256-146.253l-3.273-0.878L-45.282,432.328l3.273,0.877L113.256-146.253z
		 M119.804-144.499l-3.274-0.877L-38.735,434.082l3.273,0.877L119.804-144.499z M126.351-142.745l-3.273-0.877L-32.188,435.836
		l3.273,0.877L126.351-142.745z M132.897-140.991l-3.273-0.877L-25.641,437.59l3.273,0.877L132.897-140.991z M139.444-139.237
		l-3.273-0.877L-19.095,439.344l3.274,0.877L139.444-139.237z M145.991-137.482l-3.273-0.877L-12.548,441.098l3.274,0.879
		L145.991-137.482z M152.538-135.728l-3.273-0.877L-6.001,442.854l3.274,0.877L152.538-135.728z M159.085-133.974l-3.273-0.877
		L0.546,444.607l3.273,0.877L159.085-133.974z M165.632-132.219l-3.273-0.878L7.093,446.361l3.273,0.877L165.632-132.219z
		 M172.179-130.465l-3.273-0.877L13.64,448.115l3.273,0.877L172.179-130.465z M178.726-128.711l-3.273-0.877L20.187,449.869
		l3.273,0.877L178.726-128.711z M185.272-126.957l-3.273-0.877L26.733,451.625l3.274,0.877L185.272-126.957z M191.819-125.203
		l-3.273-0.877L33.28,453.379l3.274,0.877L191.819-125.203z M198.366-123.448l-3.273-0.878L39.827,455.133l3.274,0.877
		L198.366-123.448z M204.913-121.694l-3.273-0.877L46.375,456.887l3.273,0.877L204.913-121.694z M211.46-119.94l-3.273-0.877
		L52.921,458.641l3.273,0.877L211.46-119.94z M218.007-118.186l-3.273-0.877L59.468,460.395l3.273,0.877L218.007-118.186z
		 M224.554-116.431l-3.272-0.877L66.015,462.15l3.273,0.877L224.554-116.431z M231.1-114.677l-3.272-0.877L72.562,463.904
		l3.274,0.877L231.1-114.677z M237.647-112.923l-3.273-0.877L79.108,465.658l3.274,0.877L237.647-112.923z M244.194-111.169
		l-3.273-0.877L85.656,467.412l3.274,0.877L244.194-111.169z M250.741-109.415l-3.273-0.878L92.203,469.166l3.273,0.877
		L250.741-109.415z M257.288-107.661l-3.273-0.877L98.75,470.92l3.273,0.877L257.288-107.661z M263.835-105.906l-3.273-0.877
		L105.296,472.676l3.273,0.877L263.835-105.906z M270.382-104.152l-3.272-0.877L111.844,474.43l3.273,0.877L270.382-104.152z
		 M276.929-102.397l-3.273-0.877L118.391,476.184l3.272,0.877L276.929-102.397z M283.477-100.644l-3.274-0.877L124.937,477.938
		l3.274,0.877L283.477-100.644z M290.022-98.89l-3.273-0.877L131.483,479.691l3.274,0.877L290.022-98.89z M296.57-97.135
		l-3.274-0.877L138.031,481.447l3.273,0.877L296.57-97.135z M303.116-95.38l-3.273-0.878L144.578,483.201l3.272,0.877L303.116-95.38
		z M309.663-93.626l-3.273-0.877L151.125,484.955l3.272,0.877L309.663-93.626z M316.21-91.873l-3.272-0.877L157.672,486.709
		l3.273,0.877L316.21-91.873z M322.758-90.119l-3.274-0.877L164.219,488.463l3.273,0.877L322.758-90.119z M329.305-88.364
		l-3.274-0.877L170.765,490.217l3.274,0.877L329.305-88.364z M335.851-86.609l-3.273-0.877L177.312,491.971l3.273,0.877
		L335.851-86.609z M342.398-84.855l-3.274-0.877L183.859,493.725l3.273,0.879L342.398-84.855z M348.944-83.102l-3.272-0.877
		L190.406,495.48l3.273,0.877L348.944-83.102z M355.491-81.347l-3.273-0.878L196.953,497.234l3.272,0.877L355.491-81.347z
		 M362.038-79.593l-3.272-0.877L203.5,498.988l3.273,0.877L362.038-79.593z M368.586-77.838l-3.274-0.877L210.047,500.742
		l3.272,0.879L368.586-77.838z M375.133-76.084l-3.274-0.877L216.593,502.498l3.274,0.877L375.133-76.084z M381.679-74.33
		l-3.273-0.878L223.141,504.252l3.273,0.877L381.679-74.33z M388.227-72.576l-3.273-0.877L229.687,506.006l3.275,0.877
		L388.227-72.576z M394.772-70.822l-3.272-0.877L236.234,507.76l3.273,0.877L394.772-70.822z M401.319-69.067l-3.273-0.877
		L242.781,509.514l3.272,0.877L401.319-69.067z M407.867-67.313l-3.273-0.877L249.329,511.268l3.272,0.877L407.867-67.313z
		 M414.414-65.559l-3.274-0.877L255.875,513.021l3.273,0.877L414.414-65.559z M420.961-63.805l-3.273-0.877L262.423,514.775
		l3.273,0.879L420.961-63.805z M427.507-62.051l-3.272-0.877L268.969,516.531l3.273,0.877L427.507-62.051z M434.055-60.296
		l-3.273-0.877L275.516,518.285l3.274,0.877L434.055-60.296z M440.601-58.542l-3.272-0.877L282.062,520.039l3.273,0.877
		L440.601-58.542z M447.148-56.788l-3.274-0.877L288.609,521.793l3.272,0.877L447.148-56.788z M453.695-55.034l-3.273-0.877
		L295.157,523.549l3.272,0.877L453.695-55.034z M460.242-53.28l-3.274-0.877L301.703,525.303l3.273,0.877L460.242-53.28z
		 M466.789-51.525l-3.273-0.877L308.251,527.057l3.273,0.877L466.789-51.525z"/>
</g>
<g id="Layer_2_copy">
	<g>
		<defs>
			<path id="lines_1_" d="M-189.204,392.857l-3.273-0.877l155.265-579.458l3.273,0.877L-189.204,392.857z M-27.392-184.847
				l-3.273-0.877L-185.93,393.734l3.273,0.877L-27.392-184.847z M-20.845-183.093l-3.273-0.877l-155.265,579.458l3.273,0.877
				L-20.845-183.093z M-14.297-181.338l-3.274-0.878l-155.265,579.458l3.273,0.877L-14.297-181.338z M-7.751-179.584l-3.273-0.877
				L-166.29,398.996l3.274,0.877L-7.751-179.584z M-1.204-177.83l-3.273-0.877l-155.265,579.459l3.274,0.877L-1.204-177.83z
				 M5.343-176.076l-3.274-0.877l-155.265,579.459l3.274,0.877L5.343-176.076z M11.89-174.321l-3.273-0.877L-146.649,404.26
				l3.274,0.877L11.89-174.321z M18.437-172.567l-3.273-0.877l-155.265,579.458l3.273,0.877L18.437-172.567z M24.984-170.813
				l-3.274-0.877l-155.265,579.458l3.273,0.877L24.984-170.813z M31.531-169.059l-3.273-0.877l-155.265,579.459l3.273,0.877
				L31.531-169.059z M38.077-167.305l-3.273-0.877l-155.265,579.459l3.273,0.877L38.077-167.305z M44.625-165.55l-3.274-0.877
				l-155.265,579.458l3.274,0.877L44.625-165.55z M51.171-163.796l-3.273-0.877l-155.266,579.458l3.274,0.877L51.171-163.796z
				 M57.718-162.042l-3.273-0.877l-155.266,579.458l3.274,0.877L57.718-162.042z M64.265-160.287l-3.274-0.878L-94.273,418.293
				L-91,419.17L64.265-160.287z M70.812-158.533l-3.273-0.877L-87.727,420.047l3.273,0.877L70.812-158.533z M77.359-156.779
				l-3.273-0.877L-81.18,421.801l3.273,0.879L77.359-156.779z M83.906-155.025l-3.273-0.877L-74.632,423.557l3.273,0.877
				L83.906-155.025z M90.453-153.271l-3.273-0.877L-68.086,425.311l3.274,0.877L90.453-153.271z M97-151.516l-3.273-0.877
				L-61.54,427.064l3.274,0.877L97-151.516z M103.546-149.762l-3.273-0.877L-54.992,428.818l3.274,0.879L103.546-149.762z
				 M110.093-148.008l-3.273-0.877L-48.445,430.574l3.273,0.877L110.093-148.008z M116.64-146.253l-3.273-0.878L-41.898,432.328
				l3.273,0.877L116.64-146.253z M123.188-144.499l-3.274-0.877L-35.352,434.082l3.273,0.877L123.188-144.499z M129.734-142.745
				l-3.273-0.877L-28.804,435.836l3.273,0.877L129.734-142.745z M136.281-140.991l-3.273-0.877L-22.257,437.59l3.273,0.877
				L136.281-140.991z M142.828-139.237l-3.273-0.877L-15.711,439.344l3.274,0.877L142.828-139.237z M149.375-137.482l-3.273-0.877
				L-9.164,441.098l3.274,0.879L149.375-137.482z M155.922-135.728l-3.273-0.877L-2.617,442.854l3.274,0.877L155.922-135.728z
				 M162.469-133.974l-3.273-0.877L3.93,444.607l3.273,0.877L162.469-133.974z M169.016-132.219l-3.273-0.878L10.477,446.361
				l3.273,0.877L169.016-132.219z M175.562-130.465l-3.273-0.877L17.024,448.115l3.273,0.877L175.562-130.465z M182.109-128.711
				l-3.273-0.877L23.571,449.869l3.273,0.877L182.109-128.711z M188.656-126.957l-3.273-0.877L30.117,451.625l3.274,0.877
				L188.656-126.957z M195.203-125.203l-3.273-0.877L36.664,453.379l3.274,0.877L195.203-125.203z M201.75-123.448l-3.273-0.878
				L43.211,455.133l3.274,0.877L201.75-123.448z M208.297-121.694l-3.273-0.877L49.758,456.887l3.273,0.877L208.297-121.694z
				 M214.844-119.94l-3.273-0.877L56.305,458.641l3.273,0.877L214.844-119.94z M221.391-118.186l-3.273-0.877L62.852,460.395
				l3.273,0.877L221.391-118.186z M227.938-116.431l-3.272-0.877L69.399,462.15l3.273,0.877L227.938-116.431z M234.483-114.677
				l-3.272-0.877L75.945,463.904l3.274,0.877L234.483-114.677z M241.031-112.923l-3.273-0.877L82.492,465.658l3.274,0.877
				L241.031-112.923z M247.578-111.169l-3.273-0.877L89.04,467.412l3.274,0.877L247.578-111.169z M254.125-109.415l-3.273-0.878
				L95.586,469.166l3.273,0.877L254.125-109.415z M260.672-107.661l-3.273-0.877L102.133,470.92l3.273,0.877L260.672-107.661z
				 M267.219-105.906l-3.273-0.877L108.68,472.676l3.273,0.877L267.219-105.906z M273.766-104.152l-3.272-0.877L115.228,474.43
				l3.273,0.877L273.766-104.152z M280.312-102.397l-3.273-0.877L121.774,476.184l3.272,0.877L280.312-102.397z M286.86-100.644
				l-3.274-0.877L128.32,477.938l3.274,0.877L286.86-100.644z M293.406-98.89l-3.273-0.877L134.867,479.691l3.274,0.877
				L293.406-98.89z M299.954-97.135l-3.274-0.877L141.415,481.447l3.273,0.877L299.954-97.135z M306.5-95.38l-3.273-0.878
				L147.962,483.201l3.272,0.877L306.5-95.38z M313.047-93.626l-3.273-0.877L154.509,484.955l3.272,0.877L313.047-93.626z
				 M319.594-91.873l-3.272-0.877L161.056,486.709l3.273,0.877L319.594-91.873z M326.142-90.119l-3.274-0.877L167.603,488.463
				l3.273,0.877L326.142-90.119z M332.688-88.364l-3.274-0.877L174.148,490.217l3.274,0.877L332.688-88.364z M339.234-86.609
				l-3.273-0.877L180.696,491.971l3.273,0.877L339.234-86.609z M345.782-84.855l-3.274-0.877L187.243,493.725l3.273,0.879
				L345.782-84.855z M352.328-83.102l-3.272-0.877L193.79,495.48l3.273,0.877L352.328-83.102z M358.875-81.347l-3.273-0.878
				L200.337,497.234l3.272,0.877L358.875-81.347z M365.422-79.593l-3.272-0.877L206.884,498.988l3.273,0.877L365.422-79.593z
				 M371.97-77.838l-3.274-0.877L213.431,500.742l3.272,0.879L371.97-77.838z M378.517-76.084l-3.274-0.877L219.977,502.498
				l3.274,0.877L378.517-76.084z M385.062-74.33l-3.273-0.878L226.524,504.252l3.273,0.877L385.062-74.33z M391.61-72.576
				l-3.273-0.877L233.07,506.006l3.275,0.877L391.61-72.576z M398.156-70.822l-3.272-0.877L239.618,507.76l3.273,0.877
				L398.156-70.822z M404.703-69.067l-3.273-0.877L246.165,509.514l3.272,0.877L404.703-69.067z M411.251-67.313l-3.273-0.877
				L252.713,511.268l3.272,0.877L411.251-67.313z M417.798-65.559l-3.274-0.877L259.259,513.021l3.273,0.877L417.798-65.559z
				 M424.345-63.805l-3.273-0.877L265.807,514.775l3.273,0.879L424.345-63.805z M430.891-62.051l-3.272-0.877L272.353,516.531
				l3.273,0.877L430.891-62.051z M437.438-60.296l-3.273-0.877L278.899,518.285l3.274,0.877L437.438-60.296z M443.984-58.542
				l-3.272-0.877L285.446,520.039l3.273,0.877L443.984-58.542z M450.532-56.788l-3.274-0.877L291.993,521.793l3.272,0.877
				L450.532-56.788z M457.079-55.034l-3.273-0.877L298.541,523.549l3.272,0.877L457.079-55.034z M463.626-53.28l-3.274-0.877
				L305.087,525.303l3.273,0.877L463.626-53.28z M470.173-51.525l-3.273-0.877L311.635,527.057l3.273,0.877L470.173-51.525z"/>
		</defs>
		<clipPath id="lines_3_">
			<use xlink:href="#lines_1_"  overflow="visible"/>
		</clipPath>
		<g clip-path="url(#lines_3_)">
			<rect x="15.589" y="48.485" fill="none" width="222.644" height="200.515"/>
			<path d="M16.549,96.967V72.009c0-15.935,9.599-24.958,25.918-24.958h1.536c16.319,0,25.918,9.023,25.918,24.958v24.958
				c0,15.935-9.599,24.958-25.918,24.958h-1.536C26.148,121.925,16.549,112.902,16.549,96.967z M44.195,99.079V69.897h-1.92v29.182
				H44.195z"/>
			<path d="M71.844,48.491h30.334c14.207,0,23.998,6.144,23.998,19.006v1.536c0,6.815-3.36,12.671-10.559,14.495
				c6.815,2.016,11.519,7.392,11.519,16.223v1.536c0,12.863-9.792,19.199-23.999,19.199H71.844V48.491z M103.81,73.257v-1.92H92.29
				v1.92H103.81z M104.77,97.639v-1.92H92.29v1.92H104.77z"/>
			<path d="M128.1,94.567v-3.36h12.575v-0.96c-7.968-3.072-13.056-10.271-13.056-20.351c0-14.399,11.136-22.846,28.127-22.846
				c17.854,0,27.166,10.079,27.166,25.438v5.28h-12.096v0.96c7.775,2.976,12.574,11.039,12.574,20.158
				c0,14.783-10.942,23.039-26.781,23.039C137.986,121.925,128.1,113.094,128.1,94.567z M161.025,73.257v-1.92h-11.52v1.92H161.025z
				 M161.025,97.639v-1.92h-11.52v1.92H161.025z"/>
			<path d="M184.834,73.641h32.734v21.599h-32.734V73.641z"/>
			<path d="M16.549,172.567v-3.36h12.575v-0.959c-7.968-3.072-13.055-10.271-13.055-20.352c0-14.398,11.135-22.846,28.126-22.846
				c17.854,0,27.166,10.079,27.166,25.438v5.28H59.266v0.96c7.775,2.976,12.575,11.039,12.575,20.158
				c0,14.783-10.943,23.038-26.782,23.038C26.436,199.925,16.549,191.094,16.549,172.567z M49.475,151.257v-1.92h-11.52v1.92H49.475
				z M49.475,175.639v-1.92h-11.52v1.92H49.475z"/>
			<path d="M96.13,149.337v1.92h24.574v22.462H96.13v1.92h24.574v22.847h-47.42V126.49h47.42v22.847H96.13z"/>
			<path d="M122.627,172.567v-3.36h12.575v-0.959c-7.968-3.072-13.055-10.271-13.055-20.352c0-14.398,11.135-22.846,28.126-22.846
				c17.854,0,27.166,10.079,27.166,25.438v5.28h-12.096v0.96c7.775,2.976,12.575,11.039,12.575,20.158
				c0,14.783-10.943,23.038-26.782,23.038C132.514,199.925,122.627,191.094,122.627,172.567z M155.553,151.257v-1.92h-11.52v1.92
				H155.553z M155.553,175.639v-1.92h-11.52v1.92H155.553z"/>
			<path d="M179.361,172.567v-3.36h12.576v-0.959c-7.969-3.072-13.056-10.271-13.056-20.352c0-14.398,11.136-22.846,28.126-22.846
				c17.855,0,27.166,10.079,27.166,25.438v5.28h-12.096v0.96c7.775,2.976,12.576,11.039,12.576,20.158
				c0,14.783-10.943,23.038-26.783,23.038C189.25,199.925,179.361,191.094,179.361,172.567z M212.287,151.257v-1.92h-11.52v1.92
				H212.287z M212.287,175.639v-1.92h-11.52v1.92H212.287z"/>
		</g>
	</g>
</g>
<g id="Layer_2_copy_2">
	<g>
		<defs>
			<path id="lines_2_" d="M-192.588,392.857l-3.273-0.877l155.265-579.458l3.273,0.877L-192.588,392.857z M-30.775-184.847
				l-3.273-0.877l-155.265,579.458l3.273,0.877L-30.775-184.847z M-24.229-183.093l-3.273-0.877l-155.265,579.458l3.273,0.877
				L-24.229-183.093z M-17.681-181.338l-3.274-0.878L-176.22,397.242l3.273,0.877L-17.681-181.338z M-11.135-179.584l-3.273-0.877
				l-155.266,579.457l3.274,0.877L-11.135-179.584z M-4.588-177.83l-3.273-0.877l-155.265,579.459l3.274,0.877L-4.588-177.83z
				 M1.959-176.076l-3.274-0.877L-156.58,402.506l3.274,0.877L1.959-176.076z M8.506-174.321l-3.273-0.877L-150.033,404.26
				l3.274,0.877L8.506-174.321z M15.053-172.567l-3.273-0.877l-155.265,579.458l3.273,0.877L15.053-172.567z M21.6-170.813
				l-3.274-0.877l-155.265,579.458l3.273,0.877L21.6-170.813z M28.147-169.059l-3.273-0.877l-155.265,579.459l3.273,0.877
				L28.147-169.059z M34.693-167.305l-3.273-0.877l-155.265,579.459l3.273,0.877L34.693-167.305z M41.241-165.55l-3.274-0.877
				l-155.265,579.458l3.274,0.877L41.241-165.55z M47.788-163.796l-3.273-0.877l-155.266,579.458l3.274,0.877L47.788-163.796z
				 M54.334-162.042l-3.273-0.877l-155.266,579.458l3.274,0.877L54.334-162.042z M60.881-160.287l-3.274-0.878L-97.657,418.293
				l3.273,0.877L60.881-160.287z M67.428-158.533l-3.273-0.877L-91.11,420.047l3.273,0.877L67.428-158.533z M73.975-156.779
				l-3.273-0.877L-84.563,421.801l3.273,0.879L73.975-156.779z M80.522-155.025l-3.273-0.877L-78.016,423.557l3.273,0.877
				L80.522-155.025z M87.069-153.271l-3.273-0.877L-71.47,425.311l3.274,0.877L87.069-153.271z M93.616-151.516l-3.273-0.877
				L-64.923,427.064l3.274,0.877L93.616-151.516z M100.163-149.762l-3.273-0.877L-58.376,428.818l3.274,0.879L100.163-149.762z
				 M106.709-148.008l-3.273-0.877L-51.829,430.574l3.273,0.877L106.709-148.008z M113.256-146.253l-3.273-0.878L-45.282,432.328
				l3.273,0.877L113.256-146.253z M119.804-144.499l-3.274-0.877L-38.735,434.082l3.273,0.877L119.804-144.499z M126.351-142.745
				l-3.273-0.877L-32.188,435.836l3.273,0.877L126.351-142.745z M132.897-140.991l-3.273-0.877L-25.641,437.59l3.273,0.877
				L132.897-140.991z M139.444-139.237l-3.273-0.877L-19.095,439.344l3.274,0.877L139.444-139.237z M145.991-137.482l-3.273-0.877
				L-12.548,441.098l3.274,0.879L145.991-137.482z M152.538-135.728l-3.273-0.877L-6.001,442.854l3.274,0.877L152.538-135.728z
				 M159.085-133.974l-3.273-0.877L0.546,444.607l3.273,0.877L159.085-133.974z M165.632-132.219l-3.273-0.878L7.093,446.361
				l3.273,0.877L165.632-132.219z M172.179-130.465l-3.273-0.877L13.64,448.115l3.273,0.877L172.179-130.465z M178.726-128.711
				l-3.273-0.877L20.187,449.869l3.273,0.877L178.726-128.711z M185.272-126.957l-3.273-0.877L26.733,451.625l3.274,0.877
				L185.272-126.957z M191.819-125.203l-3.273-0.877L33.28,453.379l3.274,0.877L191.819-125.203z M198.366-123.448l-3.273-0.878
				L39.827,455.133l3.274,0.877L198.366-123.448z M204.913-121.694l-3.273-0.877L46.375,456.887l3.273,0.877L204.913-121.694z
				 M211.46-119.94l-3.273-0.877L52.921,458.641l3.273,0.877L211.46-119.94z M218.007-118.186l-3.273-0.877L59.468,460.395
				l3.273,0.877L218.007-118.186z M224.554-116.431l-3.272-0.877L66.015,462.15l3.273,0.877L224.554-116.431z M231.1-114.677
				l-3.272-0.877L72.562,463.904l3.274,0.877L231.1-114.677z M237.647-112.923l-3.273-0.877L79.108,465.658l3.274,0.877
				L237.647-112.923z M244.194-111.169l-3.273-0.877L85.656,467.412l3.274,0.877L244.194-111.169z M250.741-109.415l-3.273-0.878
				L92.203,469.166l3.273,0.877L250.741-109.415z M257.288-107.661l-3.273-0.877L98.75,470.92l3.273,0.877L257.288-107.661z
				 M263.835-105.906l-3.273-0.877L105.296,472.676l3.273,0.877L263.835-105.906z M270.382-104.152l-3.272-0.877L111.844,474.43
				l3.273,0.877L270.382-104.152z M276.929-102.397l-3.273-0.877L118.391,476.184l3.272,0.877L276.929-102.397z M283.477-100.644
				l-3.274-0.877L124.937,477.938l3.274,0.877L283.477-100.644z M290.022-98.89l-3.273-0.877L131.483,479.691l3.274,0.877
				L290.022-98.89z M296.57-97.135l-3.274-0.877L138.031,481.447l3.273,0.877L296.57-97.135z M303.116-95.38l-3.273-0.878
				L144.578,483.201l3.272,0.877L303.116-95.38z M309.663-93.626l-3.273-0.877L151.125,484.955l3.272,0.877L309.663-93.626z
				 M316.21-91.873l-3.272-0.877L157.672,486.709l3.273,0.877L316.21-91.873z M322.758-90.119l-3.274-0.877L164.219,488.463
				l3.273,0.877L322.758-90.119z M329.305-88.364l-3.274-0.877L170.765,490.217l3.274,0.877L329.305-88.364z M335.851-86.609
				l-3.273-0.877L177.312,491.971l3.273,0.877L335.851-86.609z M342.398-84.855l-3.274-0.877L183.859,493.725l3.273,0.879
				L342.398-84.855z M348.944-83.102l-3.272-0.877L190.406,495.48l3.273,0.877L348.944-83.102z M355.491-81.347l-3.273-0.878
				L196.953,497.234l3.272,0.877L355.491-81.347z M362.038-79.593l-3.272-0.877L203.5,498.988l3.273,0.877L362.038-79.593z
				 M368.586-77.838l-3.274-0.877L210.047,500.742l3.272,0.879L368.586-77.838z M375.133-76.084l-3.274-0.877L216.593,502.498
				l3.274,0.877L375.133-76.084z M381.679-74.33l-3.273-0.878L223.141,504.252l3.273,0.877L381.679-74.33z M388.227-72.576
				l-3.273-0.877L229.687,506.006l3.275,0.877L388.227-72.576z M394.772-70.822l-3.272-0.877L236.234,507.76l3.273,0.877
				L394.772-70.822z M401.319-69.067l-3.273-0.877L242.781,509.514l3.272,0.877L401.319-69.067z M407.867-67.313l-3.273-0.877
				L249.329,511.268l3.272,0.877L407.867-67.313z M414.414-65.559l-3.274-0.877L255.875,513.021l3.273,0.877L414.414-65.559z
				 M420.961-63.805l-3.273-0.877L262.423,514.775l3.273,0.879L420.961-63.805z M427.507-62.051l-3.272-0.877L268.969,516.531
				l3.273,0.877L427.507-62.051z M434.055-60.296l-3.273-0.877L275.516,518.285l3.274,0.877L434.055-60.296z M440.601-58.542
				l-3.272-0.877L282.062,520.039l3.273,0.877L440.601-58.542z M447.148-56.788l-3.274-0.877L288.609,521.793l3.272,0.877
				L447.148-56.788z M453.695-55.034l-3.273-0.877L295.157,523.549l3.272,0.877L453.695-55.034z M460.242-53.28l-3.274-0.877
				L301.703,525.303l3.273,0.877L460.242-53.28z M466.789-51.525l-3.273-0.877L308.251,527.057l3.273,0.877L466.789-51.525z"/>
		</defs>
		<clipPath id="lines_4_">
			<use xlink:href="#lines_2_"  overflow="visible"/>
		</clipPath>
		<g id="Indulge_1_" clip-path="url(#lines_4_)">
			<rect x="21.309" y="48.485" fill="none" width="215.396" height="200.515"/>
			<path d="M22.269,48.491h25.726v71.995H22.269V48.491z"/>
			<path d="M49.917,48.491h24.766l7.68,28.99l0.96-0.192l-1.248-5.855c-0.96-4.704-1.632-10.271-1.632-15.167v-7.775h25.726v71.995
				H81.402l-7.68-28.99l-0.96,0.192l1.248,5.855c0.96,4.704,1.632,10.271,1.632,15.167v7.775H49.917V48.491z"/>
			<path d="M108.091,48.491h27.454c16.319,0,25.918,9.023,25.918,24.958v22.079c0,15.935-9.599,24.958-25.918,24.958h-27.454V48.491
				z M135.737,97.639V71.337h-1.92v26.302H135.737z"/>
			<path d="M163.387,73.641h32.733v21.599h-32.733V73.641z"/>
			<path d="M22.269,174.967V126.49h25.726v50.589h1.92V126.49h25.726v48.477c0,15.936-9.599,24.958-25.918,24.958h-1.536
				C31.868,199.925,22.269,190.902,22.269,174.967z"/>
			<path d="M124.024,175.639v22.847h-46.46V126.49h25.726v49.148H124.024z"/>
			<path d="M125.469,180.247v-30.238c0-15.935,9.6-24.958,25.918-24.958h1.536c16.319,0,25.918,9.023,25.918,24.958v11.519h-25.726
				v-13.631h-1.92v27.742h1.92v-12.191h25.726v35.038h-20.446l-3.84-8.256c-1.248,4.608-3.84,9.695-13.439,9.695
				C130.652,199.925,125.469,193.686,125.469,180.247z"/>
			<path d="M203.61,149.337v1.92h24.574v22.462H203.61v1.92h24.574v22.847h-47.421V126.49h47.421v22.847H203.61z"/>
		</g>
	</g>
</g>
<g id="Layer_4">
	<rect width="250" height="250"/>
	<g>
		<rect x="19.589" y="39.893" fill="none" width="238.907" height="196.607"/>
		<path fill="#FFFFFF" d="M34.86,45.896h-4.324v12.747h-6.374V45.896h-4.324v-5.374H34.86V45.896z"/>
		<path fill="#FFFFFF" d="M47.586,58.643h-6.374v-6.624l-6.349-11.497h7.048l2.599,5.849l2.6-5.849h6.798l-6.323,11.497V58.643z"/>
		<path fill="#FFFFFF" d="M61.412,54.644v3.999h-6.374V40.522h8.348c4.774,0,7.473,2.6,7.473,7.073c0,4.449-2.699,7.048-7.473,7.048
			H61.412z M61.412,44.946v5.274h0.55c1.625,0,2.274-0.6,2.274-2.625s-0.65-2.649-2.274-2.649H61.412z"/>
		<path fill="#FFFFFF" d="M81.736,40.147c6.148,0,9.498,3.474,9.498,9.448s-3.349,9.423-9.498,9.423s-9.498-3.449-9.498-9.423
			S75.587,40.147,81.736,40.147z M81.736,54.469c1.75,0,2.874-1.35,2.874-4.874c0-3.549-1.125-4.899-2.874-4.899
			s-2.875,1.35-2.875,4.899C78.861,53.119,79.986,54.469,81.736,54.469z"/>
		<path fill="#FFFFFF" d="M102.36,59.018c-5.924,0-9.373-3.449-9.373-9.423s3.599-9.448,9.623-9.448c2.349,0,4.649,0.525,6.374,1.1
			l-1.1,4.724c-1.375-0.375-2.624-0.65-4.149-0.65c-2.524,0-4.124,1.2-4.124,4.524c0,2.875,1.3,4.324,3.674,4.474l-0.325-4.499
			h5.974v8.223C107.084,58.667,104.585,59.018,102.36,59.018z"/>
		<path fill="#FFFFFF" d="M118.585,53.394h-0.775v5.249h-6.374V40.522h8.348c4.699,0,7.348,2.375,7.348,6.448
			c0,2.524-1.024,4.299-2.924,5.349l3.799,6.323h-7.048L118.585,53.394z M117.811,44.821v4.274h0.55c1.525,0,2.149-0.5,2.149-2.125
			c0-1.649-0.625-2.149-2.149-2.149H117.811z"/>
		<path fill="#FFFFFF" d="M139.409,55.868h-4.499l-0.6,2.774h-6.549l5.725-18.121h7.598l5.724,18.121h-6.798L139.409,55.868z
			 M137.16,45.696l-1.3,5.923h2.599L137.16,45.696z"/>
		<path fill="#FFFFFF" d="M154.436,54.644v3.999h-6.374V40.522h8.349c4.773,0,7.473,2.6,7.473,7.073
			c0,4.449-2.699,7.048-7.473,7.048H154.436z M154.436,44.946v5.274h0.549c1.625,0,2.275-0.6,2.275-2.625s-0.65-2.649-2.275-2.649
			H154.436z"/>
		<path fill="#FFFFFF" d="M176.634,52.519h-4.499v6.124h-6.373V40.522h6.373v6.499h4.499v-6.499h6.374v18.121h-6.374V52.519z"/>
		<path fill="#FFFFFF" d="M185.761,40.522h6.374v18.121h-6.374V40.522z"/>
		<path fill="#FFFFFF" d="M203.759,40.147c1.999,0,3.974,0.35,5.599,0.925l-1.074,4.749c-1.176-0.3-2.225-0.45-3.1-0.45
			c-2.5,0-3.924,1.425-3.924,4.224s1.424,4.199,3.924,4.199c0.875,0,1.924-0.15,3.1-0.45l1.074,4.749
			c-1.625,0.575-3.6,0.925-5.599,0.925c-5.773,0-9.372-3.449-9.372-9.423S197.985,40.147,203.759,40.147z"/>
		<path fill="#FFFFFF" d="M211.785,53.194c1.25,0.425,3.15,0.85,4.899,0.85c1.6,0,2.075-0.275,2.075-0.825
			c0-0.575-0.4-0.875-2.35-1.35c-4.174-1.024-5.749-3.149-5.749-5.624c0-3.474,2.824-6.099,8.099-6.099
			c2.074,0,4.549,0.4,6.423,0.95l-1.225,4.849c-1.05-0.35-2.974-0.8-4.698-0.8c-1.5,0-1.975,0.275-1.975,0.825
			s0.475,0.825,2.474,1.274c4.549,1.025,6.174,3.075,6.174,5.974c0,3.599-2.624,5.799-8.548,5.799c-2,0-4.725-0.375-6.599-0.875
			L211.785,53.194z"/>
		<path fill="#FFFFFF" d="M29.751,84.485h-6.299l-1.47,4.157h-2.079l5.69-15.222h2.079l5.669,15.222h-2.121L29.751,84.485z
			 M26.581,75.604l-2.562,7.244h5.144L26.581,75.604z"/>
		<path fill="#FFFFFF" d="M41.638,73.42h4.997c4.598,0,7.391,2.499,7.391,7.538c0,5.144-2.792,7.685-7.391,7.685h-4.997V73.42z
			 M43.57,75.058v11.947h2.729c3.569,0,5.753-1.659,5.753-6.047c0-4.241-2.163-5.9-5.753-5.9H43.57z"/>
		<path fill="#FFFFFF" d="M57.766,73.42h9.742v1.638h-7.811v5.186h6.908v1.617h-6.908v5.144h7.895v1.638h-9.826V73.42z"/>
		<path fill="#FFFFFF" d="M70.87,86.438c1.092,0.399,2.478,0.756,4.073,0.756c2.75,0,3.947-0.945,3.947-2.415
			c0-1.302-0.903-2.163-3.758-2.981c-3.296-0.924-4.619-2.331-4.619-4.409c0-2.373,2.037-4.199,5.459-4.199
			c1.533,0,3.044,0.294,4.283,0.756l-0.441,1.596c-1.092-0.378-2.247-0.672-3.758-0.672c-2.436,0-3.59,0.987-3.59,2.394
			c0,1.386,0.945,2.184,3.548,2.897c3.485,0.945,4.85,2.352,4.85,4.535c0,2.478-2.016,4.178-5.627,4.178
			c-1.911,0-3.569-0.336-4.829-0.819L70.87,86.438z"/>
		<path fill="#FFFFFF" d="M84.562,73.42h1.932v15.222h-1.932V73.42z"/>
		<path fill="#FFFFFF" d="M97.791,88.874c-4.787,0-7.538-3.002-7.538-7.916c0-4.745,2.813-7.769,7.58-7.769
			c1.701,0,3.17,0.315,4.535,0.819l-0.483,1.617c-1.134-0.399-2.541-0.735-3.884-0.735c-3.485,0-5.774,2.247-5.774,6.068
			c0,4.031,2.226,6.278,5.753,6.278c0.882,0,1.869-0.105,2.792-0.294l-0.084-4.199H97.35v-1.638h5.228v6.971
			C101.15,88.58,99.512,88.874,97.791,88.874z"/>
		<path fill="#FFFFFF" d="M117.152,73.42h1.89v15.222h-1.764l-8.755-11.926v11.926h-1.89V73.42h1.764l8.755,11.926V73.42z"/>
		<path fill="#FFFFFF" d="M131.58,82.323v6.32h-1.932V73.42h9.533v1.638h-7.602v5.669h6.887v1.596H131.58z"/>
		<path fill="#FFFFFF" d="M142.795,73.42h9.742v1.638h-7.811v5.186h6.908v1.617h-6.908v5.144h7.895v1.638h-9.826V73.42z"/>
		<path fill="#FFFFFF" d="M155.898,86.438c1.092,0.399,2.479,0.756,4.074,0.756c2.75,0,3.947-0.945,3.947-2.415
			c0-1.302-0.903-2.163-3.759-2.981c-3.296-0.924-4.619-2.331-4.619-4.409c0-2.373,2.036-4.199,5.459-4.199
			c1.532,0,3.044,0.294,4.283,0.756l-0.44,1.596c-1.092-0.378-2.247-0.672-3.759-0.672c-2.436,0-3.591,0.987-3.591,2.394
			c0,1.386,0.945,2.184,3.549,2.897c3.485,0.945,4.85,2.352,4.85,4.535c0,2.478-2.016,4.178-5.627,4.178
			c-1.91,0-3.568-0.336-4.828-0.819L155.898,86.438z"/>
		<path fill="#FFFFFF" d="M179.333,75.058h-4.871v13.584h-1.932V75.058h-4.871V73.42h11.674V75.058z"/>
		<path fill="#FFFFFF" d="M182.212,73.42h1.932v15.222h-1.932V73.42z"/>
		<path fill="#FFFFFF" d="M192.522,88.643l-5.627-15.222h2.12l4.578,12.934l4.576-12.934h2.059l-5.627,15.222H192.522z"/>
		<path fill="#FFFFFF" d="M210.035,84.485h-6.299l-1.469,4.157h-2.079l5.69-15.222h2.078l5.669,15.222h-2.12L210.035,84.485z
			 M206.865,75.604l-2.562,7.244h5.144L206.865,75.604z"/>
		<path fill="#FFFFFF" d="M216.357,73.42h1.932v13.584h7.266v1.638h-9.197V73.42z"/>
		<path fill="#FFFFFF" d="M23.935,112.323v6.32h-1.932V103.42h9.532v1.638h-7.601v5.669h6.887v1.596H23.935z"/>
		<path fill="#FFFFFF" d="M41.196,103.189c4.346,0,7.16,3.023,7.16,7.769c0,4.871-2.813,7.916-7.16,7.916s-7.139-3.044-7.139-7.916
			C34.058,106.213,36.85,103.189,41.196,103.189z M41.196,117.194c3.086,0,5.165-2.268,5.165-6.236c0-3.821-2.058-6.089-5.165-6.089
			c-3.086,0-5.165,2.268-5.165,6.089C36.031,114.926,38.11,117.194,41.196,117.194z"/>
		<path fill="#FFFFFF" d="M57.45,113.226h-3.422v5.417h-1.932V103.42h4.43c3.926,0,6.068,1.743,6.068,4.787
			c0,2.499-1.302,4.01-3.254,4.661l3.884,5.774h-2.226L57.45,113.226z M54.028,105.058v6.53h3.128c2.037,0,3.464-1.134,3.464-3.38
			c0-2.037-1.47-3.149-4.43-3.149H54.028z"/>
		<path fill="#FFFFFF" d="M74.271,114.233v4.409H72.34V103.42h4.493c3.968,0,6.383,1.806,6.383,5.27
			c0,3.611-2.415,5.543-6.383,5.543H74.271z M74.271,105.058v7.517h2.247c3.002,0,4.724-1.197,4.724-3.884
			c0-2.478-1.701-3.632-4.724-3.632H74.271z"/>
		<path fill="#FFFFFF" d="M86.725,103.42h9.742v1.638h-7.811v5.186h6.908v1.617h-6.908v5.144h7.895v1.638h-9.826V103.42z"/>
		<path fill="#FFFFFF" d="M106.547,103.189c4.346,0,7.16,3.023,7.16,7.769c0,4.871-2.813,7.916-7.16,7.916s-7.139-3.044-7.139-7.916
			C99.409,106.213,102.201,103.189,106.547,103.189z M106.547,117.194c3.086,0,5.165-2.268,5.165-6.236
			c0-3.821-2.058-6.089-5.165-6.089c-3.086,0-5.165,2.268-5.165,6.089C101.382,114.926,103.461,117.194,106.547,117.194z"/>
		<path fill="#FFFFFF" d="M119.379,114.233v4.409h-1.932V103.42h4.493c3.968,0,6.383,1.806,6.383,5.27
			c0,3.611-2.415,5.543-6.383,5.543H119.379z M119.379,105.058v7.517h2.247c3.002,0,4.724-1.197,4.724-3.884
			c0-2.478-1.701-3.632-4.724-3.632H119.379z"/>
		<path fill="#FFFFFF" d="M131.832,103.42h1.932v13.584h7.265v1.638h-9.196V103.42z"/>
		<path fill="#FFFFFF" d="M143.949,103.42h9.742v1.638h-7.811v5.186h6.907v1.617h-6.907v5.144h7.895v1.638h-9.826V103.42z"/>
		<path fill="#FFFFFF" d="M29.856,136.423l-3.464,12.22h-1.995l-4.451-15.223h2.058l3.443,12.787l3.527-12.787h1.806l3.569,12.745
			l3.401-12.745h2.016l-4.472,15.223h-1.995L29.856,136.423z"/>
		<path fill="#FFFFFF" d="M53.019,141.902h-8.545v6.74h-1.932V133.42h1.932v6.824h8.545v-6.824h1.932v15.223h-1.932V141.902z"/>
		<path fill="#FFFFFF" d="M65.83,133.189c4.346,0,7.16,3.023,7.16,7.769c0,4.871-2.813,7.915-7.16,7.915s-7.139-3.044-7.139-7.915
			C58.691,136.213,61.483,133.189,65.83,133.189z M65.83,147.193c3.086,0,5.165-2.268,5.165-6.235c0-3.821-2.058-6.089-5.165-6.089
			c-3.086,0-5.165,2.268-5.165,6.089C60.665,144.926,62.743,147.193,65.83,147.193z"/>
		<path fill="#FFFFFF" d="M82.294,133.42h1.932v8.777c0,3.506,1.47,4.996,4.094,4.996s4.073-1.49,4.073-4.996v-8.777h1.932v8.861
			c0,4.514-2.121,6.592-6.005,6.592s-6.026-2.078-6.026-6.592V133.42z"/>
		<path fill="#FFFFFF" d="M98.275,146.438c1.092,0.399,2.478,0.756,4.073,0.756c2.75,0,3.947-0.944,3.947-2.414
			c0-1.302-0.903-2.162-3.758-2.981c-3.296-0.924-4.619-2.331-4.619-4.409c0-2.373,2.037-4.199,5.459-4.199
			c1.533,0,3.044,0.294,4.283,0.756l-0.441,1.596c-1.092-0.378-2.247-0.672-3.758-0.672c-2.436,0-3.59,0.986-3.59,2.394
			c0,1.386,0.945,2.184,3.548,2.897c3.485,0.945,4.85,2.352,4.85,4.535c0,2.478-2.016,4.178-5.627,4.178
			c-1.911,0-3.569-0.336-4.829-0.818L98.275,146.438z"/>
		<path fill="#FFFFFF" d="M111.967,133.42h9.742v1.639h-7.811v5.186h6.908v1.617h-6.908v5.144h7.895v1.638h-9.826V133.42z"/>
		<path fill="#FFFFFF" d="M141.26,135.059h-4.871v13.584h-1.932v-13.584h-4.871v-1.639h11.674V135.059z"/>
		<path fill="#FFFFFF" d="M149.619,148.643h-1.932v-5.837l-5.711-9.386h2.226l4.493,7.58l4.451-7.58h2.184l-5.711,9.386V148.643z"/>
		<path fill="#FFFFFF" d="M159.931,144.233v4.409h-1.932V133.42h4.493c3.969,0,6.383,1.807,6.383,5.271
			c0,3.611-2.414,5.543-6.383,5.543H159.931z M159.931,135.059v7.516h2.247c3.002,0,4.724-1.196,4.724-3.884
			c0-2.478-1.7-3.632-4.724-3.632H159.931z"/>
		<path fill="#FFFFFF" d="M172.384,133.42h9.742v1.639h-7.811v5.186h6.907v1.617h-6.907v5.144h7.895v1.638h-9.826V133.42z"/>
		<path fill="#FFFFFF" d="M26.797,202.022h-2.291v6.62h-2.471v-6.62h-2.279v-2.075h7.04V202.022z"/>
		<path fill="#FFFFFF" d="M33.302,205.404h-2.987v3.238h-2.47v-8.695h2.47v3.346h2.987v-3.346h2.458v8.695h-2.458V205.404z"/>
		<path fill="#FFFFFF" d="M37.541,199.947h6.212v1.883h-3.742v1.668h3.274v1.631h-3.274v1.631h3.778v1.883h-6.249V199.947z"/>
		<path fill="#FFFFFF" d="M52.334,199.779c0.959,0,1.823,0.168,2.59,0.432l-0.456,1.883c-0.552-0.155-1.127-0.252-1.643-0.252
			c-1.343,0-2.279,0.816-2.279,2.447c0,1.654,0.936,2.459,2.279,2.459c0.54,0,1.103-0.096,1.667-0.252l0.456,1.895
			c-0.779,0.264-1.631,0.42-2.614,0.42c-2.675,0-4.366-1.667-4.366-4.521C47.969,201.459,49.66,199.779,52.334,199.779z"/>
		<path fill="#FFFFFF" d="M60.194,199.779c2.806,0,4.414,1.703,4.414,4.51c0,2.818-1.607,4.521-4.414,4.521
			c-2.818,0-4.414-1.703-4.414-4.521C55.781,201.482,57.376,199.779,60.194,199.779z M60.194,206.976
			c1.115,0,1.859-0.852,1.859-2.687c0-1.823-0.744-2.675-1.859-2.675c-1.127,0-1.859,0.852-1.859,2.675
			C58.335,206.124,59.067,206.976,60.194,206.976z"/>
		<path fill="#FFFFFF" d="M70.082,199.779c2.806,0,4.414,1.703,4.414,4.51c0,2.818-1.607,4.521-4.414,4.521
			c-2.818,0-4.414-1.703-4.414-4.521C65.668,201.482,67.264,199.779,70.082,199.779z M70.082,206.976
			c1.115,0,1.859-0.852,1.859-2.687c0-1.823-0.744-2.675-1.859-2.675c-1.127,0-1.859,0.852-1.859,2.675
			C68.223,206.124,68.955,206.976,70.082,206.976z"/>
		<path fill="#FFFFFF" d="M78.386,206.556v2.087h-2.47v-8.695h3.55c2.291,0,3.622,1.188,3.622,3.274
			c0,2.122-1.331,3.334-3.622,3.334H78.386z M78.386,201.734v3.034h0.54c1.079,0,1.607-0.407,1.607-1.547
			c0-1.079-0.516-1.487-1.607-1.487H78.386z"/>
		<path fill="#FFFFFF" d="M84.34,199.947h6.212v1.883H86.81v1.668h3.274v1.631H86.81v1.631h3.778v1.883H84.34V199.947z"/>
		<path fill="#FFFFFF" d="M95.282,205.956h-0.768v2.687h-2.47v-8.695h3.526c2.279,0,3.538,1.104,3.538,2.986
			c0,1.283-0.54,2.135-1.535,2.603l1.943,3.106h-2.818L95.282,205.956z M94.514,201.687v2.53h0.708c0.899,0,1.343-0.359,1.343-1.283
			c0-0.887-0.48-1.247-1.523-1.247H94.514z"/>
		<path fill="#FFFFFF" d="M103.624,199.947h2.459v4.857c0,1.428,0.503,1.979,1.451,1.979c0.947,0,1.451-0.551,1.451-1.979v-4.857
			h2.458v5.157c0,2.411-1.367,3.706-3.91,3.706c-2.543,0-3.91-1.295-3.91-3.706V199.947z"/>
		<path fill="#FFFFFF" d="M118.621,199.947h2.447v8.695h-1.991l-3.466-4.629v4.629h-2.458v-8.695h2.003l3.466,4.629V199.947z"/>
		<path fill="#FFFFFF" d="M122.848,199.947h2.471v8.695h-2.471V199.947z"/>
		<path fill="#FFFFFF" d="M131.149,199.779c2.806,0,4.413,1.703,4.413,4.51c0,2.818-1.607,4.521-4.413,4.521
			c-2.818,0-4.413-1.703-4.413-4.521C126.736,201.482,128.331,199.779,131.149,199.779z M131.149,206.976
			c1.115,0,1.858-0.852,1.858-2.687c0-1.823-0.743-2.675-1.858-2.675c-1.128,0-1.858,0.852-1.858,2.675
			C129.291,206.124,130.021,206.976,131.149,206.976z"/>
		<path fill="#FFFFFF" d="M142.452,199.947h2.446v8.695h-1.99l-3.467-4.629v4.629h-2.458v-8.695h2.003l3.466,4.629V199.947z"/>
		<path fill="#FFFFFF" d="M151.777,199.348h2.075l-2.998,11.094h-2.075L151.777,199.348z"/>
		<path fill="#FFFFFF" d="M157.155,206.771c0.228,0.048,0.503,0.096,0.72,0.096c0.6,0,0.911-0.239,0.911-0.982v-5.938h2.471v6.021
			c0,1.93-0.78,2.842-2.675,2.842c-0.611,0-1.26-0.107-1.691-0.24L157.155,206.771z"/>
		<path fill="#FFFFFF" d="M162.879,199.947h2.459v4.857c0,1.428,0.503,1.979,1.451,1.979c0.947,0,1.451-0.551,1.451-1.979v-4.857
			h2.458v5.157c0,2.411-1.367,3.706-3.909,3.706c-2.543,0-3.91-1.295-3.91-3.706V199.947z"/>
		<path fill="#FFFFFF" d="M177.875,199.947h2.447v8.695h-1.99l-3.467-4.629v4.629h-2.459v-8.695h2.004l3.465,4.629V199.947z"/>
		<path fill="#FFFFFF" d="M182.103,199.947h6.212v1.883h-3.742v1.668h3.275v1.631h-3.275v1.631h3.779v1.883h-6.249V199.947z"/>
		<path fill="#FFFFFF" d="M194.078,208.643v-6.213l-1.295,0.516l-0.696-1.811l2.435-1.188h2.016v8.695H194.078z"/>
		<path fill="#FFFFFF" d="M198.23,208.643v-1.691l2.723-2.254c0.924-0.756,1.295-1.188,1.295-1.752c0-0.695-0.504-1.104-1.512-1.104
			c-0.695,0-1.475,0.205-2.014,0.444l-0.553-1.858c0.756-0.324,1.836-0.648,3.059-0.648c2.255,0,3.502,1.235,3.502,2.83
			c0,1.152-0.527,2.016-1.666,2.927l-1.368,1.104h3.263v2.003H198.23z"/>
		<path fill="#FFFFFF" d="M209.114,204.121h3.729v1.931h-3.729V204.121z"/>
		<path fill="#FFFFFF" d="M216.891,208.643v-1.691l2.723-2.254c0.923-0.756,1.295-1.188,1.295-1.752
			c0-0.695-0.504-1.104-1.512-1.104c-0.695,0-1.475,0.205-2.015,0.444l-0.552-1.858c0.756-0.324,1.835-0.648,3.059-0.648
			c2.254,0,3.502,1.235,3.502,2.83c0,1.152-0.527,2.016-1.668,2.927l-1.367,1.104h3.263v2.003H216.891z"/>
		<path fill="#FFFFFF" d="M224.63,208.643v-1.691l2.722-2.254c0.924-0.756,1.296-1.188,1.296-1.752c0-0.695-0.503-1.104-1.511-1.104
			c-0.695,0-1.476,0.205-2.016,0.444l-0.551-1.858c0.755-0.324,1.834-0.648,3.058-0.648c2.255,0,3.503,1.235,3.503,2.83
			c0,1.152-0.528,2.016-1.668,2.927l-1.367,1.104h3.262v2.003H224.63z"/>
	</g>
	<line fill="none" stroke="#FFFFFF" stroke-width="2" stroke-miterlimit="10" x1="19.589" y1="172.365" x2="230.5" y2="172.365"/>
</g>
</svg>
