<?xml version="1.0" encoding="utf-8"?>
<!-- Generator: Adobe Illustrator 16.0.0, SVG Export Plug-In . SVG Version: 6.00 Build 0)  -->
<!DOCTYPE svg PUBLIC "-//W3C//DTD SVG 1.1//EN" "http://www.w3.org/Graphics/SVG/1.1/DTD/svg11.dtd">

<svg version="1.1" xmlns="http://www.w3.org/2000/svg" xmlns:xlink="http://www.w3.org/1999/xlink" x="0px" y="0px" width="250px"
	 height="250px" viewBox="0 0 250 250" enable-background="new 0 0 250 250" xml:space="preserve">
<style>
@keyframes slide {
  0% {
    transform: translate(0px, 0px);
  }
	25% {
    transform: translate(0px, 0px);
  }
	40% {
    transform: translate(4.3px, 0px);
  }
	85% {
    transform: translate(4.3px, 0px);
  }
  100% {
    transform: translate(0px, 0px);
  }
}
@keyframes slide2 {
  0% {
    transform: translate(0px, 0px);
  }
	50% {
    transform: translate(0px, 0px);
  }
	65% {
    transform: translate(3.5px, 0px);
  }
  85% {
    transform: translate(3.5px, 0px);
  }
	100% {
		transform: translate(0px, 0px);
	}
}
@keyframes appear {
  0% {
    opacity:0
  }
	50% {
    opacity:0
  }
	65% {
    opacity:1
  }
	85% {
    opacity:1
  }
  100% {
    opacity:0
  }
}
#Layer_4{
  opacity:0;
	-webkit-animation: appear 10s cubic-bezier(0.670, 0.005, 0.200, 1.000) infinite;
	-webkit-animation-fill-mode: forwards;
}
#Layer_1{
  -webkit-animation: slide 10s cubic-bezier(0.670, 0.005, 0.200, 1.000) infinite;
  -webkit-animation-fill-mode: forwards;
}
#lines2{
-webkit-animation: slide2 10s cubic-bezier(0.670, 0.005, 0.200, 1.000) infinite;
-webkit-animation-fill-mode: forwards;
anim
}
</style>
<rect width="100%" height="100%" fill="white"/>


<g id="Layer_1" x="0" y="0">
	<path id="lines" d="M-192.588,392.857l-3.273-0.877l155.265-579.458l3.273,0.877L-192.588,392.857z M-30.775-184.847l-3.273-0.877
		l-155.265,579.458l3.273,0.877L-30.775-184.847z M-24.229-183.093l-3.273-0.877l-155.265,579.458l3.273,0.877L-24.229-183.093z
		 M-17.681-181.338l-3.274-0.878L-176.22,397.242l3.273,0.877L-17.681-181.338z M-11.135-179.584l-3.273-0.877l-155.266,579.457
		l3.274,0.877L-11.135-179.584z M-4.588-177.83l-3.273-0.877l-155.265,579.459l3.274,0.877L-4.588-177.83z M1.959-176.076
		l-3.274-0.877L-156.58,402.506l3.274,0.877L1.959-176.076z M8.506-174.321l-3.273-0.877L-150.033,404.26l3.274,0.877L8.506-174.321
		z M15.053-172.567l-3.273-0.877l-155.265,579.458l3.273,0.877L15.053-172.567z M21.6-170.813l-3.274-0.877l-155.265,579.458
		l3.273,0.877L21.6-170.813z M28.147-169.059l-3.273-0.877l-155.265,579.459l3.273,0.877L28.147-169.059z M34.693-167.305
		l-3.273-0.877l-155.265,579.459l3.273,0.877L34.693-167.305z M41.241-165.55l-3.274-0.877l-155.265,579.458l3.274,0.877
		L41.241-165.55z M47.788-163.796l-3.273-0.877l-155.266,579.458l3.274,0.877L47.788-163.796z M54.334-162.042l-3.273-0.877
		l-155.266,579.458l3.274,0.877L54.334-162.042z M60.881-160.287l-3.274-0.878L-97.657,418.293l3.273,0.877L60.881-160.287z
		 M67.428-158.533l-3.273-0.877L-91.11,420.047l3.273,0.877L67.428-158.533z M73.975-156.779l-3.273-0.877L-84.563,421.801
		l3.273,0.879L73.975-156.779z M80.522-155.025l-3.273-0.877L-78.016,423.557l3.273,0.877L80.522-155.025z M87.069-153.271
		l-3.273-0.877L-71.47,425.311l3.274,0.877L87.069-153.271z M93.616-151.516l-3.273-0.877L-64.923,427.064l3.274,0.877
		L93.616-151.516z M100.163-149.762l-3.273-0.877L-58.376,428.818l3.274,0.879L100.163-149.762z M106.709-148.008l-3.273-0.877
		L-51.829,430.574l3.273,0.877L106.709-148.008z M113.256-146.253l-3.273-0.878L-45.282,432.328l3.273,0.877L113.256-146.253z
		 M119.804-144.499l-3.274-0.877L-38.735,434.082l3.273,0.877L119.804-144.499z M126.351-142.745l-3.273-0.877L-32.188,435.836
		l3.273,0.877L126.351-142.745z M132.897-140.991l-3.273-0.877L-25.641,437.59l3.273,0.877L132.897-140.991z M139.444-139.237
		l-3.273-0.877L-19.095,439.344l3.274,0.877L139.444-139.237z M145.991-137.482l-3.273-0.877L-12.548,441.098l3.274,0.879
		L145.991-137.482z M152.538-135.728l-3.273-0.877L-6.001,442.854l3.274,0.877L152.538-135.728z M159.085-133.974l-3.273-0.877
		L0.546,444.607l3.273,0.877L159.085-133.974z M165.632-132.219l-3.273-0.878L7.093,446.361l3.273,0.877L165.632-132.219z
		 M172.179-130.465l-3.273-0.877L13.64,448.115l3.273,0.877L172.179-130.465z M178.726-128.711l-3.273-0.877L20.187,449.869
		l3.273,0.877L178.726-128.711z M185.272-126.957l-3.273-0.877L26.733,451.625l3.274,0.877L185.272-126.957z M191.819-125.203
		l-3.273-0.877L33.28,453.379l3.274,0.877L191.819-125.203z M198.366-123.448l-3.273-0.878L39.827,455.133l3.274,0.877
		L198.366-123.448z M204.913-121.694l-3.273-0.877L46.375,456.887l3.273,0.877L204.913-121.694z M211.46-119.94l-3.273-0.877
		L52.921,458.641l3.273,0.877L211.46-119.94z M218.007-118.186l-3.273-0.877L59.468,460.395l3.273,0.877L218.007-118.186z
		 M224.554-116.431l-3.272-0.877L66.015,462.15l3.273,0.877L224.554-116.431z M231.1-114.677l-3.272-0.877L72.562,463.904
		l3.274,0.877L231.1-114.677z M237.647-112.923l-3.273-0.877L79.108,465.658l3.274,0.877L237.647-112.923z M244.194-111.169
		l-3.273-0.877L85.656,467.412l3.274,0.877L244.194-111.169z M250.741-109.415l-3.273-0.878L92.203,469.166l3.273,0.877
		L250.741-109.415z M257.288-107.661l-3.273-0.877L98.75,470.92l3.273,0.877L257.288-107.661z M263.835-105.906l-3.273-0.877
		L105.296,472.676l3.273,0.877L263.835-105.906z M270.382-104.152l-3.272-0.877L111.844,474.43l3.273,0.877L270.382-104.152z
		 M276.929-102.397l-3.273-0.877L118.391,476.184l3.272,0.877L276.929-102.397z M283.477-100.644l-3.274-0.877L124.937,477.938
		l3.274,0.877L283.477-100.644z M290.022-98.89l-3.273-0.877L131.483,479.691l3.274,0.877L290.022-98.89z M296.57-97.135
		l-3.274-0.877L138.031,481.447l3.273,0.877L296.57-97.135z M303.116-95.38l-3.273-0.878L144.578,483.201l3.272,0.877L303.116-95.38
		z M309.663-93.626l-3.273-0.877L151.125,484.955l3.272,0.877L309.663-93.626z M316.21-91.873l-3.272-0.877L157.672,486.709
		l3.273,0.877L316.21-91.873z M322.758-90.119l-3.274-0.877L164.219,488.463l3.273,0.877L322.758-90.119z M329.305-88.364
		l-3.274-0.877L170.765,490.217l3.274,0.877L329.305-88.364z M335.851-86.609l-3.273-0.877L177.312,491.971l3.273,0.877
		L335.851-86.609z M342.398-84.855l-3.274-0.877L183.859,493.725l3.273,0.879L342.398-84.855z M348.944-83.102l-3.272-0.877
		L190.406,495.48l3.273,0.877L348.944-83.102z M355.491-81.347l-3.273-0.878L196.953,497.234l3.272,0.877L355.491-81.347z
		 M362.038-79.593l-3.272-0.877L203.5,498.988l3.273,0.877L362.038-79.593z M368.586-77.838l-3.274-0.877L210.047,500.742
		l3.272,0.879L368.586-77.838z M375.133-76.084l-3.274-0.877L216.593,502.498l3.274,0.877L375.133-76.084z M381.679-74.33
		l-3.273-0.878L223.141,504.252l3.273,0.877L381.679-74.33z M388.227-72.576l-3.273-0.877L229.687,506.006l3.275,0.877
		L388.227-72.576z M394.772-70.822l-3.272-0.877L236.234,507.76l3.273,0.877L394.772-70.822z M401.319-69.067l-3.273-0.877
		L242.781,509.514l3.272,0.877L401.319-69.067z M407.867-67.313l-3.273-0.877L249.329,511.268l3.272,0.877L407.867-67.313z
		 M414.414-65.559l-3.274-0.877L255.875,513.021l3.273,0.877L414.414-65.559z M420.961-63.805l-3.273-0.877L262.423,514.775
		l3.273,0.879L420.961-63.805z M427.507-62.051l-3.272-0.877L268.969,516.531l3.273,0.877L427.507-62.051z M434.055-60.296
		l-3.273-0.877L275.516,518.285l3.274,0.877L434.055-60.296z M440.601-58.542l-3.272-0.877L282.062,520.039l3.273,0.877
		L440.601-58.542z M447.148-56.788l-3.274-0.877L288.609,521.793l3.272,0.877L447.148-56.788z M453.695-55.034l-3.273-0.877
		L295.157,523.549l3.272,0.877L453.695-55.034z M460.242-53.28l-3.274-0.877L301.703,525.303l3.273,0.877L460.242-53.28z
		 M466.789-51.525l-3.273-0.877L308.251,527.057l3.273,0.877L466.789-51.525z"/>
	<path id="lines2" d="M-192.588,392.857l-3.273-0.877l155.265-579.458l3.273,0.877L-192.588,392.857z M-30.775-184.847l-3.273-0.877
		l-155.265,579.458l3.273,0.877L-30.775-184.847z M-24.229-183.093l-3.273-0.877l-155.265,579.458l3.273,0.877L-24.229-183.093z
		 M-17.681-181.338l-3.274-0.878L-176.22,397.242l3.273,0.877L-17.681-181.338z M-11.135-179.584l-3.273-0.877l-155.266,579.457
		l3.274,0.877L-11.135-179.584z M-4.588-177.83l-3.273-0.877l-155.265,579.459l3.274,0.877L-4.588-177.83z M1.959-176.076
		l-3.274-0.877L-156.58,402.506l3.274,0.877L1.959-176.076z M8.506-174.321l-3.273-0.877L-150.033,404.26l3.274,0.877L8.506-174.321
		z M15.053-172.567l-3.273-0.877l-155.265,579.458l3.273,0.877L15.053-172.567z M21.6-170.813l-3.274-0.877l-155.265,579.458
		l3.273,0.877L21.6-170.813z M28.147-169.059l-3.273-0.877l-155.265,579.459l3.273,0.877L28.147-169.059z M34.693-167.305
		l-3.273-0.877l-155.265,579.459l3.273,0.877L34.693-167.305z M41.241-165.55l-3.274-0.877l-155.265,579.458l3.274,0.877
		L41.241-165.55z M47.788-163.796l-3.273-0.877l-155.266,579.458l3.274,0.877L47.788-163.796z M54.334-162.042l-3.273-0.877
		l-155.266,579.458l3.274,0.877L54.334-162.042z M60.881-160.287l-3.274-0.878L-97.657,418.293l3.273,0.877L60.881-160.287z
		 M67.428-158.533l-3.273-0.877L-91.11,420.047l3.273,0.877L67.428-158.533z M73.975-156.779l-3.273-0.877L-84.563,421.801
		l3.273,0.879L73.975-156.779z M80.522-155.025l-3.273-0.877L-78.016,423.557l3.273,0.877L80.522-155.025z M87.069-153.271
		l-3.273-0.877L-71.47,425.311l3.274,0.877L87.069-153.271z M93.616-151.516l-3.273-0.877L-64.923,427.064l3.274,0.877
		L93.616-151.516z M100.163-149.762l-3.273-0.877L-58.376,428.818l3.274,0.879L100.163-149.762z M106.709-148.008l-3.273-0.877
		L-51.829,430.574l3.273,0.877L106.709-148.008z M113.256-146.253l-3.273-0.878L-45.282,432.328l3.273,0.877L113.256-146.253z
		 M119.804-144.499l-3.274-0.877L-38.735,434.082l3.273,0.877L119.804-144.499z M126.351-142.745l-3.273-0.877L-32.188,435.836
		l3.273,0.877L126.351-142.745z M132.897-140.991l-3.273-0.877L-25.641,437.59l3.273,0.877L132.897-140.991z M139.444-139.237
		l-3.273-0.877L-19.095,439.344l3.274,0.877L139.444-139.237z M145.991-137.482l-3.273-0.877L-12.548,441.098l3.274,0.879
		L145.991-137.482z M152.538-135.728l-3.273-0.877L-6.001,442.854l3.274,0.877L152.538-135.728z M159.085-133.974l-3.273-0.877
		L0.546,444.607l3.273,0.877L159.085-133.974z M165.632-132.219l-3.273-0.878L7.093,446.361l3.273,0.877L165.632-132.219z
		 M172.179-130.465l-3.273-0.877L13.64,448.115l3.273,0.877L172.179-130.465z M178.726-128.711l-3.273-0.877L20.187,449.869
		l3.273,0.877L178.726-128.711z M185.272-126.957l-3.273-0.877L26.733,451.625l3.274,0.877L185.272-126.957z M191.819-125.203
		l-3.273-0.877L33.28,453.379l3.274,0.877L191.819-125.203z M198.366-123.448l-3.273-0.878L39.827,455.133l3.274,0.877
		L198.366-123.448z M204.913-121.694l-3.273-0.877L46.375,456.887l3.273,0.877L204.913-121.694z M211.46-119.94l-3.273-0.877
		L52.921,458.641l3.273,0.877L211.46-119.94z M218.007-118.186l-3.273-0.877L59.468,460.395l3.273,0.877L218.007-118.186z
		 M224.554-116.431l-3.272-0.877L66.015,462.15l3.273,0.877L224.554-116.431z M231.1-114.677l-3.272-0.877L72.562,463.904
		l3.274,0.877L231.1-114.677z M237.647-112.923l-3.273-0.877L79.108,465.658l3.274,0.877L237.647-112.923z M244.194-111.169
		l-3.273-0.877L85.656,467.412l3.274,0.877L244.194-111.169z M250.741-109.415l-3.273-0.878L92.203,469.166l3.273,0.877
		L250.741-109.415z M257.288-107.661l-3.273-0.877L98.75,470.92l3.273,0.877L257.288-107.661z M263.835-105.906l-3.273-0.877
		L105.296,472.676l3.273,0.877L263.835-105.906z M270.382-104.152l-3.272-0.877L111.844,474.43l3.273,0.877L270.382-104.152z
		 M276.929-102.397l-3.273-0.877L118.391,476.184l3.272,0.877L276.929-102.397z M283.477-100.644l-3.274-0.877L124.937,477.938
		l3.274,0.877L283.477-100.644z M290.022-98.89l-3.273-0.877L131.483,479.691l3.274,0.877L290.022-98.89z M296.57-97.135
		l-3.274-0.877L138.031,481.447l3.273,0.877L296.57-97.135z M303.116-95.38l-3.273-0.878L144.578,483.201l3.272,0.877L303.116-95.38
		z M309.663-93.626l-3.273-0.877L151.125,484.955l3.272,0.877L309.663-93.626z M316.21-91.873l-3.272-0.877L157.672,486.709
		l3.273,0.877L316.21-91.873z M322.758-90.119l-3.274-0.877L164.219,488.463l3.273,0.877L322.758-90.119z M329.305-88.364
		l-3.274-0.877L170.765,490.217l3.274,0.877L329.305-88.364z M335.851-86.609l-3.273-0.877L177.312,491.971l3.273,0.877
		L335.851-86.609z M342.398-84.855l-3.274-0.877L183.859,493.725l3.273,0.879L342.398-84.855z M348.944-83.102l-3.272-0.877
		L190.406,495.48l3.273,0.877L348.944-83.102z M355.491-81.347l-3.273-0.878L196.953,497.234l3.272,0.877L355.491-81.347z
		 M362.038-79.593l-3.272-0.877L203.5,498.988l3.273,0.877L362.038-79.593z M368.586-77.838l-3.274-0.877L210.047,500.742
		l3.272,0.879L368.586-77.838z M375.133-76.084l-3.274-0.877L216.593,502.498l3.274,0.877L375.133-76.084z M381.679-74.33
		l-3.273-0.878L223.141,504.252l3.273,0.877L381.679-74.33z M388.227-72.576l-3.273-0.877L229.687,506.006l3.275,0.877
		L388.227-72.576z M394.772-70.822l-3.272-0.877L236.234,507.76l3.273,0.877L394.772-70.822z M401.319-69.067l-3.273-0.877
		L242.781,509.514l3.272,0.877L401.319-69.067z M407.867-67.313l-3.273-0.877L249.329,511.268l3.272,0.877L407.867-67.313z
		 M414.414-65.559l-3.274-0.877L255.875,513.021l3.273,0.877L414.414-65.559z M420.961-63.805l-3.273-0.877L262.423,514.775
		l3.273,0.879L420.961-63.805z M427.507-62.051l-3.272-0.877L268.969,516.531l3.273,0.877L427.507-62.051z M434.055-60.296
		l-3.273-0.877L275.516,518.285l3.274,0.877L434.055-60.296z M440.601-58.542l-3.272-0.877L282.062,520.039l3.273,0.877
		L440.601-58.542z M447.148-56.788l-3.274-0.877L288.609,521.793l3.272,0.877L447.148-56.788z M453.695-55.034l-3.273-0.877
		L295.157,523.549l3.272,0.877L453.695-55.034z M460.242-53.28l-3.274-0.877L301.703,525.303l3.273,0.877L460.242-53.28z
		 M466.789-51.525l-3.273-0.877L308.251,527.057l3.273,0.877L466.789-51.525z"/>
</g>
<g id="Layer_2_copy">
	<g id="obsess_1_">
		<defs>
			<path id="SVGID_1_" d="M-210.122,392.857l-3.273-0.877L-58.13-187.478l3.273,0.877L-210.122,392.857z M-48.31-184.847
				l-3.273-0.877l-155.265,579.458l3.273,0.877L-48.31-184.847z M-41.763-183.093l-3.273-0.877l-155.265,579.458l3.273,0.877
				L-41.763-183.093z M-35.215-181.338l-3.274-0.878l-155.265,579.458l3.273,0.877L-35.215-181.338z M-28.669-179.584l-3.273-0.877
				l-155.266,579.457l3.274,0.877L-28.669-179.584z M-22.122-177.83l-3.273-0.877l-155.265,579.459l3.274,0.877L-22.122-177.83z
				 M-15.575-176.076l-3.274-0.877l-155.265,579.459l3.274,0.877L-15.575-176.076z M-9.028-174.321l-3.273-0.877L-167.567,404.26
				l3.274,0.877L-9.028-174.321z M-2.481-172.567l-3.273-0.877L-161.02,406.014l3.273,0.877L-2.481-172.567z M4.066-170.813
				l-3.274-0.877l-155.265,579.458l3.273,0.877L4.066-170.813z M10.613-169.059l-3.273-0.877l-155.265,579.459l3.273,0.877
				L10.613-169.059z M17.159-167.305l-3.273-0.877l-155.265,579.459l3.273,0.877L17.159-167.305z M23.707-165.55l-3.274-0.877
				l-155.265,579.458l3.274,0.877L23.707-165.55z M30.253-163.796l-3.273-0.877l-155.266,579.458l3.274,0.877L30.253-163.796z
				 M36.8-162.042l-3.273-0.877l-155.266,579.458l3.274,0.877L36.8-162.042z M43.347-160.287l-3.274-0.878l-155.265,579.458
				l3.273,0.877L43.347-160.287z M49.894-158.533l-3.273-0.877l-155.265,579.457l3.273,0.877L49.894-158.533z M56.441-156.779
				l-3.273-0.877l-155.265,579.457l3.273,0.879L56.441-156.779z M62.988-155.025l-3.273-0.877L-95.55,423.557l3.273,0.877
				L62.988-155.025z M69.535-153.271l-3.273-0.877L-89.004,425.311l3.274,0.877L69.535-153.271z M76.082-151.516l-3.273-0.877
				L-82.458,427.064l3.274,0.877L76.082-151.516z M82.628-149.762l-3.273-0.877L-75.91,428.818l3.274,0.879L82.628-149.762z
				 M89.175-148.008l-3.273-0.877L-69.363,430.574l3.273,0.877L89.175-148.008z M95.722-146.253l-3.273-0.878L-62.816,432.328
				l3.273,0.877L95.722-146.253z M102.269-144.499l-3.273-0.877L-56.27,434.082l3.273,0.877L102.269-144.499z M108.816-142.745
				l-3.274-0.877L-49.722,435.836l3.273,0.877L108.816-142.745z M115.363-140.991l-3.273-0.877L-43.175,437.59l3.273,0.877
				L115.363-140.991z M121.91-139.237l-3.274-0.877L-36.629,439.344l3.274,0.877L121.91-139.237z M128.457-137.482l-3.273-0.877
				L-30.082,441.098l3.274,0.879L128.457-137.482z M135.004-135.728l-3.273-0.877L-23.535,442.854l3.274,0.877L135.004-135.728z
				 M141.551-133.974l-3.273-0.877L-16.988,444.607l3.273,0.877L141.551-133.974z M148.098-132.219l-3.273-0.878L-10.441,446.361
				l3.273,0.877L148.098-132.219z M154.645-130.465l-3.273-0.877L-3.894,448.115l3.273,0.877L154.645-130.465z M161.191-128.711
				l-3.273-0.877L2.653,449.869l3.273,0.877L161.191-128.711z M167.738-126.957l-3.273-0.877L9.199,451.625l3.274,0.877
				L167.738-126.957z M174.285-125.203l-3.273-0.877L15.746,453.379l3.274,0.877L174.285-125.203z M180.832-123.448l-3.273-0.878
				L22.293,455.133l3.274,0.877L180.832-123.448z M187.379-121.694l-3.273-0.877L28.84,456.887l3.273,0.877L187.379-121.694z
				 M193.926-119.94l-3.273-0.877L35.387,458.641l3.273,0.877L193.926-119.94z M200.473-118.186l-3.273-0.877L41.934,460.395
				l3.273,0.877L200.473-118.186z M207.02-116.431l-3.272-0.877L48.481,462.15l3.273,0.877L207.02-116.431z M213.565-114.677
				l-3.272-0.877L55.027,463.904l3.274,0.877L213.565-114.677z M220.113-112.923l-3.273-0.877L61.574,465.658l3.274,0.877
				L220.113-112.923z M226.66-111.169l-3.273-0.877L68.122,467.412l3.274,0.877L226.66-111.169z M233.207-109.415l-3.273-0.878
				L74.668,469.166l3.273,0.877L233.207-109.415z M239.754-107.661l-3.273-0.877L81.215,470.92l3.273,0.877L239.754-107.661z
				 M246.301-105.906l-3.273-0.877L87.762,472.676l3.273,0.877L246.301-105.906z M252.848-104.152l-3.272-0.877L94.31,474.43
				l3.273,0.877L252.848-104.152z M259.395-102.397l-3.273-0.877L100.856,476.184l3.273,0.877L259.395-102.397z M265.942-100.644
				l-3.274-0.877L107.403,477.938l3.274,0.877L265.942-100.644z M272.488-98.89l-3.273-0.877L113.95,479.691l3.274,0.877
				L272.488-98.89z M279.036-97.135l-3.274-0.877L120.497,481.447l3.273,0.877L279.036-97.135z M285.582-95.38l-3.273-0.878
				L127.044,483.201l3.272,0.877L285.582-95.38z M292.129-93.626l-3.273-0.877L133.591,484.955l3.272,0.877L292.129-93.626z
				 M298.676-91.873l-3.272-0.877L140.138,486.709l3.273,0.877L298.676-91.873z M305.224-90.119l-3.274-0.877L146.685,488.463
				l3.273,0.877L305.224-90.119z M311.771-88.364l-3.274-0.877L153.23,490.217l3.274,0.877L311.771-88.364z M318.316-86.609
				l-3.273-0.877L159.778,491.971l3.273,0.877L318.316-86.609z M324.864-84.855l-3.274-0.877L166.325,493.725l3.273,0.879
				L324.864-84.855z M331.41-83.102l-3.272-0.877L172.872,495.48l3.273,0.877L331.41-83.102z M337.957-81.347l-3.273-0.878
				L179.419,497.234l3.272,0.877L337.957-81.347z M344.504-79.593l-3.272-0.877L185.966,498.988l3.273,0.877L344.504-79.593z
				 M351.052-77.838l-3.274-0.877L192.513,500.742l3.272,0.879L351.052-77.838z M357.599-76.084l-3.274-0.877L199.059,502.498
				l3.274,0.877L357.599-76.084z M364.145-74.33l-3.273-0.878L205.606,504.252l3.273,0.877L364.145-74.33z M370.692-72.576
				l-3.273-0.877L212.152,506.006l3.275,0.877L370.692-72.576z M377.238-70.822l-3.272-0.877L218.7,507.76l3.273,0.877
				L377.238-70.822z M383.785-69.067l-3.273-0.877L225.247,509.514l3.272,0.877L383.785-69.067z M390.333-67.313l-3.273-0.877
				L231.795,511.268l3.272,0.877L390.333-67.313z M396.88-65.559l-3.274-0.877L238.341,513.021l3.273,0.877L396.88-65.559z
				 M403.427-63.805l-3.273-0.877L244.889,514.775l3.273,0.879L403.427-63.805z M409.973-62.051l-3.272-0.877L251.435,516.531
				l3.273,0.877L409.973-62.051z M416.521-60.296l-3.273-0.877L257.981,518.285l3.274,0.877L416.521-60.296z M423.066-58.542
				l-3.272-0.877L264.528,520.039l3.273,0.877L423.066-58.542z M429.614-56.788l-3.274-0.877L271.075,521.793l3.272,0.877
				L429.614-56.788z M436.161-55.034l-3.273-0.877L277.623,523.549l3.272,0.877L436.161-55.034z M442.708-53.28l-3.274-0.877
				L284.169,525.303l3.273,0.877L442.708-53.28z M449.255-51.525l-3.273-0.877L290.717,527.057l3.273,0.877L449.255-51.525z"/>
		</defs>
		<clipPath id="SVGID_2_">
			<use xlink:href="#SVGID_1_"  overflow="visible"/>
		</clipPath>
		<g clip-path="url(#SVGID_2_)">
			<rect x="15.589" y="48.485" fill="none" width="222.644" height="200.515"/>
			<path d="M16.549,96.967V72.009c0-15.935,9.599-24.958,25.918-24.958h1.536c16.319,0,25.918,9.023,25.918,24.958v24.958
				c0,15.935-9.599,24.958-25.918,24.958h-1.536C26.148,121.925,16.549,112.902,16.549,96.967z M44.195,99.079V69.897h-1.92v29.182
				H44.195z"/>
			<path d="M71.844,48.491h30.334c14.207,0,23.998,6.144,23.998,19.006v1.536c0,6.815-3.36,12.671-10.559,14.495
				c6.815,2.016,11.519,7.392,11.519,16.223v1.536c0,12.863-9.792,19.199-23.999,19.199H71.844V48.491z M103.81,73.257v-1.92H92.29
				v1.92H103.81z M104.77,97.639v-1.92H92.29v1.92H104.77z"/>
			<path d="M128.1,94.567v-3.36h12.575v-0.96c-7.968-3.072-13.056-10.271-13.056-20.351c0-14.399,11.136-22.846,28.127-22.846
				c17.854,0,27.166,10.079,27.166,25.438v5.28h-12.096v0.96c7.775,2.976,12.574,11.039,12.574,20.158
				c0,14.783-10.942,23.039-26.781,23.039C137.986,121.925,128.1,113.094,128.1,94.567z M161.025,73.257v-1.92h-11.52v1.92H161.025z
				 M161.025,97.639v-1.92h-11.52v1.92H161.025z"/>
			<path d="M184.834,73.641h32.734v21.599h-32.734V73.641z"/>
			<path d="M16.549,172.567v-3.36h12.575v-0.959c-7.968-3.072-13.055-10.271-13.055-20.352c0-14.398,11.135-22.846,28.126-22.846
				c17.854,0,27.166,10.079,27.166,25.438v5.28H59.266v0.96c7.775,2.976,12.575,11.039,12.575,20.158
				c0,14.783-10.943,23.038-26.782,23.038C26.436,199.925,16.549,191.094,16.549,172.567z M49.475,151.257v-1.92h-11.52v1.92H49.475
				z M49.475,175.639v-1.92h-11.52v1.92H49.475z"/>
			<path d="M96.13,149.337v1.92h24.574v22.462H96.13v1.92h24.574v22.847h-47.42V126.49h47.42v22.847H96.13z"/>
			<path d="M122.627,172.567v-3.36h12.575v-0.959c-7.968-3.072-13.055-10.271-13.055-20.352c0-14.398,11.135-22.846,28.126-22.846
				c17.854,0,27.166,10.079,27.166,25.438v5.28h-12.096v0.96c7.775,2.976,12.575,11.039,12.575,20.158
				c0,14.783-10.943,23.038-26.782,23.038C132.514,199.925,122.627,191.094,122.627,172.567z M155.553,151.257v-1.92h-11.52v1.92
				H155.553z M155.553,175.639v-1.92h-11.52v1.92H155.553z"/>
			<path d="M179.361,172.567v-3.36h12.576v-0.959c-7.969-3.072-13.056-10.271-13.056-20.352c0-14.398,11.136-22.846,28.126-22.846
				c17.855,0,27.166,10.079,27.166,25.438v5.28h-12.096v0.96c7.775,2.976,12.576,11.039,12.576,20.158
				c0,14.783-10.943,23.038-26.783,23.038C189.25,199.925,179.361,191.094,179.361,172.567z M212.287,151.257v-1.92h-11.52v1.92
				H212.287z M212.287,175.639v-1.92h-11.52v1.92H212.287z"/>
		</g>
	</g>
</g>
<g id="Layer_2_copy_2">
	<g id="indulge">
		<defs>
			<path id="SVGID_3_" d="M-205.802,392.857l-3.273-0.877L-53.81-187.478l3.273,0.877L-205.802,392.857z M-43.989-184.847
				l-3.273-0.877l-155.265,579.458l3.273,0.877L-43.989-184.847z M-37.442-183.093l-3.273-0.877L-195.98,395.488l3.273,0.877
				L-37.442-183.093z M-30.895-181.338l-3.274-0.878l-155.265,579.458l3.273,0.877L-30.895-181.338z M-24.349-179.584l-3.273-0.877
				l-155.266,579.457l3.274,0.877L-24.349-179.584z M-17.802-177.83l-3.273-0.877L-176.34,400.752l3.274,0.877L-17.802-177.83z
				 M-11.254-176.076l-3.274-0.877l-155.265,579.459l3.274,0.877L-11.254-176.076z M-4.708-174.321l-3.273-0.877L-163.247,404.26
				l3.274,0.877L-4.708-174.321z M1.839-172.567l-3.273-0.877L-156.7,406.014l3.273,0.877L1.839-172.567z M8.386-170.813
				l-3.274-0.877l-155.265,579.458l3.273,0.877L8.386-170.813z M14.933-169.059l-3.273-0.877l-155.265,579.459l3.273,0.877
				L14.933-169.059z M21.479-167.305l-3.273-0.877l-155.265,579.459l3.273,0.877L21.479-167.305z M28.027-165.55l-3.274-0.877
				l-155.265,579.458l3.274,0.877L28.027-165.55z M34.574-163.796l-3.273-0.877l-155.266,579.458l3.274,0.877L34.574-163.796z
				 M41.121-162.042l-3.273-0.877l-155.266,579.458l3.274,0.877L41.121-162.042z M47.667-160.287l-3.274-0.878l-155.265,579.458
				l3.273,0.877L47.667-160.287z M54.214-158.533l-3.273-0.877l-155.265,579.457l3.273,0.877L54.214-158.533z M60.761-156.779
				l-3.273-0.877L-97.777,421.801l3.273,0.879L60.761-156.779z M67.308-155.025l-3.273-0.877L-91.23,423.557l3.273,0.877
				L67.308-155.025z M73.855-153.271l-3.273-0.877L-84.684,425.311l3.274,0.877L73.855-153.271z M80.402-151.516l-3.273-0.877
				L-78.137,427.064l3.274,0.877L80.402-151.516z M86.949-149.762l-3.273-0.877L-71.59,428.818l3.274,0.879L86.949-149.762z
				 M93.496-148.008l-3.273-0.877L-65.043,430.574l3.273,0.877L93.496-148.008z M100.042-146.253l-3.273-0.878L-58.496,432.328
				l3.273,0.877L100.042-146.253z M106.589-144.499l-3.273-0.877L-51.949,434.082l3.273,0.877L106.589-144.499z M113.137-142.745
				l-3.274-0.877L-45.402,435.836l3.273,0.877L113.137-142.745z M119.683-140.991l-3.273-0.877L-38.855,437.59l3.273,0.877
				L119.683-140.991z M126.229-139.237l-3.273-0.877L-32.309,439.344l3.274,0.877L126.229-139.237z M132.776-137.482l-3.273-0.877
				L-25.762,441.098l3.274,0.879L132.776-137.482z M139.323-135.728l-3.273-0.877L-19.215,442.854l3.274,0.877L139.323-135.728z
				 M145.87-133.974l-3.273-0.877L-12.668,444.607l3.273,0.877L145.87-133.974z M152.417-132.219l-3.273-0.878L-6.121,446.361
				l3.273,0.877L152.417-132.219z M158.964-130.465l-3.273-0.877L0.426,448.115l3.273,0.877L158.964-130.465z M165.511-128.711
				l-3.273-0.877L6.973,449.869l3.273,0.877L165.511-128.711z M172.058-126.957l-3.273-0.877L13.52,451.625l3.274,0.877
				L172.058-126.957z M178.604-125.203l-3.273-0.877L20.066,453.379l3.274,0.877L178.604-125.203z M185.151-123.448l-3.273-0.878
				L26.613,455.133l3.274,0.877L185.151-123.448z M191.698-121.694l-3.273-0.877L33.161,456.887l3.273,0.877L191.698-121.694z
				 M198.245-119.94l-3.273-0.877L39.708,458.641l3.273,0.877L198.245-119.94z M204.792-118.186l-3.273-0.877L46.254,460.395
				l3.273,0.877L204.792-118.186z M211.339-116.431l-3.272-0.877L52.801,462.15l3.273,0.877L211.339-116.431z M217.885-114.677
				l-3.272-0.877L59.348,463.904l3.274,0.877L217.885-114.677z M224.433-112.923l-3.273-0.877L65.895,465.658l3.274,0.877
				L224.433-112.923z M230.979-111.169l-3.273-0.877L72.442,467.412l3.274,0.877L230.979-111.169z M237.526-109.415l-3.273-0.878
				L78.989,469.166l3.273,0.877L237.526-109.415z M244.073-107.661l-3.273-0.877L85.536,470.92l3.273,0.877L244.073-107.661z
				 M250.62-105.906l-3.273-0.877L92.083,472.676l3.273,0.877L250.62-105.906z M257.167-104.152l-3.272-0.877L98.63,474.43
				l3.273,0.877L257.167-104.152z M263.714-102.397l-3.273-0.877L105.177,476.184l3.273,0.877L263.714-102.397z M270.262-100.644
				l-3.274-0.877L111.723,477.938l3.274,0.877L270.262-100.644z M276.808-98.89l-3.273-0.877L118.27,479.691l3.274,0.877
				L276.808-98.89z M283.355-97.135l-3.274-0.877L124.816,481.447l3.273,0.877L283.355-97.135z M289.901-95.38l-3.273-0.878
				L131.363,483.201l3.272,0.877L289.901-95.38z M296.448-93.626l-3.273-0.877L137.91,484.955l3.272,0.877L296.448-93.626z
				 M302.995-91.873l-3.272-0.877L144.457,486.709l3.273,0.877L302.995-91.873z M309.543-90.119l-3.274-0.877L151.004,488.463
				l3.273,0.877L309.543-90.119z M316.09-88.364l-3.274-0.877L157.55,490.217l3.274,0.877L316.09-88.364z M322.636-86.609
				l-3.273-0.877L164.098,491.971l3.273,0.877L322.636-86.609z M329.184-84.855l-3.274-0.877L170.645,493.725l3.273,0.879
				L329.184-84.855z M335.729-83.102l-3.272-0.877L177.191,495.48l3.273,0.877L335.729-83.102z M342.276-81.347l-3.273-0.878
				L183.738,497.234l3.272,0.877L342.276-81.347z M348.823-79.593l-3.272-0.877L190.285,498.988l3.273,0.877L348.823-79.593z
				 M355.371-77.838l-3.274-0.877L196.832,500.742l3.272,0.879L355.371-77.838z M361.918-76.084l-3.274-0.877L203.378,502.498
				l3.274,0.877L361.918-76.084z M368.464-74.33l-3.273-0.878L209.926,504.252l3.273,0.877L368.464-74.33z M375.012-72.576
				l-3.273-0.877L216.472,506.006l3.275,0.877L375.012-72.576z M381.558-70.822l-3.272-0.877L223.02,507.76l3.273,0.877
				L381.558-70.822z M388.104-69.067l-3.273-0.877L229.566,509.514l3.272,0.877L388.104-69.067z M394.652-67.313l-3.273-0.877
				L236.114,511.268l3.272,0.877L394.652-67.313z M401.199-65.559l-3.274-0.877L242.66,513.021l3.273,0.877L401.199-65.559z
				 M407.746-63.805l-3.273-0.877L249.208,514.775l3.273,0.879L407.746-63.805z M414.292-62.051l-3.272-0.877L255.754,516.531
				l3.273,0.877L414.292-62.051z M420.84-60.296l-3.273-0.877L262.301,518.285l3.274,0.877L420.84-60.296z M427.386-58.542
				l-3.272-0.877L268.848,520.039l3.273,0.877L427.386-58.542z M433.934-56.788l-3.274-0.877L275.395,521.793l3.272,0.877
				L433.934-56.788z M440.48-55.034l-3.273-0.877L281.942,523.549l3.272,0.877L440.48-55.034z M447.027-53.28l-3.274-0.877
				L288.488,525.303l3.273,0.877L447.027-53.28z M453.574-51.525l-3.273-0.877L295.036,527.057l3.273,0.877L453.574-51.525z"/>
		</defs>
		<clipPath id="SVGID_4_">
			<use xlink:href="#SVGID_3_"  overflow="visible"/>
		</clipPath>
		<g id="Indulge_1_" clip-path="url(#SVGID_4_)">
			<rect x="21.309" y="48.485" fill="none" width="215.396" height="200.515"/>
			<path d="M22.269,48.491h25.726v71.995H22.269V48.491z"/>
			<path d="M49.917,48.491h24.766l7.68,28.99l0.96-0.192l-1.248-5.855c-0.96-4.704-1.632-10.271-1.632-15.167v-7.775h25.726v71.995
				H81.402l-7.68-28.99l-0.96,0.192l1.248,5.855c0.96,4.704,1.632,10.271,1.632,15.167v7.775H49.917V48.491z"/>
			<path d="M108.091,48.491h27.454c16.319,0,25.918,9.023,25.918,24.958v22.079c0,15.935-9.599,24.958-25.918,24.958h-27.454V48.491
				z M135.737,97.639V71.337h-1.92v26.302H135.737z"/>
			<path d="M163.386,73.641h32.734v21.599h-32.734V73.641z"/>
			<path d="M22.269,174.967V126.49h25.726v50.589h1.92V126.49h25.726v48.477c0,15.936-9.599,24.958-25.918,24.958h-1.536
				C31.868,199.925,22.269,190.902,22.269,174.967z"/>
			<path d="M124.024,175.639v22.847h-46.46V126.49h25.726v49.148H124.024z"/>
			<path d="M125.469,180.247v-30.238c0-15.935,9.599-24.958,25.918-24.958h1.536c16.318,0,25.918,9.023,25.918,24.958v11.519
				h-25.727v-13.631h-1.92v27.742h1.92v-12.191h25.727v35.038h-20.446l-3.84-8.256c-1.248,4.608-3.84,9.695-13.439,9.695
				C130.652,199.925,125.469,193.686,125.469,180.247z"/>
			<path d="M203.61,149.337v1.92h24.574v22.462H203.61v1.92h24.574v22.847h-47.421V126.49h47.421v22.847H203.61z"/>
		</g>
	</g>
</g>
<g id="Layer_4">
	<rect width="250" height="250"/>
	<g>
		<rect x="19.589" y="39.893" fill="none" width="238.907" height="196.607"/>
		<path fill="#FFFFFF" d="M34.86,45.896h-4.324v12.747h-6.374V45.896h-4.324v-5.374H34.86V45.896z"/>
		<path fill="#FFFFFF" d="M47.586,58.643h-6.374V52.02l-6.349-11.497h7.048l2.599,5.849l2.6-5.849h6.798L47.586,52.02V58.643z"/>
		<path fill="#FFFFFF" d="M61.412,54.644v3.999h-6.374V40.522h8.348c4.774,0,7.473,2.6,7.473,7.073c0,4.449-2.699,7.048-7.473,7.048
			H61.412z M61.412,44.946v5.274h0.55c1.625,0,2.274-0.6,2.274-2.625s-0.65-2.649-2.274-2.649H61.412z"/>
		<path fill="#FFFFFF" d="M81.736,40.147c6.148,0,9.498,3.474,9.498,9.448s-3.349,9.423-9.498,9.423s-9.498-3.449-9.498-9.423
			S75.587,40.147,81.736,40.147z M81.736,54.469c1.75,0,2.874-1.35,2.874-4.874c0-3.549-1.125-4.899-2.874-4.899
			s-2.875,1.35-2.875,4.899C78.861,53.12,79.986,54.469,81.736,54.469z"/>
		<path fill="#FFFFFF" d="M102.36,59.018c-5.924,0-9.373-3.449-9.373-9.423s3.599-9.448,9.623-9.448c2.349,0,4.649,0.525,6.374,1.1
			l-1.1,4.724c-1.375-0.375-2.624-0.65-4.149-0.65c-2.524,0-4.124,1.2-4.124,4.524c0,2.875,1.3,4.324,3.674,4.474l-0.325-4.499
			h5.974v8.223C107.084,58.668,104.585,59.018,102.36,59.018z"/>
		<path fill="#FFFFFF" d="M118.585,53.395h-0.775v5.249h-6.374V40.522h8.348c4.699,0,7.348,2.375,7.348,6.448
			c0,2.524-1.024,4.299-2.924,5.349l3.799,6.323h-7.048L118.585,53.395z M117.811,44.821v4.274h0.55c1.525,0,2.149-0.5,2.149-2.125
			c0-1.649-0.625-2.149-2.149-2.149H117.811z"/>
		<path fill="#FFFFFF" d="M139.409,55.869h-4.499l-0.6,2.774h-6.549l5.725-18.121h7.598l5.724,18.121h-6.798L139.409,55.869z
			 M137.16,45.696l-1.3,5.923h2.599L137.16,45.696z"/>
		<path fill="#FFFFFF" d="M154.436,54.644v3.999h-6.374V40.522h8.349c4.773,0,7.473,2.6,7.473,7.073
			c0,4.449-2.699,7.048-7.473,7.048H154.436z M154.436,44.946v5.274h0.549c1.625,0,2.275-0.6,2.275-2.625s-0.65-2.649-2.275-2.649
			H154.436z"/>
		<path fill="#FFFFFF" d="M176.634,52.52h-4.499v6.124h-6.373V40.522h6.373v6.499h4.499v-6.499h6.374v18.121h-6.374V52.52z"/>
		<path fill="#FFFFFF" d="M185.761,40.522h6.374v18.121h-6.374V40.522z"/>
		<path fill="#FFFFFF" d="M203.759,40.147c1.999,0,3.974,0.35,5.599,0.925l-1.074,4.749c-1.176-0.3-2.225-0.45-3.1-0.45
			c-2.5,0-3.924,1.425-3.924,4.224s1.424,4.199,3.924,4.199c0.875,0,1.924-0.15,3.1-0.45l1.074,4.749
			c-1.625,0.575-3.6,0.925-5.599,0.925c-5.773,0-9.372-3.449-9.372-9.423S197.985,40.147,203.759,40.147z"/>
		<path fill="#FFFFFF" d="M211.785,53.194c1.25,0.425,3.15,0.85,4.899,0.85c1.6,0,2.075-0.275,2.075-0.825
			c0-0.575-0.4-0.875-2.35-1.35c-4.174-1.024-5.749-3.149-5.749-5.624c0-3.474,2.824-6.099,8.099-6.099
			c2.074,0,4.549,0.4,6.423,0.95l-1.225,4.849c-1.05-0.35-2.974-0.8-4.698-0.8c-1.5,0-1.975,0.275-1.975,0.825
			s0.475,0.825,2.474,1.274c4.549,1.025,6.174,3.075,6.174,5.974c0,3.599-2.624,5.799-8.548,5.799c-2,0-4.725-0.375-6.599-0.875
			L211.785,53.194z"/>
		<path fill="#FFFFFF" d="M29.751,84.486h-6.299l-1.47,4.157h-2.079l5.69-15.222h2.079l5.669,15.222h-2.121L29.751,84.486z
			 M26.581,75.604l-2.562,7.244h5.144L26.581,75.604z"/>
		<path fill="#FFFFFF" d="M41.638,73.421h4.997c4.598,0,7.391,2.499,7.391,7.538c0,5.144-2.792,7.685-7.391,7.685h-4.997V73.421z
			 M43.57,75.059v11.947h2.729c3.569,0,5.753-1.659,5.753-6.047c0-4.241-2.163-5.9-5.753-5.9H43.57z"/>
		<path fill="#FFFFFF" d="M57.766,73.421h9.742v1.638h-7.811v5.186h6.908v1.617h-6.908v5.144h7.895v1.638h-9.826V73.421z"/>
		<path fill="#FFFFFF" d="M70.87,86.438c1.092,0.399,2.478,0.756,4.073,0.756c2.75,0,3.947-0.945,3.947-2.415
			c0-1.302-0.903-2.163-3.758-2.981c-3.296-0.924-4.619-2.331-4.619-4.409c0-2.373,2.037-4.199,5.459-4.199
			c1.533,0,3.044,0.294,4.283,0.756l-0.441,1.596c-1.092-0.378-2.247-0.672-3.758-0.672c-2.436,0-3.59,0.987-3.59,2.394
			c0,1.386,0.945,2.184,3.548,2.897c3.485,0.945,4.85,2.352,4.85,4.535c0,2.478-2.016,4.178-5.627,4.178
			c-1.911,0-3.569-0.336-4.829-0.819L70.87,86.438z"/>
		<path fill="#FFFFFF" d="M84.562,73.421h1.932v15.222h-1.932V73.421z"/>
		<path fill="#FFFFFF" d="M97.791,88.874c-4.787,0-7.538-3.002-7.538-7.916c0-4.745,2.813-7.769,7.58-7.769
			c1.701,0,3.17,0.315,4.535,0.819l-0.483,1.617c-1.134-0.399-2.541-0.735-3.884-0.735c-3.485,0-5.774,2.247-5.774,6.068
			c0,4.031,2.226,6.278,5.753,6.278c0.882,0,1.869-0.105,2.792-0.294l-0.084-4.199H97.35v-1.638h5.228v6.971
			C101.15,88.58,99.512,88.874,97.791,88.874z"/>
		<path fill="#FFFFFF" d="M117.152,73.421h1.89v15.222h-1.764l-8.755-11.926v11.926h-1.89V73.421h1.764l8.755,11.926V73.421z"/>
		<path fill="#FFFFFF" d="M131.58,82.323v6.32h-1.932V73.421h9.533v1.638h-7.602v5.669h6.887v1.596H131.58z"/>
		<path fill="#FFFFFF" d="M142.795,73.421h9.742v1.638h-7.811v5.186h6.908v1.617h-6.908v5.144h7.895v1.638h-9.826V73.421z"/>
		<path fill="#FFFFFF" d="M155.898,86.438c1.092,0.399,2.479,0.756,4.074,0.756c2.75,0,3.947-0.945,3.947-2.415
			c0-1.302-0.903-2.163-3.759-2.981c-3.296-0.924-4.619-2.331-4.619-4.409c0-2.373,2.036-4.199,5.459-4.199
			c1.532,0,3.044,0.294,4.283,0.756l-0.44,1.596c-1.092-0.378-2.247-0.672-3.759-0.672c-2.436,0-3.591,0.987-3.591,2.394
			c0,1.386,0.945,2.184,3.549,2.897c3.485,0.945,4.85,2.352,4.85,4.535c0,2.478-2.016,4.178-5.627,4.178
			c-1.91,0-3.568-0.336-4.828-0.819L155.898,86.438z"/>
		<path fill="#FFFFFF" d="M179.333,75.059h-4.871v13.584h-1.932V75.059h-4.871v-1.638h11.674V75.059z"/>
		<path fill="#FFFFFF" d="M182.212,73.421h1.932v15.222h-1.932V73.421z"/>
		<path fill="#FFFFFF" d="M192.522,88.643l-5.627-15.222h2.12l4.578,12.934l4.576-12.934h2.059l-5.627,15.222H192.522z"/>
		<path fill="#FFFFFF" d="M210.035,84.486h-6.299l-1.469,4.157h-2.079l5.69-15.222h2.078l5.669,15.222h-2.12L210.035,84.486z
			 M206.865,75.604l-2.562,7.244h5.144L206.865,75.604z"/>
		<path fill="#FFFFFF" d="M216.357,73.421h1.932v13.584h7.266v1.638h-9.197V73.421z"/>
		<path fill="#FFFFFF" d="M23.935,112.323v6.32h-1.932v-15.222h9.532v1.638h-7.601v5.669h6.887v1.596H23.935z"/>
		<path fill="#FFFFFF" d="M41.196,103.19c4.346,0,7.16,3.023,7.16,7.769c0,4.871-2.813,7.916-7.16,7.916s-7.139-3.044-7.139-7.916
			C34.058,106.213,36.85,103.19,41.196,103.19z M41.196,117.194c3.086,0,5.165-2.268,5.165-6.236c0-3.821-2.058-6.089-5.165-6.089
			c-3.086,0-5.165,2.268-5.165,6.089C36.031,114.927,38.11,117.194,41.196,117.194z"/>
		<path fill="#FFFFFF" d="M57.45,113.226h-3.422v5.417h-1.932v-15.222h4.43c3.926,0,6.068,1.743,6.068,4.787
			c0,2.499-1.302,4.01-3.254,4.661l3.884,5.774h-2.226L57.45,113.226z M54.028,105.059v6.53h3.128c2.037,0,3.464-1.134,3.464-3.38
			c0-2.037-1.47-3.149-4.43-3.149H54.028z"/>
		<path fill="#FFFFFF" d="M74.271,114.234v4.409H72.34v-15.222h4.493c3.968,0,6.383,1.806,6.383,5.27
			c0,3.611-2.415,5.543-6.383,5.543H74.271z M74.271,105.059v7.517h2.247c3.002,0,4.724-1.197,4.724-3.884
			c0-2.478-1.701-3.632-4.724-3.632H74.271z"/>
		<path fill="#FFFFFF" d="M86.725,103.421h9.742v1.638h-7.811v5.186h6.908v1.617h-6.908v5.144h7.895v1.638h-9.826V103.421z"/>
		<path fill="#FFFFFF" d="M106.547,103.19c4.346,0,7.16,3.023,7.16,7.769c0,4.871-2.813,7.916-7.16,7.916s-7.139-3.044-7.139-7.916
			C99.409,106.213,102.201,103.19,106.547,103.19z M106.547,117.194c3.086,0,5.165-2.268,5.165-6.236
			c0-3.821-2.058-6.089-5.165-6.089c-3.086,0-5.165,2.268-5.165,6.089C101.382,114.927,103.461,117.194,106.547,117.194z"/>
		<path fill="#FFFFFF" d="M119.379,114.234v4.409h-1.932v-15.222h4.493c3.968,0,6.383,1.806,6.383,5.27
			c0,3.611-2.415,5.543-6.383,5.543H119.379z M119.379,105.059v7.517h2.247c3.002,0,4.724-1.197,4.724-3.884
			c0-2.478-1.701-3.632-4.724-3.632H119.379z"/>
		<path fill="#FFFFFF" d="M131.832,103.421h1.932v13.584h7.265v1.638h-9.196V103.421z"/>
		<path fill="#FFFFFF" d="M143.949,103.421h9.742v1.638h-7.811v5.186h6.907v1.617h-6.907v5.144h7.895v1.638h-9.826V103.421z"/>
		<path fill="#FFFFFF" d="M29.856,136.424l-3.464,12.219h-1.995l-4.451-15.222h2.058l3.443,12.786l3.527-12.786h1.806l3.569,12.745
			l3.401-12.745h2.016l-4.472,15.222h-1.995L29.856,136.424z"/>
		<path fill="#FFFFFF" d="M53.019,141.903h-8.545v6.739h-1.932v-15.222h1.932v6.823h8.545v-6.823h1.932v15.222h-1.932V141.903z"/>
		<path fill="#FFFFFF" d="M65.83,133.189c4.346,0,7.16,3.023,7.16,7.77c0,4.871-2.813,7.915-7.16,7.915s-7.139-3.044-7.139-7.915
			C58.691,136.213,61.483,133.189,65.83,133.189z M65.83,147.194c3.086,0,5.165-2.268,5.165-6.235c0-3.822-2.058-6.09-5.165-6.09
			c-3.086,0-5.165,2.268-5.165,6.09C60.665,144.927,62.743,147.194,65.83,147.194z"/>
		<path fill="#FFFFFF" d="M82.294,133.421h1.932v8.776c0,3.506,1.47,4.997,4.094,4.997s4.073-1.491,4.073-4.997v-8.776h1.932v8.86
			c0,4.514-2.121,6.593-6.005,6.593s-6.026-2.079-6.026-6.593V133.421z"/>
		<path fill="#FFFFFF" d="M98.275,146.438c1.092,0.399,2.478,0.756,4.073,0.756c2.75,0,3.947-0.944,3.947-2.415
			c0-1.301-0.903-2.162-3.758-2.98c-3.296-0.924-4.619-2.331-4.619-4.41c0-2.372,2.037-4.199,5.459-4.199
			c1.533,0,3.044,0.295,4.283,0.756l-0.441,1.596c-1.092-0.377-2.247-0.672-3.758-0.672c-2.436,0-3.59,0.987-3.59,2.395
			c0,1.385,0.945,2.184,3.548,2.896c3.485,0.945,4.85,2.352,4.85,4.535c0,2.479-2.016,4.179-5.627,4.179
			c-1.911,0-3.569-0.336-4.829-0.819L98.275,146.438z"/>
		<path fill="#FFFFFF" d="M111.967,133.421h9.742v1.638h-7.811v5.186h6.908v1.617h-6.908v5.145h7.895v1.637h-9.826V133.421z"/>
		<path fill="#FFFFFF" d="M141.26,135.059h-4.871v13.584h-1.932v-13.584h-4.871v-1.638h11.674V135.059z"/>
		<path fill="#FFFFFF" d="M149.619,148.643h-1.932v-5.836l-5.711-9.386h2.226l4.493,7.579l4.451-7.579h2.184l-5.711,9.386V148.643z"
			/>
		<path fill="#FFFFFF" d="M159.931,144.234v4.408h-1.932v-15.222h4.493c3.969,0,6.383,1.806,6.383,5.271
			c0,3.611-2.414,5.543-6.383,5.543H159.931z M159.931,135.059v7.517h2.247c3.002,0,4.724-1.196,4.724-3.884
			c0-2.479-1.7-3.633-4.724-3.633H159.931z"/>
		<path fill="#FFFFFF" d="M172.384,133.421h9.742v1.638h-7.811v5.186h6.907v1.617h-6.907v5.145h7.895v1.637h-9.826V133.421z"/>
		<path fill="#FFFFFF" d="M26.797,202.023h-2.291v6.619h-2.471v-6.619h-2.279v-2.076h7.04V202.023z"/>
		<path fill="#FFFFFF" d="M33.302,205.404h-2.987v3.238h-2.47v-8.695h2.47v3.347h2.987v-3.347h2.458v8.695h-2.458V205.404z"/>
		<path fill="#FFFFFF" d="M37.541,199.947h6.212v1.883h-3.742v1.668h3.274v1.631h-3.274v1.631h3.778v1.883h-6.249V199.947z"/>
		<path fill="#FFFFFF" d="M52.334,199.779c0.959,0,1.823,0.168,2.59,0.433l-0.456,1.883c-0.552-0.155-1.127-0.252-1.643-0.252
			c-1.343,0-2.279,0.815-2.279,2.446c0,1.655,0.936,2.459,2.279,2.459c0.54,0,1.103-0.096,1.667-0.252l0.456,1.895
			c-0.779,0.265-1.631,0.42-2.614,0.42c-2.675,0-4.366-1.666-4.366-4.521C47.969,201.459,49.66,199.779,52.334,199.779z"/>
		<path fill="#FFFFFF" d="M60.194,199.779c2.806,0,4.414,1.703,4.414,4.51c0,2.818-1.607,4.521-4.414,4.521
			c-2.818,0-4.414-1.703-4.414-4.521C55.781,201.482,57.376,199.779,60.194,199.779z M60.194,206.977
			c1.115,0,1.859-0.852,1.859-2.688c0-1.822-0.744-2.674-1.859-2.674c-1.127,0-1.859,0.852-1.859,2.674
			C58.335,206.125,59.067,206.977,60.194,206.977z"/>
		<path fill="#FFFFFF" d="M70.082,199.779c2.806,0,4.414,1.703,4.414,4.51c0,2.818-1.607,4.521-4.414,4.521
			c-2.818,0-4.414-1.703-4.414-4.521C65.668,201.482,67.264,199.779,70.082,199.779z M70.082,206.977
			c1.115,0,1.859-0.852,1.859-2.688c0-1.822-0.744-2.674-1.859-2.674c-1.127,0-1.859,0.852-1.859,2.674
			C68.223,206.125,68.955,206.977,70.082,206.977z"/>
		<path fill="#FFFFFF" d="M78.386,206.557v2.086h-2.47v-8.695h3.55c2.291,0,3.622,1.188,3.622,3.275
			c0,2.122-1.331,3.334-3.622,3.334H78.386z M78.386,201.734v3.035h0.54c1.079,0,1.607-0.408,1.607-1.547
			c0-1.08-0.516-1.488-1.607-1.488H78.386z"/>
		<path fill="#FFFFFF" d="M84.34,199.947h6.212v1.883H86.81v1.668h3.274v1.631H86.81v1.631h3.778v1.883H84.34V199.947z"/>
		<path fill="#FFFFFF" d="M95.282,205.957h-0.768v2.686h-2.47v-8.695h3.526c2.279,0,3.538,1.104,3.538,2.986
			c0,1.283-0.54,2.135-1.535,2.604l1.943,3.105h-2.818L95.282,205.957z M94.514,201.688v2.529h0.708
			c0.899,0,1.343-0.359,1.343-1.283c0-0.887-0.48-1.246-1.523-1.246H94.514z"/>
		<path fill="#FFFFFF" d="M103.624,199.947h2.459v4.857c0,1.428,0.503,1.979,1.451,1.979c0.947,0,1.451-0.552,1.451-1.979v-4.857
			h2.458v5.158c0,2.41-1.367,3.705-3.91,3.705c-2.543,0-3.91-1.295-3.91-3.705V199.947z"/>
		<path fill="#FFFFFF" d="M118.621,199.947h2.447v8.695h-1.991l-3.466-4.629v4.629h-2.458v-8.695h2.003l3.466,4.63V199.947z"/>
		<path fill="#FFFFFF" d="M122.848,199.947h2.471v8.695h-2.471V199.947z"/>
		<path fill="#FFFFFF" d="M131.149,199.779c2.806,0,4.413,1.703,4.413,4.51c0,2.818-1.607,4.521-4.413,4.521
			c-2.818,0-4.413-1.703-4.413-4.521C126.736,201.482,128.331,199.779,131.149,199.779z M131.149,206.977
			c1.115,0,1.858-0.852,1.858-2.688c0-1.822-0.743-2.674-1.858-2.674c-1.128,0-1.858,0.852-1.858,2.674
			C129.291,206.125,130.021,206.977,131.149,206.977z"/>
		<path fill="#FFFFFF" d="M142.452,199.947h2.446v8.695h-1.99l-3.467-4.629v4.629h-2.458v-8.695h2.003l3.466,4.63V199.947z"/>
		<path fill="#FFFFFF" d="M151.777,199.348h2.075l-2.998,11.094h-2.075L151.777,199.348z"/>
		<path fill="#FFFFFF" d="M157.155,206.771c0.228,0.049,0.503,0.097,0.72,0.097c0.6,0,0.911-0.239,0.911-0.983v-5.938h2.471v6.021
			c0,1.931-0.78,2.842-2.675,2.842c-0.611,0-1.26-0.107-1.691-0.239L157.155,206.771z"/>
		<path fill="#FFFFFF" d="M162.879,199.947h2.459v4.857c0,1.428,0.503,1.979,1.451,1.979c0.947,0,1.451-0.552,1.451-1.979v-4.857
			h2.458v5.158c0,2.41-1.367,3.705-3.909,3.705c-2.543,0-3.91-1.295-3.91-3.705V199.947z"/>
		<path fill="#FFFFFF" d="M177.875,199.947h2.447v8.695h-1.99l-3.467-4.629v4.629h-2.459v-8.695h2.004l3.465,4.63V199.947z"/>
		<path fill="#FFFFFF" d="M182.103,199.947h6.212v1.883h-3.742v1.668h3.275v1.631h-3.275v1.631h3.779v1.883h-6.249V199.947z"/>
		<path fill="#FFFFFF" d="M194.078,208.643v-6.212l-1.295,0.516l-0.696-1.812l2.435-1.188h2.016v8.695H194.078z"/>
		<path fill="#FFFFFF" d="M198.23,208.643v-1.69l2.723-2.255c0.924-0.756,1.295-1.188,1.295-1.751c0-0.696-0.504-1.104-1.512-1.104
			c-0.695,0-1.475,0.204-2.014,0.444l-0.553-1.859c0.756-0.324,1.836-0.648,3.059-0.648c2.255,0,3.502,1.236,3.502,2.831
			c0,1.151-0.527,2.015-1.666,2.927l-1.368,1.104h3.263v2.002H198.23z"/>
		<path fill="#FFFFFF" d="M209.114,204.121h3.729v1.932h-3.729V204.121z"/>
		<path fill="#FFFFFF" d="M216.891,208.643v-1.69l2.723-2.255c0.923-0.756,1.295-1.188,1.295-1.751c0-0.696-0.504-1.104-1.512-1.104
			c-0.695,0-1.475,0.204-2.015,0.444l-0.552-1.859c0.756-0.324,1.835-0.648,3.059-0.648c2.254,0,3.502,1.236,3.502,2.831
			c0,1.151-0.527,2.015-1.668,2.927l-1.367,1.104h3.263v2.002H216.891z"/>
		<path fill="#FFFFFF" d="M224.63,208.643v-1.69l2.722-2.255c0.924-0.756,1.296-1.188,1.296-1.751c0-0.696-0.503-1.104-1.511-1.104
			c-0.695,0-1.476,0.204-2.016,0.444l-0.551-1.859c0.755-0.324,1.834-0.648,3.058-0.648c2.255,0,3.503,1.236,3.503,2.831
			c0,1.151-0.528,2.015-1.668,2.927l-1.367,1.104h3.262v2.002H224.63z"/>
	</g>
	<line fill="none" stroke="#FFFFFF" stroke-width="2" stroke-miterlimit="10" x1="19.589" y1="172.365" x2="230.5" y2="172.365"/>
</g>
</svg>
