<?xml version="1.0" encoding="utf-8"?>
<!-- Generator: Adobe Illustrator 16.0.0, SVG Export Plug-In . SVG Version: 6.00 Build 0)  -->
<!DOCTYPE svg PUBLIC "-//W3C//DTD SVG 1.1//EN" "http://www.w3.org/Graphics/SVG/1.1/DTD/svg11.dtd">
<svg version="1.1" xmlns="http://www.w3.org/2000/svg" xmlns:xlink="http://www.w3.org/1999/xlink" x="0px" y="0px" width="160px"
	 height="600px" viewBox="0 0 160 600" enable-background="new 0 0 160 600" xml:space="preserve">

	 <style>
	 @keyframes slide {
	   0% {
	     transform: translate(0px, 0px);
	   }
	 	25% {
	     transform: translate(0px, 0px);
	   }
	 	40% {
	     transform: translate(0px, 3.5px);
	   }
	 	85% {
	     transform: translate(0px, 3.5px);
	   }
	   100% {
	     transform: translate(0px, 0px);
	   }
	 }
	 @keyframes slide2 {
	   0% {
	     transform: translate(0px, 0px);
	   }
	 	50% {
	     transform: translate(0px, 0px);
	   }
	 	65% {
	     transform: translate(0px, 3.5px);
	   }
	   85% {
	     transform: translate(0px, 3.5px);
	   }
	 	100% {
	 		transform: translate(0px, 0px);
	 	}
	 }
	 @keyframes appear {
	   0% {
	     opacity:0
	   }
	 	50% {
	     opacity:0
	   }
	 	65% {
	     opacity:1
	   }
	 	85% {
	     opacity:1
	   }
	   100% {
	     opacity:0
	   }
	 }
	 #Layer_4{
	   opacity:0;
	 	-webkit-animation: appear 10s cubic-bezier(0.670, 0.005, 0.200, 1.000) infinite;
	 	-webkit-animation-fill-mode: forwards;
	 }
	 #Layer_1{
	   -webkit-animation: slide 10s cubic-bezier(0.670, 0.005, 0.200, 1.000) infinite;
	   -webkit-animation-fill-mode: forwards;
	 }
	 #lines2{
	 -webkit-animation: slide2 10s cubic-bezier(0.670, 0.005, 0.200, 1.000) infinite;
	 -webkit-animation-fill-mode: forwards;
	 anim
	 }
	 </style>
	 <rect width="100%" height="100%" fill="white"/>

<g id="Layer_1">
	<path id="line" d="M329.285,540.859l-0.877,3.273L-251.05,388.867l0.877-3.273L329.285,540.859z M-248.419,379.048l-0.877,3.272
		l579.458,155.266l0.877-3.273L-248.419,379.048z M-246.665,372.5l-0.877,3.272l579.458,155.267l0.877-3.274L-246.665,372.5z
		 M-244.909,365.953l-0.879,3.272L333.67,524.493l0.877-3.275L-244.909,365.953z M-243.156,359.406l-0.876,3.273l579.456,155.265
		l0.877-3.273L-243.156,359.406z M-241.402,352.859l-0.877,3.273L337.18,511.397l0.877-3.272L-241.402,352.859z M-239.647,346.312
		l-0.877,3.274l579.458,155.266l0.877-3.274L-239.647,346.312z M-237.894,339.765l-0.878,3.273l579.459,155.267l0.877-3.274
		L-237.894,339.765z M-236.139,333.219l-0.877,3.273l579.457,155.266l0.878-3.273L-236.139,333.219z M-234.385,326.672l-0.877,3.273
		l579.459,155.266l0.877-3.273L-234.385,326.672z M-232.631,320.125l-0.877,3.273l579.459,155.265l0.877-3.272L-232.631,320.125z
		 M-230.878,313.577l-0.877,3.273l579.461,155.266l0.877-3.273L-230.878,313.577z M-229.123,307.031l-0.877,3.273L349.459,465.57
		l0.877-3.273L-229.123,307.031z M-227.368,300.483l-0.877,3.274l579.458,155.266l0.877-3.273L-227.368,300.483z M-225.614,293.937
		l-0.877,3.274l579.458,155.266l0.877-3.274L-225.614,293.937z M-223.858,287.39l-0.88,3.274l579.459,155.267l0.877-3.275
		L-223.858,287.39z M-222.105,280.844l-0.876,3.273l579.456,155.265l0.877-3.273L-222.105,280.844z M-220.352,274.297l-0.877,3.273
		l579.457,155.265l0.879-3.272L-220.352,274.297z M-218.597,267.75l-0.877,3.273l579.458,155.264l0.877-3.273L-218.597,267.75z
		 M-216.844,261.202l-0.877,3.273l579.459,155.266l0.877-3.273L-216.844,261.202z M-215.088,254.656l-0.877,3.273l579.457,155.266
		l0.877-3.275L-215.088,254.656z M-213.334,248.109l-0.877,3.273l579.458,155.265l0.879-3.274L-213.334,248.109z M-211.58,241.562
		l-0.877,3.274l579.459,155.264l0.878-3.273L-211.58,241.562z M-209.826,235.015l-0.878,3.273l579.46,155.266l0.877-3.273
		L-209.826,235.015z M-208.071,228.469l-0.878,3.273L370.51,387.006l0.877-3.271L-208.071,228.469z M-206.317,221.922l-0.877,3.273
		l579.459,155.264l0.877-3.273L-206.317,221.922z M-204.563,215.375l-0.877,3.273l579.459,155.264l0.876-3.273L-204.563,215.375z
		 M-202.81,208.827l-0.877,3.273l579.458,155.266l0.877-3.273L-202.81,208.827z M-201.055,202.281l-0.877,3.273l579.457,155.265
		l0.879-3.274L-201.055,202.281z M-199.3,195.732l-0.877,3.275l579.459,155.264l0.877-3.273L-199.3,195.732z M-197.546,189.187
		l-0.877,3.274l579.458,155.264l0.877-3.273L-197.546,189.187z M-195.791,182.64l-0.879,3.273l579.459,155.266l0.877-3.273
		L-195.791,182.64z M274.904,743.812l-0.877,3.273l-579.459-155.265l0.877-3.273L274.904,743.812z M-302.801,582.001l-0.877,3.273
		l579.459,155.265l0.877-3.273L-302.801,582.001z M-301.046,575.454l-0.877,3.272l579.458,155.266l0.877-3.274L-301.046,575.454z
		 M-299.291,568.907l-0.879,3.271l579.458,155.268l0.878-3.274L-299.291,568.907z M-297.538,562.36l-0.876,3.273l579.457,155.265
		l0.877-3.273L-297.538,562.36z M-295.783,555.812l-0.877,3.274l579.458,155.265l0.877-3.273L-295.783,555.812z M-294.029,549.266
		l-0.877,3.274l579.458,155.267l0.878-3.275L-294.029,549.266z M-292.275,542.719l-0.878,3.272l579.459,155.267l0.877-3.273
		L-292.275,542.719z M-290.52,536.173l-0.877,3.273l579.457,155.265l0.877-3.273L-290.52,536.173z M-288.767,529.626l-0.877,3.273
		l579.458,155.265l0.877-3.273L-288.767,529.626z M-287.012,523.079l-0.877,3.273l579.46,155.265l0.877-3.272L-287.012,523.079z
		 M-285.259,516.53l-0.877,3.273l579.46,155.267l0.877-3.273L-285.259,516.53z M-283.504,509.985l-0.877,3.273l579.459,155.265
		l0.877-3.273L-283.504,509.985z M-281.75,503.438l-0.877,3.274l579.459,155.265l0.877-3.273L-281.75,503.438z M-279.995,496.891
		l-0.877,3.273l579.458,155.267l0.876-3.274L-279.995,496.891z M-278.24,490.344l-0.879,3.273l579.458,155.267l0.878-3.274
		L-278.24,490.344z M-276.487,483.798l-0.876,3.272l579.457,155.266l0.877-3.273L-276.487,483.798z M-274.733,477.251l-0.877,3.273
		l579.457,155.265l0.879-3.272L-274.733,477.251z M-272.979,470.704l-0.877,3.272l579.459,155.265l0.877-3.272L-272.979,470.704z
		 M-271.225,464.156l-0.877,3.272l579.459,155.267l0.877-3.273L-271.225,464.156z M-269.469,457.61l-0.877,3.272l579.457,155.266
		l0.877-3.274L-269.469,457.61z M-267.716,451.063l-0.877,3.273l579.458,155.264l0.879-3.273L-267.716,451.063z M-265.961,444.517
		l-0.877,3.273l579.46,155.264l0.877-3.272L-265.961,444.517z M-264.207,437.969l-0.878,3.272l579.459,155.267l0.877-3.273
		L-264.207,437.969z M-262.452,431.423l-0.878,3.272L316.129,589.96l0.877-3.272L-262.452,431.423z M-260.699,424.876l-0.877,3.273
		l579.459,155.263l0.877-3.272L-260.699,424.876z M-258.944,418.329l-0.877,3.272l579.458,155.265l0.877-3.273L-258.944,418.329z
		 M-257.191,411.781l-0.877,3.272l579.459,155.266l0.877-3.272L-257.191,411.781z M-255.436,405.235l-0.877,3.272l579.458,155.266
		l0.879-3.275L-255.436,405.235z M-253.682,398.687l-0.877,3.275L324.9,557.225l0.877-3.272L-253.682,398.687z M-251.928,392.141
		l-0.877,3.273l579.459,155.265l0.877-3.272L-251.928,392.141z M-194.038,176.094l-0.877,3.273l579.458,155.266l0.877-3.274
		L-194.038,176.094z M-192.283,169.546l-0.877,3.273l579.458,155.266l0.877-3.273L-192.283,169.546z M-190.529,162.999l-0.877,3.273
		l579.459,155.266l0.877-3.274L-190.529,162.999z M-188.775,156.452l-0.877,3.273l579.459,155.266l0.877-3.273L-188.775,156.452z
		 M-187.021,149.906l-0.878,3.272l579.459,155.266l0.877-3.274L-187.021,149.906z M-185.267,143.358l-0.877,3.274l579.458,155.266
		l0.878-3.275L-185.267,143.358z M-183.514,136.812l-0.876,3.273L395.069,295.35l0.876-3.272L-183.514,136.812z M-181.758,130.265
		l-0.878,3.272l579.458,155.266l0.878-3.272L-181.758,130.265z M-180.004,123.718l-0.877,3.272l579.459,155.266l0.877-3.272
		L-180.004,123.718z M-178.249,117.172l-0.878,3.272l579.46,155.265l0.876-3.273L-178.249,117.172z M-176.495,110.624l-0.877,3.273
		l579.458,155.265l0.877-3.273L-176.495,110.624z M-174.742,104.077l-0.877,3.273L403.84,262.615l0.878-3.273L-174.742,104.077z
		 M-172.987,97.53l-0.878,3.273l579.46,155.265l0.876-3.272L-172.987,97.53z M-171.232,90.983l-0.877,3.273l579.458,155.266
		l0.877-3.273L-171.232,90.983z M-169.479,84.437l-0.877,3.273l579.459,155.265l0.877-3.272L-169.479,84.437z M-167.725,77.891
		l-0.877,3.271l579.459,155.265l0.877-3.272L-167.725,77.891z M-165.97,71.343l-0.876,3.273l579.458,155.265l0.877-3.272
		L-165.97,71.343z M-164.216,64.796l-0.877,3.273l579.458,155.265l0.877-3.273L-164.216,64.796z M-162.463,58.249l-0.876,3.273
		L416.12,216.787l0.876-3.273L-162.463,58.249z M-160.707,51.701l-0.877,3.274l579.46,155.265l0.876-3.273L-160.707,51.701z
		 M-158.953,45.155l-0.877,3.273l579.459,155.265l0.877-3.272L-158.953,45.155z M-157.199,38.608l-0.877,3.273l579.459,155.265
		l0.878-3.271L-157.199,38.608z M-155.444,32.062l-0.877,3.272L423.137,190.6l0.877-3.273L-155.444,32.062z M-153.691,25.514
		l-0.877,3.274l579.459,155.265l0.878-3.273L-153.691,25.514z M-151.936,18.967l-0.876,3.274l579.457,155.267l0.877-3.274
		L-151.936,18.967z M-150.182,12.421l-0.877,3.273l579.458,155.265l0.877-3.273L-150.182,12.421z M-148.428,5.873l-0.877,3.274
		l579.457,155.265l0.879-3.273L-148.428,5.873z M-146.675-0.673l-0.876,3.272l579.459,155.266l0.877-3.273L-146.675-0.673z
		 M-144.919-7.22l-0.879,3.273l579.46,155.265l0.877-3.272L-144.919-7.22z M-143.165-13.766l-0.877,3.271l579.458,155.266
		l0.878-3.273L-143.165-13.766z M-141.411-20.314l-0.877,3.274L437.17,138.225l0.88-3.271L-141.411-20.314z M-139.656-26.86
		l-0.877,3.273l579.459,155.266l0.876-3.274L-139.656-26.86z M-137.901-33.407l-0.878,3.273L440.68,125.131l0.877-3.273
		L-137.901-33.407z M-136.148-39.955l-0.877,3.273l579.459,155.267l0.877-3.274L-136.148-39.955z M-134.394-46.501l-0.876,3.272
		l579.458,155.266l0.877-3.273L-134.394-46.501z M-132.64-53.048l-0.878,3.273L445.941,105.49l0.877-3.272L-132.64-53.048z
		 M-130.885-59.596l-0.877,3.274L447.695,98.942l0.877-3.272L-130.885-59.596z M-129.131-66.142l-0.877,3.273L449.449,92.396
		l0.877-3.273L-129.131-66.142z M-127.377-72.689l-0.877,3.273L451.203,85.849l0.879-3.272L-127.377-72.689z M-125.624-79.235
		l-0.875,3.272L452.959,79.303l0.877-3.273L-125.624-79.235z M-123.868-85.783l-0.877,3.273L454.713,72.756l0.877-3.273
		L-123.868-85.783z M-122.113-92.329l-0.878,3.272L456.467,66.209l0.877-3.273L-122.113-92.329z M-120.36-98.877l-0.877,3.274
		L458.222,59.662l0.876-3.272L-120.36-98.877z M-118.605-105.424l-0.877,3.273L459.977,53.114l0.877-3.272L-118.605-105.424z
		 M-116.853-111.971l-0.876,3.274L461.73,46.568l0.877-3.273L-116.853-111.971z M-115.097-118.518l-0.877,3.273L463.484,40.021
		l0.877-3.273L-115.097-118.518z"/>
	<path id="line2" d="M329.285,540.859l-0.877,3.273L-251.05,388.867l0.877-3.273L329.285,540.859z M-248.419,379.048l-0.877,3.272
		l579.458,155.266l0.877-3.273L-248.419,379.048z M-246.665,372.5l-0.877,3.272l579.458,155.267l0.877-3.274L-246.665,372.5z
		 M-244.909,365.953l-0.879,3.272L333.67,524.493l0.877-3.275L-244.909,365.953z M-243.156,359.406l-0.876,3.273l579.456,155.265
		l0.877-3.273L-243.156,359.406z M-241.402,352.859l-0.877,3.273L337.18,511.397l0.877-3.272L-241.402,352.859z M-239.647,346.312
		l-0.877,3.274l579.458,155.266l0.877-3.274L-239.647,346.312z M-237.894,339.765l-0.878,3.273l579.459,155.267l0.877-3.274
		L-237.894,339.765z M-236.139,333.219l-0.877,3.273l579.457,155.266l0.878-3.273L-236.139,333.219z M-234.385,326.672l-0.877,3.273
		l579.459,155.266l0.877-3.273L-234.385,326.672z M-232.631,320.125l-0.877,3.273l579.459,155.265l0.877-3.272L-232.631,320.125z
		 M-230.878,313.577l-0.877,3.273l579.461,155.266l0.877-3.273L-230.878,313.577z M-229.123,307.031l-0.877,3.273L349.459,465.57
		l0.877-3.273L-229.123,307.031z M-227.368,300.483l-0.877,3.274l579.458,155.266l0.877-3.273L-227.368,300.483z M-225.614,293.937
		l-0.877,3.274l579.458,155.266l0.877-3.274L-225.614,293.937z M-223.858,287.39l-0.88,3.274l579.459,155.267l0.877-3.275
		L-223.858,287.39z M-222.105,280.844l-0.876,3.273l579.456,155.265l0.877-3.273L-222.105,280.844z M-220.352,274.297l-0.877,3.273
		l579.457,155.265l0.879-3.272L-220.352,274.297z M-218.597,267.75l-0.877,3.273l579.458,155.264l0.877-3.273L-218.597,267.75z
		 M-216.844,261.202l-0.877,3.273l579.459,155.266l0.877-3.273L-216.844,261.202z M-215.088,254.656l-0.877,3.273l579.457,155.266
		l0.877-3.275L-215.088,254.656z M-213.334,248.109l-0.877,3.273l579.458,155.265l0.879-3.274L-213.334,248.109z M-211.58,241.562
		l-0.877,3.274l579.459,155.264l0.878-3.273L-211.58,241.562z M-209.826,235.015l-0.878,3.273l579.46,155.266l0.877-3.273
		L-209.826,235.015z M-208.071,228.469l-0.878,3.273L370.51,387.006l0.877-3.271L-208.071,228.469z M-206.317,221.922l-0.877,3.273
		l579.459,155.264l0.877-3.273L-206.317,221.922z M-204.563,215.375l-0.877,3.273l579.459,155.264l0.876-3.273L-204.563,215.375z
		 M-202.81,208.827l-0.877,3.273l579.458,155.266l0.877-3.273L-202.81,208.827z M-201.055,202.281l-0.877,3.273l579.457,155.265
		l0.879-3.274L-201.055,202.281z M-199.3,195.732l-0.877,3.275l579.459,155.264l0.877-3.273L-199.3,195.732z M-197.546,189.187
		l-0.877,3.274l579.458,155.264l0.877-3.273L-197.546,189.187z M-195.791,182.64l-0.879,3.273l579.459,155.266l0.877-3.273
		L-195.791,182.64z M274.904,743.812l-0.877,3.273l-579.459-155.265l0.877-3.273L274.904,743.812z M-302.801,582.001l-0.877,3.273
		l579.459,155.265l0.877-3.273L-302.801,582.001z M-301.046,575.454l-0.877,3.272l579.458,155.266l0.877-3.274L-301.046,575.454z
		 M-299.291,568.907l-0.879,3.271l579.458,155.268l0.878-3.274L-299.291,568.907z M-297.538,562.36l-0.876,3.273l579.457,155.265
		l0.877-3.273L-297.538,562.36z M-295.783,555.812l-0.877,3.274l579.458,155.265l0.877-3.273L-295.783,555.812z M-294.029,549.266
		l-0.877,3.274l579.458,155.267l0.878-3.275L-294.029,549.266z M-292.275,542.719l-0.878,3.272l579.459,155.267l0.877-3.273
		L-292.275,542.719z M-290.52,536.173l-0.877,3.273l579.457,155.265l0.877-3.273L-290.52,536.173z M-288.767,529.626l-0.877,3.273
		l579.458,155.265l0.877-3.273L-288.767,529.626z M-287.012,523.079l-0.877,3.273l579.46,155.265l0.877-3.272L-287.012,523.079z
		 M-285.259,516.53l-0.877,3.273l579.46,155.267l0.877-3.273L-285.259,516.53z M-283.504,509.985l-0.877,3.273l579.459,155.265
		l0.877-3.273L-283.504,509.985z M-281.75,503.438l-0.877,3.274l579.459,155.265l0.877-3.273L-281.75,503.438z M-279.995,496.891
		l-0.877,3.273l579.458,155.267l0.876-3.274L-279.995,496.891z M-278.24,490.344l-0.879,3.273l579.458,155.267l0.878-3.274
		L-278.24,490.344z M-276.487,483.798l-0.876,3.272l579.457,155.266l0.877-3.273L-276.487,483.798z M-274.733,477.251l-0.877,3.273
		l579.457,155.265l0.879-3.272L-274.733,477.251z M-272.979,470.704l-0.877,3.272l579.459,155.265l0.877-3.272L-272.979,470.704z
		 M-271.225,464.156l-0.877,3.272l579.459,155.267l0.877-3.273L-271.225,464.156z M-269.469,457.61l-0.877,3.272l579.457,155.266
		l0.877-3.274L-269.469,457.61z M-267.716,451.063l-0.877,3.273l579.458,155.264l0.879-3.273L-267.716,451.063z M-265.961,444.517
		l-0.877,3.273l579.46,155.264l0.877-3.272L-265.961,444.517z M-264.207,437.969l-0.878,3.272l579.459,155.267l0.877-3.273
		L-264.207,437.969z M-262.452,431.423l-0.878,3.272L316.129,589.96l0.877-3.272L-262.452,431.423z M-260.699,424.876l-0.877,3.273
		l579.459,155.263l0.877-3.272L-260.699,424.876z M-258.944,418.329l-0.877,3.272l579.458,155.265l0.877-3.273L-258.944,418.329z
		 M-257.191,411.781l-0.877,3.272l579.459,155.266l0.877-3.272L-257.191,411.781z M-255.436,405.235l-0.877,3.272l579.458,155.266
		l0.879-3.275L-255.436,405.235z M-253.682,398.687l-0.877,3.275L324.9,557.225l0.877-3.272L-253.682,398.687z M-251.928,392.141
		l-0.877,3.273l579.459,155.265l0.877-3.272L-251.928,392.141z M-194.038,176.094l-0.877,3.273l579.458,155.266l0.877-3.274
		L-194.038,176.094z M-192.283,169.546l-0.877,3.273l579.458,155.266l0.877-3.273L-192.283,169.546z M-190.529,162.999l-0.877,3.273
		l579.459,155.266l0.877-3.274L-190.529,162.999z M-188.775,156.452l-0.877,3.273l579.459,155.266l0.877-3.273L-188.775,156.452z
		 M-187.021,149.906l-0.878,3.272l579.459,155.266l0.877-3.274L-187.021,149.906z M-185.267,143.358l-0.877,3.274l579.458,155.266
		l0.878-3.275L-185.267,143.358z M-183.514,136.812l-0.876,3.273L395.069,295.35l0.876-3.272L-183.514,136.812z M-181.758,130.265
		l-0.878,3.272l579.458,155.266l0.878-3.272L-181.758,130.265z M-180.004,123.718l-0.877,3.272l579.459,155.266l0.877-3.272
		L-180.004,123.718z M-178.249,117.172l-0.878,3.272l579.46,155.265l0.876-3.273L-178.249,117.172z M-176.495,110.624l-0.877,3.273
		l579.458,155.265l0.877-3.273L-176.495,110.624z M-174.742,104.077l-0.877,3.273L403.84,262.615l0.878-3.273L-174.742,104.077z
		 M-172.987,97.53l-0.878,3.273l579.46,155.265l0.876-3.272L-172.987,97.53z M-171.232,90.983l-0.877,3.273l579.458,155.266
		l0.877-3.273L-171.232,90.983z M-169.479,84.437l-0.877,3.273l579.459,155.265l0.877-3.272L-169.479,84.437z M-167.725,77.891
		l-0.877,3.271l579.459,155.265l0.877-3.272L-167.725,77.891z M-165.97,71.343l-0.876,3.273l579.458,155.265l0.877-3.272
		L-165.97,71.343z M-164.216,64.796l-0.877,3.273l579.458,155.265l0.877-3.273L-164.216,64.796z M-162.463,58.249l-0.876,3.273
		L416.12,216.787l0.876-3.273L-162.463,58.249z M-160.707,51.701l-0.877,3.274l579.46,155.265l0.876-3.273L-160.707,51.701z
		 M-158.953,45.155l-0.877,3.273l579.459,155.265l0.877-3.272L-158.953,45.155z M-157.199,38.608l-0.877,3.273l579.459,155.265
		l0.878-3.271L-157.199,38.608z M-155.444,32.062l-0.877,3.272L423.137,190.6l0.877-3.273L-155.444,32.062z M-153.691,25.514
		l-0.877,3.274l579.459,155.265l0.878-3.273L-153.691,25.514z M-151.936,18.967l-0.876,3.274l579.457,155.267l0.877-3.274
		L-151.936,18.967z M-150.182,12.421l-0.877,3.273l579.458,155.265l0.877-3.273L-150.182,12.421z M-148.428,5.873l-0.877,3.274
		l579.457,155.265l0.879-3.273L-148.428,5.873z M-146.675-0.673l-0.876,3.272l579.459,155.266l0.877-3.273L-146.675-0.673z
		 M-144.919-7.22l-0.879,3.273l579.46,155.265l0.877-3.272L-144.919-7.22z M-143.165-13.766l-0.877,3.271l579.458,155.266
		l0.878-3.273L-143.165-13.766z M-141.411-20.314l-0.877,3.274L437.17,138.225l0.88-3.271L-141.411-20.314z M-139.656-26.86
		l-0.877,3.273l579.459,155.266l0.876-3.274L-139.656-26.86z M-137.901-33.407l-0.878,3.273L440.68,125.131l0.877-3.273
		L-137.901-33.407z M-136.148-39.955l-0.877,3.273l579.459,155.267l0.877-3.274L-136.148-39.955z M-134.394-46.501l-0.876,3.272
		l579.458,155.266l0.877-3.273L-134.394-46.501z M-132.64-53.048l-0.878,3.273L445.941,105.49l0.877-3.272L-132.64-53.048z
		 M-130.885-59.596l-0.877,3.274L447.695,98.942l0.877-3.272L-130.885-59.596z M-129.131-66.142l-0.877,3.273L449.449,92.396
		l0.877-3.273L-129.131-66.142z M-127.377-72.689l-0.877,3.273L451.203,85.849l0.879-3.272L-127.377-72.689z M-125.624-79.235
		l-0.875,3.272L452.959,79.303l0.877-3.273L-125.624-79.235z M-123.868-85.783l-0.877,3.273L454.713,72.756l0.877-3.273
		L-123.868-85.783z M-122.113-92.329l-0.878,3.272L456.467,66.209l0.877-3.273L-122.113-92.329z M-120.36-98.877l-0.877,3.274
		L458.222,59.662l0.876-3.272L-120.36-98.877z M-118.605-105.424l-0.877,3.273L459.977,53.114l0.877-3.272L-118.605-105.424z
		 M-116.853-111.971l-0.876,3.274L461.73,46.568l0.877-3.273L-116.853-111.971z M-115.097-118.518l-0.877,3.273L463.484,40.021
		l0.877-3.273L-115.097-118.518z"/>
</g>
<g id="Layer_2">
	<g>
		<defs>
			<path id="SVGID_1_" d="M329.285,537.359l-0.877,3.273L-251.05,385.367l0.877-3.273L329.285,537.359z M-248.419,375.548
				l-0.877,3.272l579.458,155.266l0.877-3.273L-248.419,375.548z M-246.665,369l-0.877,3.272l579.458,155.267l0.877-3.274
				L-246.665,369z M-244.909,362.453l-0.879,3.272L333.67,520.993l0.877-3.275L-244.909,362.453z M-243.156,355.906l-0.876,3.273
				l579.456,155.265l0.877-3.273L-243.156,355.906z M-241.402,349.359l-0.877,3.273L337.18,507.897l0.877-3.272L-241.402,349.359z
				 M-239.647,342.812l-0.877,3.274l579.458,155.266l0.877-3.274L-239.647,342.812z M-237.894,336.265l-0.878,3.273l579.459,155.267
				l0.877-3.274L-237.894,336.265z M-236.139,329.719l-0.877,3.273l579.457,155.266l0.878-3.273L-236.139,329.719z
				 M-234.385,323.172l-0.877,3.273l579.459,155.266l0.877-3.273L-234.385,323.172z M-232.631,316.625l-0.877,3.273l579.459,155.265
				l0.877-3.272L-232.631,316.625z M-230.878,310.077l-0.877,3.273l579.461,155.266l0.877-3.273L-230.878,310.077z
				 M-229.123,303.531l-0.877,3.273L349.459,462.07l0.877-3.273L-229.123,303.531z M-227.368,296.983l-0.877,3.274l579.458,155.266
				l0.877-3.273L-227.368,296.983z M-225.614,290.437l-0.877,3.274l579.458,155.266l0.877-3.274L-225.614,290.437z M-223.858,283.89
				l-0.88,3.274l579.459,155.267l0.877-3.275L-223.858,283.89z M-222.105,277.344l-0.876,3.273l579.456,155.265l0.877-3.273
				L-222.105,277.344z M-220.352,270.797l-0.877,3.273l579.457,155.265l0.879-3.272L-220.352,270.797z M-218.597,264.25
				l-0.877,3.273l579.458,155.264l0.877-3.273L-218.597,264.25z M-216.844,257.702l-0.877,3.273l579.459,155.266l0.877-3.273
				L-216.844,257.702z M-215.088,251.156l-0.877,3.273l579.457,155.266l0.877-3.275L-215.088,251.156z M-213.334,244.609
				l-0.877,3.273l579.458,155.265l0.879-3.274L-213.334,244.609z M-211.58,238.062l-0.877,3.274l579.459,155.264l0.878-3.273
				L-211.58,238.062z M-209.826,231.515l-0.878,3.273l579.46,155.266l0.877-3.273L-209.826,231.515z M-208.071,224.969l-0.878,3.273
				L370.51,383.506l0.877-3.271L-208.071,224.969z M-206.317,218.422l-0.877,3.273l579.459,155.264l0.877-3.273L-206.317,218.422z
				 M-204.563,211.875l-0.877,3.273l579.459,155.264l0.876-3.273L-204.563,211.875z M-202.81,205.327l-0.877,3.273l579.458,155.266
				l0.877-3.273L-202.81,205.327z M-201.055,198.781l-0.877,3.273l579.457,155.265l0.879-3.274L-201.055,198.781z M-199.3,192.232
				l-0.877,3.275l579.459,155.264l0.877-3.273L-199.3,192.232z M-197.546,185.687l-0.877,3.274l579.458,155.264l0.877-3.273
				L-197.546,185.687z M-195.791,179.14l-0.879,3.273l579.459,155.266l0.877-3.273L-195.791,179.14z M274.904,740.312l-0.877,3.273
				l-579.459-155.265l0.877-3.273L274.904,740.312z M-302.801,578.501l-0.877,3.273l579.459,155.265l0.877-3.273L-302.801,578.501z
				 M-301.046,571.954l-0.877,3.272l579.458,155.266l0.877-3.274L-301.046,571.954z M-299.291,565.407l-0.879,3.271l579.458,155.268
				l0.878-3.274L-299.291,565.407z M-297.538,558.86l-0.876,3.273l579.457,155.265l0.877-3.273L-297.538,558.86z M-295.783,552.312
				l-0.877,3.274l579.458,155.265l0.877-3.273L-295.783,552.312z M-294.029,545.766l-0.877,3.274l579.458,155.267l0.878-3.275
				L-294.029,545.766z M-292.275,539.219l-0.878,3.272l579.459,155.267l0.877-3.273L-292.275,539.219z M-290.52,532.673
				l-0.877,3.273l579.457,155.265l0.877-3.273L-290.52,532.673z M-288.767,526.126l-0.877,3.273l579.458,155.265l0.877-3.273
				L-288.767,526.126z M-287.012,519.579l-0.877,3.273l579.46,155.265l0.877-3.272L-287.012,519.579z M-285.259,513.03l-0.877,3.273
				l579.46,155.267l0.877-3.273L-285.259,513.03z M-283.504,506.485l-0.877,3.273l579.459,155.265l0.877-3.273L-283.504,506.485z
				 M-281.75,499.938l-0.877,3.274l579.459,155.265l0.877-3.273L-281.75,499.938z M-279.995,493.391l-0.877,3.273l579.458,155.267
				l0.876-3.274L-279.995,493.391z M-278.24,486.844l-0.879,3.273l579.458,155.267l0.878-3.274L-278.24,486.844z M-276.487,480.298
				l-0.876,3.272l579.457,155.266l0.877-3.273L-276.487,480.298z M-274.733,473.751l-0.877,3.273l579.457,155.265l0.879-3.272
				L-274.733,473.751z M-272.979,467.204l-0.877,3.272l579.459,155.265l0.877-3.272L-272.979,467.204z M-271.225,460.656
				l-0.877,3.272l579.459,155.267l0.877-3.273L-271.225,460.656z M-269.469,454.11l-0.877,3.272l579.457,155.266l0.877-3.274
				L-269.469,454.11z M-267.716,447.563l-0.877,3.273l579.458,155.264l0.879-3.273L-267.716,447.563z M-265.961,441.017
				l-0.877,3.273l579.46,155.264l0.877-3.272L-265.961,441.017z M-264.207,434.469l-0.878,3.272l579.459,155.267l0.877-3.273
				L-264.207,434.469z M-262.452,427.923l-0.878,3.272L316.129,586.46l0.877-3.272L-262.452,427.923z M-260.699,421.376
				l-0.877,3.273l579.459,155.263l0.877-3.272L-260.699,421.376z M-258.944,414.829l-0.877,3.272l579.458,155.265l0.877-3.273
				L-258.944,414.829z M-257.191,408.281l-0.877,3.272l579.459,155.266l0.877-3.272L-257.191,408.281z M-255.436,401.735
				l-0.877,3.272l579.458,155.266l0.879-3.275L-255.436,401.735z M-253.682,395.187l-0.877,3.275L324.9,553.725l0.877-3.272
				L-253.682,395.187z M-251.928,388.641l-0.877,3.273l579.459,155.265l0.877-3.272L-251.928,388.641z M-194.038,172.594
				l-0.877,3.273l579.458,155.266l0.877-3.274L-194.038,172.594z M-192.283,166.046l-0.877,3.273l579.458,155.266l0.877-3.273
				L-192.283,166.046z M-190.529,159.499l-0.877,3.273l579.459,155.266l0.877-3.274L-190.529,159.499z M-188.775,152.952
				l-0.877,3.273l579.459,155.266l0.877-3.273L-188.775,152.952z M-187.021,146.406l-0.878,3.272l579.459,155.266l0.877-3.274
				L-187.021,146.406z M-185.267,139.858l-0.877,3.274l579.458,155.266l0.878-3.275L-185.267,139.858z M-183.514,133.312
				l-0.876,3.273L395.069,291.85l0.876-3.272L-183.514,133.312z M-181.758,126.765l-0.878,3.272l579.458,155.266l0.878-3.272
				L-181.758,126.765z M-180.004,120.218l-0.877,3.272l579.459,155.266l0.877-3.272L-180.004,120.218z M-178.249,113.672
				l-0.878,3.272l579.46,155.265l0.876-3.273L-178.249,113.672z M-176.495,107.124l-0.877,3.273l579.458,155.265l0.877-3.273
				L-176.495,107.124z M-174.742,100.577l-0.877,3.273L403.84,259.115l0.878-3.273L-174.742,100.577z M-172.987,94.03l-0.878,3.273
				l579.46,155.265l0.876-3.272L-172.987,94.03z M-171.232,87.483l-0.877,3.273l579.458,155.266l0.877-3.273L-171.232,87.483z
				 M-169.479,80.937l-0.877,3.273l579.459,155.265l0.877-3.272L-169.479,80.937z M-167.725,74.391l-0.877,3.271l579.459,155.265
				l0.877-3.272L-167.725,74.391z M-165.97,67.843l-0.876,3.273l579.458,155.265l0.877-3.272L-165.97,67.843z M-164.216,61.296
				l-0.877,3.273l579.458,155.265l0.877-3.273L-164.216,61.296z M-162.463,54.749l-0.876,3.273L416.12,213.287l0.876-3.273
				L-162.463,54.749z M-160.707,48.201l-0.877,3.274l579.46,155.265l0.876-3.273L-160.707,48.201z M-158.953,41.655l-0.877,3.273
				l579.459,155.265l0.877-3.272L-158.953,41.655z M-157.199,35.108l-0.877,3.273l579.459,155.265l0.878-3.271L-157.199,35.108z
				 M-155.444,28.562l-0.877,3.272L423.137,187.1l0.877-3.273L-155.444,28.562z M-153.691,22.014l-0.877,3.274l579.459,155.265
				l0.878-3.273L-153.691,22.014z M-151.936,15.467l-0.876,3.274l579.457,155.267l0.877-3.274L-151.936,15.467z M-150.182,8.921
				l-0.877,3.273l579.458,155.265l0.877-3.273L-150.182,8.921z M-148.428,2.373l-0.877,3.274l579.457,155.265l0.879-3.273
				L-148.428,2.373z M-146.675-4.173l-0.876,3.272l579.459,155.266l0.877-3.273L-146.675-4.173z M-144.919-10.72l-0.879,3.273
				l579.46,155.265l0.877-3.272L-144.919-10.72z M-143.165-17.266l-0.877,3.271l579.458,155.266l0.878-3.273L-143.165-17.266z
				 M-141.411-23.814l-0.877,3.274L437.17,134.725l0.88-3.271L-141.411-23.814z M-139.656-30.36l-0.877,3.273l579.459,155.266
				l0.876-3.274L-139.656-30.36z M-137.901-36.907l-0.878,3.273L440.68,121.631l0.877-3.273L-137.901-36.907z M-136.148-43.455
				l-0.877,3.273l579.459,155.267l0.877-3.274L-136.148-43.455z M-134.394-50.001l-0.876,3.272l579.458,155.266l0.877-3.273
				L-134.394-50.001z M-132.64-56.548l-0.878,3.273L445.941,101.99l0.877-3.272L-132.64-56.548z M-130.885-63.096l-0.877,3.274
				L447.695,95.442l0.877-3.272L-130.885-63.096z M-129.131-69.642l-0.877,3.273L449.449,88.896l0.877-3.273L-129.131-69.642z
				 M-127.377-76.189l-0.877,3.273L451.203,82.349l0.879-3.272L-127.377-76.189z M-125.624-82.735l-0.875,3.272L452.959,75.803
				l0.877-3.273L-125.624-82.735z M-123.868-89.283l-0.877,3.273L454.713,69.256l0.877-3.273L-123.868-89.283z M-122.113-95.829
				l-0.878,3.272L456.467,62.709l0.877-3.273L-122.113-95.829z M-120.36-102.377l-0.877,3.274L458.222,56.162l0.876-3.272
				L-120.36-102.377z M-118.605-108.924l-0.877,3.273L459.977,49.614l0.877-3.272L-118.605-108.924z M-116.853-115.471l-0.876,3.274
				L461.73,43.068l0.877-3.273L-116.853-115.471z M-115.097-122.018l-0.877,3.273L463.484,36.521l0.877-3.273L-115.097-122.018z"/>
		</defs>
		<clipPath id="SVGID_2_">
			<use xlink:href="#SVGID_1_"  overflow="visible"/>
		</clipPath>
		<g clip-path="url(#SVGID_2_)">
			<rect x="27.1" y="5" fill="none" width="336.81" height="538.834"/>
			<path d="M98.811,542.414h-36.92c-23.572,0-36.92-14.199-36.92-38.34v-2.271c0-24.141,13.348-38.34,36.92-38.34h36.92
				c23.571,0,36.919,14.199,36.919,38.34v2.271C135.729,528.215,122.382,542.414,98.811,542.414z M101.934,501.519H58.767v2.84
				h43.167V501.519z"/>
			<path d="M27.101,460.623v-44.871c0-21.016,9.088-35.5,28.116-35.5h2.271c10.082,0,18.744,4.971,21.442,15.62
				c2.982-10.081,10.934-17.04,23.998-17.04h2.272c19.027,0,28.399,14.484,28.399,35.5v46.291H27.101z M63.736,413.338h-2.84v17.04
				h2.84V413.338z M99.805,411.918h-2.841v18.46h2.841V411.918z"/>
			<path d="M95.26,377.412h-4.97V358.81h-1.42c-4.544,11.786-15.194,19.312-30.104,19.312c-21.3,0-33.796-16.471-33.796-41.605
				c0-26.411,14.91-40.185,37.63-40.185h7.81v17.892h1.42c4.402-11.502,16.33-18.602,29.82-18.602
				c21.867,0,34.079,16.188,34.079,39.618C135.729,362.785,122.666,377.412,95.26,377.412z M63.736,328.706h-2.84v17.04h2.84
				V328.706z M99.805,328.706h-2.841v17.04h2.841V328.706z"/>
			<path d="M60.896,259.695h2.84v-36.352h33.228v36.352h2.841v-36.352H133.6v70.147H27.101v-70.147h33.795V259.695z"/>
			<path d="M95.26,220.504h-4.97v-18.602h-1.42c-4.544,11.786-15.194,19.312-30.104,19.312c-21.3,0-33.796-16.472-33.796-41.605
				c0-26.412,14.91-40.186,37.63-40.186h7.81v17.892h1.42c4.402-11.501,16.33-18.602,29.82-18.602
				c21.867,0,34.079,16.188,34.079,39.618C135.729,205.878,122.666,220.504,95.26,220.504z M63.736,171.799h-2.84v17.04h2.84
				V171.799z M99.805,171.799h-2.841v17.04h2.841V171.799z"/>
			<path d="M95.26,136.584h-4.97v-18.602h-1.42c-4.544,11.786-15.194,19.312-30.104,19.312c-21.3,0-33.796-16.472-33.796-41.605
				c0-26.412,14.91-40.186,37.63-40.186h7.81v17.892h1.42c4.402-11.502,16.33-18.602,29.82-18.602
				c21.867,0,34.079,16.188,34.079,39.618C135.729,121.958,122.666,136.584,95.26,136.584z M63.736,87.878h-2.84v17.04h2.84V87.878z
				 M99.805,87.878h-2.841v17.04h2.841V87.878z"/>
		</g>
	</g>
</g>
<g id="Layer_3">
	<g>
		<defs>
			<path id="SVGID_3_" d="M329.285,540.859l-0.877,3.273L-251.05,388.867l0.877-3.273L329.285,540.859z M-248.419,379.048
				l-0.877,3.272l579.458,155.266l0.877-3.273L-248.419,379.048z M-246.665,372.5l-0.877,3.272l579.458,155.267l0.877-3.274
				L-246.665,372.5z M-244.909,365.953l-0.879,3.272L333.67,524.493l0.877-3.275L-244.909,365.953z M-243.156,359.406l-0.876,3.273
				l579.456,155.265l0.877-3.273L-243.156,359.406z M-241.402,352.859l-0.877,3.273L337.18,511.397l0.877-3.272L-241.402,352.859z
				 M-239.647,346.312l-0.877,3.274l579.458,155.266l0.877-3.274L-239.647,346.312z M-237.894,339.765l-0.878,3.273l579.459,155.267
				l0.877-3.274L-237.894,339.765z M-236.139,333.219l-0.877,3.273l579.457,155.266l0.878-3.273L-236.139,333.219z
				 M-234.385,326.672l-0.877,3.273l579.459,155.266l0.877-3.273L-234.385,326.672z M-232.631,320.125l-0.877,3.273l579.459,155.265
				l0.877-3.272L-232.631,320.125z M-230.878,313.577l-0.877,3.273l579.461,155.266l0.877-3.273L-230.878,313.577z
				 M-229.123,307.031l-0.877,3.273L349.459,465.57l0.877-3.273L-229.123,307.031z M-227.368,300.483l-0.877,3.274l579.458,155.266
				l0.877-3.273L-227.368,300.483z M-225.614,293.937l-0.877,3.274l579.458,155.266l0.877-3.274L-225.614,293.937z M-223.858,287.39
				l-0.88,3.274l579.459,155.267l0.877-3.275L-223.858,287.39z M-222.105,280.844l-0.876,3.273l579.456,155.265l0.877-3.273
				L-222.105,280.844z M-220.352,274.297l-0.877,3.273l579.457,155.265l0.879-3.272L-220.352,274.297z M-218.597,267.75
				l-0.877,3.273l579.458,155.264l0.877-3.273L-218.597,267.75z M-216.844,261.202l-0.877,3.273l579.459,155.266l0.877-3.273
				L-216.844,261.202z M-215.088,254.656l-0.877,3.273l579.457,155.266l0.877-3.275L-215.088,254.656z M-213.334,248.109
				l-0.877,3.273l579.458,155.265l0.879-3.274L-213.334,248.109z M-211.58,241.562l-0.877,3.274l579.459,155.264l0.878-3.273
				L-211.58,241.562z M-209.826,235.015l-0.878,3.273l579.46,155.266l0.877-3.273L-209.826,235.015z M-208.071,228.469l-0.878,3.273
				L370.51,387.006l0.877-3.271L-208.071,228.469z M-206.317,221.922l-0.877,3.273l579.459,155.264l0.877-3.273L-206.317,221.922z
				 M-204.563,215.375l-0.877,3.273l579.459,155.264l0.876-3.273L-204.563,215.375z M-202.81,208.827l-0.877,3.273l579.458,155.266
				l0.877-3.273L-202.81,208.827z M-201.055,202.281l-0.877,3.273l579.457,155.265l0.879-3.274L-201.055,202.281z M-199.3,195.732
				l-0.877,3.275l579.459,155.264l0.877-3.273L-199.3,195.732z M-197.546,189.187l-0.877,3.274l579.458,155.264l0.877-3.273
				L-197.546,189.187z M-195.791,182.64l-0.879,3.273l579.459,155.266l0.877-3.273L-195.791,182.64z M274.904,743.812l-0.877,3.273
				l-579.459-155.265l0.877-3.273L274.904,743.812z M-302.801,582.001l-0.877,3.273l579.459,155.265l0.877-3.273L-302.801,582.001z
				 M-301.046,575.454l-0.877,3.272l579.458,155.266l0.877-3.274L-301.046,575.454z M-299.291,568.907l-0.879,3.271l579.458,155.268
				l0.878-3.274L-299.291,568.907z M-297.538,562.36l-0.876,3.273l579.457,155.265l0.877-3.273L-297.538,562.36z M-295.783,555.812
				l-0.877,3.274l579.458,155.265l0.877-3.273L-295.783,555.812z M-294.029,549.266l-0.877,3.274l579.458,155.267l0.878-3.275
				L-294.029,549.266z M-292.275,542.719l-0.878,3.272l579.459,155.267l0.877-3.273L-292.275,542.719z M-290.52,536.173
				l-0.877,3.273l579.457,155.265l0.877-3.273L-290.52,536.173z M-288.767,529.626l-0.877,3.273l579.458,155.265l0.877-3.273
				L-288.767,529.626z M-287.012,523.079l-0.877,3.273l579.46,155.265l0.877-3.272L-287.012,523.079z M-285.259,516.53l-0.877,3.273
				l579.46,155.267l0.877-3.273L-285.259,516.53z M-283.504,509.985l-0.877,3.273l579.459,155.265l0.877-3.273L-283.504,509.985z
				 M-281.75,503.438l-0.877,3.274l579.459,155.265l0.877-3.273L-281.75,503.438z M-279.995,496.891l-0.877,3.273l579.458,155.267
				l0.876-3.274L-279.995,496.891z M-278.24,490.344l-0.879,3.273l579.458,155.267l0.878-3.274L-278.24,490.344z M-276.487,483.798
				l-0.876,3.272l579.457,155.266l0.877-3.273L-276.487,483.798z M-274.733,477.251l-0.877,3.273l579.457,155.265l0.879-3.272
				L-274.733,477.251z M-272.979,470.704l-0.877,3.272l579.459,155.265l0.877-3.272L-272.979,470.704z M-271.225,464.156
				l-0.877,3.272l579.459,155.267l0.877-3.273L-271.225,464.156z M-269.469,457.61l-0.877,3.272l579.457,155.266l0.877-3.274
				L-269.469,457.61z M-267.716,451.063l-0.877,3.273l579.458,155.264l0.879-3.273L-267.716,451.063z M-265.961,444.517
				l-0.877,3.273l579.46,155.264l0.877-3.272L-265.961,444.517z M-264.207,437.969l-0.878,3.272l579.459,155.267l0.877-3.273
				L-264.207,437.969z M-262.452,431.423l-0.878,3.272L316.129,589.96l0.877-3.272L-262.452,431.423z M-260.699,424.876
				l-0.877,3.273l579.459,155.263l0.877-3.272L-260.699,424.876z M-258.944,418.329l-0.877,3.272l579.458,155.265l0.877-3.273
				L-258.944,418.329z M-257.191,411.781l-0.877,3.272l579.459,155.266l0.877-3.272L-257.191,411.781z M-255.436,405.235
				l-0.877,3.272l579.458,155.266l0.879-3.275L-255.436,405.235z M-253.682,398.687l-0.877,3.275L324.9,557.225l0.877-3.272
				L-253.682,398.687z M-251.928,392.141l-0.877,3.273l579.459,155.265l0.877-3.272L-251.928,392.141z M-194.038,176.094
				l-0.877,3.273l579.458,155.266l0.877-3.274L-194.038,176.094z M-192.283,169.546l-0.877,3.273l579.458,155.266l0.877-3.273
				L-192.283,169.546z M-190.529,162.999l-0.877,3.273l579.459,155.266l0.877-3.274L-190.529,162.999z M-188.775,156.452
				l-0.877,3.273l579.459,155.266l0.877-3.273L-188.775,156.452z M-187.021,149.906l-0.878,3.272l579.459,155.266l0.877-3.274
				L-187.021,149.906z M-185.267,143.358l-0.877,3.274l579.458,155.266l0.878-3.275L-185.267,143.358z M-183.514,136.812
				l-0.876,3.273L395.069,295.35l0.876-3.272L-183.514,136.812z M-181.758,130.265l-0.878,3.272l579.458,155.266l0.878-3.272
				L-181.758,130.265z M-180.004,123.718l-0.877,3.272l579.459,155.266l0.877-3.272L-180.004,123.718z M-178.249,117.172
				l-0.878,3.272l579.46,155.265l0.876-3.273L-178.249,117.172z M-176.495,110.624l-0.877,3.273l579.458,155.265l0.877-3.273
				L-176.495,110.624z M-174.742,104.077l-0.877,3.273L403.84,262.615l0.878-3.273L-174.742,104.077z M-172.987,97.53l-0.878,3.273
				l579.46,155.265l0.876-3.272L-172.987,97.53z M-171.232,90.983l-0.877,3.273l579.458,155.266l0.877-3.273L-171.232,90.983z
				 M-169.479,84.437l-0.877,3.273l579.459,155.265l0.877-3.272L-169.479,84.437z M-167.725,77.891l-0.877,3.271l579.459,155.265
				l0.877-3.272L-167.725,77.891z M-165.97,71.343l-0.876,3.273l579.458,155.265l0.877-3.272L-165.97,71.343z M-164.216,64.796
				l-0.877,3.273l579.458,155.265l0.877-3.273L-164.216,64.796z M-162.463,58.249l-0.876,3.273L416.12,216.787l0.876-3.273
				L-162.463,58.249z M-160.707,51.701l-0.877,3.274l579.46,155.265l0.876-3.273L-160.707,51.701z M-158.953,45.155l-0.877,3.273
				l579.459,155.265l0.877-3.272L-158.953,45.155z M-157.199,38.608l-0.877,3.273l579.459,155.265l0.878-3.271L-157.199,38.608z
				 M-155.444,32.062l-0.877,3.272L423.137,190.6l0.877-3.273L-155.444,32.062z M-153.691,25.514l-0.877,3.274l579.459,155.265
				l0.878-3.273L-153.691,25.514z M-151.936,18.967l-0.876,3.274l579.457,155.267l0.877-3.274L-151.936,18.967z M-150.182,12.421
				l-0.877,3.273l579.458,155.265l0.877-3.273L-150.182,12.421z M-148.428,5.873l-0.877,3.274l579.457,155.265l0.879-3.273
				L-148.428,5.873z M-146.675-0.673l-0.876,3.272l579.459,155.266l0.877-3.273L-146.675-0.673z M-144.919-7.22l-0.879,3.273
				l579.46,155.265l0.877-3.272L-144.919-7.22z M-143.165-13.766l-0.877,3.271l579.458,155.266l0.878-3.273L-143.165-13.766z
				 M-141.411-20.314l-0.877,3.274L437.17,138.225l0.88-3.271L-141.411-20.314z M-139.656-26.86l-0.877,3.273l579.459,155.266
				l0.876-3.274L-139.656-26.86z M-137.901-33.407l-0.878,3.273L440.68,125.131l0.877-3.273L-137.901-33.407z M-136.148-39.955
				l-0.877,3.273l579.459,155.267l0.877-3.274L-136.148-39.955z M-134.394-46.501l-0.876,3.272l579.458,155.266l0.877-3.273
				L-134.394-46.501z M-132.64-53.048l-0.878,3.273L445.941,105.49l0.877-3.272L-132.64-53.048z M-130.885-59.596l-0.877,3.274
				L447.695,98.942l0.877-3.272L-130.885-59.596z M-129.131-66.142l-0.877,3.273L449.449,92.396l0.877-3.273L-129.131-66.142z
				 M-127.377-72.689l-0.877,3.273L451.203,85.849l0.879-3.272L-127.377-72.689z M-125.624-79.235l-0.875,3.272L452.959,79.303
				l0.877-3.273L-125.624-79.235z M-123.868-85.783l-0.877,3.273L454.713,72.756l0.877-3.273L-123.868-85.783z M-122.113-92.329
				l-0.878,3.272L456.467,66.209l0.877-3.273L-122.113-92.329z M-120.36-98.877l-0.877,3.274L458.222,59.662l0.876-3.272
				L-120.36-98.877z M-118.605-105.424l-0.877,3.273L459.977,53.114l0.877-3.272L-118.605-105.424z M-116.853-111.971l-0.876,3.274
				L461.73,46.568l0.877-3.273L-116.853-111.971z M-115.097-118.518l-0.877,3.273L463.484,40.021l0.877-3.273L-115.097-118.518z"/>
		</defs>
		<clipPath id="SVGID_4_">
			<use xlink:href="#SVGID_3_"  overflow="visible"/>
		</clipPath>
		<g clip-path="url(#SVGID_4_)">
			<rect x="27.1" y="18" fill="none" width="336.81" height="538.834"/>
			<path d="M27.101,555.414v-38.056H133.6v38.056H27.101z"/>
			<path d="M27.101,514.52v-36.637l42.883-11.359l-0.284-1.42l-8.662,1.846c-6.958,1.42-15.194,2.414-22.436,2.414H27.101v-38.055
				H133.6v36.635l-42.883,11.359L91,480.724l8.662-1.847c6.958-1.42,15.193-2.414,22.436-2.414H133.6v38.057H27.101z"/>
			<path d="M27.101,428.469v-40.611c0-24.141,13.348-38.34,36.919-38.34H96.68c23.572,0,36.92,14.199,36.92,38.34v40.611H27.101z
				 M99.805,387.573H60.896v2.84h38.908V387.573z"/>
			<path d="M98.811,346.678H27.101v-38.055h74.833v-2.84H27.101v-38.056h71.709c23.571,0,36.919,14.2,36.919,38.339v2.272
				C135.729,332.479,122.382,346.678,98.811,346.678z"/>
			<path d="M99.805,196.161H133.6v68.727H27.101v-38.056h72.704V196.161z"/>
			<path d="M106.62,194.028H61.891c-23.572,0-36.92-14.2-36.92-38.34v-2.271c0-24.14,13.348-38.34,36.92-38.34h17.04v38.056H58.767
				v2.84h41.038v-2.84H81.77v-38.056h51.83v30.246l-12.212,5.68c6.815,1.846,14.342,5.68,14.342,19.879
				C135.729,186.36,126.5,194.028,106.62,194.028z"/>
			<path d="M60.896,78.442h2.84V42.091h33.228v36.352h2.841V42.091H133.6v70.147H27.101V42.091h33.795V78.442z"/>
		</g>
	</g>
</g>
<g id="Layer_4">
	<rect y="-3.466" width="160" height="604.228"/>
	<g>
		<rect x="14.1" y="195" fill="none" width="176" height="438"/>
		<path fill="#FFFFFF" d="M19.904,201.625h-3.598L15.467,204h-1.188l3.25-8.695h1.188L21.955,204h-1.211L19.904,201.625z
			 M18.093,196.552l-1.463,4.138h2.938L18.093,196.552z"/>
		<path fill="#FFFFFF" d="M26.699,195.305h2.854c2.626,0,4.222,1.427,4.222,4.306c0,2.938-1.595,4.39-4.222,4.39h-2.854V195.305z
			 M27.802,196.24v6.824h1.56c2.039,0,3.286-0.947,3.286-3.454c0-2.423-1.235-3.37-3.286-3.37H27.802z"/>
		<path fill="#FFFFFF" d="M35.915,195.305h5.565v0.936h-4.462v2.962h3.946v0.923h-3.946v2.938h4.51V204h-5.613V195.305z"/>
		<path fill="#FFFFFF" d="M43.403,202.741c0.624,0.228,1.415,0.432,2.327,0.432c1.571,0,2.255-0.54,2.255-1.379
			c0-0.743-0.516-1.235-2.147-1.703c-1.883-0.528-2.639-1.332-2.639-2.519c0-1.355,1.164-2.398,3.118-2.398
			c0.875,0,1.739,0.168,2.447,0.432l-0.252,0.912c-0.624-0.216-1.283-0.384-2.146-0.384c-1.392,0-2.051,0.563-2.051,1.367
			c0,0.792,0.54,1.248,2.027,1.655c1.991,0.54,2.771,1.343,2.771,2.59c0,1.416-1.151,2.387-3.214,2.387
			c-1.092,0-2.039-0.192-2.759-0.468L43.403,202.741z"/>
		<path fill="#FFFFFF" d="M51.227,195.305h1.103V204h-1.103V195.305z"/>
		<path fill="#FFFFFF" d="M58.784,204.132c-2.734,0-4.306-1.715-4.306-4.521c0-2.71,1.607-4.438,4.33-4.438
			c0.971,0,1.811,0.18,2.59,0.468l-0.276,0.923c-0.647-0.228-1.451-0.419-2.219-0.419c-1.991,0-3.298,1.283-3.298,3.466
			c0,2.303,1.271,3.586,3.286,3.586c0.504,0,1.068-0.06,1.595-0.168l-0.048-2.398h-1.907v-0.936h2.986v3.982
			C60.703,203.964,59.768,204.132,58.784,204.132z"/>
		<path fill="#FFFFFF" d="M69.847,195.305h1.08V204h-1.007l-5.001-6.812V204h-1.079v-8.695h1.007l5.001,6.812V195.305z"/>
		<path fill="#FFFFFF" d="M78.093,200.39V204H76.99v-8.695h5.445v0.936h-4.342v3.238h3.934v0.912H78.093z"/>
		<path fill="#FFFFFF" d="M84.502,195.305h5.564v0.936h-4.461v2.962h3.945v0.923h-3.945v2.938h4.51V204h-5.613V195.305z"/>
		<path fill="#FFFFFF" d="M91.99,202.741c0.623,0.228,1.415,0.432,2.326,0.432c1.571,0,2.256-0.54,2.256-1.379
			c0-0.743-0.517-1.235-2.147-1.703c-1.883-0.528-2.639-1.332-2.639-2.519c0-1.355,1.163-2.398,3.118-2.398
			c0.875,0,1.739,0.168,2.447,0.432l-0.252,0.912c-0.624-0.216-1.283-0.384-2.146-0.384c-1.393,0-2.052,0.563-2.052,1.367
			c0,0.792,0.54,1.248,2.027,1.655c1.991,0.54,2.771,1.343,2.771,2.59c0,1.416-1.152,2.387-3.215,2.387
			c-1.091,0-2.039-0.192-2.758-0.468L91.99,202.741z"/>
		<path fill="#FFFFFF" d="M105.379,196.24h-2.783V204h-1.104v-7.76h-2.781v-0.936h6.668V196.24z"/>
		<path fill="#FFFFFF" d="M107.025,195.305h1.104V204h-1.104V195.305z"/>
		<path fill="#FFFFFF" d="M112.916,204l-3.214-8.695h1.212l2.614,7.388l2.614-7.388h1.176L114.104,204H112.916z"/>
		<path fill="#FFFFFF" d="M122.924,201.625h-3.599L118.486,204h-1.188l3.25-8.695h1.188l3.238,8.695h-1.211L122.924,201.625z
			 M121.112,196.552l-1.463,4.138h2.938L121.112,196.552z"/>
		<path fill="#FFFFFF" d="M126.538,195.305h1.103v7.76h4.15V204h-5.253V195.305z"/>
		<path fill="#FFFFFF" d="M16.582,221.39V225h-1.103v-8.695h5.445v0.936h-4.342v3.238h3.934v0.912H16.582z"/>
		<path fill="#FFFFFF" d="M26.445,216.173c2.482,0,4.089,1.727,4.089,4.438c0,2.783-1.607,4.521-4.089,4.521
			c-2.483,0-4.078-1.739-4.078-4.521C22.367,217.9,23.962,216.173,26.445,216.173z M26.445,224.172c1.763,0,2.95-1.295,2.95-3.562
			c0-2.183-1.175-3.478-2.95-3.478c-1.763,0-2.951,1.295-2.951,3.478C23.494,222.877,24.682,224.172,26.445,224.172z"/>
		<path fill="#FFFFFF" d="M35.733,221.906h-1.955V225h-1.103v-8.695h2.53c2.243,0,3.466,0.996,3.466,2.734
			c0,1.427-0.744,2.291-1.859,2.663L39.031,225H37.76L35.733,221.906z M33.778,217.24v3.73h1.787c1.164,0,1.979-0.647,1.979-1.931
			c0-1.163-0.839-1.799-2.531-1.799H33.778z"/>
		<path fill="#FFFFFF" d="M45.346,222.481V225h-1.103v-8.695h2.566c2.267,0,3.646,1.032,3.646,3.01c0,2.063-1.379,3.167-3.646,3.167
			H45.346z M45.346,217.24v4.293h1.284c1.715,0,2.698-0.684,2.698-2.219c0-1.415-0.971-2.075-2.698-2.075H45.346z"/>
		<path fill="#FFFFFF" d="M52.462,216.305h5.565v0.936h-4.462v2.962h3.946v0.923h-3.946v2.938h4.51V225h-5.613V216.305z"/>
		<path fill="#FFFFFF" d="M63.789,216.173c2.482,0,4.089,1.727,4.089,4.438c0,2.783-1.607,4.521-4.089,4.521
			c-2.483,0-4.078-1.739-4.078-4.521C59.71,217.9,61.306,216.173,63.789,216.173z M63.789,224.172c1.763,0,2.95-1.295,2.95-3.562
			c0-2.183-1.175-3.478-2.95-3.478c-1.763,0-2.951,1.295-2.951,3.478C60.838,222.877,62.025,224.172,63.789,224.172z"/>
		<path fill="#FFFFFF" d="M71.122,222.481V225h-1.103v-8.695h2.566c2.267,0,3.646,1.032,3.646,3.01c0,2.063-1.379,3.167-3.646,3.167
			H71.122z M71.122,217.24v4.293h1.284c1.715,0,2.698-0.684,2.698-2.219c0-1.415-0.971-2.075-2.698-2.075H71.122z"/>
		<path fill="#FFFFFF" d="M78.239,216.305h1.103v7.76h4.15V225h-5.253V216.305z"/>
		<path fill="#FFFFFF" d="M85.162,216.305h5.565v0.936h-4.462v2.962h3.946v0.923h-3.946v2.938h4.51V225h-5.613V216.305z"/>
		<path fill="#FFFFFF" d="M19.964,239.02L17.985,246h-1.139l-2.542-8.695h1.175l1.967,7.304l2.015-7.304h1.032l2.039,7.28
			l1.943-7.28h1.151L23.071,246h-1.14L19.964,239.02z"/>
		<path fill="#FFFFFF" d="M33.199,242.15h-4.881V246h-1.103v-8.695h1.103v3.898h4.881v-3.898h1.104V246h-1.104V242.15z"/>
		<path fill="#FFFFFF" d="M40.521,237.173c2.482,0,4.089,1.727,4.089,4.438c0,2.783-1.607,4.521-4.089,4.521
			c-2.483,0-4.078-1.739-4.078-4.521C36.443,238.9,38.038,237.173,40.521,237.173z M40.521,245.172c1.763,0,2.95-1.295,2.95-3.562
			c0-2.183-1.175-3.478-2.95-3.478c-1.763,0-2.951,1.295-2.951,3.478C37.57,243.877,38.758,245.172,40.521,245.172z"/>
		<path fill="#FFFFFF" d="M49.931,237.305h1.104v5.013c0,2.003,0.839,2.854,2.339,2.854c1.499,0,2.327-0.852,2.327-2.854v-5.013
			h1.103v5.062c0,2.578-1.211,3.766-3.43,3.766c-2.219,0-3.442-1.188-3.442-3.766V237.305z"/>
		<path fill="#FFFFFF" d="M59.063,244.741c0.624,0.228,1.415,0.432,2.327,0.432c1.571,0,2.255-0.54,2.255-1.379
			c0-0.743-0.516-1.235-2.147-1.703c-1.883-0.528-2.639-1.332-2.639-2.519c0-1.355,1.164-2.398,3.118-2.398
			c0.875,0,1.739,0.168,2.447,0.432l-0.252,0.912c-0.624-0.216-1.283-0.384-2.146-0.384c-1.392,0-2.051,0.563-2.051,1.367
			c0,0.792,0.54,1.248,2.027,1.655c1.991,0.54,2.771,1.343,2.771,2.59c0,1.416-1.151,2.387-3.214,2.387
			c-1.092,0-2.039-0.192-2.759-0.468L59.063,244.741z"/>
		<path fill="#FFFFFF" d="M66.887,237.305h5.565v0.936H67.99v2.962h3.946v0.923H67.99v2.938h4.51V246h-5.613V237.305z"/>
		<path fill="#FFFFFF" d="M83.623,238.24h-2.782V246h-1.104v-7.76h-2.782v-0.936h6.668V238.24z"/>
		<path fill="#FFFFFF" d="M88.4,246h-1.104v-3.334l-3.262-5.361h1.271l2.566,4.33l2.543-4.33h1.247l-3.263,5.361V246z"/>
		<path fill="#FFFFFF" d="M94.293,243.481V246H93.19v-8.695h2.566c2.267,0,3.646,1.032,3.646,3.01c0,2.063-1.379,3.167-3.646,3.167
			H94.293z M94.293,238.24v4.293h1.284c1.715,0,2.698-0.684,2.698-2.219c0-1.415-0.971-2.075-2.698-2.075H94.293z"/>
		<path fill="#FFFFFF" d="M101.41,237.305h5.565v0.936h-4.462v2.962h3.946v0.923h-3.946v2.938h4.51V246h-5.613V237.305z"/>
		<path fill="#FFFFFF" d="M21.308,344.38h-2.291V351h-2.471v-6.62h-2.279v-2.075h7.04V344.38z"/>
		<path fill="#FFFFFF" d="M26.997,351h-2.471v-3.227l-3.106-5.469h2.747l1.643,3.286l1.631-3.286h2.65l-3.094,5.469V351z"/>
		<path fill="#FFFFFF" d="M33.406,348.913V351h-2.471v-8.695h3.55c2.291,0,3.622,1.188,3.622,3.274c0,2.122-1.331,3.334-3.622,3.334
			H33.406z M33.406,344.092v3.034h0.54c1.079,0,1.607-0.407,1.607-1.547c0-1.079-0.516-1.487-1.607-1.487H33.406z"/>
		<path fill="#FFFFFF" d="M43.413,342.137c2.806,0,4.414,1.703,4.414,4.51c0,2.818-1.607,4.521-4.414,4.521
			c-2.818,0-4.414-1.703-4.414-4.521C39,343.84,40.595,342.137,43.413,342.137z M43.413,349.333c1.115,0,1.859-0.852,1.859-2.687
			c0-1.823-0.744-2.675-1.859-2.675c-1.127,0-1.859,0.852-1.859,2.675C41.554,348.481,42.286,349.333,43.413,349.333z"/>
		<path fill="#FFFFFF" d="M53.336,351.168c-2.83,0-4.449-1.691-4.449-4.521c0-2.807,1.679-4.51,4.533-4.51
			c1.092,0,2.087,0.216,2.903,0.492l-0.456,1.871c-0.66-0.18-1.307-0.324-2.051-0.324c-1.451,0-2.375,0.779-2.375,2.543
			c0,1.715,0.875,2.59,2.375,2.59h0.168l-0.132-2.602h2.495v4.005C55.483,351,54.392,351.168,53.336,351.168z"/>
		<path fill="#FFFFFF" d="M61.149,348.313h-0.768V351h-2.471v-8.695h3.526c2.279,0,3.538,1.104,3.538,2.986
			c0,1.283-0.54,2.135-1.535,2.603L65.383,351h-2.818L61.149,348.313z M60.382,344.044v2.53h0.708c0.899,0,1.343-0.359,1.343-1.283
			c0-0.887-0.48-1.247-1.523-1.247H60.382z"/>
		<path fill="#FFFFFF" d="M71.084,349.369H68.47L68.026,351h-2.555l2.915-8.695h2.878L74.167,351h-2.639L71.084,349.369z
			 M69.777,344.512l-0.852,3.13h1.691L69.777,344.512z"/>
		<path fill="#FFFFFF" d="M77.529,348.913V351h-2.471v-8.695h3.55c2.291,0,3.622,1.188,3.622,3.274c0,2.122-1.331,3.334-3.622,3.334
			H77.529z M77.529,344.092v3.034h0.54c1.079,0,1.607-0.407,1.607-1.547c0-1.079-0.516-1.487-1.607-1.487H77.529z"/>
		<path fill="#FFFFFF" d="M88.939,347.762h-2.986V351h-2.471v-8.695h2.471v3.346h2.986v-3.346h2.459V351h-2.459V347.762z"/>
		<path fill="#FFFFFF" d="M93.178,342.305h2.471V351h-2.471V342.305z"/>
		<path fill="#FFFFFF" d="M101.432,342.137c0.96,0,1.823,0.168,2.591,0.432l-0.456,1.883c-0.551-0.155-1.127-0.252-1.643-0.252
			c-1.344,0-2.279,0.816-2.279,2.447c0,1.654,0.936,2.459,2.279,2.459c0.539,0,1.104-0.096,1.667-0.252l0.456,1.895
			c-0.779,0.264-1.631,0.42-2.615,0.42c-2.674,0-4.365-1.667-4.365-4.521C97.066,343.816,98.758,342.137,101.432,342.137z"/>
		<path fill="#FFFFFF" d="M105.395,348.793c0.611,0.204,1.475,0.408,2.338,0.408c1.008,0,1.38-0.24,1.38-0.636
			c0-0.42-0.288-0.659-1.451-0.972c-1.955-0.539-2.723-1.463-2.723-2.687c0-1.571,1.296-2.771,3.646-2.771
			c0.947,0,2.039,0.18,2.879,0.443l-0.48,1.908c-0.551-0.181-1.379-0.385-2.219-0.385c-0.923,0-1.283,0.264-1.283,0.648
			c0,0.42,0.336,0.635,1.451,0.923c2.123,0.552,2.902,1.451,2.902,2.831c0,1.619-1.223,2.662-3.813,2.662
			c-1.019,0-2.206-0.191-3.046-0.443L105.395,348.793z"/>
		<path fill="#FFFFFF" d="M21.044,364.24h-2.783V372h-1.104v-7.76h-2.782v-0.936h6.668V364.24z"/>
		<path fill="#FFFFFF" d="M28.675,368.15h-4.881V372h-1.103v-8.695h1.103v3.898h4.881v-3.898h1.104V372h-1.104V368.15z"/>
		<path fill="#FFFFFF" d="M32.543,363.305h5.565v0.936h-4.462v2.963h3.946v0.923h-3.946v2.938h4.51V372h-5.613V363.305z"/>
		<path fill="#FFFFFF" d="M47.205,363.173c0.888,0,1.643,0.155,2.363,0.444l-0.288,0.923c-0.552-0.228-1.284-0.384-1.979-0.384
			c-1.739,0-3.083,1.188-3.083,3.454c0,2.351,1.343,3.526,3.083,3.526c0.768,0,1.475-0.145,2.051-0.348l0.288,0.936
			c-0.732,0.264-1.487,0.407-2.435,0.407c-2.446,0-4.114-1.667-4.114-4.521C43.091,364.84,44.746,363.173,47.205,363.173z"/>
		<path fill="#FFFFFF" d="M55.041,363.173c2.482,0,4.089,1.728,4.089,4.438c0,2.782-1.607,4.521-4.089,4.521
			c-2.483,0-4.078-1.739-4.078-4.521C50.962,364.9,52.558,363.173,55.041,363.173z M55.041,371.172c1.763,0,2.95-1.295,2.95-3.562
			c0-2.183-1.175-3.478-2.95-3.478c-1.763,0-2.951,1.295-2.951,3.478C52.09,369.877,53.277,371.172,55.041,371.172z"/>
		<path fill="#FFFFFF" d="M64.725,363.173c2.482,0,4.09,1.728,4.09,4.438c0,2.782-1.607,4.521-4.09,4.521
			c-2.483,0-4.078-1.739-4.078-4.521C60.646,364.9,62.242,363.173,64.725,363.173z M64.725,371.172c1.763,0,2.95-1.295,2.95-3.562
			c0-2.183-1.175-3.478-2.95-3.478c-1.763,0-2.951,1.295-2.951,3.478C61.774,369.877,62.961,371.172,64.725,371.172z"/>
		<path fill="#FFFFFF" d="M72.058,369.481V372h-1.103v-8.695h2.566c2.267,0,3.646,1.031,3.646,3.01c0,2.063-1.379,3.167-3.646,3.167
			H72.058z M72.058,364.24v4.293h1.284c1.715,0,2.698-0.684,2.698-2.219c0-1.414-0.971-2.074-2.698-2.074H72.058z"/>
		<path fill="#FFFFFF" d="M79.174,363.305h5.565v0.936h-4.462v2.963h3.946v0.923h-3.946v2.938h4.51V372h-5.613V363.305z"/>
		<path fill="#FFFFFF" d="M90.104,368.906h-1.955V372h-1.103v-8.695h2.529c2.244,0,3.467,0.996,3.467,2.734
			c0,1.428-0.744,2.291-1.859,2.662L93.402,372h-1.271L90.104,368.906z M88.149,364.24v3.73h1.787c1.163,0,1.979-0.648,1.979-1.932
			c0-1.163-0.84-1.799-2.531-1.799H88.149z"/>
		<path fill="#FFFFFF" d="M98.494,363.305h1.104v5.014c0,2.002,0.84,2.854,2.339,2.854s2.327-0.852,2.327-2.854v-5.014h1.103v5.062
			c0,2.578-1.211,3.766-3.43,3.766c-2.22,0-3.442-1.188-3.442-3.766V363.305z"/>
		<path fill="#FFFFFF" d="M114.019,363.305h1.079V372h-1.007l-5.001-6.812V372h-1.08v-8.695h1.008l5.001,6.812V363.305z"/>
		<path fill="#FFFFFF" d="M117.862,363.305h1.103V372h-1.103V363.305z"/>
		<path fill="#FFFFFF" d="M125.192,363.173c2.482,0,4.09,1.728,4.09,4.438c0,2.782-1.607,4.521-4.09,4.521
			c-2.483,0-4.078-1.739-4.078-4.521C121.114,364.9,122.709,363.173,125.192,363.173z M125.192,371.172
			c1.763,0,2.95-1.295,2.95-3.562c0-2.183-1.176-3.478-2.95-3.478c-1.763,0-2.95,1.295-2.95,3.478
			C122.242,369.877,123.43,371.172,125.192,371.172z"/>
		<path fill="#FFFFFF" d="M137.431,363.305h1.079V372h-1.007l-5.001-6.812V372h-1.08v-8.695h1.008l5.001,6.812V363.305z"/>
		<path fill="#FFFFFF" d="M14.388,392.088c0.3,0.084,0.671,0.156,0.983,0.156c0.66,0,1.019-0.287,1.019-1.127v-6.812h1.104v6.584
			c0,1.572-0.576,2.243-1.955,2.243c-0.468,0-0.96-0.084-1.319-0.204L14.388,392.088z"/>
		<path fill="#FFFFFF" d="M20.027,384.305h1.104v5.014c0,2.002,0.839,2.854,2.338,2.854c1.5,0,2.327-0.852,2.327-2.854v-5.014h1.103
			v5.062c0,2.578-1.211,3.766-3.43,3.766c-2.219,0-3.442-1.188-3.442-3.766V384.305z"/>
		<path fill="#FFFFFF" d="M35.552,384.305h1.079V393h-1.007l-5.001-6.812V393h-1.079v-8.695h1.007l5.001,6.812V384.305z"/>
		<path fill="#FFFFFF" d="M39.395,384.305h5.565v0.936h-4.462v2.963h3.946v0.923h-3.946v2.938h4.51V393h-5.613V384.305z"/>
		<path fill="#FFFFFF" d="M51.562,393v-7.46l-1.811,0.995l-0.408-0.84l2.351-1.391h0.971V393H51.562z"/>
		<path fill="#FFFFFF" d="M54.863,393l0.012-0.036L54.815,393v-0.779l3.178-2.963c1.02-0.947,1.475-1.547,1.475-2.387
			c0-1.02-0.731-1.727-2.027-1.727c-0.852,0-1.679,0.264-2.254,0.563l-0.324-0.876c0.672-0.348,1.655-0.659,2.675-0.659
			c1.919,0,3.07,1.067,3.07,2.65c0,1.104-0.612,2.003-1.703,2.962l-2.531,2.279h4.51V393H54.863z"/>
		<path fill="#FFFFFF" d="M62.363,388.994h3.214v0.936h-3.214V388.994z"/>
		<path fill="#FFFFFF" d="M66.982,393l0.012-0.036L66.935,393v-0.779l3.178-2.963c1.02-0.947,1.475-1.547,1.475-2.387
			c0-1.02-0.731-1.727-2.027-1.727c-0.852,0-1.679,0.264-2.254,0.563l-0.324-0.876c0.672-0.348,1.655-0.659,2.675-0.659
			c1.919,0,3.07,1.067,3.07,2.65c0,1.104-0.612,2.003-1.703,2.962l-2.531,2.279h4.51V393H66.982z"/>
		<path fill="#FFFFFF" d="M74.362,393l0.012-0.036L74.314,393v-0.779l3.178-2.963c1.02-0.947,1.475-1.547,1.475-2.387
			c0-1.02-0.731-1.727-2.027-1.727c-0.852,0-1.679,0.264-2.254,0.563l-0.324-0.876c0.672-0.348,1.655-0.659,2.675-0.659
			c1.919,0,3.07,1.067,3.07,2.65c0,1.104-0.612,2.003-1.703,2.962l-2.531,2.279h4.51V393H74.362z"/>
		<path fill="#FFFFFF" d="M87.572,383.705H88.7l-2.999,11.094h-1.115L87.572,383.705z"/>
		<path fill="#FFFFFF" d="M99.582,384.305h1.08V393h-1.008l-5.002-6.812V393h-1.078v-8.695h1.007l5.001,6.812V384.305z"/>
		<path fill="#FFFFFF" d="M106.556,393h-1.103v-3.334l-3.263-5.361h1.271l2.567,4.33l2.542-4.33h1.248l-3.263,5.361V393z"/>
		<path fill="#FFFFFF" d="M114.476,384.173c0.888,0,1.644,0.155,2.362,0.444l-0.287,0.923c-0.552-0.228-1.283-0.384-1.979-0.384
			c-1.74,0-3.083,1.188-3.083,3.454c0,2.351,1.343,3.526,3.083,3.526c0.768,0,1.475-0.145,2.051-0.348l0.287,0.936
			c-0.731,0.264-1.486,0.407-2.435,0.407c-2.446,0-4.114-1.667-4.114-4.521C110.361,385.84,112.018,384.173,114.476,384.173z"/>
	</g>
	<line fill="none" stroke="#FFFFFF" stroke-width="2" stroke-miterlimit="10" x1="14.1" y1="292.043" x2="147" y2="292.043"/>
</g>
</svg>
