<?xml version="1.0" encoding="utf-8"?>
<!-- Generator: Adobe Illustrator 16.0.0, SVG Export Plug-In . SVG Version: 6.00 Build 0)  -->
<!DOCTYPE svg PUBLIC "-//W3C//DTD SVG 1.1//EN" "http://www.w3.org/Graphics/SVG/1.1/DTD/svg11.dtd">
<svg version="1.1" xmlns="http://www.w3.org/2000/svg" xmlns:xlink="http://www.w3.org/1999/xlink" x="0px" y="0px" width="975px"
	 height="250px" viewBox="0 0 975 250" enable-background="new 0 0 975 250" xml:space="preserve">

	 <style>
	 @keyframes slide {
	   0% {
	     transform: translate(0px, 0px);
	   }
	 	25% {
	     transform: translate(0px, 0px);
	   }
	 	40% {
	     transform: translate(6px, 0px);
	   }
	 	85% {
	     transform: translate(6px, 0px);
	   }
	   100% {
	     transform: translate(0px, 0px);
	   }
	 }
	 @keyframes slide2 {
	   0% {
	     transform: translate(0px, 0px);
	   }
	 	50% {
	     transform: translate(0px, 0px);
	   }
	 	65% {
	     transform: translate(5.5px, 0px);
	   }
	   85% {
	     transform: translate(5.5px, 0px);
	   }
	 	100% {
	 		transform: translate(0px, 0px);
	 	}
	 }
	 @keyframes appear {
	   0% {
	     opacity:0
	   }
	 	50% {
	     opacity:0
	   }
	 	65% {
	     opacity:1
	   }
	 	85% {
	     opacity:1
	   }
	   100% {
	     opacity:0
	   }
	 }
	 #Layer_4{
	   opacity:0;
	 	-webkit-animation: appear 10s cubic-bezier(0.670, 0.005, 0.200, 1.000) infinite;
	 	-webkit-animation-fill-mode: forwards;
	 }
	 #Layer_1{
	   -webkit-animation: slide 10s cubic-bezier(0.670, 0.005, 0.200, 1.000) infinite;
	   -webkit-animation-fill-mode: forwards;
	 }
	 #lines2{
	 -webkit-animation: slide2 10s cubic-bezier(0.670, 0.005, 0.200, 1.000) infinite;
	 -webkit-animation-fill-mode: forwards;
	 anim
	 }
	 </style>
	 <rect width="100%" height="100%" fill="white"/>
<g id="Layer_1">
	<path id="line" d="M82.449,537.238l-5.427-1.454l257.422-960.71l5.427,1.454L82.449,537.238z M350.723-420.563l-5.425-1.454
		L87.876,538.692l5.427,1.454L350.723-420.563z M361.58-417.655l-5.426-1.454L98.73,541.601l5.429,1.453L361.58-417.655z
		 M372.434-414.744l-5.425-1.458l-257.425,960.71l5.431,1.455L372.434-414.744z M383.288-411.838l-5.427-1.452L120.44,547.416
		l5.427,1.453L383.288-411.838z M394.143-408.93l-5.427-1.454l-257.42,960.711l5.425,1.454L394.143-408.93z M404.998-406.021
		l-5.429-1.455L142.148,553.234l5.429,1.455L404.998-406.021z M415.853-403.113l-5.427-1.455l-257.424,960.71l5.429,1.454
		L415.853-403.113z M426.706-400.203l-5.427-1.454L163.856,559.051l5.427,1.455L426.706-400.203z M437.56-397.296l-5.428-1.455
		L174.711,561.96l5.427,1.454L437.56-397.296z M448.414-394.387l-5.427-1.454l-257.42,960.71l5.426,1.455L448.414-394.387z
		 M459.271-391.481l-5.428-1.454L196.421,567.779l5.427,1.454L459.271-391.481z M470.123-388.571l-5.428-1.454l-257.421,960.71
		l5.427,1.454L470.123-388.571z M480.979-385.662l-5.429-1.454L218.128,573.593l5.427,1.454L480.979-385.662z M491.833-382.753
		l-5.428-1.455l-257.423,960.71l5.429,1.453L491.833-382.753z M502.688-379.843l-5.429-1.459l-257.424,960.71l5.431,1.455
		L502.688-379.843z M513.54-376.937l-5.427-1.453l-257.42,960.707l5.427,1.453L513.54-376.937z M524.395-374.029l-5.427-1.454
		L261.547,585.225l5.426,1.457L524.395-374.029z M535.25-371.12l-5.429-1.454l-257.418,960.71l5.427,1.453L535.25-371.12z
		 M546.105-368.213l-5.428-1.454L283.256,591.044l5.427,1.454L546.105-368.213z M556.958-365.302l-5.427-1.454L294.108,593.952
		l5.431,1.453L556.958-365.302z M567.812-362.395l-5.428-1.455l-257.42,960.709l5.428,1.457L567.812-362.395z M578.666-359.486
		l-5.429-1.455L315.819,599.771l5.428,1.456L578.666-359.486z M589.522-356.579l-5.427-1.456L326.673,602.679l5.427,1.453
		L589.522-356.579z M600.376-353.668l-5.428-1.456l-257.419,960.71l5.424,1.454L600.376-353.668z M611.229-350.761l-5.428-1.454
		l-257.418,960.71l5.427,1.455L611.229-350.761z M622.083-347.853l-5.426-1.454L359.238,611.404l5.427,1.452L622.083-347.853z
		 M632.939-344.945l-5.427-1.455l-257.422,960.71l5.427,1.453L632.939-344.945z M643.793-342.036l-5.429-1.454L380.945,617.218
		l5.429,1.458L643.793-342.036z M654.65-339.127l-5.43-1.455l-257.42,960.71l5.428,1.454L654.65-339.127z M665.503-336.218
		l-5.429-1.455l-257.418,960.71l5.427,1.454L665.503-336.218z M676.357-333.309l-5.428-1.457l-257.421,960.71l5.427,1.455
		L676.357-333.309z M-254.036,447.078l-5.427-1.454l257.42-960.711l5.427,1.454L-254.036,447.078z M14.238-510.725l-5.427-1.454
		l-257.421,960.711l5.428,1.453L14.238-510.725z M25.093-507.815l-5.426-1.454l-257.421,960.71l5.428,1.453L25.093-507.815z
		 M35.947-504.906l-5.424-1.457l-257.425,960.709l5.429,1.455L35.947-504.906z M46.801-501.999l-5.427-1.453l-257.42,960.708
		l5.427,1.453L46.801-501.999z M57.657-499.09l-5.429-1.455l-257.42,960.71l5.427,1.454L57.657-499.09z M68.512-496.182
		l-5.429-1.455L-194.34,463.072l5.431,1.456L68.512-496.182z M79.366-493.274l-5.426-1.456l-257.423,960.712l5.427,1.454
		L79.366-493.274z M90.219-490.363l-5.428-1.454l-257.42,960.708l5.427,1.453L90.219-490.363z M101.073-487.457l-5.427-1.454
		l-257.42,960.709l5.427,1.455L101.073-487.457z M111.927-484.549l-5.427-1.454l-257.42,960.712l5.426,1.454L111.927-484.549z
		 M122.785-481.641l-5.427-1.454l-257.423,960.712l5.427,1.454L122.785-481.641z M133.636-478.732l-5.427-1.454l-257.42,960.71
		l5.427,1.455L133.636-478.732z M144.492-475.823l-5.429-1.455l-257.42,960.71l5.427,1.454L144.492-475.823z M155.347-472.915
		l-5.427-1.454l-257.423,960.709l5.429,1.452L155.347-472.915z M166.201-470.005l-5.428-1.457L-96.649,489.247l5.429,1.456
		L166.201-470.005z M177.054-467.098l-5.425-1.454L-85.794,492.156l5.428,1.454L177.054-467.098z M187.908-464.19l-5.427-1.454
		l-257.42,960.708l5.426,1.456L187.908-464.19z M198.763-461.282l-5.426-1.454l-257.42,960.712l5.425,1.453L198.763-461.282z
		 M209.618-458.375l-5.425-1.454L-53.23,500.883l5.427,1.455L209.618-458.375z M220.471-455.462l-5.426-1.454L-42.376,503.792
		l5.429,1.453L220.471-455.462z M231.326-452.556l-5.427-1.454L-31.52,506.698l5.427,1.458L231.326-452.556z M242.18-449.647
		l-5.427-1.455L-20.666,509.61l5.426,1.454L242.18-449.647z M253.036-446.739l-5.426-1.456L-9.813,512.517l5.428,1.454
		L253.036-446.739z M263.889-443.829l-5.426-1.456L1.043,515.427l5.425,1.453L263.889-443.829z M274.743-440.923l-5.427-1.454
		L11.898,518.334l5.426,1.454L274.743-440.923z M285.597-438.014l-5.425-1.454l-257.42,960.71l5.427,1.453L285.597-438.014z
		 M296.453-435.107l-5.426-1.454L33.606,524.15l5.425,1.453L296.453-435.107z M307.306-432.197l-5.426-1.455L44.458,527.058
		l5.431,1.457L307.306-432.197z M318.164-429.289l-5.43-1.455L55.316,529.969l5.425,1.453L318.164-429.289z M329.017-426.381
		l-5.428-1.454L66.169,532.877l5.425,1.454L329.017-426.381z M687.209-330.403l-5.426-1.454L424.361,628.853l5.429,1.454
		L687.209-330.403z M698.066-327.493l-5.427-1.455L435.217,631.761l5.427,1.454L698.066-327.493z M708.921-324.585l-5.428-1.454
		l-257.422,960.71l5.429,1.455L708.921-324.585z M719.774-321.678l-5.427-1.454l-257.422,960.71l5.427,1.454L719.774-321.678z
		 M730.627-318.769l-5.425-1.456L467.78,640.487l5.429,1.454L730.627-318.769z M741.483-315.86l-5.429-1.454L478.633,643.396
		l5.431,1.455L741.483-315.86z M752.338-312.954l-5.427-1.452L489.49,646.305l5.426,1.452L752.338-312.954z M763.192-310.042
		l-5.426-1.457L500.345,649.212l5.426,1.455L763.192-310.042z M774.047-307.135l-5.426-1.454L511.198,652.123l5.426,1.453
		L774.047-307.135z M784.899-304.225l-5.426-1.456l-257.42,960.712l5.427,1.453L784.899-304.225z M795.755-301.317l-5.427-1.455
		l-257.42,960.71l5.427,1.453L795.755-301.317z M806.61-298.411l-5.428-1.454l-257.421,960.71l5.428,1.456L806.61-298.411z
		 M817.464-295.501l-5.427-1.456L554.616,663.755l5.426,1.452L817.464-295.501z M828.318-292.592l-5.427-1.455L565.469,666.662
		l5.428,1.453L828.318-292.592z M839.173-289.685l-5.428-1.454l-257.42,960.711l5.426,1.453L839.173-289.685z M850.025-286.776
		l-5.425-1.454L587.181,672.48l5.426,1.455L850.025-286.776z M860.882-283.867l-5.428-1.453l-257.42,960.708l5.426,1.453
		L860.882-283.867z M871.735-280.958l-5.427-1.454L608.888,678.297l5.428,1.454L871.735-280.958z M882.59-278.052l-5.427-1.453
		l-257.421,960.71l5.427,1.453L882.59-278.052z M893.445-275.142l-5.429-1.455L630.598,684.117l5.427,1.452L893.445-275.142z
		 M904.298-272.233l-5.427-1.454l-257.42,960.711l5.426,1.454L904.298-272.233z M915.153-269.326l-5.427-1.454l-257.421,960.71
		l5.424,1.456L915.153-269.326z M926.008-266.417l-5.426-1.454L663.16,692.839l5.427,1.454L926.008-266.417z M936.863-263.51
		l-5.429-1.454L674.014,695.747l5.429,1.455L936.863-263.51z M947.718-260.6l-5.429-1.453L684.865,698.654l5.43,1.455L947.718-260.6
		z M958.571-257.691l-5.429-1.454L695.724,701.562l5.427,1.454L958.571-257.691z M969.427-254.783l-5.429-1.454L706.577,704.471
		l5.428,1.457L969.427-254.783z M980.279-251.877l-5.426-1.453l-257.422,960.71l5.427,1.455L980.279-251.877z M991.134-248.965
		l-5.428-1.458L728.286,710.29l5.425,1.453L991.134-248.965z M1001.986-246.058l-5.424-1.454L739.141,713.197l5.428,1.456
		L1001.986-246.058z M1012.845-243.149l-5.43-1.454l-257.42,960.709l5.424,1.459L1012.845-243.149z M1023.697-240.24l-5.428-1.455
		L760.848,719.017l5.429,1.452L1023.697-240.24z M1034.551-237.331l-5.427-1.456L771.703,721.925l5.428,1.453L1034.551-237.331z
		 M1045.407-234.424l-5.428-1.454L782.556,724.833l5.43,1.453L1045.407-234.424z M1056.26-231.516l-5.426-1.454L793.413,727.74
		l5.427,1.453L1056.26-231.516z M1067.113-228.607l-5.427-1.456l-257.42,960.711l5.426,1.453L1067.113-228.607z M1077.971-225.699
		l-5.429-1.455l-257.42,960.71l5.426,1.453L1077.971-225.699z M1088.823-222.79l-5.428-1.455l-257.42,960.708l5.427,1.453
		L1088.823-222.79z M1099.679-219.882l-5.427-1.454l-257.42,960.708l5.426,1.457L1099.679-219.882z M1110.531-216.976l-5.426-1.451
		l-257.421,960.71l5.427,1.453L1110.531-216.976z M1121.388-214.064l-5.428-1.454L858.539,745.19l5.427,1.455L1121.388-214.064z
		 M1132.24-211.155l-5.425-1.455L869.393,748.099l5.428,1.453L1132.24-211.155z M1143.097-208.248l-5.429-1.455L880.247,751.009
		l5.426,1.452L1143.097-208.248z M1153.95-205.339l-5.427-1.454l-257.421,960.71l5.427,1.455L1153.95-205.339z M1164.805-202.433
		l-5.429-1.452l-257.42,960.71l5.428,1.454L1164.805-202.433z M1175.66-199.522l-5.429-1.455l-257.42,960.71l5.428,1.454
		L1175.66-199.522z"/>
	<path id="line2" d="M82.449,537.238l-5.427-1.454l257.422-960.71l5.427,1.454L82.449,537.238z M350.723-420.563l-5.425-1.454
		L87.876,538.692l5.427,1.454L350.723-420.563z M361.58-417.655l-5.426-1.454L98.73,541.601l5.429,1.453L361.58-417.655z
		 M372.434-414.744l-5.425-1.458l-257.425,960.71l5.431,1.455L372.434-414.744z M383.288-411.838l-5.427-1.452L120.44,547.416
		l5.427,1.453L383.288-411.838z M394.143-408.93l-5.427-1.454l-257.42,960.711l5.425,1.454L394.143-408.93z M404.998-406.021
		l-5.429-1.455L142.148,553.234l5.429,1.455L404.998-406.021z M415.853-403.113l-5.427-1.455l-257.424,960.71l5.429,1.454
		L415.853-403.113z M426.706-400.203l-5.427-1.454L163.856,559.051l5.427,1.455L426.706-400.203z M437.56-397.296l-5.428-1.455
		L174.711,561.96l5.427,1.454L437.56-397.296z M448.414-394.387l-5.427-1.454l-257.42,960.71l5.426,1.455L448.414-394.387z
		 M459.271-391.481l-5.428-1.454L196.421,567.779l5.427,1.454L459.271-391.481z M470.123-388.571l-5.428-1.454l-257.421,960.71
		l5.427,1.454L470.123-388.571z M480.979-385.662l-5.429-1.454L218.128,573.593l5.427,1.454L480.979-385.662z M491.833-382.753
		l-5.428-1.455l-257.423,960.71l5.429,1.453L491.833-382.753z M502.688-379.843l-5.429-1.459l-257.424,960.71l5.431,1.455
		L502.688-379.843z M513.54-376.937l-5.427-1.453l-257.42,960.707l5.427,1.453L513.54-376.937z M524.395-374.029l-5.427-1.454
		L261.547,585.225l5.426,1.457L524.395-374.029z M535.25-371.12l-5.429-1.454l-257.418,960.71l5.427,1.453L535.25-371.12z
		 M546.105-368.213l-5.428-1.454L283.256,591.044l5.427,1.454L546.105-368.213z M556.958-365.302l-5.427-1.454L294.108,593.952
		l5.431,1.453L556.958-365.302z M567.812-362.395l-5.428-1.455l-257.42,960.709l5.428,1.457L567.812-362.395z M578.666-359.486
		l-5.429-1.455L315.819,599.771l5.428,1.456L578.666-359.486z M589.522-356.579l-5.427-1.456L326.673,602.679l5.427,1.453
		L589.522-356.579z M600.376-353.668l-5.428-1.456l-257.419,960.71l5.424,1.454L600.376-353.668z M611.229-350.761l-5.428-1.454
		l-257.418,960.71l5.427,1.455L611.229-350.761z M622.083-347.853l-5.426-1.454L359.238,611.404l5.427,1.452L622.083-347.853z
		 M632.939-344.945l-5.427-1.455l-257.422,960.71l5.427,1.453L632.939-344.945z M643.793-342.036l-5.429-1.454L380.945,617.218
		l5.429,1.458L643.793-342.036z M654.65-339.127l-5.43-1.455l-257.42,960.71l5.428,1.454L654.65-339.127z M665.503-336.218
		l-5.429-1.455l-257.418,960.71l5.427,1.454L665.503-336.218z M676.357-333.309l-5.428-1.457l-257.421,960.71l5.427,1.455
		L676.357-333.309z M-254.036,447.078l-5.427-1.454l257.42-960.711l5.427,1.454L-254.036,447.078z M14.238-510.725l-5.427-1.454
		l-257.421,960.711l5.428,1.453L14.238-510.725z M25.093-507.815l-5.426-1.454l-257.421,960.71l5.428,1.453L25.093-507.815z
		 M35.947-504.906l-5.424-1.457l-257.425,960.709l5.429,1.455L35.947-504.906z M46.801-501.999l-5.427-1.453l-257.42,960.708
		l5.427,1.453L46.801-501.999z M57.657-499.09l-5.429-1.455l-257.42,960.71l5.427,1.454L57.657-499.09z M68.512-496.182
		l-5.429-1.455L-194.34,463.072l5.431,1.456L68.512-496.182z M79.366-493.274l-5.426-1.456l-257.423,960.712l5.427,1.454
		L79.366-493.274z M90.219-490.363l-5.428-1.454l-257.42,960.708l5.427,1.453L90.219-490.363z M101.073-487.457l-5.427-1.454
		l-257.42,960.709l5.427,1.455L101.073-487.457z M111.927-484.549l-5.427-1.454l-257.42,960.712l5.426,1.454L111.927-484.549z
		 M122.785-481.641l-5.427-1.454l-257.423,960.712l5.427,1.454L122.785-481.641z M133.636-478.732l-5.427-1.454l-257.42,960.71
		l5.427,1.455L133.636-478.732z M144.492-475.823l-5.429-1.455l-257.42,960.71l5.427,1.454L144.492-475.823z M155.347-472.915
		l-5.427-1.454l-257.423,960.709l5.429,1.452L155.347-472.915z M166.201-470.005l-5.428-1.457L-96.649,489.247l5.429,1.456
		L166.201-470.005z M177.054-467.098l-5.425-1.454L-85.794,492.156l5.428,1.454L177.054-467.098z M187.908-464.19l-5.427-1.454
		l-257.42,960.708l5.426,1.456L187.908-464.19z M198.763-461.282l-5.426-1.454l-257.42,960.712l5.425,1.453L198.763-461.282z
		 M209.618-458.375l-5.425-1.454L-53.23,500.883l5.427,1.455L209.618-458.375z M220.471-455.462l-5.426-1.454L-42.376,503.792
		l5.429,1.453L220.471-455.462z M231.326-452.556l-5.427-1.454L-31.52,506.698l5.427,1.458L231.326-452.556z M242.18-449.647
		l-5.427-1.455L-20.666,509.61l5.426,1.454L242.18-449.647z M253.036-446.739l-5.426-1.456L-9.813,512.517l5.428,1.454
		L253.036-446.739z M263.889-443.829l-5.426-1.456L1.043,515.427l5.425,1.453L263.889-443.829z M274.743-440.923l-5.427-1.454
		L11.898,518.334l5.426,1.454L274.743-440.923z M285.597-438.014l-5.425-1.454l-257.42,960.71l5.427,1.453L285.597-438.014z
		 M296.453-435.107l-5.426-1.454L33.606,524.15l5.425,1.453L296.453-435.107z M307.306-432.197l-5.426-1.455L44.458,527.058
		l5.431,1.457L307.306-432.197z M318.164-429.289l-5.43-1.455L55.316,529.969l5.425,1.453L318.164-429.289z M329.017-426.381
		l-5.428-1.454L66.169,532.877l5.425,1.454L329.017-426.381z M687.209-330.403l-5.426-1.454L424.361,628.853l5.429,1.454
		L687.209-330.403z M698.066-327.493l-5.427-1.455L435.217,631.761l5.427,1.454L698.066-327.493z M708.921-324.585l-5.428-1.454
		l-257.422,960.71l5.429,1.455L708.921-324.585z M719.774-321.678l-5.427-1.454l-257.422,960.71l5.427,1.454L719.774-321.678z
		 M730.627-318.769l-5.425-1.456L467.78,640.487l5.429,1.454L730.627-318.769z M741.483-315.86l-5.429-1.454L478.633,643.396
		l5.431,1.455L741.483-315.86z M752.338-312.954l-5.427-1.452L489.49,646.305l5.426,1.452L752.338-312.954z M763.192-310.042
		l-5.426-1.457L500.345,649.212l5.426,1.455L763.192-310.042z M774.047-307.135l-5.426-1.454L511.198,652.123l5.426,1.453
		L774.047-307.135z M784.899-304.225l-5.426-1.456l-257.42,960.712l5.427,1.453L784.899-304.225z M795.755-301.317l-5.427-1.455
		l-257.42,960.71l5.427,1.453L795.755-301.317z M806.61-298.411l-5.428-1.454l-257.421,960.71l5.428,1.456L806.61-298.411z
		 M817.464-295.501l-5.427-1.456L554.616,663.755l5.426,1.452L817.464-295.501z M828.318-292.592l-5.427-1.455L565.469,666.662
		l5.428,1.453L828.318-292.592z M839.173-289.685l-5.428-1.454l-257.42,960.711l5.426,1.453L839.173-289.685z M850.025-286.776
		l-5.425-1.454L587.181,672.48l5.426,1.455L850.025-286.776z M860.882-283.867l-5.428-1.453l-257.42,960.708l5.426,1.453
		L860.882-283.867z M871.735-280.958l-5.427-1.454L608.888,678.297l5.428,1.454L871.735-280.958z M882.59-278.052l-5.427-1.453
		l-257.421,960.71l5.427,1.453L882.59-278.052z M893.445-275.142l-5.429-1.455L630.598,684.117l5.427,1.452L893.445-275.142z
		 M904.298-272.233l-5.427-1.454l-257.42,960.711l5.426,1.454L904.298-272.233z M915.153-269.326l-5.427-1.454l-257.421,960.71
		l5.424,1.456L915.153-269.326z M926.008-266.417l-5.426-1.454L663.16,692.839l5.427,1.454L926.008-266.417z M936.863-263.51
		l-5.429-1.454L674.014,695.747l5.429,1.455L936.863-263.51z M947.718-260.6l-5.429-1.453L684.865,698.654l5.43,1.455L947.718-260.6
		z M958.571-257.691l-5.429-1.454L695.724,701.562l5.427,1.454L958.571-257.691z M969.427-254.783l-5.429-1.454L706.577,704.471
		l5.428,1.457L969.427-254.783z M980.279-251.877l-5.426-1.453l-257.422,960.71l5.427,1.455L980.279-251.877z M991.134-248.965
		l-5.428-1.458L728.286,710.29l5.425,1.453L991.134-248.965z M1001.986-246.058l-5.424-1.454L739.141,713.197l5.428,1.456
		L1001.986-246.058z M1012.845-243.149l-5.43-1.454l-257.42,960.709l5.424,1.459L1012.845-243.149z M1023.697-240.24l-5.428-1.455
		L760.848,719.017l5.429,1.452L1023.697-240.24z M1034.551-237.331l-5.427-1.456L771.703,721.925l5.428,1.453L1034.551-237.331z
		 M1045.407-234.424l-5.428-1.454L782.556,724.833l5.43,1.453L1045.407-234.424z M1056.26-231.516l-5.426-1.454L793.413,727.74
		l5.427,1.453L1056.26-231.516z M1067.113-228.607l-5.427-1.456l-257.42,960.711l5.426,1.453L1067.113-228.607z M1077.971-225.699
		l-5.429-1.455l-257.42,960.71l5.426,1.453L1077.971-225.699z M1088.823-222.79l-5.428-1.455l-257.42,960.708l5.427,1.453
		L1088.823-222.79z M1099.679-219.882l-5.427-1.454l-257.42,960.708l5.426,1.457L1099.679-219.882z M1110.531-216.976l-5.426-1.451
		l-257.421,960.71l5.427,1.453L1110.531-216.976z M1121.388-214.064l-5.428-1.454L858.539,745.19l5.427,1.455L1121.388-214.064z
		 M1132.24-211.155l-5.425-1.455L869.393,748.099l5.428,1.453L1132.24-211.155z M1143.097-208.248l-5.429-1.455L880.247,751.009
		l5.426,1.452L1143.097-208.248z M1153.95-205.339l-5.427-1.454l-257.421,960.71l5.427,1.455L1153.95-205.339z M1164.805-202.433
		l-5.429-1.452l-257.42,960.71l5.428,1.454L1164.805-202.433z M1175.66-199.522l-5.429-1.455l-257.42,960.71l5.428,1.454
		L1175.66-199.522z"/>
</g>
<g id="Layer_2">
	<g>
		<defs>
			<path id="SVGID_1_" d="M88.252,537.238l-5.427-1.454l257.421-960.71l5.427,1.454L88.252,537.238z M356.526-420.563l-5.425-1.454
				L93.679,538.692l5.427,1.454L356.526-420.563z M367.382-417.655l-5.426-1.454L104.533,541.601l5.429,1.453L367.382-417.655z
				 M378.236-414.744l-5.425-1.458l-257.425,960.71l5.43,1.455L378.236-414.744z M389.091-411.838l-5.427-1.452L126.243,547.416
				l5.428,1.453L389.091-411.838z M399.945-408.93l-5.427-1.454l-257.42,960.711l5.425,1.454L399.945-408.93z M410.801-406.021
				l-5.429-1.455L147.951,553.234l5.429,1.455L410.801-406.021z M421.655-403.113l-5.427-1.455l-257.424,960.71l5.429,1.454
				L421.655-403.113z M432.508-400.203l-5.427-1.454L169.659,559.051l5.427,1.455L432.508-400.203z M443.362-397.296l-5.427-1.455
				L180.514,561.96l5.427,1.454L443.362-397.296z M454.217-394.387l-5.427-1.454l-257.42,960.71l5.426,1.455L454.217-394.387z
				 M465.073-391.481l-5.428-1.454L202.224,567.779l5.427,1.454L465.073-391.481z M475.926-388.571l-5.428-1.454l-257.421,960.71
				l5.427,1.454L475.926-388.571z M486.781-385.662l-5.428-1.454L223.931,573.593l5.427,1.454L486.781-385.662z M497.636-382.753
				l-5.429-1.455l-257.422,960.71l5.429,1.453L497.636-382.753z M508.49-379.843l-5.429-1.459l-257.423,960.71l5.43,1.455
				L508.49-379.843z M519.344-376.937l-5.428-1.453l-257.42,960.707l5.427,1.453L519.344-376.937z M530.197-374.029l-5.427-1.454
				L267.35,585.225l5.426,1.457L530.197-374.029z M541.052-371.12l-5.427-1.454l-257.419,960.71l5.427,1.453L541.052-371.12z
				 M551.907-368.213l-5.427-1.454L289.059,591.044l5.428,1.454L551.907-368.213z M562.761-365.302l-5.428-1.454L299.912,593.952
				l5.43,1.453L562.761-365.302z M573.615-362.395l-5.427-1.455L310.768,596.859l5.429,1.457L573.615-362.395z M584.47-359.486
				l-5.43-1.455L321.622,599.771l5.427,1.456L584.47-359.486z M595.325-356.579l-5.428-1.456L332.476,602.679l5.427,1.453
				L595.325-356.579z M606.178-353.668l-5.427-1.456l-257.418,960.71l5.423,1.454L606.178-353.668z M617.033-350.761l-5.429-1.454
				l-257.418,960.71l5.427,1.455L617.033-350.761z M627.887-347.853l-5.427-1.454L365.041,611.404l5.428,1.452L627.887-347.853z
				 M638.742-344.945l-5.427-1.455l-257.421,960.71l5.427,1.453L638.742-344.945z M649.596-342.036l-5.428-1.454l-257.42,960.708
				l5.429,1.458L649.596-342.036z M660.454-339.127l-5.432-1.455l-257.418,960.71l5.427,1.454L660.454-339.127z M671.306-336.218
				l-5.428-1.455l-257.419,960.71l5.427,1.454L671.306-336.218z M682.16-333.309l-5.427-1.457l-257.422,960.71l5.427,1.455
				L682.16-333.309z M-248.233,447.078l-5.427-1.454L3.759-515.087l5.427,1.454L-248.233,447.078z M20.041-510.725l-5.427-1.454
				l-257.42,960.711l5.427,1.453L20.041-510.725z M30.896-507.815l-5.426-1.454l-257.422,960.71l5.429,1.453L30.896-507.815z
				 M41.75-504.906l-5.424-1.457l-257.425,960.709l5.429,1.455L41.75-504.906z M52.604-501.999l-5.427-1.453l-257.42,960.708
				l5.427,1.453L52.604-501.999z M63.46-499.09l-5.429-1.455l-257.42,960.71l5.427,1.454L63.46-499.09z M74.314-496.182
				l-5.429-1.455l-257.423,960.709l5.43,1.456L74.314-496.182z M85.168-493.274l-5.425-1.456L-177.68,465.982l5.427,1.454
				L85.168-493.274z M96.022-490.363l-5.427-1.454l-257.421,960.708l5.428,1.453L96.022-490.363z M106.876-487.457l-5.427-1.454
				l-257.42,960.709l5.427,1.455L106.876-487.457z M117.73-484.549l-5.427-1.454l-257.42,960.712l5.426,1.454L117.73-484.549z
				 M128.588-481.641l-5.427-1.454l-257.423,960.712l5.427,1.454L128.588-481.641z M139.439-478.732l-5.427-1.454l-257.42,960.71
				l5.427,1.455L139.439-478.732z M150.295-475.823l-5.429-1.455l-257.42,960.71l5.428,1.454L150.295-475.823z M161.149-472.915
				l-5.427-1.454l-257.423,960.709l5.429,1.452L161.149-472.915z M172.004-470.005l-5.428-1.457L-90.847,489.247l5.429,1.456
				L172.004-470.005z M182.856-467.098l-5.425-1.454L-79.991,492.156l5.427,1.454L182.856-467.098z M193.71-464.19l-5.427-1.454
				l-257.42,960.708l5.426,1.456L193.71-464.19z M204.565-461.282l-5.426-1.454L-58.28,497.977l5.425,1.453L204.565-461.282z
				 M215.421-458.375l-5.425-1.454L-47.428,500.883l5.427,1.455L215.421-458.375z M226.273-455.462l-5.425-1.454L-36.574,503.792
				l5.429,1.453L226.273-455.462z M237.128-452.556l-5.427-1.454L-25.717,506.698l5.427,1.458L237.128-452.556z M247.982-449.647
				l-5.427-1.455L-14.863,509.61l5.426,1.454L247.982-449.647z M258.839-446.739l-5.426-1.456L-4.011,512.517l5.428,1.454
				L258.839-446.739z M269.691-443.829l-5.426-1.456L6.846,515.427l5.425,1.453L269.691-443.829z M280.546-440.923l-5.428-1.454
				L17.702,518.334l5.426,1.454L280.546-440.923z M291.4-438.014l-5.425-1.454l-257.42,960.71l5.427,1.453L291.4-438.014z
				 M302.256-435.107l-5.426-1.454L39.409,524.15l5.425,1.453L302.256-435.107z M313.109-432.197l-5.425-1.455L50.262,527.058
				l5.43,1.457L313.109-432.197z M323.967-429.289l-5.431-1.455L61.119,529.969l5.426,1.453L323.967-429.289z M334.819-426.381
				l-5.428-1.454L71.972,532.877l5.425,1.454L334.819-426.381z M693.013-330.403l-5.427-1.454L430.164,628.853l5.429,1.454
				L693.013-330.403z M703.868-327.493l-5.427-1.455L441.02,631.761l5.427,1.454L703.868-327.493z M714.723-324.585l-5.427-1.454
				l-257.422,960.71l5.429,1.455L714.723-324.585z M725.578-321.678l-5.428-1.454l-257.422,960.71l5.428,1.454L725.578-321.678z
				 M736.431-318.769l-5.426-1.456L473.583,640.487l5.429,1.454L736.431-318.769z M747.286-315.86l-5.429-1.454L484.436,643.396
				l5.432,1.455L747.286-315.86z M758.141-312.954l-5.428-1.452l-257.42,960.71l5.426,1.452L758.141-312.954z M768.994-310.042
				l-5.425-1.457L506.148,649.212l5.425,1.455L768.994-310.042z M779.85-307.135l-5.426-1.454L517.002,652.123l5.426,1.453
				L779.85-307.135z M790.702-304.225l-5.426-1.456L527.855,655.031l5.428,1.453L790.702-304.225z M801.558-301.317l-5.427-1.455
				l-257.42,960.71l5.427,1.453L801.558-301.317z M812.412-298.411l-5.427-1.454l-257.42,960.71l5.428,1.456L812.412-298.411z
				 M823.267-295.501l-5.428-1.456l-257.42,960.712l5.426,1.452L823.267-295.501z M834.121-292.592l-5.427-1.455L571.272,666.662
				l5.427,1.453L834.121-292.592z M844.976-289.685l-5.427-1.454L582.128,669.573l5.426,1.453L844.976-289.685z M855.828-286.776
				l-5.424-1.454L592.984,672.48l5.426,1.455L855.828-286.776z M866.684-283.867l-5.427-1.453l-257.42,960.708l5.426,1.453
				L866.684-283.867z M877.538-280.958l-5.427-1.454l-257.42,960.709l5.427,1.454L877.538-280.958z M888.394-278.052l-5.428-1.453
				l-257.421,960.71l5.428,1.453L888.394-278.052z M899.249-275.142l-5.429-1.455L636.399,684.117l5.427,1.452L899.249-275.142z
				 M910.102-272.233l-5.427-1.454L647.254,687.023l5.426,1.454L910.102-272.233z M920.956-269.326l-5.428-1.454l-257.42,960.71
				l5.424,1.456L920.956-269.326z M931.81-266.417l-5.426-1.454L668.963,692.839l5.427,1.454L931.81-266.417z M942.666-263.51
				l-5.428-1.454L679.817,695.747l5.427,1.455L942.666-263.51z M953.521-260.6l-5.429-1.453L690.669,698.654l5.428,1.455
				L953.521-260.6z M964.373-257.691l-5.427-1.454L701.525,701.562l5.427,1.454L964.373-257.691z M975.229-254.783l-5.428-1.454
				l-257.42,960.708l5.427,1.457L975.229-254.783z M986.083-251.877l-5.427-1.453l-257.422,960.71l5.428,1.455L986.083-251.877z
				 M996.937-248.965l-5.427-1.458L734.089,710.29l5.426,1.453L996.937-248.965z M1007.789-246.058l-5.424-1.454L744.943,713.197
				l5.427,1.456L1007.789-246.058z M1018.646-243.149l-5.429-1.454L755.797,716.105l5.425,1.459L1018.646-243.149z M1029.499-240.24
				l-5.427-1.455L766.651,719.017l5.428,1.452L1029.499-240.24z M1040.354-237.331l-5.428-1.456l-257.42,960.711l5.427,1.453
				L1040.354-237.331z M1051.21-234.424l-5.427-1.454L788.359,724.833l5.429,1.453L1051.21-234.424z M1062.062-231.516l-5.426-1.454
				L799.215,727.74l5.427,1.453L1062.062-231.516z M1072.917-228.607l-5.427-1.456L810.069,730.648l5.426,1.453L1072.917-228.607z
				 M1083.772-225.699l-5.429-1.455l-257.418,960.71l5.426,1.453L1083.772-225.699z M1094.625-222.79l-5.427-1.455l-257.42,960.708
				l5.427,1.453L1094.625-222.79z M1105.481-219.882l-5.427-1.454L842.634,739.372l5.426,1.457L1105.481-219.882z M1116.334-216.976
				l-5.425-1.451l-257.423,960.71l5.428,1.453L1116.334-216.976z M1127.19-214.064l-5.428-1.454L864.341,745.19l5.428,1.455
				L1127.19-214.064z M1138.043-211.155l-5.426-1.455L875.196,748.099l5.427,1.453L1138.043-211.155z M1148.899-208.248l-5.43-1.455
				L886.05,751.009l5.426,1.452L1148.899-208.248z M1159.754-205.339l-5.428-1.454l-257.42,960.71l5.425,1.455L1159.754-205.339z
				 M1170.607-202.433l-5.429-1.452l-257.42,960.71l5.427,1.454L1170.607-202.433z M1181.462-199.522l-5.427-1.455l-257.42,960.71
				l5.427,1.454L1181.462-199.522z"/>
		</defs>
		<clipPath id="SVGID_2_">
			<use xlink:href="#SVGID_1_"  overflow="visible"/>
		</clipPath>
		<g clip-path="url(#SVGID_2_)">
			<rect x="77.519" y="36.23" fill="none" width="893.357" height="558.411"/>
			<path d="M79.874,155.122V93.911c0-39.081,23.542-61.211,63.565-61.211h3.767c40.023,0,63.565,22.13,63.565,61.211v61.211
				c0,39.081-23.542,61.211-63.565,61.211h-3.767C103.416,216.333,79.874,194.203,79.874,155.122z M147.677,160.302v-71.57h-4.709
				v71.57H147.677z"/>
			<path d="M215.478,36.231h74.395c34.843,0,58.857,15.067,58.857,46.615v3.767c0,16.715-8.24,31.077-25.897,35.55
				c16.715,4.943,28.251,18.128,28.251,39.787v3.767c0,31.548-24.014,47.086-58.857,47.086h-76.749V36.231z M293.875,96.971v-4.708
				h-28.251v4.708H293.875z M296.229,156.77v-4.708h-30.605v4.708H296.229z"/>
			<path d="M353.438,149.236v-8.24h30.841v-2.354c-19.541-7.534-32.018-25.191-32.018-49.911c0-35.314,27.31-56.032,68.98-56.032
				c43.789,0,66.626,24.72,66.626,62.389v12.948h-29.664v2.354c19.069,7.298,30.841,27.074,30.841,49.439
				c0,36.256-26.839,56.503-65.684,56.503C377.687,216.333,353.438,194.674,353.438,149.236z M434.189,96.971v-4.708h-28.251v4.708
				H434.189z M434.189,156.77v-4.708h-28.251v4.708H434.189z"/>
			<path d="M548.604,92.263v4.708h60.27v55.09h-60.27v4.708h60.27v56.032H492.573V36.231h116.301v56.032H548.604z"/>
			<path d="M613.581,149.236v-8.24h30.841v-2.354c-19.54-7.534-32.019-25.191-32.019-49.911c0-35.314,27.31-56.032,68.98-56.032
				c43.79,0,66.626,24.72,66.626,62.389v12.948h-29.663v2.354c19.069,7.298,30.841,27.074,30.841,49.439
				c0,36.256-26.839,56.503-65.685,56.503C637.83,216.333,613.581,194.674,613.581,149.236z M694.333,96.971v-4.708h-28.252v4.708
				H694.333z M694.333,156.77v-4.708h-28.252v4.708H694.333z"/>
			<path d="M752.716,149.236v-8.24h30.841v-2.354c-19.54-7.534-32.019-25.191-32.019-49.911c0-35.314,27.31-56.032,68.98-56.032
				c43.79,0,66.626,24.72,66.626,62.389v12.948h-29.663v2.354c19.069,7.298,30.841,27.074,30.841,49.439
				c0,36.256-26.839,56.503-65.685,56.503C776.965,216.333,752.716,194.674,752.716,149.236z M833.468,96.971v-4.708h-28.252v4.708
				H833.468z M833.468,156.77v-4.708h-28.252v4.708H833.468z"/>
		</g>
	</g>
</g>
<g id="Layer_3">
	<g>
		<defs>
			<path id="SVGID_3_" d="M82.449,537.238l-5.427-1.454l257.422-960.71l5.427,1.454L82.449,537.238z M350.723-420.563l-5.425-1.454
				L87.876,538.692l5.427,1.454L350.723-420.563z M361.58-417.655l-5.426-1.454L98.73,541.601l5.429,1.453L361.58-417.655z
				 M372.434-414.744l-5.425-1.458l-257.425,960.71l5.431,1.455L372.434-414.744z M383.288-411.838l-5.427-1.452L120.44,547.416
				l5.427,1.453L383.288-411.838z M394.143-408.93l-5.427-1.454l-257.42,960.711l5.425,1.454L394.143-408.93z M404.998-406.021
				l-5.429-1.455L142.148,553.234l5.429,1.455L404.998-406.021z M415.853-403.113l-5.427-1.455l-257.424,960.71l5.429,1.454
				L415.853-403.113z M426.706-400.203l-5.427-1.454L163.856,559.051l5.427,1.455L426.706-400.203z M437.56-397.296l-5.428-1.455
				L174.711,561.96l5.427,1.454L437.56-397.296z M448.414-394.387l-5.427-1.454l-257.42,960.71l5.426,1.455L448.414-394.387z
				 M459.271-391.481l-5.428-1.454L196.421,567.779l5.427,1.454L459.271-391.481z M470.123-388.571l-5.428-1.454l-257.421,960.71
				l5.427,1.454L470.123-388.571z M480.979-385.662l-5.429-1.454L218.128,573.593l5.427,1.454L480.979-385.662z M491.833-382.753
				l-5.428-1.455l-257.423,960.71l5.429,1.453L491.833-382.753z M502.688-379.843l-5.429-1.459l-257.424,960.71l5.431,1.455
				L502.688-379.843z M513.54-376.937l-5.427-1.453l-257.42,960.707l5.427,1.453L513.54-376.937z M524.395-374.029l-5.427-1.454
				L261.547,585.225l5.426,1.457L524.395-374.029z M535.25-371.12l-5.429-1.454l-257.418,960.71l5.427,1.453L535.25-371.12z
				 M546.105-368.213l-5.428-1.454L283.256,591.044l5.427,1.454L546.105-368.213z M556.958-365.302l-5.427-1.454L294.108,593.952
				l5.431,1.453L556.958-365.302z M567.812-362.395l-5.428-1.455l-257.42,960.709l5.428,1.457L567.812-362.395z M578.666-359.486
				l-5.429-1.455L315.819,599.771l5.428,1.456L578.666-359.486z M589.522-356.579l-5.427-1.456L326.673,602.679l5.427,1.453
				L589.522-356.579z M600.376-353.668l-5.428-1.456l-257.419,960.71l5.424,1.454L600.376-353.668z M611.229-350.761l-5.428-1.454
				l-257.418,960.71l5.427,1.455L611.229-350.761z M622.083-347.853l-5.426-1.454L359.238,611.404l5.427,1.452L622.083-347.853z
				 M632.939-344.945l-5.427-1.455l-257.422,960.71l5.427,1.453L632.939-344.945z M643.793-342.036l-5.429-1.454L380.945,617.218
				l5.429,1.458L643.793-342.036z M654.65-339.127l-5.43-1.455l-257.42,960.71l5.428,1.454L654.65-339.127z M665.503-336.218
				l-5.429-1.455l-257.418,960.71l5.427,1.454L665.503-336.218z M676.357-333.309l-5.428-1.457l-257.421,960.71l5.427,1.455
				L676.357-333.309z M-254.036,447.078l-5.427-1.454l257.42-960.711l5.427,1.454L-254.036,447.078z M14.238-510.725l-5.427-1.454
				l-257.421,960.711l5.428,1.453L14.238-510.725z M25.093-507.815l-5.426-1.454l-257.421,960.71l5.428,1.453L25.093-507.815z
				 M35.947-504.906l-5.424-1.457l-257.425,960.709l5.429,1.455L35.947-504.906z M46.801-501.999l-5.427-1.453l-257.42,960.708
				l5.427,1.453L46.801-501.999z M57.657-499.09l-5.429-1.455l-257.42,960.71l5.427,1.454L57.657-499.09z M68.512-496.182
				l-5.429-1.455L-194.34,463.072l5.431,1.456L68.512-496.182z M79.366-493.274l-5.426-1.456l-257.423,960.712l5.427,1.454
				L79.366-493.274z M90.219-490.363l-5.428-1.454l-257.42,960.708l5.427,1.453L90.219-490.363z M101.073-487.457l-5.427-1.454
				l-257.42,960.709l5.427,1.455L101.073-487.457z M111.927-484.549l-5.427-1.454l-257.42,960.712l5.426,1.454L111.927-484.549z
				 M122.785-481.641l-5.427-1.454l-257.423,960.712l5.427,1.454L122.785-481.641z M133.636-478.732l-5.427-1.454l-257.42,960.71
				l5.427,1.455L133.636-478.732z M144.492-475.823l-5.429-1.455l-257.42,960.71l5.427,1.454L144.492-475.823z M155.347-472.915
				l-5.427-1.454l-257.423,960.709l5.429,1.452L155.347-472.915z M166.201-470.005l-5.428-1.457L-96.649,489.247l5.429,1.456
				L166.201-470.005z M177.054-467.098l-5.425-1.454L-85.794,492.156l5.428,1.454L177.054-467.098z M187.908-464.19l-5.427-1.454
				l-257.42,960.708l5.426,1.456L187.908-464.19z M198.763-461.282l-5.426-1.454l-257.42,960.712l5.425,1.453L198.763-461.282z
				 M209.618-458.375l-5.425-1.454L-53.23,500.883l5.427,1.455L209.618-458.375z M220.471-455.462l-5.426-1.454L-42.376,503.792
				l5.429,1.453L220.471-455.462z M231.326-452.556l-5.427-1.454L-31.52,506.698l5.427,1.458L231.326-452.556z M242.18-449.647
				l-5.427-1.455L-20.666,509.61l5.426,1.454L242.18-449.647z M253.036-446.739l-5.426-1.456L-9.813,512.517l5.428,1.454
				L253.036-446.739z M263.889-443.829l-5.426-1.456L1.043,515.427l5.425,1.453L263.889-443.829z M274.743-440.923l-5.427-1.454
				L11.898,518.334l5.426,1.454L274.743-440.923z M285.597-438.014l-5.425-1.454l-257.42,960.71l5.427,1.453L285.597-438.014z
				 M296.453-435.107l-5.426-1.454L33.606,524.15l5.425,1.453L296.453-435.107z M307.306-432.197l-5.426-1.455L44.458,527.058
				l5.431,1.457L307.306-432.197z M318.164-429.289l-5.43-1.455L55.316,529.969l5.425,1.453L318.164-429.289z M329.017-426.381
				l-5.428-1.454L66.169,532.877l5.425,1.454L329.017-426.381z M687.209-330.403l-5.426-1.454L424.361,628.853l5.429,1.454
				L687.209-330.403z M698.066-327.493l-5.427-1.455L435.217,631.761l5.427,1.454L698.066-327.493z M708.921-324.585l-5.428-1.454
				l-257.422,960.71l5.429,1.455L708.921-324.585z M719.774-321.678l-5.427-1.454l-257.422,960.71l5.427,1.454L719.774-321.678z
				 M730.627-318.769l-5.425-1.456L467.78,640.487l5.429,1.454L730.627-318.769z M741.483-315.86l-5.429-1.454L478.633,643.396
				l5.431,1.455L741.483-315.86z M752.338-312.954l-5.427-1.452L489.49,646.305l5.426,1.452L752.338-312.954z M763.192-310.042
				l-5.426-1.457L500.345,649.212l5.426,1.455L763.192-310.042z M774.047-307.135l-5.426-1.454L511.198,652.123l5.426,1.453
				L774.047-307.135z M784.899-304.225l-5.426-1.456l-257.42,960.712l5.427,1.453L784.899-304.225z M795.755-301.317l-5.427-1.455
				l-257.42,960.71l5.427,1.453L795.755-301.317z M806.61-298.411l-5.428-1.454l-257.421,960.71l5.428,1.456L806.61-298.411z
				 M817.464-295.501l-5.427-1.456L554.616,663.755l5.426,1.452L817.464-295.501z M828.318-292.592l-5.427-1.455L565.469,666.662
				l5.428,1.453L828.318-292.592z M839.173-289.685l-5.428-1.454l-257.42,960.711l5.426,1.453L839.173-289.685z M850.025-286.776
				l-5.425-1.454L587.181,672.48l5.426,1.455L850.025-286.776z M860.882-283.867l-5.428-1.453l-257.42,960.708l5.426,1.453
				L860.882-283.867z M871.735-280.958l-5.427-1.454L608.888,678.297l5.428,1.454L871.735-280.958z M882.59-278.052l-5.427-1.453
				l-257.421,960.71l5.427,1.453L882.59-278.052z M893.445-275.142l-5.429-1.455L630.598,684.117l5.427,1.452L893.445-275.142z
				 M904.298-272.233l-5.427-1.454l-257.42,960.711l5.426,1.454L904.298-272.233z M915.153-269.326l-5.427-1.454l-257.421,960.71
				l5.424,1.456L915.153-269.326z M926.008-266.417l-5.426-1.454L663.16,692.839l5.427,1.454L926.008-266.417z M936.863-263.51
				l-5.429-1.454L674.014,695.747l5.429,1.455L936.863-263.51z M947.718-260.6l-5.429-1.453L684.865,698.654l5.43,1.455
				L947.718-260.6z M958.571-257.691l-5.429-1.454L695.724,701.562l5.427,1.454L958.571-257.691z M969.427-254.783l-5.429-1.454
				L706.577,704.471l5.428,1.457L969.427-254.783z M980.279-251.877l-5.426-1.453l-257.422,960.71l5.427,1.455L980.279-251.877z
				 M991.134-248.965l-5.428-1.458L728.286,710.29l5.425,1.453L991.134-248.965z M1001.986-246.058l-5.424-1.454L739.141,713.197
				l5.428,1.456L1001.986-246.058z M1012.845-243.149l-5.43-1.454l-257.42,960.709l5.424,1.459L1012.845-243.149z M1023.697-240.24
				l-5.428-1.455L760.848,719.017l5.429,1.452L1023.697-240.24z M1034.551-237.331l-5.427-1.456L771.703,721.925l5.428,1.453
				L1034.551-237.331z M1045.407-234.424l-5.428-1.454L782.556,724.833l5.43,1.453L1045.407-234.424z M1056.26-231.516l-5.426-1.454
				L793.413,727.74l5.427,1.453L1056.26-231.516z M1067.113-228.607l-5.427-1.456l-257.42,960.711l5.426,1.453L1067.113-228.607z
				 M1077.971-225.699l-5.429-1.455l-257.42,960.71l5.426,1.453L1077.971-225.699z M1088.823-222.79l-5.428-1.455l-257.42,960.708
				l5.427,1.453L1088.823-222.79z M1099.679-219.882l-5.427-1.454l-257.42,960.708l5.426,1.457L1099.679-219.882z M1110.531-216.976
				l-5.426-1.451l-257.421,960.71l5.427,1.453L1110.531-216.976z M1121.388-214.064l-5.428-1.454L858.539,745.19l5.427,1.455
				L1121.388-214.064z M1132.24-211.155l-5.425-1.455L869.393,748.099l5.428,1.453L1132.24-211.155z M1143.097-208.248l-5.429-1.455
				L880.247,751.009l5.426,1.452L1143.097-208.248z M1153.95-205.339l-5.427-1.454l-257.421,960.71l5.427,1.455L1153.95-205.339z
				 M1164.805-202.433l-5.429-1.452l-257.42,960.71l5.428,1.454L1164.805-202.433z M1175.66-199.522l-5.429-1.455l-257.42,960.71
				l5.428,1.454L1175.66-199.522z"/>
		</defs>
		<clipPath id="SVGID_4_">
			<use xlink:href="#SVGID_3_"  overflow="visible"/>
		</clipPath>
		<g clip-path="url(#SVGID_4_)">
			<rect x="55.966" y="36.23" fill="none" width="893.356" height="558.411"/>
			<path d="M58.32,36.231h63.094v176.571H58.32V36.231z"/>
			<path d="M126.122,36.231h60.74l18.834,71.099l2.354-0.471l-3.061-14.361c-2.354-11.536-4.002-25.191-4.002-37.198V36.231h63.095
				v176.571h-60.74l-18.834-71.1l-2.354,0.472l3.061,14.36c2.354,11.536,4.002,25.191,4.002,37.198v19.069h-63.094V36.231z"/>
			<path d="M268.788,36.231h67.332c40.023,0,63.565,22.13,63.565,61.211v54.149c0,39.081-23.542,61.211-63.565,61.211h-67.332
				V36.231z M336.591,156.77V92.263h-4.709v64.507H336.591z"/>
			<path d="M404.392,155.122V36.231h63.094v124.071h4.709V36.231h63.095v118.891c0,39.081-23.543,61.211-63.565,61.211h-3.768
				C427.935,216.333,404.392,194.203,404.392,155.122z"/>
			<path d="M653.943,156.77v56.032H539.996V36.231h63.095V156.77H653.943z"/>
			<path d="M657.477,168.07v-74.16c0-39.081,23.543-61.211,63.565-61.211h3.767c40.022,0,63.565,22.13,63.565,61.211v28.251h-63.095
				V88.731h-4.708v68.038h4.708v-29.898h63.095v85.931h-50.146l-9.418-20.247c-3.061,11.301-9.417,23.778-32.959,23.778
				C670.189,216.333,657.477,201.03,657.477,168.07z"/>
			<path d="M849.111,92.263v4.708h60.27v55.09h-60.27v4.708h60.27v56.032H793.08V36.231h116.301v56.032H849.111z"/>
		</g>
	</g>
</g>
<g id="Layer_4">
	<rect x="-9.866" y="-16.698" width="1001.775" height="266.476"/>
	<g>
		<rect x="66.951" y="56.111" fill="none" width="851.215" height="161.437"/>
		<path fill="#FFFFFF" d="M91.289,64.124h-7.735v22.354h-8.342V64.124h-7.694v-7.006h23.771V64.124z"/>
		<path fill="#FFFFFF" d="M110.48,86.478h-8.342V75.584L91.649,57.118h9.274l5.548,11.096l5.508-11.096h8.95L110.48,75.584V86.478z"
			/>
		<path fill="#FFFFFF" d="M132.1,79.432v7.046h-8.342v-29.36h11.987c7.735,0,12.23,4.009,12.23,11.056
			c0,7.168-4.495,11.258-12.23,11.258H132.1z M132.1,63.152v10.246h1.823c3.645,0,5.426-1.377,5.426-5.224
			c0-3.645-1.741-5.021-5.426-5.021H132.1z"/>
		<path fill="#FFFFFF" d="M165.869,56.551c9.477,0,14.903,5.75,14.903,15.227c0,9.517-5.426,15.267-14.903,15.267
			c-9.517,0-14.903-5.75-14.903-15.267C150.966,62.301,156.352,56.551,165.869,56.551z M165.869,80.849
			c3.766,0,6.277-2.875,6.277-9.071c0-6.156-2.511-9.031-6.277-9.031c-3.807,0-6.277,2.875-6.277,9.031
			C159.592,77.974,162.062,80.849,165.869,80.849z"/>
		<path fill="#FFFFFF" d="M199.353,87.045c-9.557,0-15.024-5.71-15.024-15.267c0-9.477,5.669-15.227,15.308-15.227
			c3.685,0,7.046,0.729,9.8,1.661l-1.539,6.317c-2.228-0.607-4.414-1.093-6.925-1.093c-4.9,0-8.019,2.632-8.019,8.585
			c0,5.791,2.956,8.748,8.019,8.748h0.567l-0.446-8.788h8.423v13.526C206.602,86.478,202.917,87.045,199.353,87.045z"/>
		<path fill="#FFFFFF" d="M225.711,77.407h-2.592v9.071h-8.343v-29.36h11.906c7.694,0,11.947,3.726,11.947,10.084
			c0,4.333-1.823,7.208-5.184,8.788l6.56,10.489h-9.517L225.711,77.407z M223.119,62.99v8.545h2.389
			c3.037,0,4.536-1.215,4.536-4.333c0-2.997-1.62-4.212-5.143-4.212H223.119z"/>
		<path fill="#FFFFFF" d="M259.236,80.971h-8.829l-1.498,5.507h-8.626l9.841-29.36h9.719l9.8,29.36h-8.91L259.236,80.971z
			 M254.822,64.569l-2.875,10.569h5.71L254.822,64.569z"/>
		<path fill="#FFFFFF" d="M280.978,79.432v7.046h-8.343v-29.36h11.987c7.735,0,12.23,4.009,12.23,11.056
			c0,7.168-4.495,11.258-12.23,11.258H280.978z M280.978,63.152v10.246h1.822c3.645,0,5.426-1.377,5.426-5.224
			c0-3.645-1.741-5.021-5.426-5.021H280.978z"/>
		<path fill="#FFFFFF" d="M319.484,75.544H309.4v10.934h-8.342v-29.36h8.342v11.299h10.084V57.118h8.302v29.36h-8.302V75.544z"/>
		<path fill="#FFFFFF" d="M333.773,57.118h8.343v29.36h-8.343V57.118z"/>
		<path fill="#FFFFFF" d="M361.633,56.551c3.239,0,6.155,0.567,8.747,1.458l-1.539,6.358c-1.863-0.526-3.807-0.851-5.548-0.851
			c-4.536,0-7.694,2.754-7.694,8.262c0,5.588,3.159,8.302,7.694,8.302c1.822,0,3.726-0.324,5.629-0.851l1.539,6.398
			c-2.632,0.891-5.508,1.417-8.828,1.417c-9.031,0-14.741-5.629-14.741-15.267C346.892,62.22,352.602,56.551,361.633,56.551z"/>
		<path fill="#FFFFFF" d="M374.991,79.026c2.065,0.688,4.981,1.377,7.897,1.377c3.402,0,4.657-0.81,4.657-2.146
			c0-1.417-0.972-2.228-4.9-3.28c-6.601-1.822-9.192-4.941-9.192-9.071c0-5.305,4.374-9.355,12.311-9.355
			c3.199,0,6.884,0.607,9.719,1.499l-1.62,6.439c-1.863-0.607-4.657-1.296-7.492-1.296c-3.119,0-4.333,0.891-4.333,2.187
			c0,1.417,1.134,2.146,4.9,3.118c7.168,1.863,9.8,4.9,9.8,9.557c0,5.467-4.131,8.99-12.878,8.99c-3.442,0-7.452-0.648-10.287-1.499
			L374.991,79.026z"/>
		<path fill="#FFFFFF" d="M83.531,133.696H73.254l-2.398,6.782h-3.392l9.284-24.835h3.391l9.249,24.835h-3.459L83.531,133.696z
			 M78.358,119.206l-4.179,11.818h8.393L78.358,119.206z"/>
		<path fill="#FFFFFF" d="M102.923,115.643h8.153c7.502,0,12.058,4.076,12.058,12.297c0,8.394-4.556,12.538-12.058,12.538h-8.153
			V115.643z M106.075,118.315v19.492h4.454c5.823,0,9.386-2.706,9.386-9.866c0-6.919-3.528-9.625-9.386-9.625H106.075z"/>
		<path fill="#FFFFFF" d="M129.235,115.643h15.895v2.672h-12.743v8.461h11.271v2.638h-11.271v8.393h12.88v2.672h-16.032V115.643z"/>
		<path fill="#FFFFFF" d="M150.613,136.882c1.781,0.65,4.042,1.233,6.646,1.233c4.488,0,6.44-1.542,6.44-3.939
			c0-2.124-1.473-3.528-6.132-4.864c-5.378-1.508-7.537-3.803-7.537-7.194c0-3.871,3.323-6.851,8.907-6.851
			c2.5,0,4.967,0.479,6.988,1.233l-0.719,2.603c-1.782-0.616-3.666-1.096-6.132-1.096c-3.974,0-5.858,1.61-5.858,3.905
			c0,2.261,1.542,3.563,5.789,4.727c5.687,1.542,7.913,3.837,7.913,7.399c0,4.043-3.289,6.817-9.181,6.817
			c-3.117,0-5.823-0.548-7.878-1.336L150.613,136.882z"/>
		<path fill="#FFFFFF" d="M172.951,115.643h3.151v24.835h-3.151V115.643z"/>
		<path fill="#FFFFFF" d="M194.533,140.855c-7.811,0-12.298-4.898-12.298-12.915c0-7.741,4.59-12.674,12.366-12.674
			c2.775,0,5.173,0.514,7.399,1.336l-0.788,2.638c-1.85-0.651-4.145-1.199-6.337-1.199c-5.687,0-9.42,3.665-9.42,9.899
			c0,6.577,3.631,10.243,9.386,10.243c1.439,0,3.049-0.172,4.556-0.479l-0.137-6.852h-5.447v-2.672h8.53v11.373
			C200.014,140.376,197.342,140.855,194.533,140.855z"/>
		<path fill="#FFFFFF" d="M226.12,115.643h3.083v24.835h-2.877l-14.285-19.458v19.458h-3.083v-24.835h2.877l14.285,19.458V115.643z"
			/>
		<path fill="#FFFFFF" d="M249.658,130.167v10.312h-3.151v-24.835h15.552v2.672h-12.401v9.25h11.236v2.603H249.658z"/>
		<path fill="#FFFFFF" d="M267.954,115.643h15.895v2.672h-12.743v8.461h11.271v2.638h-11.271v8.393h12.88v2.672h-16.032V115.643z"/>
		<path fill="#FFFFFF" d="M289.332,136.882c1.781,0.65,4.042,1.233,6.646,1.233c4.488,0,6.44-1.542,6.44-3.939
			c0-2.124-1.473-3.528-6.132-4.864c-5.378-1.508-7.537-3.803-7.537-7.194c0-3.871,3.323-6.851,8.907-6.851
			c2.5,0,4.967,0.479,6.988,1.233l-0.719,2.603c-1.782-0.616-3.666-1.096-6.132-1.096c-3.974,0-5.858,1.61-5.858,3.905
			c0,2.261,1.542,3.563,5.789,4.727c5.687,1.542,7.913,3.837,7.913,7.399c0,4.043-3.289,6.817-9.181,6.817
			c-3.117,0-5.823-0.548-7.878-1.336L289.332,136.882z"/>
		<path fill="#FFFFFF" d="M327.564,118.315h-7.947v22.164h-3.151v-22.164h-7.947v-2.672h19.046V118.315z"/>
		<path fill="#FFFFFF" d="M332.26,115.643h3.151v24.835h-3.151V115.643z"/>
		<path fill="#FFFFFF" d="M349.081,140.479l-9.181-24.835h3.46l7.468,21.101l7.468-21.101h3.357l-9.181,24.835H349.081z"/>
		<path fill="#FFFFFF" d="M377.653,133.696h-10.277l-2.398,6.782h-3.392l9.284-24.835h3.391l9.249,24.835h-3.459L377.653,133.696z
			 M372.48,119.206l-4.179,11.818h8.393L372.48,119.206z"/>
		<path fill="#FFFFFF" d="M387.966,115.643h3.151v22.164h11.853v2.672h-15.004V115.643z"/>
		<path fill="#FFFFFF" d="M419.623,130.167v10.312h-3.151v-24.835h15.552v2.672h-12.401v9.25h11.236v2.603H419.623z"/>
		<path fill="#FFFFFF" d="M447.784,115.266c7.091,0,11.681,4.933,11.681,12.674c0,7.948-4.59,12.915-11.681,12.915
			s-11.647-4.967-11.647-12.915C436.137,120.199,440.693,115.266,447.784,115.266z M447.784,138.115c5.036,0,8.427-3.7,8.427-10.175
			c0-6.234-3.357-9.934-8.427-9.934c-5.036,0-8.427,3.699-8.427,9.934C439.357,134.415,442.748,138.115,447.784,138.115z"/>
		<path fill="#FFFFFF" d="M474.301,131.641h-5.584v8.838h-3.151v-24.835h7.228c6.406,0,9.9,2.843,9.9,7.81
			c0,4.076-2.124,6.543-5.31,7.605l6.337,9.42h-3.631L474.301,131.641z M468.717,118.315v10.654h5.104
			c3.323,0,5.652-1.85,5.652-5.516c0-3.323-2.398-5.138-7.228-5.138H468.717z"/>
		<path fill="#FFFFFF" d="M501.743,133.285v7.193h-3.151v-24.835h7.331c6.474,0,10.413,2.946,10.413,8.598
			c0,5.892-3.939,9.044-10.413,9.044H501.743z M501.743,118.315v12.263h3.666c4.898,0,7.707-1.952,7.707-6.337
			c0-4.042-2.774-5.926-7.707-5.926H501.743z"/>
		<path fill="#FFFFFF" d="M522.06,115.643h15.895v2.672h-12.743v8.461h11.271v2.638h-11.271v8.393h12.881v2.672H522.06V115.643z"/>
		<path fill="#FFFFFF" d="M554.399,115.266c7.092,0,11.682,4.933,11.682,12.674c0,7.948-4.59,12.915-11.682,12.915
			c-7.091,0-11.646-4.967-11.646-12.915C542.753,120.199,547.309,115.266,554.399,115.266z M554.399,138.115
			c5.036,0,8.428-3.7,8.428-10.175c0-6.234-3.357-9.934-8.428-9.934c-5.035,0-8.427,3.699-8.427,9.934
			C545.973,134.415,549.364,138.115,554.399,138.115z"/>
		<path fill="#FFFFFF" d="M575.333,133.285v7.193h-3.151v-24.835h7.331c6.474,0,10.413,2.946,10.413,8.598
			c0,5.892-3.939,9.044-10.413,9.044H575.333z M575.333,118.315v12.263h3.666c4.898,0,7.707-1.952,7.707-6.337
			c0-4.042-2.774-5.926-7.707-5.926H575.333z"/>
		<path fill="#FFFFFF" d="M595.649,115.643h3.151v22.164h11.853v2.672h-15.004V115.643z"/>
		<path fill="#FFFFFF" d="M615.417,115.643h15.895v2.672h-12.743v8.461h11.271v2.638h-11.271v8.393h12.881v2.672h-16.032V115.643z"
			/>
		<path fill="#FFFFFF" d="M660.124,120.542l-5.652,19.937h-3.254l-7.263-24.835h3.357l5.618,20.862l5.755-20.862h2.946l5.823,20.793
			l5.55-20.793h3.288l-7.297,24.835h-3.254L660.124,120.542z"/>
		<path fill="#FFFFFF" d="M697.913,129.482h-13.942v10.996h-3.151v-24.835h3.151v11.133h13.942v-11.133h3.151v24.835h-3.151V129.482
			z"/>
		<path fill="#FFFFFF" d="M718.812,115.266c7.092,0,11.682,4.933,11.682,12.674c0,7.948-4.59,12.915-11.682,12.915
			c-7.091,0-11.646-4.967-11.646-12.915C707.166,120.199,711.722,115.266,718.812,115.266z M718.812,138.115
			c5.036,0,8.428-3.7,8.428-10.175c0-6.234-3.357-9.934-8.428-9.934c-5.035,0-8.427,3.699-8.427,9.934
			C710.386,134.415,713.777,138.115,718.812,138.115z"/>
		<path fill="#FFFFFF" d="M745.673,115.643h3.151v14.319c0,5.721,2.398,8.153,6.681,8.153c4.281,0,6.646-2.433,6.646-8.153v-14.319
			h3.151v14.456c0,7.365-3.46,10.757-9.797,10.757c-6.338,0-9.832-3.392-9.832-10.757V115.643z"/>
		<path fill="#FFFFFF" d="M771.744,136.882c1.782,0.65,4.043,1.233,6.646,1.233c4.487,0,6.439-1.542,6.439-3.939
			c0-2.124-1.473-3.528-6.132-4.864c-5.378-1.508-7.536-3.803-7.536-7.194c0-3.871,3.323-6.851,8.906-6.851
			c2.501,0,4.968,0.479,6.988,1.233l-0.719,2.603c-1.781-0.616-3.666-1.096-6.132-1.096c-3.974,0-5.858,1.61-5.858,3.905
			c0,2.261,1.542,3.563,5.79,4.727c5.687,1.542,7.913,3.837,7.913,7.399c0,4.043-3.289,6.817-9.181,6.817
			c-3.117,0-5.824-0.548-7.879-1.336L771.744,136.882z"/>
		<path fill="#FFFFFF" d="M794.082,115.643h15.895v2.672h-12.743v8.461h11.271v2.638h-11.271v8.393h12.881v2.672h-16.032V115.643z"
			/>
		<path fill="#FFFFFF" d="M841.872,118.315h-7.947v22.164h-3.151v-22.164h-7.947v-2.672h19.046V118.315z"/>
		<path fill="#FFFFFF" d="M855.508,140.479h-3.151v-9.523l-9.317-15.312h3.631l7.331,12.367l7.263-12.367h3.562l-9.318,15.312
			V140.479z"/>
		<path fill="#FFFFFF" d="M872.33,133.285v7.193h-3.151v-24.835h7.331c6.474,0,10.413,2.946,10.413,8.598
			c0,5.892-3.939,9.044-10.413,9.044H872.33z M872.33,118.315v12.263h3.666c4.898,0,7.707-1.952,7.707-6.337
			c0-4.042-2.774-5.926-7.707-5.926H872.33z"/>
		<path fill="#FFFFFF" d="M892.646,115.643h15.895v2.672h-12.743v8.461h11.271v2.638h-11.271v8.393h12.881v2.672h-16.032V115.643z"
			/>
		<path fill="#FFFFFF" d="M410.157,178.383h-3.768v10.891h-4.064v-10.891h-3.749v-3.413h11.581V178.383z"/>
		<path fill="#FFFFFF" d="M420.848,183.946h-4.913v5.327h-4.064V174.97h4.064v5.504h4.913v-5.504h4.044v14.304h-4.044V183.946z"/>
		<path fill="#FFFFFF" d="M427.809,174.97h10.22v3.098h-6.155v2.742h5.386v2.683h-5.386v2.684h6.215v3.098h-10.279V174.97z"/>
		<path fill="#FFFFFF" d="M452.131,174.693c1.578,0,2.999,0.276,4.261,0.71l-0.75,3.098c-0.908-0.257-1.854-0.414-2.703-0.414
			c-2.209,0-3.749,1.342-3.749,4.024c0,2.723,1.539,4.045,3.749,4.045c0.888,0,1.815-0.158,2.743-0.414l0.75,3.117
			c-1.282,0.434-2.683,0.69-4.301,0.69c-4.4,0-7.182-2.742-7.182-7.438C444.95,177.455,447.731,174.693,452.131,174.693z"/>
		<path fill="#FFFFFF" d="M465.051,174.693c4.617,0,7.261,2.802,7.261,7.418c0,4.637-2.644,7.438-7.261,7.438
			c-4.636,0-7.26-2.802-7.26-7.438C457.791,177.495,460.415,174.693,465.051,174.693z M465.051,186.531
			c1.835,0,3.058-1.401,3.058-4.42c0-2.999-1.223-4.399-3.058-4.399c-1.854,0-3.058,1.4-3.058,4.399
			C461.993,185.13,463.197,186.531,465.051,186.531z"/>
		<path fill="#FFFFFF" d="M481.305,174.693c4.617,0,7.261,2.802,7.261,7.418c0,4.637-2.645,7.438-7.261,7.438
			c-4.636,0-7.26-2.802-7.26-7.438C474.045,177.495,476.669,174.693,481.305,174.693z M481.305,186.531
			c1.835,0,3.058-1.401,3.058-4.42c0-2.999-1.223-4.399-3.058-4.399c-1.854,0-3.058,1.4-3.058,4.399
			C478.247,185.13,479.451,186.531,481.305,186.531z"/>
		<path fill="#FFFFFF" d="M494.955,185.841v3.433h-4.064V174.97h5.84c3.769,0,5.959,1.953,5.959,5.386
			c0,3.492-2.19,5.485-5.959,5.485H494.955z M494.955,177.909v4.991h0.888c1.775,0,2.644-0.671,2.644-2.545
			c0-1.775-0.848-2.446-2.644-2.446H494.955z"/>
		<path fill="#FFFFFF" d="M504.738,174.97h10.22v3.098h-6.155v2.742h5.386v2.683h-5.386v2.684h6.215v3.098h-10.279V174.97z"/>
		<path fill="#FFFFFF" d="M522.729,184.854h-1.263v4.42h-4.064V174.97h5.801c3.748,0,5.82,1.814,5.82,4.912
			c0,2.111-0.888,3.512-2.525,4.281l3.196,5.11h-4.637L522.729,184.854z M521.467,177.83v4.163h1.164c1.479,0,2.21-0.592,2.21-2.111
			c0-1.46-0.79-2.052-2.506-2.052H521.467z"/>
		<path fill="#FFFFFF" d="M536.438,174.97h4.044v7.99c0,2.348,0.829,3.256,2.388,3.256s2.388-0.908,2.388-3.256v-7.99h4.044v8.483
			c0,3.966-2.249,6.097-6.432,6.097s-6.432-2.131-6.432-6.097V174.97z"/>
		<path fill="#FFFFFF" d="M561.097,174.97h4.024v14.304h-3.275l-5.701-7.615v7.615H552.1V174.97h3.295l5.702,7.615V174.97z"/>
		<path fill="#FFFFFF" d="M568.038,174.97h4.064v14.304h-4.064V174.97z"/>
		<path fill="#FFFFFF" d="M581.689,174.693c4.616,0,7.26,2.802,7.26,7.418c0,4.637-2.644,7.438-7.26,7.438
			c-4.637,0-7.261-2.802-7.261-7.438C574.429,177.495,577.053,174.693,581.689,174.693z M581.689,186.531
			c1.835,0,3.058-1.401,3.058-4.42c0-2.999-1.223-4.399-3.058-4.399c-1.854,0-3.059,1.4-3.059,4.399
			C578.631,185.13,579.835,186.531,581.689,186.531z"/>
		<path fill="#FFFFFF" d="M600.271,174.97h4.024v14.304h-3.275l-5.701-7.615v7.615h-4.045V174.97h3.295l5.702,7.615V174.97z"/>
		<path fill="#FFFFFF" d="M615.597,173.983h3.413l-4.932,18.249h-3.414L615.597,173.983z"/>
		<path fill="#FFFFFF" d="M624.433,186.195c0.375,0.079,0.829,0.158,1.184,0.158c0.987,0,1.5-0.395,1.5-1.618v-9.766h4.064v9.904
			c0,3.176-1.282,4.676-4.4,4.676c-1.006,0-2.071-0.178-2.781-0.395L624.433,186.195z"/>
		<path fill="#FFFFFF" d="M633.842,174.97h4.044v7.99c0,2.348,0.829,3.256,2.388,3.256s2.388-0.908,2.388-3.256v-7.99h4.044v8.483
			c0,3.966-2.249,6.097-6.432,6.097s-6.432-2.131-6.432-6.097V174.97z"/>
		<path fill="#FFFFFF" d="M658.501,174.97h4.024v14.304h-3.275l-5.701-7.615v7.615h-4.045V174.97h3.295l5.702,7.615V174.97z"/>
		<path fill="#FFFFFF" d="M665.442,174.97h10.22v3.098h-6.155v2.742h5.386v2.683h-5.386v2.684h6.215v3.098h-10.279V174.97z"/>
		<path fill="#FFFFFF" d="M685.129,189.273v-10.22l-2.131,0.849l-1.145-2.979l4.006-1.953h3.314v14.304H685.129z"/>
		<path fill="#FFFFFF" d="M691.954,189.273v-2.782l4.479-3.709c1.519-1.243,2.131-1.953,2.131-2.88c0-1.145-0.829-1.815-2.486-1.815
			c-1.145,0-2.427,0.335-3.314,0.729l-0.907-3.058c1.242-0.533,3.019-1.065,5.03-1.065c3.709,0,5.762,2.032,5.762,4.656
			c0,1.894-0.868,3.314-2.743,4.813l-2.249,1.815h5.366v3.295H691.954z"/>
		<path fill="#FFFFFF" d="M704.775,181.835h6.136v3.177h-6.136V181.835z"/>
		<path fill="#FFFFFF" d="M712.488,189.273v-2.782l4.479-3.709c1.519-1.243,2.131-1.953,2.131-2.88c0-1.145-0.829-1.815-2.486-1.815
			c-1.145,0-2.427,0.335-3.314,0.729l-0.908-3.058c1.243-0.533,3.02-1.065,5.031-1.065c3.709,0,5.762,2.032,5.762,4.656
			c0,1.894-0.868,3.314-2.743,4.813l-2.249,1.815h5.366v3.295H712.488z"/>
		<path fill="#FFFFFF" d="M725.211,189.273v-2.782l4.479-3.709c1.519-1.243,2.131-1.953,2.131-2.88c0-1.145-0.829-1.815-2.486-1.815
			c-1.145,0-2.427,0.335-3.314,0.729l-0.908-3.058c1.243-0.533,3.02-1.065,5.031-1.065c3.709,0,5.762,2.032,5.762,4.656
			c0,1.894-0.868,3.314-2.743,4.813l-2.249,1.815h5.366v3.295H725.211z"/>
		<path fill="#FFFFFF" d="M747.047,173.983h3.413l-4.932,18.249h-3.414L747.047,173.983z"/>
		<path fill="#FFFFFF" d="M765.827,174.97h4.024v14.304h-3.275l-5.701-7.615v7.615h-4.045V174.97h3.295l5.702,7.615V174.97z"/>
		<path fill="#FFFFFF" d="M772.769,174.97h10.22v3.098h-6.155v2.742h5.386v2.683h-5.386v2.684h6.215v3.098h-10.279V174.97z"/>
		<path fill="#FFFFFF" d="M794.351,181.224l-2.013,8.05h-4.202l-4.163-14.304h4.459l1.815,10.16l2.387-10.16h3.591l2.388,10.16
			l1.795-10.16h4.321l-4.183,14.304h-4.183L794.351,181.224z"/>
		<path fill="#FFFFFF" d="M818.1,189.273h-4.064v-5.308l-5.11-8.996h4.519l2.703,5.405l2.683-5.405h4.36l-5.09,8.996V189.273z"/>
		<path fill="#FFFFFF" d="M830.645,174.693c4.616,0,7.26,2.802,7.26,7.418c0,4.637-2.644,7.438-7.26,7.438
			c-4.637,0-7.261-2.802-7.261-7.438C823.384,177.495,826.008,174.693,830.645,174.693z M830.645,186.531
			c1.835,0,3.058-1.401,3.058-4.42c0-2.999-1.223-4.399-3.058-4.399c-1.854,0-3.059,1.4-3.059,4.399
			C827.586,185.13,828.79,186.531,830.645,186.531z"/>
		<path fill="#FFFFFF" d="M845.557,184.854h-1.263v4.42h-4.064V174.97h5.801c3.748,0,5.82,1.814,5.82,4.912
			c0,2.111-0.888,3.512-2.525,4.281l3.196,5.11h-4.637L845.557,184.854z M844.294,177.83v4.163h1.164c1.479,0,2.21-0.592,2.21-2.111
			c0-1.46-0.79-2.052-2.506-2.052H844.294z"/>
		<path fill="#FFFFFF" d="M858.378,182.861v6.412h-4.064V174.97h4.064v6.728l4.419-6.728h4.677l-5.149,7.26l5.386,7.044h-4.873
			L858.378,182.861z"/>
		<path fill="#FFFFFF" d="M880.767,174.693c1.578,0,2.999,0.276,4.262,0.71l-0.75,3.098c-0.907-0.257-1.854-0.414-2.703-0.414
			c-2.21,0-3.748,1.342-3.748,4.024c0,2.723,1.538,4.045,3.748,4.045c0.888,0,1.815-0.158,2.742-0.414l0.75,3.117
			c-1.282,0.434-2.683,0.69-4.301,0.69c-4.399,0-7.182-2.742-7.182-7.438C873.585,177.455,876.367,174.693,880.767,174.693z"/>
		<path fill="#FFFFFF" d="M887.215,174.97h4.064v14.304h-4.064V174.97z"/>
		<path fill="#FFFFFF" d="M904.595,178.383h-3.769v10.891h-4.064v-10.891h-3.748v-3.413h11.581V178.383z"/>
		<path fill="#FFFFFF" d="M913.944,189.273h-4.064v-5.308l-5.11-8.996h4.519l2.703,5.405l2.683-5.405h4.36l-5.09,8.996V189.273z"/>
	</g>
	<g>
	</g>
	<g>
	</g>
	<g>
	</g>
	<g>
	</g>
	<g>
	</g>
	<g>
	</g>
</g>
</svg>
