<?xml version="1.0" encoding="utf-8"?>
<!-- Generator: Adobe Illustrator 16.0.0, SVG Export Plug-In . SVG Version: 6.00 Build 0)  -->
<!DOCTYPE svg PUBLIC "-//W3C//DTD SVG 1.1//EN" "http://www.w3.org/Graphics/SVG/1.1/DTD/svg11.dtd">
<svg version="1.1" xmlns="http://www.w3.org/2000/svg" xmlns:xlink="http://www.w3.org/1999/xlink" x="0px" y="0px" width="250px"
	 height="250px" viewBox="0 0 250 250" enable-background="new 0 0 250 250" xml:space="preserve" >

	 <style>
	 @keyframes slide {
	   0% {
	     transform: translate(0px, 0px);
	   }
	 	15% {
	     transform: translate(0px, 0px);
	   }
	 	25% {
	     transform: translate(3.4px, 0px);
	   }
	 	85% {
	     transform: translate(3.4px, 0px);
	   }
	   100% {
	     transform: translate(0px, 0px);
	   }
	 }
	 @keyframes slide2 {
	   0% {
	     transform: translate(0px, 0px);
	   }
	 	40% {
	     transform: translate(0px, 0px);
	   }
	 	50% {
	     transform: translate(3.5px, 0px);
	   }
	   85% {
	     transform: translate(3.5px, 0px);
	   }
	 	100% {
	 		transform: translate(0px, 0px);
	 	}
	 }
	 @keyframes appear {
	   0% {
	     opacity:0
	   }
	 	40% {
	     opacity:0
	   }
	 	50% {
	     opacity:1
	   }
		80% {
				opacity:1
			}
	 	90% {
	     opacity:0
	   }
	   100% {
	     opacity:0
	   }
	 }
	 @keyframes appear2 {
		 0% {
			 opacity:0
		 }
		65% {
			 opacity:0
		 }
		75% {
			 opacity:1
		 }
		90% {
			 opacity:1
		 }
		 100% {
			 opacity:0
		 }
	 }
	 @keyframes appear3 {
		 0% {
			 background-color:white
		 }
		40% {
			 background-color:white
		 }
		50% {
			 background-color:black
		 }
		90% {
			 background-color:black
		 }
		 100% {
			 background-color:white
		 }
	 }
	 svg{
	 -webkit-animation: appear3 10s cubic-bezier(0.670, 0.005, 0.200, 1.000) infinite;
	 -webkit-animation-fill-mode: forwards;
	 }
	 #Layer_5{
		 opacity:0;
		-webkit-animation: appear2 10s cubic-bezier(0.670, 0.005, 0.200, 1.000) infinite;
		-webkit-animation-fill-mode: forwards;
	 }
	 #Layer_4{
	   opacity:0;
	 	-webkit-animation: appear 10s cubic-bezier(0.670, 0.005, 0.200, 1.000) infinite;
	 	-webkit-animation-fill-mode: forwards;
	 }
	 #Layer_1{
	   -webkit-animation: slide 10s cubic-bezier(0.670, 0.005, 0.200, 1.000) infinite;
	   -webkit-animation-fill-mode: forwards;
	 }
	 #lines2{
	 -webkit-animation: slide2 10s cubic-bezier(0.670, 0.005, 0.200, 1.000) infinite;
	 -webkit-animation-fill-mode: forwards;
	 anim
	 }
	 </style>
	 <rect width="100%" height="100%" fill="white"/>
	 <g id="Layer_1">
	 	<path id="lines" stroke="#000000" stroke-width="0.75" stroke-miterlimit="10" d="M-192.588,392.857l-3.273-0.877l155.265-579.458
	 		l3.273,0.877L-192.588,392.857z M-30.775-184.847l-3.273-0.877l-155.265,579.458l3.273,0.877L-30.775-184.847z M-24.229-183.093
	 		l-3.273-0.877l-155.265,579.458l3.273,0.877L-24.229-183.093z M-17.681-181.338l-3.274-0.878L-176.22,397.242l3.273,0.877
	 		L-17.681-181.338z M-11.135-179.584l-3.273-0.877l-155.266,579.457l3.274,0.877L-11.135-179.584z M-4.588-177.83l-3.273-0.877
	 		l-155.265,579.459l3.274,0.877L-4.588-177.83z M1.959-176.076l-3.274-0.877L-156.58,402.506l3.274,0.877L1.959-176.076z
	 		 M8.506-174.321l-3.273-0.877L-150.033,404.26l3.274,0.877L8.506-174.321z M15.053-172.567l-3.273-0.877l-155.265,579.458
	 		l3.273,0.877L15.053-172.567z M21.6-170.813l-3.274-0.877l-155.265,579.458l3.273,0.877L21.6-170.813z M28.147-169.059
	 		l-3.273-0.877l-155.265,579.459l3.273,0.877L28.147-169.059z M34.693-167.305l-3.273-0.877l-155.265,579.459l3.273,0.877
	 		L34.693-167.305z M41.241-165.55l-3.274-0.877l-155.265,579.458l3.274,0.877L41.241-165.55z M47.788-163.796l-3.273-0.877
	 		l-155.266,579.458l3.274,0.877L47.788-163.796z M54.334-162.042l-3.273-0.877l-155.266,579.458l3.274,0.877L54.334-162.042z
	 		 M60.881-160.287l-3.274-0.878L-97.657,418.293l3.273,0.877L60.881-160.287z M67.428-158.533l-3.273-0.877L-91.11,420.047
	 		l3.273,0.877L67.428-158.533z M73.975-156.779l-3.273-0.877L-84.563,421.801l3.273,0.879L73.975-156.779z M80.522-155.025
	 		l-3.273-0.877L-78.016,423.557l3.273,0.877L80.522-155.025z M87.069-153.271l-3.273-0.877L-71.47,425.311l3.274,0.877
	 		L87.069-153.271z M93.616-151.516l-3.273-0.877L-64.923,427.064l3.274,0.877L93.616-151.516z M100.163-149.762l-3.273-0.877
	 		L-58.376,428.818l3.274,0.879L100.163-149.762z M106.709-148.008l-3.273-0.877L-51.829,430.574l3.273,0.877L106.709-148.008z
	 		 M113.256-146.253l-3.273-0.878L-45.282,432.328l3.273,0.877L113.256-146.253z M119.804-144.499l-3.274-0.877L-38.735,434.082
	 		l3.273,0.877L119.804-144.499z M126.351-142.745l-3.273-0.877L-32.188,435.836l3.273,0.877L126.351-142.745z M132.897-140.991
	 		l-3.273-0.877L-25.641,437.59l3.273,0.877L132.897-140.991z M139.444-139.237l-3.273-0.877L-19.095,439.344l3.274,0.877
	 		L139.444-139.237z M145.991-137.482l-3.273-0.877L-12.548,441.098l3.274,0.879L145.991-137.482z M152.538-135.728l-3.273-0.877
	 		L-6.001,442.854l3.274,0.877L152.538-135.728z M159.085-133.974l-3.273-0.877L0.546,444.607l3.273,0.877L159.085-133.974z
	 		 M165.632-132.219l-3.273-0.878L7.093,446.361l3.273,0.877L165.632-132.219z M172.179-130.465l-3.273-0.877L13.64,448.115
	 		l3.273,0.877L172.179-130.465z M178.726-128.711l-3.273-0.877L20.187,449.869l3.273,0.877L178.726-128.711z M185.272-126.957
	 		l-3.273-0.877L26.733,451.625l3.274,0.877L185.272-126.957z M191.819-125.203l-3.273-0.877L33.28,453.379l3.274,0.877
	 		L191.819-125.203z M198.366-123.448l-3.273-0.878L39.827,455.133l3.274,0.877L198.366-123.448z M204.913-121.694l-3.273-0.877
	 		L46.375,456.887l3.273,0.877L204.913-121.694z M211.46-119.94l-3.273-0.877L52.921,458.641l3.273,0.877L211.46-119.94z
	 		 M218.007-118.186l-3.273-0.877L59.468,460.395l3.273,0.877L218.007-118.186z M224.554-116.431l-3.272-0.877L66.015,462.15
	 		l3.273,0.877L224.554-116.431z M231.1-114.677l-3.272-0.877L72.562,463.904l3.274,0.877L231.1-114.677z M237.647-112.923
	 		l-3.273-0.877L79.108,465.658l3.274,0.877L237.647-112.923z M244.194-111.169l-3.273-0.877L85.656,467.412l3.274,0.877
	 		L244.194-111.169z M250.741-109.415l-3.273-0.878L92.203,469.166l3.273,0.877L250.741-109.415z M257.288-107.661l-3.273-0.877
	 		L98.75,470.92l3.273,0.877L257.288-107.661z M263.835-105.906l-3.273-0.877L105.296,472.676l3.273,0.877L263.835-105.906z
	 		 M270.382-104.152l-3.272-0.877L111.844,474.43l3.273,0.877L270.382-104.152z M276.929-102.397l-3.273-0.877L118.391,476.184
	 		l3.272,0.877L276.929-102.397z M283.477-100.644l-3.274-0.877L124.937,477.938l3.274,0.877L283.477-100.644z M290.022-98.89
	 		l-3.273-0.877L131.483,479.691l3.274,0.877L290.022-98.89z M296.57-97.135l-3.274-0.877L138.031,481.447l3.273,0.877L296.57-97.135
	 		z M303.116-95.38l-3.273-0.878L144.578,483.201l3.272,0.877L303.116-95.38z M309.663-93.626l-3.273-0.877L151.125,484.955
	 		l3.272,0.877L309.663-93.626z M316.21-91.873l-3.272-0.877L157.672,486.709l3.273,0.877L316.21-91.873z M322.758-90.119
	 		l-3.274-0.877L164.219,488.463l3.273,0.877L322.758-90.119z M329.305-88.364l-3.274-0.877L170.765,490.217l3.274,0.877
	 		L329.305-88.364z M335.851-86.609l-3.273-0.877L177.312,491.971l3.273,0.877L335.851-86.609z M342.398-84.855l-3.274-0.877
	 		L183.859,493.725l3.273,0.879L342.398-84.855z M348.944-83.102l-3.272-0.877L190.406,495.48l3.273,0.877L348.944-83.102z
	 		 M355.491-81.347l-3.273-0.878L196.953,497.234l3.272,0.877L355.491-81.347z M362.038-79.593l-3.272-0.877L203.5,498.988
	 		l3.273,0.877L362.038-79.593z M368.586-77.838l-3.274-0.877L210.047,500.742l3.272,0.879L368.586-77.838z M375.133-76.084
	 		l-3.274-0.877L216.593,502.498l3.274,0.877L375.133-76.084z M381.679-74.33l-3.273-0.878L223.141,504.252l3.273,0.877
	 		L381.679-74.33z M388.227-72.576l-3.273-0.877L229.687,506.006l3.275,0.877L388.227-72.576z M394.772-70.822l-3.272-0.877
	 		L236.234,507.76l3.273,0.877L394.772-70.822z M401.319-69.067l-3.273-0.877L242.781,509.514l3.272,0.877L401.319-69.067z
	 		 M407.867-67.313l-3.273-0.877L249.329,511.268l3.272,0.877L407.867-67.313z M414.414-65.559l-3.274-0.877L255.875,513.021
	 		l3.273,0.877L414.414-65.559z M420.961-63.805l-3.273-0.877L262.423,514.775l3.273,0.879L420.961-63.805z M427.507-62.051
	 		l-3.272-0.877L268.969,516.531l3.273,0.877L427.507-62.051z M434.055-60.296l-3.273-0.877L275.516,518.285l3.274,0.877
	 		L434.055-60.296z M440.601-58.542l-3.272-0.877L282.062,520.039l3.273,0.877L440.601-58.542z M447.148-56.788l-3.274-0.877
	 		L288.609,521.793l3.272,0.877L447.148-56.788z M453.695-55.034l-3.273-0.877L295.157,523.549l3.272,0.877L453.695-55.034z
	 		 M460.242-53.28l-3.274-0.877L301.703,525.303l3.273,0.877L460.242-53.28z M466.789-51.525l-3.273-0.877L308.251,527.057
	 		l3.273,0.877L466.789-51.525z"/>
	 	<path id="lines2" stroke="#000000" stroke-width="0.75" stroke-miterlimit="10" d="M-192.588,392.857l-3.273-0.877l155.265-579.458
	 		l3.273,0.877L-192.588,392.857z M-30.775-184.847l-3.273-0.877l-155.265,579.458l3.273,0.877L-30.775-184.847z M-24.229-183.093
	 		l-3.273-0.877l-155.265,579.458l3.273,0.877L-24.229-183.093z M-17.681-181.338l-3.274-0.878L-176.22,397.242l3.273,0.877
	 		L-17.681-181.338z M-11.135-179.584l-3.273-0.877l-155.266,579.457l3.274,0.877L-11.135-179.584z M-4.588-177.83l-3.273-0.877
	 		l-155.265,579.459l3.274,0.877L-4.588-177.83z M1.959-176.076l-3.274-0.877L-156.58,402.506l3.274,0.877L1.959-176.076z
	 		 M8.506-174.321l-3.273-0.877L-150.033,404.26l3.274,0.877L8.506-174.321z M15.053-172.567l-3.273-0.877l-155.265,579.458
	 		l3.273,0.877L15.053-172.567z M21.6-170.813l-3.274-0.877l-155.265,579.458l3.273,0.877L21.6-170.813z M28.147-169.059
	 		l-3.273-0.877l-155.265,579.459l3.273,0.877L28.147-169.059z M34.693-167.305l-3.273-0.877l-155.265,579.459l3.273,0.877
	 		L34.693-167.305z M41.241-165.55l-3.274-0.877l-155.265,579.458l3.274,0.877L41.241-165.55z M47.788-163.796l-3.273-0.877
	 		l-155.266,579.458l3.274,0.877L47.788-163.796z M54.334-162.042l-3.273-0.877l-155.266,579.458l3.274,0.877L54.334-162.042z
	 		 M60.881-160.287l-3.274-0.878L-97.657,418.293l3.273,0.877L60.881-160.287z M67.428-158.533l-3.273-0.877L-91.11,420.047
	 		l3.273,0.877L67.428-158.533z M73.975-156.779l-3.273-0.877L-84.563,421.801l3.273,0.879L73.975-156.779z M80.522-155.025
	 		l-3.273-0.877L-78.016,423.557l3.273,0.877L80.522-155.025z M87.069-153.271l-3.273-0.877L-71.47,425.311l3.274,0.877
	 		L87.069-153.271z M93.616-151.516l-3.273-0.877L-64.923,427.064l3.274,0.877L93.616-151.516z M100.163-149.762l-3.273-0.877
	 		L-58.376,428.818l3.274,0.879L100.163-149.762z M106.709-148.008l-3.273-0.877L-51.829,430.574l3.273,0.877L106.709-148.008z
	 		 M113.256-146.253l-3.273-0.878L-45.282,432.328l3.273,0.877L113.256-146.253z M119.804-144.499l-3.274-0.877L-38.735,434.082
	 		l3.273,0.877L119.804-144.499z M126.351-142.745l-3.273-0.877L-32.188,435.836l3.273,0.877L126.351-142.745z M132.897-140.991
	 		l-3.273-0.877L-25.641,437.59l3.273,0.877L132.897-140.991z M139.444-139.237l-3.273-0.877L-19.095,439.344l3.274,0.877
	 		L139.444-139.237z M145.991-137.482l-3.273-0.877L-12.548,441.098l3.274,0.879L145.991-137.482z M152.538-135.728l-3.273-0.877
	 		L-6.001,442.854l3.274,0.877L152.538-135.728z M159.085-133.974l-3.273-0.877L0.546,444.607l3.273,0.877L159.085-133.974z
	 		 M165.632-132.219l-3.273-0.878L7.093,446.361l3.273,0.877L165.632-132.219z M172.179-130.465l-3.273-0.877L13.64,448.115
	 		l3.273,0.877L172.179-130.465z M178.726-128.711l-3.273-0.877L20.187,449.869l3.273,0.877L178.726-128.711z M185.272-126.957
	 		l-3.273-0.877L26.733,451.625l3.274,0.877L185.272-126.957z M191.819-125.203l-3.273-0.877L33.28,453.379l3.274,0.877
	 		L191.819-125.203z M198.366-123.448l-3.273-0.878L39.827,455.133l3.274,0.877L198.366-123.448z M204.913-121.694l-3.273-0.877
	 		L46.375,456.887l3.273,0.877L204.913-121.694z M211.46-119.94l-3.273-0.877L52.921,458.641l3.273,0.877L211.46-119.94z
	 		 M218.007-118.186l-3.273-0.877L59.468,460.395l3.273,0.877L218.007-118.186z M224.554-116.431l-3.272-0.877L66.015,462.15
	 		l3.273,0.877L224.554-116.431z M231.1-114.677l-3.272-0.877L72.562,463.904l3.274,0.877L231.1-114.677z M237.647-112.923
	 		l-3.273-0.877L79.108,465.658l3.274,0.877L237.647-112.923z M244.194-111.169l-3.273-0.877L85.656,467.412l3.274,0.877
	 		L244.194-111.169z M250.741-109.415l-3.273-0.878L92.203,469.166l3.273,0.877L250.741-109.415z M257.288-107.661l-3.273-0.877
	 		L98.75,470.92l3.273,0.877L257.288-107.661z M263.835-105.906l-3.273-0.877L105.296,472.676l3.273,0.877L263.835-105.906z
	 		 M270.382-104.152l-3.272-0.877L111.844,474.43l3.273,0.877L270.382-104.152z M276.929-102.397l-3.273-0.877L118.391,476.184
	 		l3.272,0.877L276.929-102.397z M283.477-100.644l-3.274-0.877L124.937,477.938l3.274,0.877L283.477-100.644z M290.022-98.89
	 		l-3.273-0.877L131.483,479.691l3.274,0.877L290.022-98.89z M296.57-97.135l-3.274-0.877L138.031,481.447l3.273,0.877L296.57-97.135
	 		z M303.116-95.38l-3.273-0.878L144.578,483.201l3.272,0.877L303.116-95.38z M309.663-93.626l-3.273-0.877L151.125,484.955
	 		l3.272,0.877L309.663-93.626z M316.21-91.873l-3.272-0.877L157.672,486.709l3.273,0.877L316.21-91.873z M322.758-90.119
	 		l-3.274-0.877L164.219,488.463l3.273,0.877L322.758-90.119z M329.305-88.364l-3.274-0.877L170.765,490.217l3.274,0.877
	 		L329.305-88.364z M335.851-86.609l-3.273-0.877L177.312,491.971l3.273,0.877L335.851-86.609z M342.398-84.855l-3.274-0.877
	 		L183.859,493.725l3.273,0.879L342.398-84.855z M348.944-83.102l-3.272-0.877L190.406,495.48l3.273,0.877L348.944-83.102z
	 		 M355.491-81.347l-3.273-0.878L196.953,497.234l3.272,0.877L355.491-81.347z M362.038-79.593l-3.272-0.877L203.5,498.988
	 		l3.273,0.877L362.038-79.593z M368.586-77.838l-3.274-0.877L210.047,500.742l3.272,0.879L368.586-77.838z M375.133-76.084
	 		l-3.274-0.877L216.593,502.498l3.274,0.877L375.133-76.084z M381.679-74.33l-3.273-0.878L223.141,504.252l3.273,0.877
	 		L381.679-74.33z M388.227-72.576l-3.273-0.877L229.687,506.006l3.275,0.877L388.227-72.576z M394.772-70.822l-3.272-0.877
	 		L236.234,507.76l3.273,0.877L394.772-70.822z M401.319-69.067l-3.273-0.877L242.781,509.514l3.272,0.877L401.319-69.067z
	 		 M407.867-67.313l-3.273-0.877L249.329,511.268l3.272,0.877L407.867-67.313z M414.414-65.559l-3.274-0.877L255.875,513.021
	 		l3.273,0.877L414.414-65.559z M420.961-63.805l-3.273-0.877L262.423,514.775l3.273,0.879L420.961-63.805z M427.507-62.051
	 		l-3.272-0.877L268.969,516.531l3.273,0.877L427.507-62.051z M434.055-60.296l-3.273-0.877L275.516,518.285l3.274,0.877
	 		L434.055-60.296z M440.601-58.542l-3.272-0.877L282.062,520.039l3.273,0.877L440.601-58.542z M447.148-56.788l-3.274-0.877
	 		L288.609,521.793l3.272,0.877L447.148-56.788z M453.695-55.034l-3.273-0.877L295.157,523.549l3.272,0.877L453.695-55.034z
	 		 M460.242-53.28l-3.274-0.877L301.703,525.303l3.273,0.877L460.242-53.28z M466.789-51.525l-3.273-0.877L308.251,527.057
	 		l3.273,0.877L466.789-51.525z"/>
	 </g>
	 <g id="Layer_2_copy">
	 	<g>
	 		<defs>
	 			<path id="lines_1_" d="M-189.204,392.857l-3.273-0.877l155.265-579.458l3.273,0.877L-189.204,392.857z M-27.392-184.847
	 				l-3.273-0.877L-185.93,393.734l3.273,0.877L-27.392-184.847z M-20.845-183.093l-3.273-0.877l-155.265,579.458l3.273,0.877
	 				L-20.845-183.093z M-14.297-181.338l-3.274-0.878l-155.265,579.458l3.273,0.877L-14.297-181.338z M-7.751-179.584l-3.273-0.877
	 				L-166.29,398.996l3.274,0.877L-7.751-179.584z M-1.204-177.83l-3.273-0.877l-155.265,579.459l3.274,0.877L-1.204-177.83z
	 				 M5.343-176.076l-3.274-0.877l-155.265,579.459l3.274,0.877L5.343-176.076z M11.89-174.321l-3.273-0.877L-146.649,404.26
	 				l3.274,0.877L11.89-174.321z M18.437-172.567l-3.273-0.877l-155.265,579.458l3.273,0.877L18.437-172.567z M24.984-170.813
	 				l-3.274-0.877l-155.265,579.458l3.273,0.877L24.984-170.813z M31.531-169.059l-3.273-0.877l-155.265,579.459l3.273,0.877
	 				L31.531-169.059z M38.077-167.305l-3.273-0.877l-155.265,579.459l3.273,0.877L38.077-167.305z M44.625-165.55l-3.274-0.877
	 				l-155.265,579.458l3.274,0.877L44.625-165.55z M51.171-163.796l-3.273-0.877l-155.266,579.458l3.274,0.877L51.171-163.796z
	 				 M57.718-162.042l-3.273-0.877l-155.266,579.458l3.274,0.877L57.718-162.042z M64.265-160.287l-3.274-0.878L-94.273,418.293
	 				L-91,419.17L64.265-160.287z M70.812-158.533l-3.273-0.877L-87.727,420.047l3.273,0.877L70.812-158.533z M77.359-156.779
	 				l-3.273-0.877L-81.18,421.801l3.273,0.879L77.359-156.779z M83.906-155.025l-3.273-0.877L-74.632,423.557l3.273,0.877
	 				L83.906-155.025z M90.453-153.271l-3.273-0.877L-68.086,425.311l3.274,0.877L90.453-153.271z M97-151.516l-3.273-0.877
	 				L-61.54,427.064l3.274,0.877L97-151.516z M103.546-149.762l-3.273-0.877L-54.992,428.818l3.274,0.879L103.546-149.762z
	 				 M110.093-148.008l-3.273-0.877L-48.445,430.574l3.273,0.877L110.093-148.008z M116.64-146.253l-3.273-0.878L-41.898,432.328
	 				l3.273,0.877L116.64-146.253z M123.188-144.499l-3.274-0.877L-35.352,434.082l3.273,0.877L123.188-144.499z M129.734-142.745
	 				l-3.273-0.877L-28.804,435.836l3.273,0.877L129.734-142.745z M136.281-140.991l-3.273-0.877L-22.257,437.59l3.273,0.877
	 				L136.281-140.991z M142.828-139.237l-3.273-0.877L-15.711,439.344l3.274,0.877L142.828-139.237z M149.375-137.482l-3.273-0.877
	 				L-9.164,441.098l3.274,0.879L149.375-137.482z M155.922-135.728l-3.273-0.877L-2.617,442.854l3.274,0.877L155.922-135.728z
	 				 M162.469-133.974l-3.273-0.877L3.93,444.607l3.273,0.877L162.469-133.974z M169.016-132.219l-3.273-0.878L10.477,446.361
	 				l3.273,0.877L169.016-132.219z M175.562-130.465l-3.273-0.877L17.024,448.115l3.273,0.877L175.562-130.465z M182.109-128.711
	 				l-3.273-0.877L23.571,449.869l3.273,0.877L182.109-128.711z M188.656-126.957l-3.273-0.877L30.117,451.625l3.274,0.877
	 				L188.656-126.957z M195.203-125.203l-3.273-0.877L36.664,453.379l3.274,0.877L195.203-125.203z M201.75-123.448l-3.273-0.878
	 				L43.211,455.133l3.274,0.877L201.75-123.448z M208.297-121.694l-3.273-0.877L49.758,456.887l3.273,0.877L208.297-121.694z
	 				 M214.844-119.94l-3.273-0.877L56.305,458.641l3.273,0.877L214.844-119.94z M221.391-118.186l-3.273-0.877L62.852,460.395
	 				l3.273,0.877L221.391-118.186z M227.938-116.431l-3.272-0.877L69.399,462.15l3.273,0.877L227.938-116.431z M234.483-114.677
	 				l-3.272-0.877L75.945,463.904l3.274,0.877L234.483-114.677z M241.031-112.923l-3.273-0.877L82.492,465.658l3.274,0.877
	 				L241.031-112.923z M247.578-111.169l-3.273-0.877L89.04,467.412l3.274,0.877L247.578-111.169z M254.125-109.415l-3.273-0.878
	 				L95.586,469.166l3.273,0.877L254.125-109.415z M260.672-107.661l-3.273-0.877L102.133,470.92l3.273,0.877L260.672-107.661z
	 				 M267.219-105.906l-3.273-0.877L108.68,472.676l3.273,0.877L267.219-105.906z M273.766-104.152l-3.272-0.877L115.228,474.43
	 				l3.273,0.877L273.766-104.152z M280.312-102.397l-3.273-0.877L121.774,476.184l3.272,0.877L280.312-102.397z M286.86-100.644
	 				l-3.274-0.877L128.32,477.938l3.274,0.877L286.86-100.644z M293.406-98.89l-3.273-0.877L134.867,479.691l3.274,0.877
	 				L293.406-98.89z M299.954-97.135l-3.274-0.877L141.415,481.447l3.273,0.877L299.954-97.135z M306.5-95.38l-3.273-0.878
	 				L147.962,483.201l3.272,0.877L306.5-95.38z M313.047-93.626l-3.273-0.877L154.509,484.955l3.272,0.877L313.047-93.626z
	 				 M319.594-91.873l-3.272-0.877L161.056,486.709l3.273,0.877L319.594-91.873z M326.142-90.119l-3.274-0.877L167.603,488.463
	 				l3.273,0.877L326.142-90.119z M332.688-88.364l-3.274-0.877L174.148,490.217l3.274,0.877L332.688-88.364z M339.234-86.609
	 				l-3.273-0.877L180.696,491.971l3.273,0.877L339.234-86.609z M345.782-84.855l-3.274-0.877L187.243,493.725l3.273,0.879
	 				L345.782-84.855z M352.328-83.102l-3.272-0.877L193.79,495.48l3.273,0.877L352.328-83.102z M358.875-81.347l-3.273-0.878
	 				L200.337,497.234l3.272,0.877L358.875-81.347z M365.422-79.593l-3.272-0.877L206.884,498.988l3.273,0.877L365.422-79.593z
	 				 M371.97-77.838l-3.274-0.877L213.431,500.742l3.272,0.879L371.97-77.838z M378.517-76.084l-3.274-0.877L219.977,502.498
	 				l3.274,0.877L378.517-76.084z M385.062-74.33l-3.273-0.878L226.524,504.252l3.273,0.877L385.062-74.33z M391.61-72.576
	 				l-3.273-0.877L233.07,506.006l3.275,0.877L391.61-72.576z M398.156-70.822l-3.272-0.877L239.618,507.76l3.273,0.877
	 				L398.156-70.822z M404.703-69.067l-3.273-0.877L246.165,509.514l3.272,0.877L404.703-69.067z M411.251-67.313l-3.273-0.877
	 				L252.713,511.268l3.272,0.877L411.251-67.313z M417.798-65.559l-3.274-0.877L259.259,513.021l3.273,0.877L417.798-65.559z
	 				 M424.345-63.805l-3.273-0.877L265.807,514.775l3.273,0.879L424.345-63.805z M430.891-62.051l-3.272-0.877L272.353,516.531
	 				l3.273,0.877L430.891-62.051z M437.438-60.296l-3.273-0.877L278.899,518.285l3.274,0.877L437.438-60.296z M443.984-58.542
	 				l-3.272-0.877L285.446,520.039l3.273,0.877L443.984-58.542z M450.532-56.788l-3.274-0.877L291.993,521.793l3.272,0.877
	 				L450.532-56.788z M457.079-55.034l-3.273-0.877L298.541,523.549l3.272,0.877L457.079-55.034z M463.626-53.28l-3.274-0.877
	 				L305.087,525.303l3.273,0.877L463.626-53.28z M470.173-51.525l-3.273-0.877L311.635,527.057l3.273,0.877L470.173-51.525z"/>
	 		</defs>
	 		<clipPath id="lines_3_">
	 			<use xlink:href="#lines_1_"  overflow="visible"/>
	 		</clipPath>
	 		<g clip-path="url(#lines_3_)">
	 			<rect x="34.356" y="39.485" fill="none" width="233.342" height="200.515"/>
	 			<path d="M35.396,92.004V64.963c0-17.265,10.4-27.041,28.081-27.041h1.664c17.681,0,28.081,9.776,28.081,27.041v27.041
	 				c0,17.265-10.4,27.041-28.081,27.041h-1.664C45.797,119.045,35.396,109.269,35.396,92.004z M65.35,94.292V62.675h-2.08v31.617
	 				H65.35z"/>
	 			<path d="M95.299,39.482h32.865c15.393,0,26.002,6.656,26.002,20.593v1.664c0,7.384-3.641,13.729-11.441,15.705
	 				c7.385,2.184,12.48,8.008,12.48,17.577v1.664c0,13.937-10.607,20.801-26,20.801H95.299V39.482z M129.933,66.315v-2.08h-12.48
	 				v2.08H129.933z M130.973,92.732v-2.08h-13.521v2.08H130.973z"/>
	 			<path d="M156.243,89.404v-3.64h13.624v-1.04c-8.632-3.328-14.145-11.128-14.145-22.049c0-15.601,12.064-24.753,30.474-24.753
	 				c19.345,0,29.433,10.92,29.433,27.561v5.72h-13.104v1.04c8.424,3.224,13.625,11.96,13.625,21.841
	 				c0,16.017-11.857,24.961-29.018,24.961C166.955,119.045,156.243,109.477,156.243,89.404z M191.916,66.315v-2.08h-12.48v2.08
	 				H191.916z M191.916,92.732v-2.08h-12.48v2.08H191.916z"/>
	 			<path d="M60.149,153.235v2.08h26.625v24.337H60.149v2.08h26.625v24.753H35.396v-78.003h51.378v24.753H60.149z"/>
	 			<path d="M88.852,178.404v-3.64h13.625v-1.041c-8.632-3.328-14.145-11.128-14.145-22.048c0-15.602,12.064-24.754,30.473-24.754
	 				c19.345,0,29.434,10.921,29.434,27.562v5.72h-13.105v1.041c8.425,3.224,13.625,11.96,13.625,21.841
	 				c0,16.016-11.856,24.961-29.017,24.961C99.564,208.046,88.852,198.478,88.852,178.404z M124.525,155.315v-2.08h-12.48v2.08
	 				H124.525z M124.525,181.732v-2.08h-12.48v2.08H124.525z"/>
	 			<path d="M150.314,178.404v-3.64h13.625v-1.041c-8.633-3.328-14.145-11.128-14.145-22.048c0-15.602,12.064-24.754,30.473-24.754
	 				c19.345,0,29.434,10.921,29.434,27.562v5.72h-13.105v1.041c8.426,3.224,13.625,11.96,13.625,21.841
	 				c0,16.016-11.856,24.961-29.018,24.961C161.027,208.046,150.314,198.478,150.314,178.404z M185.988,155.315v-2.08h-12.48v2.08
	 				H185.988z M185.988,181.732v-2.08h-12.48v2.08H185.988z"/>
	 		</g>
	 	</g>
	 </g>
	 <g id="Layer_2_copy_2">
	 	<g>
	 		<defs>
	 			<path id="lines_2_" d="M-192.588,392.857l-3.273-0.877l155.265-579.458l3.273,0.877L-192.588,392.857z M-30.775-184.847
	 				l-3.273-0.877l-155.265,579.458l3.273,0.877L-30.775-184.847z M-24.229-183.093l-3.273-0.877l-155.265,579.458l3.273,0.877
	 				L-24.229-183.093z M-17.681-181.338l-3.274-0.878L-176.22,397.242l3.273,0.877L-17.681-181.338z M-11.135-179.584l-3.273-0.877
	 				l-155.266,579.457l3.274,0.877L-11.135-179.584z M-4.588-177.83l-3.273-0.877l-155.265,579.459l3.274,0.877L-4.588-177.83z
	 				 M1.959-176.076l-3.274-0.877L-156.58,402.506l3.274,0.877L1.959-176.076z M8.506-174.321l-3.273-0.877L-150.033,404.26
	 				l3.274,0.877L8.506-174.321z M15.053-172.567l-3.273-0.877l-155.265,579.458l3.273,0.877L15.053-172.567z M21.6-170.813
	 				l-3.274-0.877l-155.265,579.458l3.273,0.877L21.6-170.813z M28.147-169.059l-3.273-0.877l-155.265,579.459l3.273,0.877
	 				L28.147-169.059z M34.693-167.305l-3.273-0.877l-155.265,579.459l3.273,0.877L34.693-167.305z M41.241-165.55l-3.274-0.877
	 				l-155.265,579.458l3.274,0.877L41.241-165.55z M47.788-163.796l-3.273-0.877l-155.266,579.458l3.274,0.877L47.788-163.796z
	 				 M54.334-162.042l-3.273-0.877l-155.266,579.458l3.274,0.877L54.334-162.042z M60.881-160.287l-3.274-0.878L-97.657,418.293
	 				l3.273,0.877L60.881-160.287z M67.428-158.533l-3.273-0.877L-91.11,420.047l3.273,0.877L67.428-158.533z M73.975-156.779
	 				l-3.273-0.877L-84.563,421.801l3.273,0.879L73.975-156.779z M80.522-155.025l-3.273-0.877L-78.016,423.557l3.273,0.877
	 				L80.522-155.025z M87.069-153.271l-3.273-0.877L-71.47,425.311l3.274,0.877L87.069-153.271z M93.616-151.516l-3.273-0.877
	 				L-64.923,427.064l3.274,0.877L93.616-151.516z M100.163-149.762l-3.273-0.877L-58.376,428.818l3.274,0.879L100.163-149.762z
	 				 M106.709-148.008l-3.273-0.877L-51.829,430.574l3.273,0.877L106.709-148.008z M113.256-146.253l-3.273-0.878L-45.282,432.328
	 				l3.273,0.877L113.256-146.253z M119.804-144.499l-3.274-0.877L-38.735,434.082l3.273,0.877L119.804-144.499z M126.351-142.745
	 				l-3.273-0.877L-32.188,435.836l3.273,0.877L126.351-142.745z M132.897-140.991l-3.273-0.877L-25.641,437.59l3.273,0.877
	 				L132.897-140.991z M139.444-139.237l-3.273-0.877L-19.095,439.344l3.274,0.877L139.444-139.237z M145.991-137.482l-3.273-0.877
	 				L-12.548,441.098l3.274,0.879L145.991-137.482z M152.538-135.728l-3.273-0.877L-6.001,442.854l3.274,0.877L152.538-135.728z
	 				 M159.085-133.974l-3.273-0.877L0.546,444.607l3.273,0.877L159.085-133.974z M165.632-132.219l-3.273-0.878L7.093,446.361
	 				l3.273,0.877L165.632-132.219z M172.179-130.465l-3.273-0.877L13.64,448.115l3.273,0.877L172.179-130.465z M178.726-128.711
	 				l-3.273-0.877L20.187,449.869l3.273,0.877L178.726-128.711z M185.272-126.957l-3.273-0.877L26.733,451.625l3.274,0.877
	 				L185.272-126.957z M191.819-125.203l-3.273-0.877L33.28,453.379l3.274,0.877L191.819-125.203z M198.366-123.448l-3.273-0.878
	 				L39.827,455.133l3.274,0.877L198.366-123.448z M204.913-121.694l-3.273-0.877L46.375,456.887l3.273,0.877L204.913-121.694z
	 				 M211.46-119.94l-3.273-0.877L52.921,458.641l3.273,0.877L211.46-119.94z M218.007-118.186l-3.273-0.877L59.468,460.395
	 				l3.273,0.877L218.007-118.186z M224.554-116.431l-3.272-0.877L66.015,462.15l3.273,0.877L224.554-116.431z M231.1-114.677
	 				l-3.272-0.877L72.562,463.904l3.274,0.877L231.1-114.677z M237.647-112.923l-3.273-0.877L79.108,465.658l3.274,0.877
	 				L237.647-112.923z M244.194-111.169l-3.273-0.877L85.656,467.412l3.274,0.877L244.194-111.169z M250.741-109.415l-3.273-0.878
	 				L92.203,469.166l3.273,0.877L250.741-109.415z M257.288-107.661l-3.273-0.877L98.75,470.92l3.273,0.877L257.288-107.661z
	 				 M263.835-105.906l-3.273-0.877L105.296,472.676l3.273,0.877L263.835-105.906z M270.382-104.152l-3.272-0.877L111.844,474.43
	 				l3.273,0.877L270.382-104.152z M276.929-102.397l-3.273-0.877L118.391,476.184l3.272,0.877L276.929-102.397z M283.477-100.644
	 				l-3.274-0.877L124.937,477.938l3.274,0.877L283.477-100.644z M290.022-98.89l-3.273-0.877L131.483,479.691l3.274,0.877
	 				L290.022-98.89z M296.57-97.135l-3.274-0.877L138.031,481.447l3.273,0.877L296.57-97.135z M303.116-95.38l-3.273-0.878
	 				L144.578,483.201l3.272,0.877L303.116-95.38z M309.663-93.626l-3.273-0.877L151.125,484.955l3.272,0.877L309.663-93.626z
	 				 M316.21-91.873l-3.272-0.877L157.672,486.709l3.273,0.877L316.21-91.873z M322.758-90.119l-3.274-0.877L164.219,488.463
	 				l3.273,0.877L322.758-90.119z M329.305-88.364l-3.274-0.877L170.765,490.217l3.274,0.877L329.305-88.364z M335.851-86.609
	 				l-3.273-0.877L177.312,491.971l3.273,0.877L335.851-86.609z M342.398-84.855l-3.274-0.877L183.859,493.725l3.273,0.879
	 				L342.398-84.855z M348.944-83.102l-3.272-0.877L190.406,495.48l3.273,0.877L348.944-83.102z M355.491-81.347l-3.273-0.878
	 				L196.953,497.234l3.272,0.877L355.491-81.347z M362.038-79.593l-3.272-0.877L203.5,498.988l3.273,0.877L362.038-79.593z
	 				 M368.586-77.838l-3.274-0.877L210.047,500.742l3.272,0.879L368.586-77.838z M375.133-76.084l-3.274-0.877L216.593,502.498
	 				l3.274,0.877L375.133-76.084z M381.679-74.33l-3.273-0.878L223.141,504.252l3.273,0.877L381.679-74.33z M388.227-72.576
	 				l-3.273-0.877L229.687,506.006l3.275,0.877L388.227-72.576z M394.772-70.822l-3.272-0.877L236.234,507.76l3.273,0.877
	 				L394.772-70.822z M401.319-69.067l-3.273-0.877L242.781,509.514l3.272,0.877L401.319-69.067z M407.867-67.313l-3.273-0.877
	 				L249.329,511.268l3.272,0.877L407.867-67.313z M414.414-65.559l-3.274-0.877L255.875,513.021l3.273,0.877L414.414-65.559z
	 				 M420.961-63.805l-3.273-0.877L262.423,514.775l3.273,0.879L420.961-63.805z M427.507-62.051l-3.272-0.877L268.969,516.531
	 				l3.273,0.877L427.507-62.051z M434.055-60.296l-3.273-0.877L275.516,518.285l3.274,0.877L434.055-60.296z M440.601-58.542
	 				l-3.272-0.877L282.062,520.039l3.273,0.877L440.601-58.542z M447.148-56.788l-3.274-0.877L288.609,521.793l3.272,0.877
	 				L447.148-56.788z M453.695-55.034l-3.273-0.877L295.157,523.549l3.272,0.877L453.695-55.034z M460.242-53.28l-3.274-0.877
	 				L301.703,525.303l3.273,0.877L460.242-53.28z M466.789-51.525l-3.273-0.877L308.251,527.057l3.273,0.877L466.789-51.525z"/>
	 		</defs>
	 		<clipPath id="lines_4_">
	 			<use xlink:href="#lines_2_"  overflow="visible"/>
	 		</clipPath>
	 		<g id="Indulge_1_" clip-path="url(#lines_4_)">
	 			<rect x="12.309" y="39.485" fill="none" width="235.412" height="200.515"/>
	 			<path d="M13.349,39.482h27.873v78.003H13.349V39.482z"/>
	 			<path d="M43.301,39.482h26.833l8.32,31.409l1.04-0.208l-1.352-6.344c-1.04-5.096-1.768-11.128-1.768-16.433v-8.424h27.873v78.003
	 				H77.414l-8.32-31.409l-1.04,0.208l1.352,6.344c1.04,5.096,1.768,11.128,1.768,16.433v8.424H43.301V39.482z"/>
	 			<path d="M106.323,39.482h29.745c17.681,0,28.081,9.776,28.081,27.041v23.921c0,17.265-10.4,27.041-28.081,27.041h-29.745V39.482z
	 				 M136.276,92.732V64.235h-2.08v28.497H136.276z"/>
	 			<path d="M13.349,181.005v-52.522h27.873v54.81h2.08v-54.81h27.873v52.522c0,17.264-10.4,27.041-28.081,27.041H41.43
	 				C23.75,208.046,13.349,198.269,13.349,181.005z"/>
	 			<path d="M123.59,181.732v24.753H73.252v-78.003h27.873v53.25H123.59z"/>
	 			<path d="M125.148,186.725v-32.762c0-17.264,10.4-27.041,28.082-27.041h1.664c17.68,0,28.081,9.777,28.081,27.041v12.48h-27.874
	 				v-14.768h-2.08v30.057h2.08v-13.209h27.874v37.962h-22.153l-4.16-8.944c-1.352,4.992-4.16,10.505-14.561,10.505
	 				C130.766,208.046,125.148,201.285,125.148,186.725z"/>
	 			<path d="M209.805,153.235v2.08h26.625v24.337h-26.625v2.08h26.625v24.753h-51.378v-78.003h51.378v24.753H209.805z"/>
	 		</g>
	 	</g>
	 </g>
	 <g id="Layer_4">
	 	<rect width="250" height="250"/>
	 	<g>
	 		<rect x="27.589" y="34.893" fill="none" width="238.907" height="196.607"/>
	 		<path fill="#FFFFFF" d="M68.527,50.972H56.936v34.171H39.85V50.972H28.259V36.566h40.268V50.972z"/>
	 		<path fill="#FFFFFF" d="M102.628,85.143H85.543V67.387L68.525,36.566h18.895l6.968,15.679l6.968-15.679h18.224l-16.951,30.821
	 			V85.143z"/>
	 		<path fill="#FFFFFF" d="M139.679,74.422v10.72h-17.085V36.566h22.378c12.798,0,20.034,6.968,20.034,18.961
	 			c0,11.926-7.236,18.895-20.034,18.895H139.679z M139.679,48.426v14.137h1.474c4.355,0,6.098-1.608,6.098-7.035
	 			c0-5.427-1.742-7.102-6.098-7.102H139.679z"/>
	 		<path fill="#FFFFFF" d="M194.149,35.562c16.482,0,25.46,9.313,25.46,25.327s-8.978,25.259-25.46,25.259s-25.46-9.246-25.46-25.259
	 			S177.667,35.562,194.149,35.562z M194.149,73.953c4.69,0,7.705-3.618,7.705-13.065c0-9.514-3.015-13.132-7.705-13.132
	 			s-7.705,3.618-7.705,13.132C186.444,70.335,189.459,73.953,194.149,73.953z"/>
	 		<path fill="#FFFFFF" d="M55.06,150.147c-15.879,0-25.125-9.246-25.125-25.259s9.648-25.327,25.795-25.327
	 			c6.298,0,12.462,1.407,17.085,2.948l-2.948,12.663c-3.685-1.005-7.035-1.742-11.122-1.742c-6.767,0-11.055,3.216-11.055,12.128
	 			c0,7.705,3.484,11.591,9.849,11.992l-0.871-12.06h16.013v22.044C67.723,149.209,61.022,150.147,55.06,150.147z"/>
	 		<path fill="#FFFFFF" d="M98.542,135.072h-2.077v14.07H79.379v-48.576h22.378c12.596,0,19.698,6.365,19.698,17.287
	 			c0,6.767-2.747,11.524-7.839,14.338l10.184,16.951h-18.895L98.542,135.072z M96.464,112.091v11.457h1.474
	 			c4.087,0,5.762-1.34,5.762-5.695c0-4.422-1.675-5.762-5.762-5.762H96.464z"/>
	 		<path fill="#FFFFFF" d="M154.353,141.705h-12.061l-1.608,7.438H123.13l15.343-48.576h20.369l15.344,48.576h-18.225
	 			L154.353,141.705z M148.322,114.436l-3.484,15.879h6.969L148.322,114.436z"/>
	 		<path fill="#FFFFFF" d="M194.619,138.422v10.721h-17.086v-48.576h22.379c12.797,0,20.033,6.968,20.033,18.961
	 			c0,11.926-7.236,18.894-20.033,18.894H194.619z M194.619,112.426v14.137h1.475c4.354,0,6.097-1.607,6.097-7.035
	 			c0-5.427-1.742-7.102-6.097-7.102H194.619z"/>
	 		<path fill="#FFFFFF" d="M60.419,196.727h-12.06v16.416H31.274v-48.576h17.085v17.42h12.06v-17.42h17.085v48.576H60.419V196.727z"
	 			/>
	 		<path fill="#FFFFFF" d="M84.873,164.566h17.085v48.576H84.873V164.566z"/>
	 		<path fill="#FFFFFF" d="M133.113,163.562c5.359,0,10.652,0.938,15.008,2.479l-2.881,12.73c-3.149-0.805-5.963-1.207-8.309-1.207
	 			c-6.7,0-10.52,3.819-10.52,11.324c0,7.504,3.819,11.256,10.52,11.256c2.346,0,5.159-0.402,8.309-1.206l2.881,12.729
	 			c-4.355,1.541-9.648,2.479-15.008,2.479c-15.478,0-25.126-9.246-25.126-25.259C107.987,172.875,117.635,163.562,133.113,163.562z"
	 			/>
	 		<path fill="#FFFFFF" d="M154.619,198.536c3.35,1.14,8.441,2.278,13.133,2.278c4.287,0,5.561-0.737,5.561-2.211
	 			c0-1.541-1.072-2.346-6.299-3.618c-11.188-2.747-15.41-8.442-15.41-15.075c0-9.313,7.572-16.349,21.709-16.349
	 			c5.561,0,12.194,1.072,17.219,2.546l-3.283,12.998c-2.813-0.938-7.973-2.144-12.596-2.144c-4.02,0-5.293,0.737-5.293,2.211
	 			s1.273,2.211,6.633,3.417c12.194,2.747,16.55,8.241,16.55,16.014c0,9.648-7.035,15.544-22.915,15.544
	 			c-5.359,0-12.663-1.005-17.688-2.345L154.619,198.536z"/>
	 	</g>
	 </g>
	 <g id="Layer_5">
	 	<rect width="250" height="250"/>
	 	<g>
	 		<rect x="18.589" y="25.893" fill="none" width="238.907" height="196.607"/>
	 		<path fill="#FFFFFF" d="M31.173,40.244h-7.8l-1.82,5.148h-2.574l7.046-18.851h2.574l7.021,18.851h-2.626L31.173,40.244z
	 			 M27.247,29.246l-3.172,8.97h6.37L27.247,29.246z"/>
	 		<path fill="#FFFFFF" d="M45.889,26.542h6.188c5.694,0,9.152,3.094,9.152,9.334c0,6.371-3.458,9.517-9.152,9.517h-6.188V26.542z
	 			 M48.281,28.57v14.794h3.38c4.42,0,7.125-2.054,7.125-7.488c0-5.252-2.678-7.306-7.125-7.306H48.281z"/>
	 		<path fill="#FFFFFF" d="M65.857,26.542h12.064v2.028h-9.672v6.422h8.554v2.002h-8.554v6.37h9.776v2.028H65.857V26.542z"/>
	 		<path fill="#FFFFFF" d="M82.081,42.663c1.352,0.494,3.068,0.936,5.044,0.936c3.406,0,4.888-1.17,4.888-2.99
	 			c0-1.612-1.118-2.678-4.654-3.692c-4.083-1.144-5.721-2.886-5.721-5.46c0-2.938,2.522-5.2,6.761-5.2
	 			c1.898,0,3.77,0.364,5.304,0.936l-0.546,1.976c-1.352-0.468-2.782-0.832-4.654-0.832c-3.016,0-4.446,1.222-4.446,2.964
	 			c0,1.716,1.17,2.704,4.394,3.588c4.316,1.17,6.006,2.912,6.006,5.616c0,3.068-2.496,5.174-6.968,5.174
	 			c-2.366,0-4.42-0.416-5.98-1.014L82.081,42.663z"/>
	 		<path fill="#FFFFFF" d="M99.033,26.542h2.392v18.851h-2.392V26.542z"/>
	 		<path fill="#FFFFFF" d="M115.413,45.679c-5.928,0-9.334-3.718-9.334-9.803c0-5.876,3.484-9.62,9.386-9.62
	 			c2.106,0,3.926,0.39,5.616,1.014l-0.598,2.002c-1.404-0.494-3.146-0.91-4.81-0.91c-4.316,0-7.15,2.782-7.15,7.514
	 			c0,4.992,2.756,7.774,7.125,7.774c1.092,0,2.314-0.13,3.458-0.364l-0.104-5.2h-4.134v-2.028h6.475v8.632
	 			C119.573,45.314,117.545,45.679,115.413,45.679z"/>
	 		<path fill="#FFFFFF" d="M139.385,26.542h2.34v18.851h-2.184l-10.843-14.769v14.769h-2.34V26.542h2.185l10.842,14.769V26.542z"/>
	 		<path fill="#FFFFFF" d="M23.971,67.566v7.826h-2.392V56.542h11.804v2.028h-9.412v7.021H32.5v1.976H23.971z"/>
	 		<path fill="#FFFFFF" d="M37.855,56.542h12.064v2.028h-9.672v6.422h8.554v2.002h-8.554v6.37h9.776v2.028H37.855V56.542z"/>
	 		<path fill="#FFFFFF" d="M54.079,72.663c1.352,0.494,3.068,0.936,5.044,0.936c3.406,0,4.888-1.17,4.888-2.99
	 			c0-1.612-1.118-2.678-4.654-3.692c-4.083-1.144-5.721-2.886-5.721-5.46c0-2.938,2.522-5.2,6.761-5.2
	 			c1.898,0,3.77,0.364,5.304,0.936l-0.546,1.976c-1.352-0.468-2.782-0.832-4.654-0.832c-3.016,0-4.446,1.222-4.446,2.964
	 			c0,1.716,1.17,2.704,4.394,3.588c4.316,1.17,6.006,2.912,6.006,5.616c0,3.068-2.496,5.174-6.968,5.174
	 			c-2.366,0-4.42-0.416-5.98-1.014L54.079,72.663z"/>
	 		<path fill="#FFFFFF" d="M83.095,58.57h-6.032v16.823h-2.392V58.57h-6.032v-2.028h14.457V58.57z"/>
	 		<path fill="#FFFFFF" d="M86.657,56.542h2.392v18.851h-2.392V56.542z"/>
	 		<path fill="#FFFFFF" d="M99.423,75.393l-6.968-18.851h2.626l5.668,16.017l5.668-16.017h2.548l-6.969,18.851H99.423z"/>
	 		<path fill="#FFFFFF" d="M121.106,70.244h-7.8l-1.82,5.148h-2.574l7.046-18.851h2.574l7.021,18.851h-2.626L121.106,70.244z
	 			 M117.18,59.246l-3.172,8.97h6.37L117.18,59.246z"/>
	 		<path fill="#FFFFFF" d="M128.932,56.542h2.393v16.822h8.996v2.028h-11.389V56.542z"/>
	 		<path fill="#FFFFFF" d="M23.971,97.566v7.826h-2.392V86.542h11.804v2.028h-9.412v7.021H32.5v1.976H23.971z"/>
	 		<path fill="#FFFFFF" d="M45.343,86.256c5.382,0,8.866,3.744,8.866,9.62c0,6.032-3.484,9.803-8.866,9.803
	 			c-5.382,0-8.84-3.771-8.84-9.803C36.503,90,39.961,86.256,45.343,86.256z M45.343,103.599c3.822,0,6.396-2.808,6.396-7.723
	 			c0-4.732-2.548-7.54-6.396-7.54c-3.822,0-6.396,2.808-6.396,7.54C38.947,100.791,41.521,103.599,45.343,103.599z"/>
	 		<path fill="#FFFFFF" d="M65.467,98.685h-4.238v6.708h-2.392V86.542h5.486c4.862,0,7.515,2.158,7.515,5.928
	 			c0,3.094-1.612,4.966-4.03,5.772l4.81,7.15h-2.756L65.467,98.685z M61.229,88.57v8.086h3.874c2.522,0,4.29-1.404,4.29-4.186
	 			c0-2.522-1.82-3.9-5.486-3.9H61.229z"/>
	 		<path fill="#FFFFFF" d="M86.293,99.933v5.46h-2.392V86.542h5.564c4.915,0,7.904,2.236,7.904,6.526c0,4.472-2.99,6.864-7.904,6.864
	 			H86.293z M86.293,88.57v9.309h2.782c3.718,0,5.851-1.482,5.851-4.81c0-3.068-2.106-4.499-5.851-4.499H86.293z"/>
	 		<path fill="#FFFFFF" d="M101.711,86.542h12.064v2.028h-9.672v6.422h8.554v2.002h-8.554v6.37h9.776v2.028h-12.168V86.542z"/>
	 		<path fill="#FFFFFF" d="M126.255,86.256c5.382,0,8.866,3.744,8.866,9.62c0,6.032-3.484,9.803-8.866,9.803
	 			c-5.382,0-8.84-3.771-8.84-9.803C117.415,90,120.873,86.256,126.255,86.256z M126.255,103.599c3.821,0,6.396-2.808,6.396-7.723
	 			c0-4.732-2.547-7.54-6.396-7.54c-3.822,0-6.396,2.808-6.396,7.54C119.858,100.791,122.433,103.599,126.255,103.599z"/>
	 		<path fill="#FFFFFF" d="M142.141,99.933v5.46h-2.393V86.542h5.564c4.914,0,7.904,2.236,7.904,6.526
	 			c0,4.472-2.99,6.864-7.904,6.864H142.141z M142.141,88.57v9.309h2.781c3.719,0,5.852-1.482,5.852-4.81
	 			c0-3.068-2.107-4.499-5.852-4.499H142.141z"/>
	 		<path fill="#FFFFFF" d="M157.559,86.542h2.393v16.822h8.996v2.028h-11.389V86.542z"/>
	 		<path fill="#FFFFFF" d="M172.561,86.542h12.064v2.028h-9.672v6.422h8.554v2.002h-8.554v6.37h9.775v2.028h-12.168V86.542z"/>
	 		<path fill="#FFFFFF" d="M31.303,120.26l-4.29,15.133h-2.47l-5.512-18.851h2.548l4.264,15.835l4.368-15.835h2.236l4.42,15.782
	 			l4.212-15.782h2.496l-5.538,18.851h-2.47L31.303,120.26z"/>
	 		<path fill="#FFFFFF" d="M59.981,127.047H49.399v8.346h-2.392v-18.851h2.392v8.45h10.582v-8.45h2.393v18.851h-2.393V127.047z"/>
	 		<path fill="#FFFFFF" d="M75.841,116.256c5.382,0,8.866,3.744,8.866,9.62c0,6.032-3.484,9.803-8.866,9.803
	 			c-5.382,0-8.84-3.771-8.84-9.803C67.001,120,70.459,116.256,75.841,116.256z M75.841,133.599c3.822,0,6.396-2.808,6.396-7.723
	 			c0-4.732-2.548-7.54-6.396-7.54c-3.822,0-6.396,2.808-6.396,7.54C69.445,130.791,72.019,133.599,75.841,133.599z"/>
	 		<path fill="#FFFFFF" d="M96.225,116.542h2.392v10.868c0,4.342,1.82,6.188,5.07,6.188s5.044-1.847,5.044-6.188v-10.868h2.393
	 			v10.972c0,5.591-2.626,8.165-7.437,8.165s-7.462-2.574-7.462-8.165V116.542z"/>
	 		<path fill="#FFFFFF" d="M116.011,132.662c1.352,0.494,3.068,0.937,5.044,0.937c3.406,0,4.889-1.17,4.889-2.99
	 			c0-1.612-1.119-2.679-4.655-3.692c-4.082-1.144-5.72-2.886-5.72-5.46c0-2.938,2.522-5.2,6.76-5.2c1.898,0,3.771,0.364,5.304,0.936
	 			l-0.546,1.976c-1.353-0.468-2.782-0.832-4.654-0.832c-3.017,0-4.446,1.222-4.446,2.964c0,1.716,1.17,2.704,4.394,3.588
	 			c4.316,1.17,6.006,2.913,6.006,5.616c0,3.068-2.496,5.175-6.968,5.175c-2.366,0-4.42-0.416-5.98-1.015L116.011,132.662z"/>
	 		<path fill="#FFFFFF" d="M132.963,116.542h12.064v2.028h-9.673v6.422h8.554v2.002h-8.554v6.37h9.776v2.028h-12.168V116.542z"/>
	 		<path fill="#FFFFFF" d="M169.232,118.57H163.2v16.823h-2.392V118.57h-6.033v-2.028h14.457V118.57z"/>
	 		<path fill="#FFFFFF" d="M179.58,135.393h-2.393v-7.229l-7.072-11.622h2.756l5.564,9.386l5.513-9.386h2.704l-7.072,11.622V135.393z
	 			"/>
	 		<path fill="#FFFFFF" d="M192.346,129.933v5.46h-2.393v-18.851h5.564c4.914,0,7.904,2.236,7.904,6.526
	 			c0,4.472-2.99,6.864-7.904,6.864H192.346z M192.346,118.57v9.309h2.781c3.719,0,5.852-1.482,5.852-4.811
	 			c0-3.068-2.107-4.499-5.852-4.499H192.346z"/>
	 		<path fill="#FFFFFF" d="M207.764,116.542h12.064v2.028h-9.672v6.422h8.554v2.002h-8.554v6.37h9.775v2.028h-12.168V116.542z"/>
	 		<path fill="#FFFFFF" d="M30.611,180.35h-3.821v11.043H22.67V180.35h-3.801v-3.46h11.742V180.35z"/>
	 		<path fill="#FFFFFF" d="M41.451,185.991H36.47v5.401h-4.121V176.89h4.121v5.581h4.981v-5.581h4.101v14.503h-4.101V185.991z"/>
	 		<path fill="#FFFFFF" d="M48.509,176.89h10.362v3.141H52.63v2.78h5.461v2.721H52.63v2.721h6.301v3.141H48.509V176.89z"/>
	 		<path fill="#FFFFFF" d="M73.17,176.609c1.601,0,3.041,0.28,4.321,0.721l-0.76,3.141c-0.92-0.261-1.88-0.42-2.741-0.42
	 			c-2.241,0-3.801,1.359-3.801,4.08c0,2.761,1.56,4.102,3.801,4.102c0.9,0,1.84-0.16,2.781-0.42l0.76,3.16
	 			c-1.3,0.439-2.72,0.7-4.361,0.7c-4.461,0-7.281-2.78-7.281-7.542C65.889,179.41,68.709,176.609,73.17,176.609z"/>
	 		<path fill="#FFFFFF" d="M86.27,176.609c4.681,0,7.362,2.841,7.362,7.521c0,4.701-2.681,7.542-7.362,7.542
	 			c-4.701,0-7.361-2.841-7.361-7.542C78.909,179.45,81.569,176.609,86.27,176.609z M86.27,188.611c1.86,0,3.101-1.42,3.101-4.48
	 			c0-3.041-1.24-4.461-3.101-4.461c-1.88,0-3.101,1.42-3.101,4.461C83.169,187.191,84.39,188.611,86.27,188.611z"/>
	 		<path fill="#FFFFFF" d="M102.75,176.609c4.681,0,7.362,2.841,7.362,7.521c0,4.701-2.681,7.542-7.362,7.542
	 			c-4.701,0-7.361-2.841-7.361-7.542C95.389,179.45,98.049,176.609,102.75,176.609z M102.75,188.611c1.86,0,3.101-1.42,3.101-4.48
	 			c0-3.041-1.24-4.461-3.101-4.461c-1.88,0-3.101,1.42-3.101,4.461C99.649,187.191,100.87,188.611,102.75,188.611z"/>
	 		<path fill="#FFFFFF" d="M116.589,187.912v3.48h-4.121V176.89h5.921c3.821,0,6.042,1.98,6.042,5.461
	 			c0,3.541-2.221,5.562-6.042,5.562H116.589z M116.589,179.87v5.062h0.9c1.8,0,2.681-0.681,2.681-2.581c0-1.8-0.86-2.48-2.681-2.48
	 			H116.589z"/>
	 		<path fill="#FFFFFF" d="M126.509,176.89h10.362v3.141h-6.242v2.78h5.462v2.721h-5.462v2.721h6.302v3.141h-10.422V176.89z"/>
	 		<path fill="#FFFFFF" d="M144.75,186.912h-1.281v4.48h-4.12V176.89h5.882c3.801,0,5.9,1.841,5.9,4.981
	 			c0,2.141-0.9,3.561-2.561,4.34l3.24,5.182h-4.7L144.75,186.912z M143.469,179.79v4.222h1.181c1.501,0,2.241-0.602,2.241-2.141
	 			c0-1.48-0.801-2.081-2.541-2.081H143.469z"/>
	 		<path fill="#FFFFFF" d="M158.648,176.89h4.1v8.102c0,2.38,0.841,3.301,2.422,3.301c1.58,0,2.42-0.921,2.42-3.301v-8.102h4.102
	 			v8.602c0,4.021-2.281,6.182-6.521,6.182c-4.242,0-6.521-2.161-6.521-6.182V176.89z"/>
	 		<path fill="#FFFFFF" d="M183.649,176.89h4.081v14.503h-3.32l-5.781-7.722v7.722h-4.102V176.89h3.341l5.781,7.722V176.89z"/>
	 		<path fill="#FFFFFF" d="M190.688,176.89h4.121v14.503h-4.121V176.89z"/>
	 		<path fill="#FFFFFF" d="M204.529,176.609c4.681,0,7.361,2.841,7.361,7.521c0,4.701-2.681,7.542-7.361,7.542
	 			c-4.701,0-7.361-2.841-7.361-7.542C197.168,179.45,199.828,176.609,204.529,176.609z M204.529,188.611c1.859,0,3.1-1.42,3.1-4.48
	 			c0-3.041-1.24-4.461-3.1-4.461c-1.881,0-3.102,1.42-3.102,4.461C201.428,187.191,202.648,188.611,204.529,188.611z"/>
	 		<path fill="#FFFFFF" d="M223.369,176.89h4.081v14.503h-3.321l-5.781-7.722v7.722h-4.1V176.89h3.34l5.781,7.722V176.89z"/>
	 		<path fill="#FFFFFF" d="M19.109,218.271c0.38,0.08,0.84,0.16,1.2,0.16c1,0,1.521-0.4,1.521-1.641v-9.901h4.121v10.042
	 			c0,3.221-1.3,4.741-4.461,4.741c-1.02,0-2.1-0.181-2.82-0.4L19.109,218.271z"/>
	 		<path fill="#FFFFFF" d="M28.649,206.89h4.101v8.102c0,2.38,0.84,3.301,2.421,3.301c1.58,0,2.42-0.921,2.42-3.301v-8.102h4.101
	 			v8.602c0,4.021-2.281,6.182-6.521,6.182c-4.241,0-6.521-2.161-6.521-6.182V206.89z"/>
	 		<path fill="#FFFFFF" d="M53.65,206.89h4.081v14.503h-3.321l-5.781-7.722v7.722h-4.101V206.89h3.34l5.781,7.722V206.89z"/>
	 		<path fill="#FFFFFF" d="M60.689,206.89h10.362v3.141H64.81v2.78h5.461v2.721H64.81v2.721h6.301v3.141H60.689V206.89z"/>
	 		<path fill="#FFFFFF" d="M80.649,221.393V211.03l-2.161,0.86l-1.16-3.021l4.061-1.98h3.361v14.503H80.649z"/>
	 		<path fill="#FFFFFF" d="M90.289,221.393V211.03l-2.161,0.86l-1.16-3.021l4.061-1.98h3.361v14.503H90.289z"/>
	 		<path fill="#FFFFFF" d="M97.108,213.852h9.922v3.221h-9.922V213.852z"/>
	 		<path fill="#FFFFFF" d="M108.607,221.393v-2.82l4.541-3.762c1.54-1.26,2.16-1.98,2.16-2.92c0-1.16-0.84-1.84-2.521-1.84
	 			c-1.16,0-2.46,0.34-3.36,0.74l-0.92-3.102c1.26-0.54,3.061-1.08,5.101-1.08c3.761,0,5.841,2.061,5.841,4.721
	 			c0,1.921-0.88,3.361-2.781,4.881l-2.28,1.841h5.441v3.341H108.607z"/>
	 		<path fill="#FFFFFF" d="M124.228,221.393V211.03l-2.161,0.86l-1.16-3.021l4.061-1.98h3.36v14.503H124.228z"/>
	 	</g>
	 	<line fill="none" stroke="#FFFFFF" stroke-width="2" stroke-miterlimit="10" x1="19.589" y1="157.365" x2="230.5" y2="157.365"/>
	 </g>
</svg>
