<?xml version="1.0" encoding="utf-8"?>
<!-- Generator: Adobe Illustrator 16.0.0, SVG Export Plug-In . SVG Version: 6.00 Build 0)  -->
<!DOCTYPE svg PUBLIC "-//W3C//DTD SVG 1.1//EN" "http://www.w3.org/Graphics/SVG/1.1/DTD/svg11.dtd">
<svg version="1.1" xmlns="http://www.w3.org/2000/svg" xmlns:xlink="http://www.w3.org/1999/xlink" x="0px" y="0px" width="504px"
	 height="504px" viewBox="0 0 504 504" enable-background="new 0 0 504 504" xml:space="preserve">
	 <style>
	@keyframes slide {
	0% {
		transform: translate(0px, 0px);
	}
 70% {
		transform: translate(0px, 1250px);
	}
 100% {
	 transform: translate(0px, 1250px);
 }
	}
	@keyframes slide2 {
		0% {
			transform: translate(0px, 0px);
		}
	 5% {
			transform: translate(0px, 0px);
		}
	 75% {
			transform: translate(0px, 1250px);
		}
	 100% {
		 transform: translate(0px, 1250px);
	 }
	}
	@keyframes slide3 {
		0% {
			transform: translate(0px, 0px);
		}
	 10% {
			transform: translate(0px, 0px);
		}
	 80% {
			transform: translate(0px, 1250px);
		}
	 100% {
		 transform: translate(0px, 1250px);
	 }
	}
	@keyframes appear {
	  0% {
	    opacity:0
	  }
		75% {
	    opacity:0
	  }
		80% {
	    opacity:1
	  }
		95% {
			opacity:1
		}
	  100% {
	    opacity:0
	  }
	}

	.lines1{
	-webkit-animation: slide 14s linear infinite;
	-webkit-animation-fill-mode: forwards;

	}
	.lines2{
	-webkit-animation: slide2 14s linear infinite;
	-webkit-animation-fill-mode: forwards;

	}
	.lines3{
	-webkit-animation: slide3 14s linear infinite;
	-webkit-animation-fill-mode: forwards;
	}
	#Layer_3{
	-webkit-animation: appear 14s linear infinite;
	-webkit-animation-fill-mode: forwards;
	}
	}
	</style>
<g id="Layer_2">
	<rect width="504" height="504"/>
</g>
<g id="Layer_1">
	<g>
		<defs>
			<path id="SVGID_1_" d="M111.402,135.926v23.562H63.486v-74.25h26.532v50.688H111.402z M136.944,108.8v1.98h25.344v23.166h-25.344
				v1.979h25.344v23.562h-48.905v-74.25h48.905V108.8H136.944z M216.836,108.8h-13.068v50.688h-26.532V108.8h-12.969V85.238h52.569
				V108.8z M248.714,98.9c0,6.534-1.089,11.583-4.158,17.721l-4.95,9.801h-18.315l6.93-13.167c-6.237-2.079-9.9-7.722-9.9-14.355
				c0-8.415,5.841-15.147,15.146-15.147C242.873,83.753,248.714,90.485,248.714,98.9z M250.198,132.758v-3.465h12.969v-0.99
				c-8.217-3.168-13.464-10.593-13.464-20.988c0-14.85,11.483-23.562,29.007-23.562c18.413,0,28.017,10.395,28.017,26.235v5.445
				h-12.474v0.99c8.019,3.069,12.969,11.385,12.969,20.79c0,15.246-11.286,23.76-27.621,23.76
				C260.395,160.973,250.198,151.865,250.198,132.758z M284.154,110.78v-1.98h-11.88v1.98H284.154z M284.154,135.926v-1.979h-11.88
				v1.979H284.154z"/>
		</defs>
		<clipPath id="SVGID_2_">
			<use xlink:href="#SVGID_1_"  overflow="visible"/>
		</clipPath>
		<g clip-path="url(#SVGID_2_)">
			<g class="lines1">
				<ellipse fill="#FFFFFF" stroke="#FFFFFF" stroke-width="50" stroke-miterlimit="10" cx="349.167" cy="-478.333" rx="7.833" ry="9.333"/>
			<circle fill="none" stroke="#FFFFFF" stroke-width="50" stroke-miterlimit="10" cx="349.5" cy="-477.5" r="29.082"/>
			<circle fill="none" stroke="#FFFFFF" stroke-width="47.9056" stroke-miterlimit="10" cx="349.5" cy="-477.5" r="54.295"/>
			<circle fill="none" stroke="#FFFFFF" stroke-width="45.8111" stroke-miterlimit="10" cx="349.5" cy="-477.5" r="79.509"/>
			<circle fill="none" stroke="#FFFFFF" stroke-width="43.7167" stroke-miterlimit="10" cx="349.5" cy="-477.5" r="104.723"/>
			<circle fill="none" stroke="#FFFFFF" stroke-width="41.6223" stroke-miterlimit="10" cx="349.5" cy="-477.5" r="129.936"/>
			<path fill="none" stroke="#FFFFFF" stroke-width="39.5278" stroke-miterlimit="10" d="M504.649-477.5
				c0,85.688-69.466,155.149-155.149,155.149S194.351-391.812,194.351-477.5S263.816-632.649,349.5-632.649
				S504.649-563.188,504.649-477.5z"/>
			<path fill="none" stroke="#FFFFFF" stroke-width="37.4334" stroke-miterlimit="10" d="M529.863-477.5
				c0,99.613-80.756,180.363-180.363,180.363c-99.608,0-180.363-80.75-180.363-180.363S249.892-657.863,349.5-657.863
				C449.107-657.863,529.863-577.113,529.863-477.5z"/>
			<path fill="none" stroke="#FFFFFF" stroke-width="35.339" stroke-miterlimit="10" d="M555.076-477.5
				c0,113.539-92.044,205.576-205.576,205.576S143.924-363.961,143.924-477.5S235.968-683.077,349.5-683.077
				S555.076-591.039,555.076-477.5z"/>
			<path fill="none" stroke="#FFFFFF" stroke-width="33.2445" stroke-miterlimit="10" d="M580.29-477.5
				c0,127.464-103.333,230.79-230.79,230.79S118.71-350.036,118.71-477.5c0-127.465,103.333-230.79,230.79-230.79
				S580.29-604.965,580.29-477.5z"/>
			<path fill="none" stroke="#FFFFFF" stroke-width="31.1501" stroke-miterlimit="10" d="M605.504-477.5
				c0,141.39-114.623,256.004-256.004,256.004c-141.382,0-256.004-114.614-256.004-256.004S208.118-733.503,349.5-733.503
				C490.881-733.503,605.504-618.89,605.504-477.5z"/>
			<path fill="none" stroke="#FFFFFF" stroke-width="29.0557" stroke-miterlimit="10" d="M630.717-477.5
				c0,155.315-125.912,281.217-281.217,281.217c-155.306,0-281.218-125.902-281.218-281.217S194.194-758.717,349.5-758.717
				C504.805-758.717,630.717-632.815,630.717-477.5z"/>
			<path fill="none" stroke="#FFFFFF" stroke-width="26.9612" stroke-miterlimit="10" d="M655.931-477.5
				c0,169.24-137.199,306.431-306.431,306.431c-169.231,0-306.431-137.19-306.431-306.431s137.2-306.431,306.431-306.431
				C518.73-783.931,655.931-646.74,655.931-477.5z"/>
			<path fill="none" stroke="#FFFFFF" stroke-width="24.8668" stroke-miterlimit="10" d="M681.145-477.5
				c0,183.166-148.489,331.645-331.645,331.645c-183.155,0-331.645-148.479-331.645-331.645S166.344-809.145,349.5-809.145
				C532.654-809.145,681.145-660.666,681.145-477.5z"/>
			<path fill="none" stroke="#FFFFFF" stroke-width="22.7724" stroke-miterlimit="10" d="M706.357-477.5
				c0,197.091-159.778,356.858-356.857,356.858C152.42-120.642-7.358-280.409-7.358-477.5S152.42-834.357,349.5-834.357
				C546.579-834.357,706.357-674.591,706.357-477.5z"/>
			<path fill="none" stroke="#FFFFFF" stroke-width="20.6779" stroke-miterlimit="10" d="M731.571-477.5
				c0,211.017-171.067,382.071-382.071,382.071S-32.571-266.484-32.571-477.5S138.496-859.571,349.5-859.571
				S731.571-688.516,731.571-477.5z"/>
			<path fill="none" stroke="#FFFFFF" stroke-width="18.5835" stroke-miterlimit="10" d="M756.785-477.5
				c0,224.941-182.357,407.285-407.285,407.285c-224.929,0-407.285-182.344-407.285-407.285S124.571-884.785,349.5-884.785
				C574.428-884.785,756.785-702.441,756.785-477.5z"/>
			<path fill="none" stroke="#FFFFFF" stroke-width="16.489" stroke-miterlimit="10" d="M781.998-477.5
				c0,238.867-193.646,432.499-432.498,432.499c-238.854,0-432.499-193.632-432.499-432.499S110.646-909.999,349.5-909.999
				C588.353-909.999,781.998-716.367,781.998-477.5z"/>
			<path fill="none" stroke="#FFFFFF" stroke-width="14.3946" stroke-miterlimit="10" d="M807.212-477.5
				c0,252.792-204.935,457.712-457.712,457.712c-252.778,0-457.712-204.92-457.712-457.712S96.722-935.212,349.5-935.212
				C602.277-935.212,807.212-730.292,807.212-477.5z"/>
			<path fill="none" stroke="#FFFFFF" stroke-width="12.3002" stroke-miterlimit="10" d="M832.426-477.5
				c0,266.718-216.225,482.926-482.926,482.926c-266.703,0-482.926-216.208-482.926-482.926
				c0-266.717,216.223-482.926,482.926-482.926C616.201-960.426,832.426-744.217,832.426-477.5z"/>
			<path fill="none" stroke="#FFFFFF" stroke-width="10.2057" stroke-miterlimit="10" d="M857.64-477.5
				c0,280.643-227.514,508.139-508.14,508.139c-280.627,0-508.139-227.496-508.139-508.139S68.873-985.639,349.5-985.639
				C630.126-985.639,857.64-758.143,857.64-477.5z"/>
			<path fill="none" stroke="#FFFFFF" stroke-width="8.1113" stroke-miterlimit="10" d="M882.854-477.5
				c0,294.568-238.804,533.353-533.354,533.353c-294.552,0-533.353-238.785-533.353-533.353S54.948-1010.853,349.5-1010.853
				C644.05-1010.853,882.854-772.068,882.854-477.5z"/>
			<path fill="none" stroke="#FFFFFF" stroke-width="6.0169" stroke-miterlimit="10" d="M908.066-477.5
				c0,308.494-250.093,558.566-558.566,558.566c-308.477,0-558.566-250.073-558.566-558.566s250.09-558.566,558.566-558.566
				C657.975-1036.066,908.066-785.994,908.066-477.5z"/>
			</g>


		</g>
	</g>
	<g>
		<defs>
			<path id="SVGID_3_" d="M63.486,259.478v-31.185c0-16.434,9.9-25.74,26.73-25.74H91.8c16.83,0,26.73,9.306,26.73,25.74v11.88
				H91.998v-14.058h-1.979v28.61h1.979v-12.573h26.532v36.134H97.443l-3.96-8.514c-1.287,4.752-3.96,9.999-13.86,9.999
				C68.833,279.772,63.486,273.338,63.486,259.478z M144.071,227.6v1.98h25.344v23.166h-25.344v1.979h25.344v23.562H120.51v-74.249
				h48.905V227.6H144.071z M223.963,227.6h-13.068v50.687h-26.532V227.6h-12.969v-23.562h52.569V227.6z"/>
		</defs>
		<clipPath id="SVGID_4_">
			<use xlink:href="#SVGID_3_"  overflow="visible"/>
		</clipPath>
		<g clip-path="url(#SVGID_4_)">
			<g class="lines2">
					<ellipse fill="#FFFFFF" stroke="#FFFFFF" stroke-width="50" stroke-miterlimit="10" cx="143.167" cy="-360.333" rx="7.833" ry="9.333"/>
				<circle fill="none" stroke="#FFFFFF" stroke-width="50" stroke-miterlimit="10" cx="43.5" cy="-359.5" r="29.082"/>
				<circle fill="none" stroke="#FFFFFF" stroke-width="47.9056" stroke-miterlimit="10" cx="43.5" cy="-359.5" r="54.296"/>
				<path fill="none" stroke="#FFFFFF" stroke-width="45.8111" stroke-miterlimit="10" d="M123.01-359.5
					c0,43.912-35.601,79.509-79.51,79.509s-79.51-35.597-79.51-79.509s35.601-79.509,79.51-79.509S123.01-403.412,123.01-359.5z"/>
				<circle fill="none" stroke="#FFFFFF" stroke-width="43.7167" stroke-miterlimit="10" cx="43.5" cy="-359.5" r="104.723"/>
				<path fill="none" stroke="#FFFFFF" stroke-width="41.6223" stroke-miterlimit="10" d="M173.437-359.5
					c0,71.763-58.178,129.936-129.937,129.936S-86.436-287.737-86.436-359.5S-28.259-489.436,43.5-489.436
					S173.437-431.263,173.437-359.5z"/>
				<path fill="none" stroke="#FFFFFF" stroke-width="39.5278" stroke-miterlimit="10" d="M198.649-359.5
					c0,85.688-69.466,155.149-155.149,155.149S-111.649-273.812-111.649-359.5c0-85.688,69.466-155.149,155.149-155.149
					S198.649-445.188,198.649-359.5z"/>
				<path fill="none" stroke="#FFFFFF" stroke-width="37.4334" stroke-miterlimit="10" d="M223.863-359.5
					c0,99.613-80.756,180.363-180.363,180.363s-180.363-80.75-180.363-180.363S-56.107-539.863,43.5-539.863
					S223.863-459.113,223.863-359.5z"/>
				<path fill="none" stroke="#FFFFFF" stroke-width="35.339" stroke-miterlimit="10" d="M249.077-359.5
					c0,113.539-92.045,205.577-205.577,205.577S-162.077-245.961-162.077-359.5S-70.032-565.076,43.5-565.076
					S249.077-473.039,249.077-359.5z"/>
				<path fill="none" stroke="#FFFFFF" stroke-width="33.2445" stroke-miterlimit="10" d="M274.29-359.5
					c0,127.464-103.333,230.79-230.79,230.79S-187.29-232.036-187.29-359.5S-83.957-590.29,43.5-590.29S274.29-486.964,274.29-359.5
					z"/>
				<path fill="none" stroke="#FFFFFF" stroke-width="31.1501" stroke-miterlimit="10" d="M299.504-359.5
					c0,141.39-114.623,256.004-256.004,256.004c-141.382,0-256.004-114.614-256.004-256.004S-97.882-615.503,43.5-615.503
					C184.881-615.503,299.504-500.89,299.504-359.5z"/>
				<path fill="none" stroke="#FFFFFF" stroke-width="29.0557" stroke-miterlimit="10" d="M324.717-359.5
					c0,155.315-125.912,281.217-281.217,281.217c-155.307,0-281.218-125.902-281.218-281.217S-111.807-640.717,43.5-640.717
					C198.805-640.717,324.717-514.815,324.717-359.5z"/>
				<path fill="none" stroke="#FFFFFF" stroke-width="26.9612" stroke-miterlimit="10" d="M349.932-359.5
					c0,169.24-137.201,306.431-306.432,306.431S-262.931-190.26-262.931-359.5S-125.73-665.931,43.5-665.931
					S349.932-528.74,349.932-359.5z"/>
				<path fill="none" stroke="#FFFFFF" stroke-width="24.8668" stroke-miterlimit="10" d="M375.145-359.5
					c0,183.166-148.49,331.645-331.645,331.645c-183.155,0-331.645-148.479-331.645-331.645S-139.655-691.145,43.5-691.145
					C226.654-691.145,375.145-542.666,375.145-359.5z"/>
				<path fill="none" stroke="#FFFFFF" stroke-width="22.7724" stroke-miterlimit="10" d="M400.358-359.5
					C400.358-162.409,240.579-2.642,43.5-2.642c-197.08,0-356.858-159.767-356.858-356.858S-153.58-716.358,43.5-716.358
					C240.579-716.358,400.358-556.591,400.358-359.5z"/>
				<path fill="none" stroke="#FFFFFF" stroke-width="20.6779" stroke-miterlimit="10" d="M425.571-359.5
					c0,211.016-171.067,382.071-382.071,382.071S-338.571-148.484-338.571-359.5c0-211.017,171.067-382.071,382.071-382.071
					S425.571-570.517,425.571-359.5z"/>
				<path fill="none" stroke="#FFFFFF" stroke-width="18.5835" stroke-miterlimit="10" d="M450.785-359.5
					c0,224.941-182.357,407.285-407.285,407.285c-224.929,0-407.285-182.344-407.285-407.285S-181.429-766.785,43.5-766.785
					C268.428-766.785,450.785-584.441,450.785-359.5z"/>
				<path fill="none" stroke="#FFFFFF" stroke-width="16.489" stroke-miterlimit="10" d="M475.998-359.5
					c0,238.867-193.646,432.498-432.498,432.498c-238.854,0-432.499-193.631-432.499-432.498S-195.354-791.999,43.5-791.999
					C282.353-791.999,475.998-598.367,475.998-359.5z"/>
				<path fill="none" stroke="#FFFFFF" stroke-width="14.3946" stroke-miterlimit="10" d="M501.212-359.5
					c0,252.792-204.935,457.712-457.712,457.712c-252.778,0-457.712-204.919-457.712-457.712S-209.278-817.212,43.5-817.212
					C296.277-817.212,501.212-612.292,501.212-359.5z"/>
				<path fill="none" stroke="#FFFFFF" stroke-width="12.3002" stroke-miterlimit="10" d="M526.426-359.5
					c0,266.718-216.225,482.926-482.926,482.926c-266.703,0-482.926-216.208-482.926-482.926
					c0-266.717,216.223-482.926,482.926-482.926C310.201-842.426,526.426-626.217,526.426-359.5z"/>
				<path fill="none" stroke="#FFFFFF" stroke-width="10.2057" stroke-miterlimit="10" d="M551.64-359.5
					c0,280.643-227.514,508.14-508.14,508.14c-280.627,0-508.139-227.497-508.139-508.14c0-280.643,227.512-508.139,508.139-508.139
					C324.126-867.639,551.64-640.143,551.64-359.5z"/>
				<path fill="none" stroke="#FFFFFF" stroke-width="8.1113" stroke-miterlimit="10" d="M576.854-359.5
					c0,294.568-238.803,533.353-533.354,533.353c-294.552,0-533.353-238.784-533.353-533.353S-251.052-892.853,43.5-892.853
					C338.051-892.853,576.854-654.068,576.854-359.5z"/>
				<path fill="none" stroke="#FFFFFF" stroke-width="6.0169" stroke-miterlimit="10" d="M602.066-359.5
					c0,308.494-250.092,558.566-558.566,558.566c-308.477,0-558.566-250.073-558.566-558.566S-264.977-918.066,43.5-918.066
					C351.975-918.066,602.066-667.994,602.066-359.5z"/>
			</g>


		</g>
	</g>
	<g>
		<defs>
			<path id="SVGID_5_" d="M63.486,378.278v-31.185c0-16.435,9.9-25.74,26.73-25.74H91.8c16.83,0,26.73,9.306,26.73,25.74v11.88
				H91.998v-14.059h-1.979v28.611h1.979v-12.573h26.532v36.135H97.443l-3.96-8.514c-1.287,4.752-3.96,9.999-13.86,9.999
				C68.833,398.573,63.486,392.138,63.486,378.278z M120.51,322.839h33.264c14.651,0,24.75,7.425,24.75,22.77v1.584
				c0,10.197-5.346,16.335-12.771,19.602v0.99c3.861,2.079,6.534,4.851,8.415,12.177l4.455,17.127h-27.324l-3.762-24.453h-0.99
				v24.453H120.51V322.839z M154.961,348.381v-1.98h-11.88v1.98H154.961z M187.037,322.839h42.173l7.92,74.249h-28.214v-23.858
				h-1.98v23.858h-27.819L187.037,322.839z M214.559,354.32v-1.98h-12.87v1.98H214.559z M238.12,322.839h33.264
				c14.652,0,24.75,7.722,24.75,23.76v1.584c0,16.038-10.098,23.76-24.75,23.76h-6.731v25.146H238.12V322.839z M271.582,348.381
				v-1.98h-10.89v1.98H271.582z M352.662,322.839v74.249h-26.531v-25.839h-1.98v25.839h-26.531v-74.249h26.531v25.244h1.98v-25.244
				H352.662z M354.642,322.839h26.531v74.249h-26.531V322.839z M383.153,372.833v-25.739c0-16.435,9.899-25.74,26.729-25.74h1.584
				c16.83,0,26.729,9.306,26.729,25.74v11.88h-26.531v-14.059h-1.98v30.096h1.98v-14.058h26.531v11.88
				c0,16.434-9.899,25.74-26.729,25.74h-1.584C393.053,398.573,383.153,389.267,383.153,372.833z"/>
		</defs>
		<clipPath id="SVGID_6_">
			<use xlink:href="#SVGID_5_"  overflow="visible"/>
		</clipPath>
		<g clip-path="url(#SVGID_6_)">
			<g class="lines3">
								<ellipse fill="#FFFFFF" stroke="#FFFFFF" stroke-width="50" stroke-miterlimit="10" cx="335.167" cy="-242.333" rx="7.833" ry="9.333"/>
				<circle fill="none" stroke="#FFFFFF" stroke-width="50" stroke-miterlimit="10" cx="335.5" cy="-241.5" r="29.082"/>
				<circle fill="none" stroke="#FFFFFF" stroke-width="47.9056" stroke-miterlimit="10" cx="335.5" cy="-241.5" r="54.296"/>
				<path fill="none" stroke="#FFFFFF" stroke-width="45.8111" stroke-miterlimit="10" d="M415.01-241.5
					c0,43.913-35.601,79.509-79.51,79.509c-43.91,0-79.51-35.596-79.51-79.509c0-43.912,35.6-79.509,79.51-79.509
					C379.409-321.009,415.01-285.412,415.01-241.5z"/>
				<circle fill="none" stroke="#FFFFFF" stroke-width="43.7167" stroke-miterlimit="10" cx="335.5" cy="-241.5" r="104.723"/>
				<path fill="none" stroke="#FFFFFF" stroke-width="41.6223" stroke-miterlimit="10" d="M465.437-241.5
					c0,71.763-58.178,129.936-129.937,129.936S205.564-169.737,205.564-241.5S263.741-371.436,335.5-371.436
					S465.437-313.263,465.437-241.5z"/>
				<path fill="none" stroke="#FFFFFF" stroke-width="39.5278" stroke-miterlimit="10" d="M490.65-241.5
					c0,85.688-69.468,155.149-155.15,155.149c-85.684,0-155.149-69.461-155.149-155.149c0-85.688,69.466-155.149,155.149-155.149
					C421.183-396.649,490.65-327.188,490.65-241.5z"/>
				<path fill="none" stroke="#FFFFFF" stroke-width="37.4334" stroke-miterlimit="10" d="M515.863-241.5
					c0,99.614-80.756,180.363-180.363,180.363c-99.608,0-180.363-80.75-180.363-180.363S235.892-421.863,335.5-421.863
					C435.107-421.863,515.863-341.114,515.863-241.5z"/>
				<path fill="none" stroke="#FFFFFF" stroke-width="35.339" stroke-miterlimit="10" d="M541.076-241.5
					c0,113.539-92.044,205.576-205.576,205.576S129.923-127.961,129.923-241.5S221.968-447.076,335.5-447.076
					S541.076-355.039,541.076-241.5z"/>
				<path fill="none" stroke="#FFFFFF" stroke-width="33.2445" stroke-miterlimit="10" d="M566.29-241.5
					c0,127.465-103.334,230.79-230.79,230.79c-127.457,0-230.791-103.325-230.791-230.79c0-127.464,103.333-230.79,230.791-230.79
					C462.956-472.29,566.29-368.964,566.29-241.5z"/>
				<path fill="none" stroke="#FFFFFF" stroke-width="31.1501" stroke-miterlimit="10" d="M591.504-241.5
					c0,141.39-114.623,256.004-256.004,256.004C194.118,14.504,79.496-100.11,79.496-241.5S194.118-497.504,335.5-497.504
					C476.881-497.504,591.504-382.89,591.504-241.5z"/>
				<path fill="none" stroke="#FFFFFF" stroke-width="29.0557" stroke-miterlimit="10" d="M616.718-241.5
					c0,155.315-125.912,281.217-281.218,281.217C180.193,39.717,54.282-86.185,54.282-241.5S180.193-522.717,335.5-522.717
					C490.806-522.717,616.718-396.815,616.718-241.5z"/>
				<path fill="none" stroke="#FFFFFF" stroke-width="26.9612" stroke-miterlimit="10" d="M641.931-241.5
					c0,169.24-137.201,306.431-306.431,306.431C166.27,64.931,29.069-72.26,29.069-241.5S166.27-547.931,335.5-547.931
					C504.729-547.931,641.931-410.74,641.931-241.5z"/>
				<path fill="none" stroke="#FFFFFF" stroke-width="24.8668" stroke-miterlimit="10" d="M667.145-241.5
					c0,183.166-148.49,331.645-331.645,331.645C152.345,90.145,3.855-58.334,3.855-241.5S152.345-573.145,335.5-573.145
					C518.654-573.145,667.145-424.666,667.145-241.5z"/>
				<path fill="none" stroke="#FFFFFF" stroke-width="22.7724" stroke-miterlimit="10" d="M692.357-241.5
					c0,197.091-159.778,356.857-356.857,356.857c-197.08,0-356.858-159.767-356.858-356.857S138.42-598.358,335.5-598.358
					C532.579-598.358,692.357-438.591,692.357-241.5z"/>
				<path fill="none" stroke="#FFFFFF" stroke-width="20.6779" stroke-miterlimit="10" d="M717.571-241.5
					c0,211.017-171.068,382.071-382.071,382.071c-211.005,0-382.072-171.055-382.072-382.071S124.495-623.571,335.5-623.571
					C546.503-623.571,717.571-452.517,717.571-241.5z"/>
				<path fill="none" stroke="#FFFFFF" stroke-width="18.5835" stroke-miterlimit="10" d="M742.785-241.5
					c0,224.942-182.357,407.285-407.285,407.285c-224.929,0-407.285-182.343-407.285-407.285
					c0-224.941,182.356-407.285,407.285-407.285C560.428-648.785,742.785-466.441,742.785-241.5z"/>
				<path fill="none" stroke="#FFFFFF" stroke-width="16.489" stroke-miterlimit="10" d="M767.999-241.5
					c0,238.867-193.646,432.499-432.499,432.499C96.646,190.999-96.999-2.633-96.999-241.5
					c0-238.867,193.646-432.499,432.499-432.499C574.353-673.999,767.999-480.367,767.999-241.5z"/>
				<path fill="none" stroke="#FFFFFF" stroke-width="14.3946" stroke-miterlimit="10" d="M793.213-241.5
					c0,252.793-204.937,457.713-457.713,457.713c-252.778,0-457.712-204.92-457.712-457.713
					c0-252.792,204.934-457.712,457.712-457.712C588.276-699.212,793.213-494.292,793.213-241.5z"/>
				<path fill="none" stroke="#FFFFFF" stroke-width="12.3002" stroke-miterlimit="10" d="M818.426-241.5
					c0,266.718-216.225,482.926-482.926,482.926c-266.703,0-482.926-216.208-482.926-482.926S68.797-724.426,335.5-724.426
					C602.201-724.426,818.426-508.218,818.426-241.5z"/>
				<path fill="none" stroke="#FFFFFF" stroke-width="10.2057" stroke-miterlimit="10" d="M843.64-241.5
					c0,280.644-227.514,508.139-508.14,508.139c-280.627,0-508.139-227.495-508.139-508.139
					c0-280.643,227.512-508.14,508.139-508.14C616.126-749.64,843.64-522.143,843.64-241.5z"/>
				<path fill="none" stroke="#FFFFFF" stroke-width="8.1113" stroke-miterlimit="10" d="M868.853-241.5
					c0,294.568-238.803,533.353-533.353,533.353c-294.552,0-533.353-238.784-533.353-533.353S40.948-774.853,335.5-774.853
					C630.05-774.853,868.853-536.068,868.853-241.5z"/>
				<path fill="none" stroke="#FFFFFF" stroke-width="6.0169" stroke-miterlimit="10" d="M894.066-241.5
					c0,308.494-250.092,558.566-558.566,558.566c-308.477,0-558.566-250.072-558.566-558.566
					c0-308.494,250.09-558.566,558.566-558.566C643.975-800.066,894.066-549.994,894.066-241.5z"/>
			</g>


		</g>
	</g>
</g>
<g id="Layer_3">
	<g>
		<rect x="42.5" y="74.5" fill="none" width="421" height="351"/>
		<path fill="#FFFFFF" d="M72.552,84.398h-9.55V112H52.701V84.398h-9.5v-8.651h29.352V84.398z"/>
		<path fill="#FFFFFF" d="M96.251,112h-10.3V98.549L73,75.748H84.45l6.851,13.701l6.8-13.701h11.051L96.251,98.549V112z"/>
		<path fill="#FFFFFF" d="M122.951,103.299V112H112.65V75.748h14.801c9.551,0,15.101,4.951,15.101,13.651
			c0,8.851-5.55,13.901-15.101,13.901H122.951z M122.951,83.198v12.651h2.25c4.5,0,6.7-1.7,6.7-6.451c0-4.5-2.15-6.2-6.7-6.2
			H122.951z"/>
		<path fill="#FFFFFF" d="M164.65,75.048c11.701,0,18.401,7.1,18.401,18.801c0,11.75-6.701,18.851-18.401,18.851
			c-11.75,0-18.401-7.101-18.401-18.851C146.25,82.148,152.9,75.048,164.65,75.048z M164.65,105.05c4.65,0,7.75-3.55,7.75-11.201
			c0-7.601-3.1-11.151-7.75-11.151c-4.7,0-7.75,3.55-7.75,11.151C156.9,101.5,159.95,105.05,164.65,105.05z"/>
		<path fill="#FFFFFF" d="M206,112.7c-11.801,0-18.551-7.051-18.551-18.851c0-11.701,7-18.801,18.901-18.801
			c4.55,0,8.701,0.9,12.101,2.05l-1.9,7.801c-2.75-0.75-5.45-1.35-8.55-1.35c-6.05,0-9.901,3.25-9.901,10.601
			c0,7.15,3.65,10.801,9.901,10.801h0.7l-0.55-10.851h10.401V110.8C214.951,112,210.4,112.7,206,112.7z"/>
		<path fill="#FFFFFF" d="M238.549,100.799h-3.2V112h-10.301V75.748h14.701c9.501,0,14.751,4.601,14.751,12.451
			c0,5.35-2.25,8.9-6.4,10.851L256.2,112h-11.75L238.549,100.799z M235.349,82.998v10.551h2.95c3.75,0,5.6-1.5,5.6-5.35
			c0-3.7-2-5.201-6.35-5.201H235.349z"/>
		<path fill="#FFFFFF" d="M279.949,105.2h-10.9l-1.851,6.8h-10.65l12.15-36.252h12.001L292.8,112h-11L279.949,105.2z
			 M274.499,84.948l-3.55,13.051h7.05L274.499,84.948z"/>
		<path fill="#FFFFFF" d="M306.799,103.299V112h-10.301V75.748h14.801c9.551,0,15.102,4.951,15.102,13.651
			c0,8.851-5.551,13.901-15.102,13.901H306.799z M306.799,83.198v12.651h2.25c4.5,0,6.7-1.7,6.7-6.451c0-4.5-2.149-6.2-6.7-6.2
			H306.799z"/>
		<path fill="#FFFFFF" d="M354.349,98.499h-12.45V112h-10.301V75.748h10.301v13.951h12.45V75.748H364.6V112h-10.251V98.499z"/>
		<path fill="#FFFFFF" d="M371.998,75.748h10.301V112h-10.301V75.748z"/>
		<path fill="#FFFFFF" d="M406.398,75.048c4,0,7.601,0.7,10.801,1.8l-1.9,7.851c-2.3-0.65-4.7-1.05-6.851-1.05
			c-5.601,0-9.5,3.4-9.5,10.201c0,6.9,3.899,10.25,9.5,10.25c2.25,0,4.601-0.4,6.95-1.05l1.9,7.9c-3.25,1.1-6.8,1.75-10.9,1.75
			c-11.15,0-18.201-6.951-18.201-18.851C388.197,82.048,395.248,75.048,406.398,75.048z"/>
		<path fill="#FFFFFF" d="M422.897,102.799c2.55,0.85,6.15,1.7,9.75,1.7c4.2,0,5.751-1,5.751-2.65c0-1.75-1.2-2.75-6.051-4.05
			c-8.15-2.25-11.351-6.101-11.351-11.201c0-6.551,5.4-11.551,15.201-11.551c3.95,0,8.5,0.75,12,1.85l-2,7.95
			c-2.3-0.75-5.75-1.6-9.25-1.6c-3.851,0-5.351,1.1-5.351,2.7c0,1.75,1.4,2.65,6.051,3.851c8.851,2.3,12.101,6.05,12.101,11.801
			c0,6.75-5.101,11.101-15.901,11.101c-4.25,0-9.2-0.8-12.7-1.85L422.897,102.799z"/>
		<path fill="#FFFFFF" d="M62.538,164.312H50.691L48.045,172H42.92l11.258-30.456h5.083L70.477,172h-5.251L62.538,164.312z
			 M56.572,147.132l-4.495,13.148h9.074L56.572,147.132z"/>
		<path fill="#FFFFFF" d="M86.432,141.544h10.46c9.284,0,14.829,5.083,14.829,15.123c0,10.166-5.545,15.333-14.829,15.333h-10.46
			V141.544z M91.221,145.577v22.39h4.789c6.679,0,10.796-2.94,10.796-11.3c0-8.149-4.075-11.09-10.796-11.09H91.221z"/>
		<path fill="#FFFFFF" d="M118.855,141.544h19.828v4.033h-15.039v9.284h13.274v3.949h-13.274v9.158h15.207V172h-19.996V141.544z"/>
		<path fill="#FFFFFF" d="M145.399,166.875c2.184,0.714,4.915,1.512,8.107,1.512c5.125,0,7.309-1.638,7.309-4.243
			c0-2.395-1.638-3.991-7.141-5.461c-6.553-1.764-9.284-4.663-9.284-8.99c0-4.831,4.159-8.653,11.216-8.653
			c3.025,0,6.175,0.588,8.738,1.512l-1.05,3.907c-2.185-0.672-4.453-1.302-7.436-1.302c-4.621,0-6.679,1.764-6.679,4.201
			c0,2.521,1.89,4.033,6.721,5.293c7.1,1.848,9.788,4.747,9.788,9.284c0,5.041-4.075,8.569-11.426,8.569
			c-3.949,0-7.393-0.714-9.956-1.68L145.399,166.875z"/>
		<path fill="#FFFFFF" d="M172.825,141.544h4.789V172h-4.789V141.544z"/>
		<path fill="#FFFFFF" d="M200.043,172.504c-9.872,0-15.291-6.175-15.291-15.836c0-9.452,5.545-15.627,15.375-15.627
			c3.571,0,6.385,0.546,9.158,1.47l-1.176,4.033c-2.226-0.672-4.873-1.302-7.519-1.302c-6.637,0-10.922,4.159-10.922,11.426
			c0,7.603,4.159,11.804,10.838,11.804c1.512,0,3.15-0.168,4.705-0.42l-0.168-7.435h-5.797v-4.033h10.459v14.366
			C206.764,171.916,203.656,172.504,200.043,172.504z"/>
		<path fill="#FFFFFF" d="M238.18,141.544h4.663V172h-4.369l-16.341-22.306V172h-4.663v-30.456h4.369l16.341,22.306V141.544z"/>
		<path fill="#FFFFFF" d="M268.207,159.776V172h-4.789v-30.456h19.407v4.033h-14.618v10.25h13.189v3.949H268.207z"/>
		<path fill="#FFFFFF" d="M289.752,141.544h19.827v4.033h-15.038v9.284h13.273v3.949h-13.273v9.158h15.206V172h-19.995V141.544z"/>
		<path fill="#FFFFFF" d="M316.295,166.875c2.185,0.714,4.915,1.512,8.107,1.512c5.125,0,7.31-1.638,7.31-4.243
			c0-2.395-1.639-3.991-7.142-5.461c-6.553-1.764-9.283-4.663-9.283-8.99c0-4.831,4.159-8.653,11.216-8.653
			c3.024,0,6.175,0.588,8.737,1.512l-1.05,3.907c-2.185-0.672-4.453-1.302-7.436-1.302c-4.62,0-6.679,1.764-6.679,4.201
			c0,2.521,1.89,4.033,6.721,5.293c7.1,1.848,9.788,4.747,9.788,9.284c0,5.041-4.075,8.569-11.426,8.569
			c-3.949,0-7.394-0.714-9.956-1.68L316.295,166.875z"/>
		<path fill="#FFFFFF" d="M363.549,145.577h-9.409V172h-4.789v-26.423h-9.41v-4.033h23.608V145.577z"/>
		<path fill="#FFFFFF" d="M369.005,141.544h4.788V172h-4.788V141.544z"/>
		<path fill="#FFFFFF" d="M389.922,172l-11.09-30.456h5.251l8.485,24.785l8.443-24.785h5.125L395.005,172H389.922z"/>
		<path fill="#FFFFFF" d="M425.161,164.312h-11.846L410.669,172h-5.125l11.258-30.456h5.083L433.101,172h-5.251L425.161,164.312z
			 M419.196,147.132l-4.494,13.148h9.073L419.196,147.132z"/>
		<path fill="#FFFFFF" d="M438.137,141.544h4.789v26.423h13.946V172h-18.735V141.544z"/>
		<path fill="#FFFFFF" d="M51.91,219.776V232h-4.789v-30.456h19.408v4.033H51.91v10.25H65.1v3.949H51.91z"/>
		<path fill="#FFFFFF" d="M85.889,201.041c8.947,0,14.535,6.175,14.535,15.627c0,9.62-5.587,15.836-14.535,15.836
			c-8.948,0-14.535-6.217-14.535-15.836C71.354,207.216,76.941,201.041,85.889,201.041z M85.889,228.387
			c5.713,0,9.62-4.327,9.62-11.72c0-7.184-3.865-11.51-9.62-11.51c-5.755,0-9.62,4.327-9.62,11.51
			C76.27,224.061,80.134,228.387,85.889,228.387z"/>
		<path fill="#FFFFFF" d="M118.354,221.498h-6.007V232h-4.789v-30.456h9.2c8.107,0,12.519,3.613,12.519,9.746
			c0,4.915-2.311,7.855-6.259,9.284L130.579,232h-5.503L118.354,221.498z M112.348,205.577v11.888h5.419
			c4.243,0,6.637-1.974,6.637-6.175c0-3.655-2.772-5.713-8.527-5.713H112.348z"/>
		<path fill="#FFFFFF" d="M153.003,223.599V232h-4.789v-30.456h9.41c8.107,0,12.938,3.781,12.938,10.712
			c0,7.31-4.831,11.342-12.938,11.342H153.003z M153.003,205.577v13.989h3.739c5.713,0,8.947-2.269,8.947-7.31
			c0-4.537-3.192-6.679-8.947-6.679H153.003z"/>
		<path fill="#FFFFFF" d="M177.277,201.544h19.828v4.033h-15.039v9.284h13.274v3.949h-13.274v9.158h15.207V232h-19.996V201.544z"/>
		<path fill="#FFFFFF" d="M217.264,201.041c8.947,0,14.534,6.175,14.534,15.627c0,9.62-5.587,15.836-14.534,15.836
			c-8.948,0-14.535-6.217-14.535-15.836C202.729,207.216,208.316,201.041,217.264,201.041z M217.264,228.387
			c5.713,0,9.62-4.327,9.62-11.72c0-7.184-3.865-11.51-9.62-11.51c-5.755,0-9.62,4.327-9.62,11.51
			C207.644,224.061,211.508,228.387,217.264,228.387z"/>
		<path fill="#FFFFFF" d="M243.722,223.599V232h-4.789v-30.456h9.41c8.107,0,12.938,3.781,12.938,10.712
			c0,7.31-4.831,11.342-12.938,11.342H243.722z M243.722,205.577v13.989h3.739c5.713,0,8.947-2.269,8.947-7.31
			c0-4.537-3.192-6.679-8.947-6.679H243.722z"/>
		<path fill="#FFFFFF" d="M267.997,201.544h4.788v26.423h13.947V232h-18.735V201.544z"/>
		<path fill="#FFFFFF" d="M292.188,201.544h19.827v4.033h-15.039v9.284h13.274v3.949h-13.274v9.158h15.207V232h-19.995V201.544z"/>
		<path fill="#FFFFFF" d="M63.42,269.064L56.993,292H52.12l-9.2-30.455h5.125l6.637,24.322l6.553-24.322h4.495l6.637,24.238
			l6.553-24.238h4.999L74.678,292h-4.873L63.42,269.064z"/>
		<path fill="#FFFFFF" d="M109.536,278.768H93.741V292h-4.789v-30.455h4.789v13.189h15.795v-13.189h4.789V292h-4.789V278.768z"/>
		<path fill="#FFFFFF" d="M135.994,261.041c8.947,0,14.534,6.175,14.534,15.626c0,9.62-5.587,15.837-14.534,15.837
			c-8.948,0-14.535-6.217-14.535-15.837C121.459,267.216,127.046,261.041,135.994,261.041z M135.994,288.388
			c5.713,0,9.62-4.327,9.62-11.721c0-7.183-3.865-11.51-9.62-11.51c-5.755,0-9.62,4.327-9.62,11.51
			C126.375,284.061,130.239,288.388,135.994,288.388z"/>
		<path fill="#FFFFFF" d="M168.583,261.545h4.789v17.559c0,6.428,2.646,9.284,7.477,9.284c4.831,0,7.478-2.856,7.478-9.284v-17.559
			h4.789v17.811c0,8.906-4.285,13.148-12.266,13.148s-12.266-4.242-12.266-13.148V261.545z"/>
		<path fill="#FFFFFF" d="M200.923,286.875c2.184,0.714,4.915,1.513,8.107,1.513c5.125,0,7.309-1.639,7.309-4.243
			c0-2.395-1.638-3.99-7.141-5.461c-6.553-1.765-9.284-4.662-9.284-8.99c0-4.83,4.159-8.652,11.216-8.652
			c3.025,0,6.175,0.588,8.738,1.512l-1.05,3.906c-2.185-0.672-4.453-1.302-7.436-1.302c-4.621,0-6.679,1.765-6.679,4.2
			c0,2.521,1.891,4.033,6.722,5.293c7.099,1.849,9.788,4.747,9.788,9.284c0,5.041-4.075,8.569-11.426,8.569
			c-3.949,0-7.393-0.714-9.956-1.68L200.923,286.875z"/>
		<path fill="#FFFFFF" d="M228.349,261.545h19.828v4.032h-15.039v9.284h13.274v3.948h-13.274v9.157h15.207V292h-19.996V261.545z"/>
		<path fill="#FFFFFF" d="M287.067,265.577h-9.409V292h-4.789v-26.423h-9.41v-4.032h23.608V265.577z"/>
		<path fill="#FFFFFF" d="M304.285,292h-4.789v-11.636l-11.258-18.819h5.503l8.275,14.366l8.149-14.366h5.377l-11.258,18.819V292z"
			/>
		<path fill="#FFFFFF" d="M325.283,283.599V292h-4.788v-30.455h9.409c8.107,0,12.938,3.78,12.938,10.711
			c0,7.31-4.831,11.343-12.938,11.343H325.283z M325.283,265.577v13.988h3.739c5.713,0,8.947-2.268,8.947-7.31
			c0-4.536-3.192-6.679-8.947-6.679H325.283z"/>
		<path fill="#FFFFFF" d="M349.559,261.545h19.827v4.032h-15.038v9.284h13.273v3.948h-13.273v9.157h15.206V292h-19.995V261.545z"/>
	</g>
	<g>
		<rect x="42.5" y="396.5" fill="none" width="421" height="62.073"/>
		<path fill="#FFFFFF" d="M56.925,401.251h-4.584V414.5h-4.944v-13.249h-4.561v-4.152h14.089V401.251z"/>
		<path fill="#FFFFFF" d="M69.933,408.02h-5.977v6.48h-4.944v-17.401h4.944v6.696h5.977v-6.696h4.92V414.5h-4.92V408.02z"/>
		<path fill="#FFFFFF" d="M78.404,397.099h12.433v3.769h-7.488v3.336h6.552v3.264h-6.552v3.265h7.561v3.769H78.404V397.099z"/>
		<path fill="#FFFFFF" d="M107.997,396.763c1.92,0,3.648,0.336,5.185,0.864l-0.912,3.768c-1.104-0.312-2.256-0.504-3.289-0.504
			c-2.688,0-4.561,1.633-4.561,4.896c0,3.312,1.873,4.92,4.561,4.92c1.08,0,2.208-0.191,3.336-0.504l0.912,3.793
			c-1.56,0.527-3.264,0.84-5.232,0.84c-5.353,0-8.737-3.336-8.737-9.049C99.26,400.123,102.645,396.763,107.997,396.763z"/>
		<path fill="#FFFFFF" d="M123.717,396.763c5.617,0,8.833,3.408,8.833,9.024c0,5.641-3.216,9.049-8.833,9.049
			c-5.64,0-8.833-3.408-8.833-9.049C114.884,400.171,118.077,396.763,123.717,396.763z M123.717,411.164
			c2.232,0,3.721-1.705,3.721-5.377c0-3.648-1.488-5.353-3.721-5.353c-2.256,0-3.72,1.704-3.72,5.353
			C119.997,409.459,121.461,411.164,123.717,411.164z"/>
		<path fill="#FFFFFF" d="M143.493,396.763c5.617,0,8.833,3.408,8.833,9.024c0,5.641-3.216,9.049-8.833,9.049
			c-5.64,0-8.833-3.408-8.833-9.049C134.66,400.171,137.853,396.763,143.493,396.763z M143.493,411.164
			c2.232,0,3.721-1.705,3.721-5.377c0-3.648-1.488-5.353-3.721-5.353c-2.256,0-3.72,1.704-3.72,5.353
			C139.772,409.459,141.237,411.164,143.493,411.164z"/>
		<path fill="#FFFFFF" d="M160.101,410.324v4.176h-4.944v-17.401h7.104c4.584,0,7.249,2.376,7.249,6.552
			c0,4.249-2.664,6.674-7.249,6.674H160.101z M160.101,400.675v6.073h1.08c2.16,0,3.216-0.816,3.216-3.098
			c0-2.16-1.032-2.976-3.216-2.976H160.101z"/>
		<path fill="#FFFFFF" d="M172.004,397.099h12.433v3.769h-7.489v3.336h6.552v3.264h-6.552v3.265h7.561v3.769h-12.505V397.099z"/>
		<path fill="#FFFFFF" d="M193.893,409.123h-1.536v5.377h-4.944v-17.401h7.056c4.561,0,7.081,2.208,7.081,5.977
			c0,2.567-1.08,4.272-3.072,5.208l3.888,6.217h-5.641L193.893,409.123z M192.357,400.578v5.064h1.416
			c1.8,0,2.688-0.719,2.688-2.567c0-1.776-0.96-2.497-3.048-2.497H192.357z"/>
		<path fill="#FFFFFF" d="M210.572,397.099h4.92v9.721c0,2.856,1.008,3.96,2.904,3.96c1.896,0,2.904-1.104,2.904-3.96v-9.721h4.921
			v10.321c0,4.824-2.736,7.416-7.825,7.416c-5.089,0-7.825-2.592-7.825-7.416V397.099z"/>
		<path fill="#FFFFFF" d="M240.573,397.099h4.896V414.5h-3.984l-6.937-9.265v9.265h-4.92v-17.401h4.008l6.937,9.265V397.099z"/>
		<path fill="#FFFFFF" d="M249.021,397.099h4.944V414.5h-4.944V397.099z"/>
		<path fill="#FFFFFF" d="M265.628,396.763c5.616,0,8.833,3.408,8.833,9.024c0,5.641-3.217,9.049-8.833,9.049
			c-5.641,0-8.833-3.408-8.833-9.049C256.795,400.171,259.987,396.763,265.628,396.763z M265.628,411.164
			c2.232,0,3.721-1.705,3.721-5.377c0-3.648-1.488-5.353-3.721-5.353c-2.256,0-3.72,1.704-3.72,5.353
			C261.908,409.459,263.372,411.164,265.628,411.164z"/>
		<path fill="#FFFFFF" d="M288.235,397.099h4.896V414.5h-3.984l-6.937-9.265v9.265h-4.92v-17.401h4.008l6.937,9.265V397.099z"/>
		<path fill="#FFFFFF" d="M306.883,395.898h4.152l-6.001,22.201h-4.152L306.883,395.898z"/>
		<path fill="#FFFFFF" d="M317.634,410.756c0.456,0.096,1.008,0.191,1.44,0.191c1.2,0,1.824-0.479,1.824-1.968v-11.881h4.944v12.049
			c0,3.864-1.561,5.688-5.353,5.688c-1.225,0-2.521-0.216-3.385-0.48L317.634,410.756z"/>
		<path fill="#FFFFFF" d="M329.081,397.099h4.921v9.721c0,2.856,1.008,3.96,2.904,3.96c1.896,0,2.904-1.104,2.904-3.96v-9.721h4.92
			v10.321c0,4.824-2.736,7.416-7.824,7.416c-5.089,0-7.825-2.592-7.825-7.416V397.099z"/>
		<path fill="#FFFFFF" d="M359.082,397.099h4.896V414.5h-3.984l-6.937-9.265v9.265h-4.92v-17.401h4.008l6.937,9.265V397.099z"/>
		<path fill="#FFFFFF" d="M367.529,397.099h12.433v3.769h-7.488v3.336h6.553v3.264h-6.553v3.265h7.561v3.769h-12.505V397.099z"/>
		<path fill="#FFFFFF" d="M391.481,414.5v-12.434l-2.592,1.033l-1.393-3.625l4.872-2.376h4.033V414.5H391.481z"/>
		<path fill="#FFFFFF" d="M403.049,414.5v-12.434l-2.592,1.033l-1.393-3.625l4.872-2.376h4.033V414.5H403.049z"/>
		<path fill="#FFFFFF" d="M411.233,405.451h11.905v3.864h-11.905V405.451z"/>
		<path fill="#FFFFFF" d="M425.033,414.5v-3.385l5.449-4.512c1.848-1.512,2.592-2.377,2.592-3.504c0-1.393-1.008-2.209-3.024-2.209
			c-1.392,0-2.952,0.408-4.032,0.889l-1.104-3.721c1.512-0.648,3.672-1.296,6.12-1.296c4.513,0,7.009,2.472,7.009,5.664
			c0,2.304-1.057,4.032-3.337,5.856l-2.736,2.209h6.529v4.008H425.033z"/>
		<path fill="#FFFFFF" d="M443.777,414.5v-12.434l-2.592,1.033l-1.393-3.625l4.872-2.376h4.033V414.5H443.777z"/>
	</g>
	<line fill="none" stroke="#FFFFFF" stroke-width="2" stroke-miterlimit="10" x1="42.5" y1="344.5" x2="463.5" y2="344.5"/>
</g>
</svg>
