<?xml version="1.0" encoding="utf-8"?>
<!-- Generator: Adobe Illustrator 16.0.0, SVG Export Plug-In . SVG Version: 6.00 Build 0)  -->
<!DOCTYPE svg PUBLIC "-//W3C//DTD SVG 1.1//EN" "http://www.w3.org/Graphics/SVG/1.1/DTD/svg11.dtd">
<svg version="1.1" id="Layer_1" xmlns="http://www.w3.org/2000/svg" xmlns:xlink="http://www.w3.org/1999/xlink" x="0px" y="0px"
	 width="504px" height="504px" viewBox="0 0 504 504" enable-background="new 0 0 504 504" xml:space="preserve">
	 <style>
	@keyframes slide {
	0% {
		transform: translate(0px, -185.5px);
		opacity:0;
	}
	5% {
		transform: translate(0px, 0px);
		opacity:1;
	}
	20% {
		transform: translate(0px, 0px);
	}
	25% {
		transform: translate(0px, 123px);
	}
	40% {
	 transform: translate(0px, 123px);
	}
	45% {
	 transform: translate(0px, 245px);
	}
	60% {
	 transform: translate(0px, 245px);
	 opacity:1;
	}
	65% {
	 transform: translate(0px, 370px);
	 opacity:0;
	}
	100%{
	transform: translate(0px, 370px);
	opacity:0;
	}
	}
	@keyframes slide2 {
		0% {
			transform: translate(0px,  -85.5px);
		}
	 60% {
			transform: translate(0px,  -85.5px);
		}
	 65% {
			transform: translate(0px, 0px);
		}
		85% {
 			transform: translate(0px, 0px);
 		}
		90% {
 			transform: translate(0px,  0px);
			opacity:1
 		}
	 100% {
		 transform: translate(0px,  0px);
		 opacity:0;
	 }
	}
	@keyframes slide3 {
		0% {
			transform: translate(0px,  -185.5px);
		}
	 10% {
			transform: translate(0px,  -185.5px);
		}
	 80% {
			transform: translate(0px, 1250px);
		}
	 100% {
		 transform: translate(0px, 1250px);
	 }
	}
	@keyframes appear {
		0% {
			opacity:0
		}
		75% {
			opacity:0
		}
		80% {
			opacity:1
		}
		95% {
			opacity:1
		}
		100% {
			opacity:0
		}
	}
	svg{
	filter: invert(100%)

	}
	.lines1{
	-webkit-animation: slide 5s linear infinite;
	-webkit-animation-fill-mode: forwards;

	}
	.lines2{
	-webkit-animation: slide2 5s linear infinite;
	-webkit-animation-fill-mode: forwards;

	}
	.lines3{
	-webkit-animation: slide3 14s linear infinite;
	-webkit-animation-fill-mode: forwards;
	}
	#Layer_3{
	-webkit-animation: appear 14s linear infinite;
	-webkit-animation-fill-mode: forwards;
	}
	}
	</style>
		<rect width="504" height="504" fill="#fff"/>
	<g id="Layer_1">
		<g>
			<g>
				<defs>
					<rect id="SVGID_1_" x="-70.5" y="100.225" width="646" height="71.777"/>
				</defs>
				<clipPath id="SVGID_2_">
					<use xlink:href="#SVGID_1_"  overflow="visible"/>
				</clipPath>
				<g clip-path="url(#SVGID_2_)">
					<g class="lines1">
						<rect x="-95.244" y="-141.21" fill="none" width="698.158" height="534.329"/>
						<path d="M17.017-56.251v-47.791c0-25.185,15.172-39.447,40.962-39.447h2.428c25.791,0,40.962,14.26,40.962,39.447v18.206H60.71
							v-21.544h-3.035v43.846h3.035v-19.268h40.659v55.376H69.052l-6.068-13.047c-1.972,7.282-6.069,15.322-21.241,15.322
							C25.209-25.15,17.017-35.011,17.017-56.251z"/>
						<path d="M104.401-141.213h50.977c22.455,0,37.928,11.38,37.928,34.896v2.427c0,15.626-8.192,25.033-19.571,30.041v1.518
							c5.917,3.185,10.013,7.434,12.896,18.661l6.827,26.246h-41.874L145.818-64.9h-1.517v37.475h-39.9V-141.213z M157.199-102.069
							v-3.035h-18.206v3.035H157.199z"/>
						<path d="M206.35-141.213h64.631l12.134,113.788h-43.236V-63.99h-3.035v36.564h-42.631L206.35-141.213z M248.526-92.967v-3.035
							h-19.723v3.035H248.526z"/>
						<path d="M323.774-105.104v3.035h35.805v35.501h-35.805v39.143h-39.142v-113.788h74.946v36.109H323.774z"/>
						<path d="M362.612-141.213h40.66v113.788h-40.66V-141.213z"/>
						<path d="M406.304-64.597v-39.444c0-25.185,15.173-39.447,40.963-39.447h2.427c25.793,0,40.965,14.26,40.965,39.447v18.206
							h-40.661v-21.544h-3.035v46.12h3.035v-21.542h40.661v18.205c0,25.184-15.173,39.447-40.965,39.447h-2.427
							C421.477-25.15,406.304-39.411,406.304-64.597z"/>
						<path d="M130.874,66.098V18.309c0-25.184,15.172-39.447,40.963-39.447h2.427c25.791,0,40.962,14.261,40.962,39.447v18.207
							h-40.659V14.971h-3.034v43.844h3.034V39.548h40.659v55.376H182.91l-6.068-13.047c-1.972,7.282-6.069,15.324-21.241,15.324
							C139.067,97.2,130.874,87.337,130.874,66.098z"/>
						<path d="M254.368,17.244v3.035h38.84v35.501h-38.84v3.035h38.84v36.109h-74.95V-18.863h74.948v36.109h-38.838V17.244z"/>
						<path d="M376.8,17.244h-20.026v77.679h-40.66V17.244h-19.877v-36.107H376.8V17.244L376.8,17.244z"/>
						<path d="M140.891,181.165v36.109H67.46V103.486h40.659v77.679H140.891z"/>
						<path d="M180.031,139.593v3.035h38.839v35.502h-38.839v3.033h38.839v36.109h-74.947V103.484h74.947v36.109H180.031z"/>
						<path d="M302.462,139.593h-20.024v77.679h-40.662v-77.679h-19.874v-36.109h80.56V139.593z"/>
						<path d="M351.311,124.422c0,10.013-1.668,17.75-6.372,27.156l-7.585,15.02h-28.066l10.619-20.178
							c-9.557-3.185-15.173-11.835-15.173-21.998c0-12.896,8.952-23.212,23.214-23.212
							C342.359,101.21,351.311,111.526,351.311,124.422z"/>
						<path d="M353.582,176.31v-5.311h19.877v-1.518c-12.592-4.855-20.633-16.234-20.633-32.166
							c0-22.756,17.598-36.107,44.453-36.107c28.219,0,42.935,15.93,42.935,40.205v8.345h-19.116v1.517
							c12.289,4.703,19.875,17.446,19.875,31.86c0,23.364-17.296,36.412-42.329,36.412C369.21,219.549,353.582,205.59,353.582,176.31
							z M405.622,142.629v-3.035h-18.206v3.035H405.622z M405.622,181.165v-3.034h-18.206v3.034H405.622z"/>
					</g>
				</g>
			</g>
		</g>
		<g>
			<g>
				<defs>
					<rect id="SVGID_3_" x="-70.5" y="56.179" width="646" height="35.889"/>
				</defs>
				<clipPath id="SVGID_4_">
					<use xlink:href="#SVGID_3_"  overflow="visible"/>
				</clipPath>
				<g clip-path="url(#SVGID_4_)">
					<g class="lines1">
						<rect x="-95.244" y="-184.513" fill="none" width="698.158" height="534.329"/>
						<path d="M17.017-99.554v-47.791c0-25.185,15.172-39.447,40.962-39.447h2.428c25.791,0,40.962,14.261,40.962,39.447v18.207
							H60.71v-21.545h-3.035v43.845h3.035v-19.268h40.659v55.377H69.052l-6.068-13.048c-1.972,7.282-6.069,15.323-21.241,15.323
							C25.209-68.453,17.017-78.314,17.017-99.554z"/>
						<path d="M104.401-184.516h50.977c22.455,0,37.928,11.38,37.928,34.895v2.428c0,15.627-8.192,25.032-19.571,30.041v1.517
							c5.917,3.187,10.013,7.434,12.896,18.662l6.827,26.246h-41.874l-5.766-37.475h-1.517v37.475h-39.9V-184.516z M157.199-145.373
							v-3.035h-18.206v3.035H157.199z"/>
						<path d="M206.35-184.516h64.631l12.134,113.788h-43.236v-36.562h-3.035v36.564h-42.631L206.35-184.516z M248.526-136.271
							v-3.034h-19.723v3.034H248.526z"/>
						<path d="M323.774-148.407v3.035h35.805v35.5h-35.805v39.144h-39.142v-113.788h74.946v36.109H323.774z"/>
						<path d="M362.612-184.516h40.66v113.788h-40.66V-184.516z"/>
						<path d="M406.304-107.9v-39.445c0-25.185,15.173-39.447,40.963-39.447h2.427c25.793,0,40.965,14.261,40.965,39.447v18.207
							h-40.661v-21.545h-3.035v46.121h3.035v-21.543h40.661v18.206c0,25.184-15.173,39.447-40.965,39.447h-2.427
							C421.477-68.453,406.304-82.714,406.304-107.9z"/>
						<path d="M130.874,22.794v-47.791c0-25.186,15.172-39.447,40.963-39.447h2.427c25.791,0,40.962,14.26,40.962,39.447V-6.79
							h-40.659v-21.545h-3.034V15.51h3.034V-3.755h40.659v55.377H182.91l-6.068-13.047c-1.972,7.282-6.069,15.324-21.241,15.324
							C139.067,53.897,130.874,44.035,130.874,22.794z"/>
						<path d="M254.368-26.059v3.035h38.84v35.502h-38.84v3.034h38.84v36.109h-74.95V-62.166h74.948v36.109h-38.838V-26.059z"/>
						<path d="M376.8-26.059h-20.026V51.62h-40.66v-77.679h-19.877v-36.107H376.8V-26.059L376.8-26.059z"/>
						<path d="M140.891,137.86v36.109H67.46V60.183h40.659v77.678H140.891z"/>
						<path d="M180.031,96.29v3.035h38.839v35.501h-38.839v3.032h38.839v36.11h-74.947V60.181h74.947V96.29H180.031L180.031,96.29z"
							/>
						<path d="M302.462,96.29h-20.024v77.679h-40.662V96.29h-19.874V60.181h80.56V96.29z"/>
						<path d="M351.311,81.12c0,10.013-1.668,17.75-6.372,27.157l-7.585,15.02h-28.066l10.619-20.178
							c-9.557-3.187-15.173-11.835-15.173-21.999c0-12.896,8.952-23.212,23.214-23.212C342.359,57.907,351.311,68.223,351.311,81.12z
							"/>
						<path d="M353.582,133.006v-5.311h19.877v-1.518c-12.592-4.855-20.633-16.233-20.633-32.165
							c0-22.756,17.598-36.107,44.453-36.107c28.219,0,42.935,15.93,42.935,40.206v8.343h-19.116v1.518
							c12.289,4.703,19.875,17.447,19.875,31.859c0,23.364-17.296,36.413-42.329,36.413
							C369.21,176.246,353.582,162.286,353.582,133.006z M405.622,99.326v-3.035h-18.206v3.035H405.622z M405.622,137.86v-3.032
							h-18.206v3.032H405.622z"/>
					</g>
				</g>
			</g>
		</g>
		<g>
			<g>
				<defs>
					<rect id="SVGID_5_" x="-70.5" y="23.553" width="646" height="22.839"/>
				</defs>
				<clipPath id="SVGID_6_">
					<use xlink:href="#SVGID_5_"  overflow="visible"/>
				</clipPath>
				<g clip-path="url(#SVGID_6_)">
					<g class="lines1">
						<rect x="-95.244" y="-215.507" fill="none" width="698.158" height="534.329"/>
						<path d="M17.017-130.549v-47.791c0-25.185,15.172-39.447,40.962-39.447h2.428c25.791,0,40.962,14.26,40.962,39.447v18.205
							H60.71v-21.543h-3.035v43.845h3.035v-19.268h40.659v55.377H69.052l-6.068-13.047c-1.972,7.282-6.069,15.323-21.241,15.323
							C25.209-99.448,17.017-109.309,17.017-130.549z"/>
						<path d="M104.401-215.511h50.977c22.455,0,37.928,11.38,37.928,34.895v2.428c0,15.627-8.192,25.032-19.571,30.041v1.516
							c5.917,3.187,10.013,7.434,12.896,18.662l6.827,26.246h-41.874l-5.766-37.475h-1.517v37.475h-39.9V-215.511z M157.199-176.368
							v-3.035h-18.206v3.035H157.199z"/>
						<path d="M206.35-215.511h64.631l12.134,113.788h-43.236v-36.562h-3.035v36.564h-42.631L206.35-215.511z M248.526-167.265
							v-3.034h-19.723v3.034H248.526z"/>
						<path d="M323.774-179.402v3.035h35.805v35.5h-35.805v39.144h-39.142v-113.788h74.946v36.109H323.774z"/>
						<path d="M362.612-215.511h40.66v113.788h-40.66V-215.511z"/>
						<path d="M406.304-138.895v-39.444c0-25.185,15.173-39.447,40.963-39.447h2.427c25.793,0,40.965,14.26,40.965,39.447v18.205
							h-40.661v-21.543h-3.035v46.12h3.035v-21.543h40.661v18.206c0,25.184-15.173,39.447-40.965,39.447h-2.427
							C421.477-99.448,406.304-113.709,406.304-138.895z"/>
						<path d="M130.874-8.201v-47.791c0-25.185,15.172-39.447,40.963-39.447h2.427c25.791,0,40.962,14.26,40.962,39.447v18.207
							h-40.659v-21.544h-3.034v43.844h3.034V-34.75h40.659v55.377H182.91l-6.068-13.047c-1.972,7.282-6.069,15.324-21.241,15.324
							C139.067,22.902,130.874,13.04,130.874-8.201z"/>
						<path d="M254.368-57.054v3.035h38.84v35.501h-38.84v3.034h38.84v36.109h-74.95V-93.161h74.948v36.109h-38.838V-57.054z"/>
						<path d="M376.8-57.054h-20.026v77.678h-40.66v-77.678h-19.877v-36.107H376.8V-57.054L376.8-57.054z"/>
						<path d="M140.891,106.865v36.109H67.46V29.188h40.659v77.677H140.891z"/>
						<path d="M180.031,65.295v3.035h38.839v35.501h-38.839v3.032h38.839v36.11h-74.947V29.186h74.947v36.109H180.031L180.031,65.295
							z"/>
						<path d="M302.462,65.295h-20.024v77.679h-40.662V65.295h-19.874V29.186h80.56V65.295z"/>
						<path d="M351.311,50.126c0,10.012-1.668,17.75-6.372,27.156l-7.585,15.02h-28.066l10.619-20.178
							c-9.557-3.186-15.173-11.835-15.173-21.998c0-12.896,8.952-23.212,23.214-23.212C342.359,26.912,351.311,37.228,351.311,50.126
							z"/>
						<path d="M353.582,102.011v-5.31h19.877v-1.519c-12.592-4.855-20.633-16.233-20.633-32.166
							c0-22.756,17.598-36.107,44.453-36.107c28.219,0,42.935,15.93,42.935,40.206v8.343h-19.116v1.518
							c12.289,4.703,19.875,17.447,19.875,31.859c0,23.364-17.296,36.413-42.329,36.413
							C369.21,145.25,353.582,131.291,353.582,102.011z M405.622,68.331v-3.035h-18.206v3.035H405.622z M405.622,106.865v-3.032
							h-18.206v3.032H405.622z"/>
					</g>
				</g>
			</g>
		</g>
		<g>
			<g>
				<defs>
					<rect id="SVGID_7_" x="-70.5" y="395.492" width="646" height="35.89"/>
				</defs>
				<clipPath id="SVGID_8_">
					<use xlink:href="#SVGID_7_"  overflow="visible"/>
				</clipPath>
				<g clip-path="url(#SVGID_8_)">
					<g class="lines1">
						<rect x="-95.244" y="69.972" fill="none" width="698.158" height="534.328"/>
						<path d="M17.017,154.931V107.14c0-25.185,15.172-39.447,40.962-39.447h2.428c25.791,0,40.962,14.26,40.962,39.447v18.207H60.71
							v-21.544h-3.035v43.844h3.035v-19.268h40.659v55.377H69.052l-6.068-13.047c-1.972,7.282-6.069,15.323-21.241,15.323
							C25.209,186.032,17.017,176.171,17.017,154.931z"/>
						<path d="M104.401,69.969h50.977c22.455,0,37.928,11.38,37.928,34.895v2.428c0,15.626-8.192,25.032-19.571,30.041v1.517
							c5.917,3.186,10.013,7.434,12.896,18.661l6.827,26.246h-41.874l-5.766-37.475h-1.517v37.475h-39.9V69.969z M157.199,109.113
							v-3.035h-18.206v3.035H157.199z"/>
						<path d="M206.35,69.969h64.631l12.134,113.787h-43.236v-36.564h-3.035v36.564h-42.631L206.35,69.969z M248.526,118.215v-3.034
							h-19.723v3.034H248.526z"/>
						<path d="M323.774,106.078v3.035h35.805v35.501h-35.805v39.144h-39.142V69.97h74.946v36.109L323.774,106.078L323.774,106.078z"
							/>
						<path d="M362.612,69.969h40.66v113.787h-40.66V69.969z"/>
						<path d="M406.304,146.585v-39.447c0-25.184,15.173-39.446,40.963-39.446h2.427c25.793,0,40.965,14.261,40.965,39.446v18.208
							h-40.661V103.8h-3.035v46.12h3.035v-21.542h40.661v18.206c0,25.184-15.173,39.447-40.965,39.447h-2.427
							C421.477,186.032,406.304,171.771,406.304,146.585z"/>
						<path d="M130.874,277.279v-47.79c0-25.186,15.172-39.448,40.963-39.448h2.427c25.791,0,40.962,14.26,40.962,39.448v18.207
							h-40.659v-21.545h-3.034v43.844h3.034v-19.267h40.659v55.376H182.91l-6.068-13.048c-1.972,7.284-6.069,15.326-21.241,15.326
							C139.067,308.383,130.874,298.519,130.874,277.279z"/>
						<path d="M254.368,228.426v3.035h38.84v35.502h-38.84v3.032h38.84v36.109h-74.95V192.319h74.948v36.109h-38.838V228.426z"/>
						<path d="M376.8,228.426h-20.026v77.679h-40.66v-77.679h-19.877v-36.108H376.8V228.426L376.8,228.426z"/>
						<path d="M140.891,392.345v36.108H67.46V314.666h40.659v77.679H140.891z"/>
						<path d="M180.031,350.775v3.036h38.839v35.5h-38.839v3.033h38.839v36.108h-74.947V314.666h74.947v36.109H180.031z"/>
						<path d="M302.462,350.775h-20.024v77.678h-40.662v-77.678h-19.874v-36.109h80.56V350.775z"/>
						<path d="M351.311,335.604c0,10.011-1.668,17.751-6.372,27.156l-7.585,15.02h-28.066l10.619-20.178
							c-9.557-3.186-15.173-11.833-15.173-21.998c0-12.896,8.952-23.213,23.214-23.213
							C342.359,312.392,351.311,322.708,351.311,335.604z"/>
						<path d="M353.582,387.491v-5.311h19.877v-1.517c-12.592-4.856-20.633-16.234-20.633-32.165
							c0-22.758,17.598-36.107,44.453-36.107c28.219,0,42.935,15.931,42.935,40.204v8.343h-19.116v1.518
							c12.289,4.703,19.875,17.446,19.875,31.857c0,23.363-17.296,36.414-42.329,36.414
							C369.21,430.731,353.582,416.772,353.582,387.491z M405.622,353.812v-3.036h-18.206v3.036H405.622z M405.622,392.345v-3.033
							h-18.206v3.033H405.622z"/>
					</g>
				</g>
			</g>
		</g>
		<g>
			<g>
				<defs>
					<rect id="SVGID_9_" x="-70.5" y="447.694" width="646" height="22.839"/>
				</defs>
				<clipPath id="SVGID_10_">
					<use xlink:href="#SVGID_9_"  overflow="visible"/>
				</clipPath>
				<g clip-path="url(#SVGID_10_)">
					<g class="lines1">
						<rect x="-95.244" y="110.755" fill="none" width="698.158" height="534.329"/>
						<path d="M17.017,195.714v-47.791c0-25.186,15.172-39.447,40.962-39.447h2.428c25.791,0,40.962,14.26,40.962,39.447v18.206
							H60.71v-21.544h-3.035v43.845h3.035v-19.268h40.659v55.377H69.052l-6.068-13.047c-1.972,7.282-6.069,15.322-21.241,15.322
							C25.209,226.814,17.017,216.954,17.017,195.714z"/>
						<path d="M104.401,110.751h50.977c22.455,0,37.928,11.38,37.928,34.896v2.427c0,15.626-8.192,25.032-19.571,30.041v1.516
							c5.917,3.187,10.013,7.434,12.896,18.662l6.827,26.246h-41.874l-5.766-37.475h-1.517v37.475h-39.9V110.751z M157.199,149.895
							v-3.035h-18.206v3.035H157.199z"/>
						<path d="M206.35,110.751h64.631l12.134,113.788h-43.236v-36.564h-3.035v36.564h-42.631L206.35,110.751z M248.526,158.998
							v-3.034h-19.723v3.034H248.526z"/>
						<path d="M323.774,146.86v3.035h35.805v35.502h-35.805v39.143h-39.142V110.753h74.946v36.109h-35.805V146.86z"/>
						<path d="M362.612,110.751h40.66v113.788h-40.66V110.751z"/>
						<path d="M406.304,187.368v-39.447c0-25.185,15.173-39.446,40.963-39.446h2.427c25.793,0,40.965,14.26,40.965,39.446v18.207
							h-40.661v-21.545h-3.035v46.121h3.035V169.16h40.661v18.206c0,25.185-15.173,39.448-40.965,39.448h-2.427
							C421.477,226.814,406.304,212.553,406.304,187.368z"/>
						<path d="M130.874,318.062v-47.791c0-25.185,15.172-39.447,40.963-39.447h2.427c25.791,0,40.962,14.261,40.962,39.447v18.208
							h-40.659v-21.545h-3.034v43.845h3.034v-19.268h40.659v55.376H182.91l-6.068-13.047c-1.972,7.282-6.069,15.325-21.241,15.325
							C139.067,349.166,130.874,339.301,130.874,318.062z"/>
						<path d="M254.368,269.209v3.035h38.84v35.501h-38.84v3.034h38.84v36.108h-74.95V233.102h74.948v36.107H254.368z"/>
						<path d="M376.8,269.209h-20.026v77.679h-40.66v-77.679h-19.877v-36.107H376.8V269.209L376.8,269.209z"/>
						<path d="M140.891,433.127v36.108H67.46V355.448h40.659v77.679H140.891z"/>
						<path d="M180.031,391.558v3.036h38.839v35.5h-38.839v3.033h38.839v36.108h-74.947V355.448h74.947v36.109H180.031z"/>
						<path d="M302.462,391.558h-20.024v77.678h-40.662v-77.678h-19.874v-36.109h80.56V391.558z"/>
						<path d="M351.311,376.389c0,10.011-1.668,17.749-6.372,27.154l-7.585,15.021h-28.066l10.619-20.179
							c-9.557-3.186-15.173-11.833-15.173-21.996c0-12.898,8.952-23.215,23.214-23.215
							C342.359,353.174,351.311,363.49,351.311,376.389z"/>
						<path d="M353.582,428.275v-5.312h19.877v-1.517c-12.592-4.854-20.633-16.232-20.633-32.163
							c0-22.76,17.598-36.109,44.453-36.109c28.219,0,42.935,15.931,42.935,40.205v8.343h-19.116v1.519
							c12.289,4.702,19.875,17.444,19.875,31.855c0,23.365-17.296,36.416-42.329,36.416
							C369.21,471.514,353.582,457.556,353.582,428.275z M405.622,394.594v-3.036h-18.206v3.036H405.622z M405.622,433.127v-3.033
							h-18.206v3.033H405.622z"/>
					</g>
				</g>
			</g>
		</g>
		<g>
			<g>
				<defs>
					<rect id="SVGID_11_" x="-70.5" y="312.296" width="646" height="71.776"/>
				</defs>
				<clipPath id="SVGID_12_">
					<use xlink:href="#SVGID_11_"  overflow="visible"/>
				</clipPath>
				<g clip-path="url(#SVGID_12_)">
					<g class="lines1">
						<rect x="-95.244" y="20.29" fill="none" width="698.158" height="534.329"/>
						<path d="M17.017,105.249V57.458c0-25.185,15.172-39.447,40.962-39.447h2.428c25.791,0,40.962,14.26,40.962,39.447v18.206H60.71
							V54.12h-3.035v43.846h3.035V78.698h40.659v55.376H69.052l-6.068-13.047c-1.972,7.282-6.069,15.322-21.241,15.322
							C25.209,136.35,17.017,126.489,17.017,105.249z"/>
						<path d="M104.401,20.287h50.977c22.455,0,37.928,11.38,37.928,34.896v2.427c0,15.626-8.192,25.033-19.571,30.041v1.518
							c5.917,3.185,10.013,7.434,12.896,18.661l6.827,26.246h-41.874L145.818,96.6h-1.517v37.475h-39.9V20.287z M157.199,59.431
							v-3.035h-18.206v3.035H157.199z"/>
						<path d="M206.35,20.287h64.631l12.134,113.788h-43.236V97.51h-3.035v36.564h-42.631L206.35,20.287z M248.526,68.533v-3.035
							h-19.723v3.035H248.526z"/>
						<path d="M323.774,56.396v3.035h35.805v35.501h-35.805v39.144h-39.142V20.289h74.946v36.109h-35.805V56.396z"/>
						<path d="M362.612,20.287h40.66v113.788h-40.66V20.287z"/>
						<path d="M406.304,96.903V57.457c0-25.186,15.173-39.447,40.963-39.447h2.427c25.793,0,40.965,14.261,40.965,39.447v18.207
							h-40.661V54.118h-3.035v46.121h3.035V78.696h40.661v18.205c0,25.185-15.173,39.447-40.965,39.447h-2.427
							C421.477,136.35,406.304,122.089,406.304,96.903z"/>
						<path d="M130.874,227.597v-47.789c0-25.184,15.172-39.447,40.963-39.447h2.427c25.791,0,40.962,14.261,40.962,39.447v18.207
							h-40.659v-21.544h-3.034v43.844h3.034v-19.268h40.659v55.375H182.91l-6.068-13.047c-1.972,7.282-6.069,15.325-21.241,15.325
							C139.067,258.7,130.874,248.837,130.874,227.597z"/>
						<path d="M254.368,178.744v3.035h38.84v35.501h-38.84v3.035h38.84v36.107h-74.95V142.637h74.948v36.109h-38.838V178.744z"/>
						<path d="M376.8,178.744h-20.026v77.679h-40.66v-77.679h-19.877v-36.108H376.8V178.744L376.8,178.744z"/>
						<path d="M140.891,342.662v36.109H67.46V264.984h40.659v77.678H140.891z"/>
						<path d="M180.031,301.093v3.036h38.839v35.5h-38.839v3.033h38.839v36.109h-74.947V264.984h74.947v36.108H180.031z"/>
						<path d="M302.462,301.093h-20.024v77.679h-40.662v-77.679h-19.874v-36.108h80.56V301.093z"/>
						<path d="M351.311,285.924c0,10.011-1.668,17.749-6.372,27.156l-7.585,15.019h-28.066l10.619-20.178
							c-9.557-3.187-15.173-11.833-15.173-21.997c0-12.897,8.952-23.215,23.214-23.215
							C342.359,262.709,351.311,273.026,351.311,285.924z"/>
						<path d="M353.582,337.811v-5.312h19.877v-1.517c-12.592-4.855-20.633-16.233-20.633-32.164
							c0-22.76,17.598-36.109,44.453-36.109c28.219,0,42.935,15.932,42.935,40.205v8.343h-19.116v1.519
							c12.289,4.702,19.875,17.445,19.875,31.855c0,23.365-17.296,36.416-42.329,36.416
							C369.21,381.049,353.582,367.091,353.582,337.811z M405.622,304.129v-3.036h-18.206v3.036H405.622z M405.622,342.662v-3.033
							h-18.206v3.033H405.622z"/>
					</g>
				</g>
			</g>
		</g>
		<g>
			<g>
				<defs>
					<rect id="SVGID_13_" x="20.854" y="180.159" width="468.188" height="120.717"/>
				</defs>
				<clipPath id="SVGID_14_">
					<use xlink:href="#SVGID_13_"  overflow="visible"/>
				</clipPath>
				<g clip-path="url(#SVGID_14_)">
					<g class="lines1">
						<rect x="-95.244" y="-59.644" fill="none" width="698.158" height="534.328"/>
						<path d="M17.017,25.315v-47.791c0-25.185,15.172-39.448,40.962-39.448h2.428c25.791,0,40.962,14.261,40.962,39.448V-4.27H60.71
							v-21.545h-3.035v43.846h3.035V-1.236h40.659V54.14H69.052l-6.068-13.047c-1.972,7.282-6.069,15.323-21.241,15.323
							C25.209,56.416,17.017,46.555,17.017,25.315z"/>
						<path d="M104.401-59.647h50.977c22.455,0,37.928,11.38,37.928,34.896v2.427c0,15.626-8.192,25.033-19.571,30.041v1.517
							c5.917,3.186,10.013,7.433,12.896,18.661l6.827,26.246h-41.874l-5.766-37.475h-1.517V54.14h-39.9V-59.647z M157.199-20.504
							v-3.035h-18.206v3.035H157.199z"/>
						<path d="M206.35-59.647h64.631L283.115,54.14h-43.236V17.576h-3.035V54.14h-42.631L206.35-59.647z M248.526-11.4v-3.035
							h-19.723v3.035H248.526z"/>
						<path d="M323.774-23.539v3.035h35.805v35.502h-35.805v39.144h-39.142v-113.79h74.946v36.109H323.774z"/>
						<path d="M362.612-59.647h40.66V54.14h-40.66V-59.647z"/>
						<path d="M406.304,16.969v-39.444c0-25.185,15.173-39.448,40.963-39.448h2.427c25.793,0,40.965,14.261,40.965,39.448V-4.27
							h-40.661v-21.545h-3.035v46.121h3.035V-1.236h40.661v18.205c0,25.184-15.173,39.447-40.965,39.447h-2.427
							C421.477,56.416,406.304,42.154,406.304,16.969z"/>
						<path d="M130.874,147.663V99.874c0-25.184,15.172-39.447,40.963-39.447h2.427c25.791,0,40.962,14.262,40.962,39.447v18.207
							h-40.659V96.537h-3.034v43.844h3.034v-19.268h40.659v55.376H182.91l-6.068-13.047c-1.972,7.282-6.069,15.324-21.241,15.324
							C139.067,178.766,130.874,168.903,130.874,147.663z"/>
						<path d="M254.368,98.811v3.035h38.84v35.501h-38.84v3.035h38.84v36.109h-74.95V62.703h74.948v36.109L254.368,98.811
							L254.368,98.811z"/>
						<path d="M376.8,98.811h-20.026v77.678h-40.66V98.811h-19.877V62.702H376.8V98.811L376.8,98.811z"/>
						<path d="M140.891,262.729v36.108H67.46V185.051h40.659v77.678L140.891,262.729L140.891,262.729z"/>
						<path d="M180.031,221.159v3.035h38.839v35.5h-38.839v3.034h38.839v36.108h-74.947V185.05h74.947v36.109H180.031z"/>
						<path d="M302.462,221.159h-20.024v77.678h-40.662v-77.678h-19.874V185.05h80.56V221.159z"/>
						<path d="M351.311,205.987c0,10.013-1.668,17.75-6.372,27.157l-7.585,15.021h-28.066l10.619-20.179
							c-9.557-3.186-15.173-11.835-15.173-21.999c0-12.896,8.952-23.211,23.214-23.211
							C342.359,182.776,351.311,193.092,351.311,205.987z"/>
						<path d="M353.582,257.876v-5.312h19.877v-1.518c-12.592-4.854-20.633-16.235-20.633-32.164
							c0-22.756,17.598-36.107,44.453-36.107c28.219,0,42.935,15.929,42.935,40.206v8.344h-19.116v1.517
							c12.289,4.703,19.875,17.449,19.875,31.86c0,23.362-17.296,36.413-42.329,36.413
							C369.21,301.115,353.582,287.157,353.582,257.876z M405.622,224.195v-3.035h-18.206v3.035H405.622z M405.622,262.729v-3.033
							h-18.206v3.033H405.622z"/>
					</g>
				</g>
			</g>
		</g>
	</g>
	<g id="Layer_2">
		<!-- <line fill="none" stroke="#000000" stroke-width="2" stroke-miterlimit="10" x1="46.5" y1="354.5" x2="458.5" y2="354.5"/> -->
		<g>
			<defs>
				<rect id="SVGID_15_" x="46.5" y="74.5" width="404.502" height="49"/>
			</defs>
			<clipPath id="SVGID_16_">
				<use xlink:href="#SVGID_15_"  overflow="visible"/>
			</clipPath>
			<g clip-path="url(#SVGID_16_)">
					<g class="lines2">
				<path d="M75.947,89.704h-9.358v27.046H56.495V89.704h-9.309v-8.476h28.761V89.704z"/>
				<path d="M99.173,116.75H89.08v-13.18L76.39,81.228h11.22l6.712,13.425l6.664-13.425h10.828L99.173,103.57V116.75z"/>
				<path d="M125.339,108.225v8.525h-10.093V81.228h14.503c9.358,0,14.797,4.851,14.797,13.376c0,8.672-5.438,13.621-14.797,13.621
					H125.339z M125.339,88.528v12.396h2.205c4.41,0,6.565-1.666,6.565-6.32c0-4.41-2.107-6.076-6.565-6.076H125.339z"/>
				<path d="M166.205,80.542c11.465,0,18.03,6.958,18.03,18.422c0,11.514-6.565,18.472-18.03,18.472
					c-11.514,0-18.031-6.958-18.031-18.472C148.174,87.5,154.691,80.542,166.205,80.542z M166.205,109.939
					c4.557,0,7.594-3.479,7.594-10.975c0-7.447-3.038-10.926-7.594-10.926c-4.606,0-7.595,3.479-7.595,10.926
					C158.61,106.461,161.599,109.939,166.205,109.939z"/>
				<path d="M206.728,117.436c-11.563,0-18.178-6.909-18.178-18.472c0-11.465,6.859-18.422,18.521-18.422
					c4.458,0,8.525,0.882,11.857,2.009l-1.862,7.644c-2.695-0.735-5.34-1.323-8.378-1.323c-5.928,0-9.701,3.185-9.701,10.387
					c0,7.006,3.577,10.583,9.701,10.583h0.686l-0.539-10.632h10.191v16.365C215.498,116.75,211.039,117.436,206.728,117.436z"/>
				<path d="M238.626,105.775h-3.136v10.975h-10.093V81.228h14.405c9.31,0,14.454,4.507,14.454,12.2
					c0,5.243-2.205,8.722-6.271,10.632l7.938,12.69h-11.515L238.626,105.775z M235.49,88.333V98.67h2.891
					c3.674,0,5.488-1.47,5.488-5.243c0-3.625-1.96-5.095-6.223-5.095H235.49z"/>
				<path d="M279.197,110.086h-10.681l-1.812,6.664h-10.437l11.906-35.522h11.759l11.857,35.522h-10.779L279.197,110.086z
					 M273.857,90.243l-3.479,12.788h6.908L273.857,90.243z"/>
				<path d="M305.511,108.225v8.525h-10.093V81.228h14.503c9.357,0,14.796,4.851,14.796,13.376c0,8.672-5.438,13.621-14.796,13.621
					H305.511z M305.511,88.528v12.396h2.205c4.409,0,6.565-1.666,6.565-6.32c0-4.41-2.107-6.076-6.565-6.076H305.511z"/>
				<path d="M352.108,103.521h-12.2v13.229h-10.093V81.228h10.093v13.67h12.2v-13.67h10.044v35.522h-10.044V103.521z"/>
				<path d="M369.407,81.228H379.5v35.522h-10.093V81.228z"/>
				<path d="M403.117,80.542c3.92,0,7.447,0.686,10.583,1.764l-1.861,7.692c-2.254-0.637-4.605-1.029-6.713-1.029
					c-5.487,0-9.309,3.332-9.309,9.995c0,6.762,3.821,10.044,9.309,10.044c2.205,0,4.508-0.392,6.811-1.029l1.862,7.742
					c-3.186,1.078-6.664,1.715-10.682,1.715c-10.926,0-17.834-6.811-17.834-18.472C385.283,87.401,392.191,80.542,403.117,80.542z"/>
				<path d="M419.288,107.735c2.499,0.833,6.026,1.666,9.555,1.666c4.115,0,5.635-0.979,5.635-2.597c0-1.715-1.177-2.695-5.929-3.969
					c-7.986-2.205-11.122-5.978-11.122-10.975c0-6.418,5.291-11.318,14.895-11.318c3.871,0,8.329,0.735,11.759,1.813l-1.96,7.79
					c-2.254-0.735-5.634-1.568-9.063-1.568c-3.773,0-5.243,1.078-5.243,2.646c0,1.715,1.372,2.597,5.929,3.772
					c8.672,2.254,11.857,5.929,11.857,11.563c0,6.615-4.998,10.877-15.581,10.877c-4.165,0-9.016-0.784-12.445-1.813L419.288,107.735
					z"/>
			</g>
		</g>
		</g>
		<g>
			<defs>
				<rect id="SVGID_17_" x="41.5" y="146.533" width="411.198" height="34.967"/>
			</defs>
			<clipPath id="SVGID_18_">
				<use xlink:href="#SVGID_17_"  overflow="visible"/>
			</clipPath>

			<g clip-path="url(#SVGID_18_)">
					<g class="lines2">
				<path d="M66.057,169.247H54.495l-2.583,7.503H46.91l10.988-29.725h4.961l10.947,29.725h-5.125L66.057,169.247z M60.235,152.478
					l-4.387,12.833h8.856L60.235,152.478z"/>
				<path d="M89.386,147.025h10.209c9.061,0,14.473,4.961,14.473,14.76c0,9.922-5.412,14.965-14.473,14.965H89.386V147.025z
					 M94.06,150.961v21.853h4.674c6.519,0,10.537-2.87,10.537-11.029c0-7.954-3.977-10.824-10.537-10.824H94.06z"/>
				<path d="M121.037,147.025h19.352v3.936h-14.678v9.061h12.956v3.854h-12.956v8.938h14.842v3.936h-19.516V147.025z"/>
				<path d="M146.948,171.748c2.132,0.697,4.797,1.476,7.913,1.476c5.002,0,7.134-1.599,7.134-4.141c0-2.337-1.599-3.895-6.97-5.33
					c-6.396-1.722-9.061-4.551-9.061-8.774c0-4.715,4.059-8.446,10.947-8.446c2.952,0,6.027,0.574,8.528,1.476l-1.025,3.813
					c-2.132-0.656-4.346-1.271-7.257-1.271c-4.51,0-6.519,1.722-6.519,4.1c0,2.46,1.845,3.936,6.56,5.166
					c6.929,1.804,9.553,4.633,9.553,9.061c0,4.92-3.977,8.364-11.152,8.364c-3.854,0-7.216-0.697-9.717-1.64L146.948,171.748z"/>
				<path d="M173.722,147.025h4.674v29.725h-4.674V147.025z"/>
				<path d="M200.29,177.242c-9.635,0-14.924-6.027-14.924-15.458c0-9.225,5.412-15.252,15.006-15.252
					c3.485,0,6.232,0.533,8.938,1.435l-1.148,3.936c-2.173-0.656-4.756-1.271-7.339-1.271c-6.478,0-10.66,4.059-10.66,11.152
					c0,7.421,4.059,11.521,10.578,11.521c1.476,0,3.075-0.164,4.592-0.41l-0.164-7.257h-5.658v-3.936h10.209v14.022
					C206.85,176.668,203.815,177.242,200.29,177.242z"/>
				<path d="M237.517,147.025h4.551v29.725h-4.264l-15.949-21.771v21.771h-4.551v-29.725h4.264l15.949,21.771V147.025z"/>
				<path d="M266.83,164.819v11.931h-4.674v-29.725h18.942v3.936H266.83v10.004h12.875v3.854H266.83z"/>
				<path d="M287.863,147.025h19.353v3.936h-14.679v9.061h12.957v3.854h-12.957v8.938h14.843v3.936h-19.517V147.025z"/>
				<path d="M313.775,171.748c2.132,0.697,4.797,1.476,7.913,1.476c5.002,0,7.134-1.599,7.134-4.141c0-2.337-1.599-3.895-6.97-5.33
					c-6.396-1.722-9.062-4.551-9.062-8.774c0-4.715,4.059-8.446,10.947-8.446c2.952,0,6.027,0.574,8.528,1.476l-1.025,3.813
					c-2.132-0.656-4.346-1.271-7.257-1.271c-4.511,0-6.52,1.722-6.52,4.1c0,2.46,1.846,3.936,6.561,5.166
					c6.929,1.804,9.553,4.633,9.553,9.061c0,4.92-3.977,8.364-11.152,8.364c-3.854,0-7.216-0.697-9.717-1.64L313.775,171.748z"/>
				<path d="M359.9,150.961h-9.185v25.789h-4.674v-25.789h-9.184v-3.936H359.9V150.961z"/>
				<path d="M365.229,147.025h4.675v29.725h-4.675V147.025z"/>
				<path d="M385.648,176.75l-10.824-29.725h5.125l8.282,24.19l8.241-24.19h5.002l-10.865,29.725H385.648z"/>
				<path d="M420.048,169.247h-11.562l-2.583,7.503H400.9l10.988-29.725h4.961l10.947,29.725h-5.125L420.048,169.247z
					 M414.226,152.478l-4.388,12.833h8.856L414.226,152.478z"/>
				<path d="M432.716,147.025h4.675v25.789h13.611v3.936h-18.286V147.025z"/>
			</g>
		</g>
	</g>
		<g>
			<defs>
				<rect id="SVGID_19_" x="34.5" y="206.533" width="298.581" height="35.967"/>
			</defs>
			<clipPath id="SVGID_20_">
				<use xlink:href="#SVGID_19_"  overflow="visible"/>
			</clipPath>
			<g clip-path="url(#SVGID_20_)">
					<g class="lines2">
				<path d="M55.684,224.819v11.931H51.01v-29.725h18.942v3.936H55.684v10.004h12.874v3.854H55.684z"/>
				<path d="M88.853,206.533c8.733,0,14.186,6.027,14.186,15.252c0,9.389-5.453,15.458-14.186,15.458
					c-8.733,0-14.186-6.068-14.186-15.458C74.667,212.56,80.12,206.533,88.853,206.533z M88.853,233.224
					c5.576,0,9.389-4.223,9.389-11.439c0-7.011-3.772-11.234-9.389-11.234c-5.617,0-9.389,4.223-9.389,11.234
					C79.464,229.001,83.236,233.224,88.853,233.224z"/>
				<path d="M120.546,226.5h-5.863v10.25h-4.674v-29.725h8.979c7.913,0,12.218,3.526,12.218,9.512c0,4.797-2.255,7.667-6.109,9.061
					l7.38,11.152h-5.371L120.546,226.5z M114.683,210.961v11.603h5.289c4.141,0,6.478-1.927,6.478-6.027
					c0-3.567-2.706-5.576-8.323-5.576H114.683z"/>
				<path d="M154.371,228.55v8.2h-4.674v-29.725h9.184c7.913,0,12.628,3.69,12.628,10.455c0,7.134-4.715,11.07-12.628,11.07H154.371z
					 M154.371,210.961v13.653h3.649c5.576,0,8.733-2.214,8.733-7.134c0-4.428-3.116-6.519-8.733-6.519H154.371z"/>
				<path d="M178.068,207.025h19.352v3.936h-14.678v9.061h12.956v3.854h-12.956v8.938h14.842v3.936h-19.516V207.025z"/>
				<path d="M217.1,206.533c8.733,0,14.187,6.027,14.187,15.252c0,9.389-5.453,15.458-14.187,15.458
					c-8.733,0-14.186-6.068-14.186-15.458C202.914,212.56,208.367,206.533,217.1,206.533z M217.1,233.224
					c5.576,0,9.389-4.223,9.389-11.439c0-7.011-3.772-11.234-9.389-11.234c-5.617,0-9.389,4.223-9.389,11.234
					C207.71,229.001,211.483,233.224,217.1,233.224z"/>
				<path d="M242.93,228.55v8.2h-4.674v-29.725h9.184c7.913,0,12.628,3.69,12.628,10.455c0,7.134-4.715,11.07-12.628,11.07H242.93z
					 M242.93,210.961v13.653h3.649c5.575,0,8.732-2.214,8.732-7.134c0-4.428-3.116-6.519-8.732-6.519H242.93z"/>
				<path d="M266.627,207.025h4.674v25.789h13.612v3.936h-18.286V207.025z"/>
				<path d="M290.242,207.025h19.353v3.936h-14.679v9.061h12.957v3.854h-12.957v8.938h14.843v3.936h-19.517V207.025z"/>
			</g>
		</g>
		</g>
		<g>
			<defs>
				<rect id="SVGID_21_" x="29.5" y="266.533" width="418.746" height="34.967"/>
			</defs>
			<clipPath id="SVGID_22_">
				<use xlink:href="#SVGID_21_"  overflow="visible"/>
			</clipPath>
			<g clip-path="url(#SVGID_22_)">
					<g class="lines2">
				<path d="M66.918,274.363l-6.273,22.387h-4.756l-8.979-29.725h5.002l6.478,23.738l6.396-23.738h4.387l6.478,23.656l6.396-23.656
					h4.879l-9.02,29.725H73.15L66.918,274.363z"/>
				<path d="M111.936,283.835H96.52v12.915h-4.674v-29.725h4.674v12.873h15.416v-12.873h4.674v29.725h-4.674V283.835z"/>
				<path d="M137.765,266.533c8.733,0,14.186,6.026,14.186,15.252c0,9.389-5.453,15.457-14.186,15.457
					c-8.733,0-14.186-6.068-14.186-15.457C123.579,272.56,129.032,266.533,137.765,266.533z M137.765,293.225
					c5.576,0,9.389-4.224,9.389-11.439c0-7.012-3.772-11.234-9.389-11.234c-5.617,0-9.389,4.223-9.389,11.234
					C128.376,289.001,132.148,293.225,137.765,293.225z"/>
				<path d="M169.581,267.025h4.674v17.138c0,6.272,2.583,9.062,7.298,9.062c4.715,0,7.298-2.789,7.298-9.062v-17.138h4.674v17.383
					c0,8.693-4.182,12.834-11.972,12.834s-11.972-4.141-11.972-12.834V267.025z"/>
				<path d="M201.15,291.748c2.132,0.697,4.797,1.477,7.913,1.477c5.002,0,7.134-1.6,7.134-4.142c0-2.337-1.599-3.896-6.97-5.33
					c-6.396-1.722-9.061-4.552-9.061-8.774c0-4.715,4.059-8.445,10.947-8.445c2.952,0,6.027,0.574,8.528,1.476l-1.025,3.813
					c-2.132-0.656-4.346-1.271-7.257-1.271c-4.51,0-6.519,1.723-6.519,4.1c0,2.461,1.845,3.937,6.56,5.166
					c6.929,1.805,9.553,4.633,9.553,9.062c0,4.92-3.977,8.364-11.152,8.364c-3.854,0-7.216-0.697-9.717-1.641L201.15,291.748z"/>
				<path d="M227.924,267.025h19.352v3.936h-14.678v9.061h12.956v3.854h-12.956v8.938h14.842v3.936h-19.516V267.025z"/>
				<path d="M285.241,270.961h-9.185v25.789h-4.674v-25.789h-9.184v-3.936h23.042V270.961z"/>
				<path d="M302.051,296.75h-4.674v-11.357l-10.988-18.367h5.371l8.077,14.021l7.954-14.021h5.248l-10.988,18.367V296.75z"/>
				<path d="M322.551,288.55v8.2h-4.675v-29.725h9.185c7.913,0,12.628,3.689,12.628,10.455c0,7.133-4.715,11.069-12.628,11.069
					H322.551z M322.551,270.961v13.652h3.648c5.576,0,8.733-2.213,8.733-7.133c0-4.429-3.116-6.52-8.733-6.52H322.551z"/>
				<path d="M346.247,267.025H365.6v3.936h-14.678v9.061h12.956v3.854h-12.956v8.938h14.842v3.936h-19.517V267.025z"/>
			</g>
		</g>
		</g>
		<g>
			<defs>
				<rect id="SVGID_23_" x="29.5" y="400.599" width="437" height="25.901"/>
			</defs>
			<clipPath id="SVGID_24_">
				<use xlink:href="#SVGID_23_"  overflow="visible"/>
			</clipPath>
			<g clip-path="url(#SVGID_24_)">
				<g class="lines2">
				<path d="M60.925,405.751h-4.584V419h-4.944v-13.249h-4.561v-4.152h14.089V405.751z"/>
				<path d="M73.933,412.52h-5.977V419h-4.944v-17.401h4.944v6.696h5.977v-6.696h4.92V419h-4.92V412.52z"/>
				<path d="M82.404,401.599h12.433v3.769h-7.488v3.336h6.552v3.264h-6.552v3.265h7.561V419H82.404V401.599z"/>
				<path d="M111.997,401.263c1.92,0,3.648,0.336,5.185,0.864l-0.912,3.768c-1.104-0.312-2.256-0.504-3.289-0.504
					c-2.688,0-4.561,1.633-4.561,4.896c0,3.312,1.873,4.92,4.561,4.92c1.08,0,2.208-0.191,3.336-0.504l0.912,3.793
					c-1.56,0.527-3.264,0.84-5.232,0.84c-5.353,0-8.737-3.336-8.737-9.049C103.26,404.623,106.645,401.263,111.997,401.263z"/>
				<path d="M127.717,401.263c5.617,0,8.833,3.408,8.833,9.024c0,5.641-3.216,9.049-8.833,9.049c-5.64,0-8.833-3.408-8.833-9.049
					C118.884,404.671,122.077,401.263,127.717,401.263z M127.717,415.664c2.232,0,3.721-1.705,3.721-5.377
					c0-3.648-1.488-5.353-3.721-5.353c-2.256,0-3.72,1.704-3.72,5.353C123.997,413.959,125.461,415.664,127.717,415.664z"/>
				<path d="M147.493,401.263c5.617,0,8.833,3.408,8.833,9.024c0,5.641-3.216,9.049-8.833,9.049c-5.64,0-8.833-3.408-8.833-9.049
					C138.66,404.671,141.853,401.263,147.493,401.263z M147.493,415.664c2.232,0,3.721-1.705,3.721-5.377
					c0-3.648-1.488-5.353-3.721-5.353c-2.256,0-3.72,1.704-3.72,5.353C143.772,413.959,145.237,415.664,147.493,415.664z"/>
				<path d="M164.101,414.824V419h-4.944v-17.401h7.104c4.584,0,7.249,2.376,7.249,6.552c0,4.249-2.664,6.674-7.249,6.674H164.101z
					 M164.101,405.175v6.073h1.08c2.16,0,3.216-0.816,3.216-3.098c0-2.16-1.032-2.976-3.216-2.976H164.101z"/>
				<path d="M176.004,401.599h12.433v3.769h-7.489v3.336h6.552v3.264h-6.552v3.265h7.561V419h-12.505V401.599z"/>
				<path d="M197.893,413.623h-1.536V419h-4.944v-17.401h7.056c4.561,0,7.081,2.208,7.081,5.977c0,2.567-1.08,4.272-3.072,5.208
					l3.888,6.217h-5.641L197.893,413.623z M196.357,405.078v5.064h1.416c1.8,0,2.688-0.719,2.688-2.567
					c0-1.776-0.96-2.497-3.048-2.497H196.357z"/>
				<path d="M214.572,401.599h4.92v9.721c0,2.856,1.008,3.96,2.904,3.96c1.896,0,2.904-1.104,2.904-3.96v-9.721h4.921v10.321
					c0,4.824-2.736,7.416-7.825,7.416c-5.089,0-7.825-2.592-7.825-7.416V401.599z"/>
				<path d="M244.573,401.599h4.896V419h-3.984l-6.937-9.265V419h-4.92v-17.401h4.008l6.937,9.265V401.599z"/>
				<path d="M253.02,401.599h4.944V419h-4.944V401.599z"/>
				<path d="M269.628,401.263c5.616,0,8.833,3.408,8.833,9.024c0,5.641-3.217,9.049-8.833,9.049c-5.641,0-8.833-3.408-8.833-9.049
					C260.795,404.671,263.987,401.263,269.628,401.263z M269.628,415.664c2.232,0,3.721-1.705,3.721-5.377
					c0-3.648-1.488-5.353-3.721-5.353c-2.256,0-3.72,1.704-3.72,5.353C265.908,413.959,267.372,415.664,269.628,415.664z"/>
				<path d="M292.235,401.599h4.896V419h-3.984l-6.937-9.265V419h-4.92v-17.401h4.008l6.937,9.265V401.599z"/>
				<path d="M310.883,400.398h4.152l-6.001,22.201h-4.152L310.883,400.398z"/>
				<path d="M321.634,415.256c0.456,0.096,1.008,0.191,1.44,0.191c1.2,0,1.824-0.479,1.824-1.968v-11.881h4.944v12.049
					c0,3.864-1.561,5.688-5.353,5.688c-1.225,0-2.521-0.216-3.385-0.48L321.634,415.256z"/>
				<path d="M333.081,401.599h4.921v9.721c0,2.856,1.008,3.96,2.904,3.96c1.896,0,2.904-1.104,2.904-3.96v-9.721h4.92v10.321
					c0,4.824-2.736,7.416-7.824,7.416c-5.089,0-7.825-2.592-7.825-7.416V401.599z"/>
				<path d="M363.082,401.599h4.896V419h-3.984l-6.937-9.265V419h-4.92v-17.401h4.008l6.937,9.265V401.599z"/>
				<path d="M371.529,401.599h12.433v3.769h-7.488v3.336h6.553v3.264h-6.553v3.265h7.561V419h-12.505V401.599z"/>
				<path d="M395.481,419v-12.434l-2.592,1.033l-1.393-3.625l4.872-2.376h4.033V419H395.481z"/>
				<path d="M407.049,419v-12.434l-2.592,1.033l-1.393-3.625l4.872-2.376h4.033V419H407.049z"/>
				<path d="M415.233,409.951h11.905v3.864h-11.905V409.951z"/>
				<path d="M429.033,419v-3.385l5.449-4.512c1.848-1.512,2.592-2.377,2.592-3.504c0-1.393-1.008-2.209-3.024-2.209
					c-1.392,0-2.952,0.408-4.032,0.889l-1.104-3.721c1.512-0.648,3.672-1.296,6.12-1.296c4.513,0,7.009,2.472,7.009,5.664
					c0,2.304-1.057,4.032-3.337,5.856l-2.736,2.209h6.529V419H429.033z"/>
				<path d="M447.777,419v-12.434l-2.592,1.033l-1.393-3.625l4.872-2.376h4.033V419H447.777z"/>
			</g>
			</g>
		</g>
	</g>
</svg>
