<?xml version="1.0" encoding="utf-8"?>
<!-- Generator: Adobe Illustrator 16.0.0, SVG Export Plug-In . SVG Version: 6.00 Build 0)  -->
<!DOCTYPE svg PUBLIC "-//W3C//DTD SVG 1.1//EN" "http://www.w3.org/Graphics/SVG/1.1/DTD/svg11.dtd">
<svg version="1.1" id="Layer_1" xmlns="http://www.w3.org/2000/svg" xmlns:xlink="http://www.w3.org/1999/xlink" x="0px" y="0px"
	 width="504px" height="504px" viewBox="0 0 504 504" enable-background="new 0 0 504 504" xml:space="preserve">
	 <style>
 @keyframes slide {
 0% {
	 transform: translate(-185.5px, 0px);
	 opacity:0;
 }
 20%{
 opacity:1
 }
 25% {
	 transform: translate(20px, 0px);
	 opacity:1;
 }
 35% {
	transform: translate(0px, 0px);
	opacity:1;
 }
 65% {
	transform: translate(0px, 0px);
	opacity:1;
 }
 75% {
 transform: translate(-5px, 0px);
 opacity:1;
 }
 75% {
 opacity:1;
 }
 100%{
 transform: translate(185.5px, 0px);
 opacity:0;
 }
 }
 @keyframes slide2 {
 0% {
	transform: translate(185.5px, 0px);
	opacity:0;
 }
 20%{
 opacity:1
 }
 25% {
	transform: translate(-25px, 0px);
	opacity:1;
 }
 30% {
	transform: translate(0px, 0px);
	opacity:1;
 }
 65% {
 transform: translate(0px, 0px);
 opacity:1;
 }
 70% {
 transform: translate(15px, 0px);
 opacity:1;
 }
 75% {
 opacity:1;
 }
 100%{
 transform: translate(-185.5px, 0px);
 opacity:0;
 }
 }
 @keyframes slide3 {
 0% {
	transform: translate(-185.5px, 0px);
	opacity:0;
 }
 20% {
	transform: translate(20px, 0px);
	opacity:1;
 }
 35% {
 transform: translate(0px, 0px);
 opacity:1;
 }
 65% {
 transform: translate(0px, 0px);
 opacity:1;
 }
 75% {
 transform: translate(-5px, 0px);
 opacity:1;
 }
 100%{
 transform: translate(185.5px, 0px);
 opacity:0;
 }
 }
 @keyframes slide4 {
 0% {
	transform: translate(185.5px, 0px);
	opacity:0;
 }
 20% {
	transform: translate(-25px, 0px);
	opacity:1;
 }
 30% {
	transform: translate(0px, 0px);
	opacity:1;
 }
 65% {
 transform: translate(0px, 0px);
 opacity:1;
 }
 75% {
 transform: translate(15px, 0px);
 opacity:1;
 }
 100%{
 transform: translate(-185.5px, 0px);
 opacity:0;
 }
 }
 @keyframes appear {
	 0% {
		 opacity:0
	 }
	 75% {
		 opacity:0
	 }
	 80% {
		 opacity:1
	 }
	 95% {
		 opacity:1
	 }
	 100% {
		 opacity:0
	 }
 }

 .lines1{
 -webkit-animation: slide 5s ease-in-out infinite;
 -webkit-animation-fill-mode: forwards;
 fill:white;

 }
 .lines2{
 -webkit-animation: slide2 5s ease-in-out infinite;
 -webkit-animation-fill-mode: forwards;
 fill:white;

 }
 .lines3{
 -webkit-animation: slide3 5s ease-in-out infinite;
 -webkit-animation-fill-mode: forwards;
 fill:white;

 }
 .lines4{
 -webkit-animation: slide4 5s ease-in-out infinite;
 -webkit-animation-fill-mode: forwards;
 fill:white;

 }

 </style>
 <rect width="504" height="504" fill="#000"/>

<rect x="197" y="187" fill="none" width="14" height="2"/>
<polygon fill="none" points="133,210 133,213 134.571,213 134.169,210 "/>
<rect x="203" y="211" fill="none" width="2" height="2"/>
<path fill="none" d="M70.802,232h2.642l-1.518-3.263C71.633,229.82,71.272,230.924,70.802,232z"/>
<rect x="437" y="212" fill="none" width="0" height="2"/>
<rect x="248" y="91" fill="none" width="12" height="2"/>
<rect x="347.5" y="89.5" width="0" height="27"/>
<g class="lines3">
	<polygon fill="none" points="235.68,223 236.64,232 238,232 238,223 	"/>
	<rect x="101" y="223" fill="none" width="2" height="9"/>
	<rect x="269" y="223" fill="none" width="38" height="9"/>
	<rect x="203" y="223" fill="none" width="2" height="9"/>
	<polygon fill="none" points="133,223 133,232 137.494,232 136.11,223 	"/>
	<polygon fill="none" points="165.922,223 168.263,232 171.232,232 172.192,223 	"/>
	<rect x="338" y="223" fill="none" width="2" height="9"/>
	<path fill="none" d="M403,223v9h10.088c-2.433-2.479-4.315-5.487-5.597-9H403z"/>
	<rect x="370" y="223" fill="none" width="3" height="9"/>
	<path d="M37.75,223c0.448,3.573,1.326,6.562,2.625,9h30.426c0.471-1.076,0.831-2.18,1.125-3.263L73.444,232H101v-9H37.75z"/>
	<rect x="103" y="223" width="30" height="9"/>
	<polygon points="136.11,223 137.494,232 168.263,232 165.922,223 	"/>
	<polygon points="172.192,223 171.232,232 203,232 203,223 	"/>
	<polygon points="205,223 205,232 236.64,232 235.68,223 	"/>
	<rect x="373" y="223" width="30" height="9"/>
	<rect x="340" y="223" width="30" height="9"/>
	<rect x="307" y="223" width="31" height="9"/>
	<rect x="238" y="223" width="31" height="9"/>
	<path d="M413.088,232h48.179c2.433-2.479,4.315-5.487,5.597-9h-59.372C408.772,226.513,410.655,229.521,413.088,232z"/>
</g>
<g class="lines4">
	<path fill="none" d="M223.42,75h6.463c3.598-4.581,9.193-7.661,16.256-9h-32.016C218.695,67.422,221.933,70.739,223.42,75z"/>
	<path fill="none" d="M277.97,75h31.527c3.271-4.607,8.227-7.668,14.618-9H262.77C269.503,67.359,274.587,70.491,277.97,75z"/>
	<path d="M208.944,65.236c-1.854,0-3.566,0.273-5.13,0.764h10.309C212.546,65.51,210.818,65.236,208.944,65.236z"/>
	<rect x="37" y="67" width="27" height="8"/>
	<rect x="88" y="67" width="49" height="8"/>
	<rect x="139" y="67" width="53" height="8"/>
	<rect x="363" y="67" width="49" height="8"/>
	<path d="M254.645,65.236c-3.024,0-5.865,0.263-8.505,0.764h16.63C260.284,65.498,257.575,65.236,254.645,65.236z"/>
	<path d="M333.543,65h-1.6c-2.806,0-5.417,0.498-7.828,1h17.256C338.96,65.498,336.349,65,333.543,65z"/>
	<rect x="414" y="67" width="53" height="8"/>
	<path d="M214.123,66h-10.309c-4.536,1.422-7.763,4.739-9.246,9h28.852C221.933,70.739,218.695,67.422,214.123,66z"/>
	<path d="M229.883,75h48.087c-3.383-4.509-8.467-7.641-15.2-9h-16.63C239.076,67.339,233.48,70.419,229.883,75z"/>
	<path d="M309.497,75h46.492c-3.271-4.607-8.227-7.668-14.618-9h-17.256C317.724,67.332,312.768,70.393,309.497,75z"/>
</g>
<g class="lines3">
	<rect x="86" y="131" fill="none" width="2" height="9"/>
	<rect x="412" y="131" fill="none" width="15" height="9"/>
	<rect x="361" y="131" fill="none" width="2" height="9"/>
	<path fill="none" d="M229.393,131H179v9h59.935C234.779,137.972,231.585,134.982,229.393,131z"/>
	<path fill="none" d="M305.769,131h-25.12c-2.14,3.911-5.432,6.936-9.615,9h39.733C308.338,137.983,306.674,135,305.769,131z"/>
	<path fill="none" d="M331.495,140h6.938l-3.19-6.859C334.592,135.545,333.59,138.074,331.495,140z"/>
	<rect x="137" y="131" fill="none" width="15" height="9"/>
	<rect x="152" y="140" width="27" height="2"/>
	<rect x="37" y="140" width="49" height="2"/>
	<rect x="88" y="140" width="49" height="2"/>
	<rect x="363" y="140" width="49" height="2"/>
	<rect x="427" y="140" width="27" height="2"/>
	<path d="M321.242,143.241c4.992,0,8.165-1.321,10.253-3.241h-20.729C313.378,142.169,316.857,143.241,321.242,143.241z"/>
	<polygon points="339.243,142 361,142 361,140 338.434,140 	"/>
	<path d="M255.544,143.241c5.918,0,11.174-1.112,15.489-3.241h-32.099C243.384,142.171,248.935,143.241,255.544,143.241z"/>
	<rect x="37" y="131" width="49" height="9"/>
	<rect x="152" y="131" width="27" height="9"/>
	<rect x="88" y="131" width="49" height="9"/>
	<rect x="427" y="131" width="27" height="9"/>
	<path d="M280.648,131h-51.255c2.192,3.982,5.386,6.972,9.542,9h32.099C275.217,137.936,278.509,134.911,280.648,131z"/>
	<path d="M305.769,131c0.905,4,2.569,6.983,4.998,9h20.729c2.095-1.926,3.097-4.455,3.748-6.859l3.19,6.859H361v-9H305.769z"/>
	<rect x="363" y="131" width="49" height="9"/>
</g>
<g class="lines2">
	<rect x="64" y="103" fill="none" width="24" height="9"/>
	<rect x="412" y="103" fill="none" width="15" height="9"/>
	<rect x="137" y="103" fill="none" width="15" height="9"/>
	<path fill="none" d="M277.368,103c2.32,2.47,4.044,5.556,5.05,9H305v-9H277.368z"/>
	<polygon fill="none" points="361,103 334,103 334,103 332,103 332,112 334,112 334,105 361,105 361,112 363,112 363,103 361,103
		"/>
	<path fill="none" d="M239,111v-0.761c-4-1.504-7.186-3.97-9.522-7.239h-11.636l-2.696,5h-18.501l2.81-5H179v9h47v-1H239z"/>
	<rect x="305" y="103" width="27" height="9"/>
	<path d="M229.478,103c2.337,3.27,5.522,5.735,9.522,7.239V111h-13v1h56.418c-1.006-3.444-2.729-6.53-5.05-9H229.478z"/>
	<rect x="334" y="105" width="27" height="7"/>
	<polygon points="215.145,108 217.841,103 199.454,103 196.644,108 	"/>
	<rect x="152" y="103" width="27" height="9"/>
	<rect x="37" y="103" width="27" height="9"/>
	<rect x="427" y="103" width="27" height="9"/>
	<rect x="363" y="103" width="49" height="9"/>
	<rect x="88" y="103" width="49" height="9"/>
</g>
<g class="lines1">
	<polygon fill="none" points="88,112 64,112 64,118 86,118 86,121 88,121 	"/>
	<rect x="361" y="112" fill="none" width="2" height="9"/>
	<rect x="248" y="116" fill="none" width="12" height="2"/>
	<path fill="none" d="M226,112h-47v9h47.257c-0.271-1.956-0.257-4.038-0.257-6.26V112z"/>
	<path fill="none" d="M282.418,112c0.667,2.285,1.028,4.722,1.028,7.24c0,0.598-0.023,1.183-0.058,1.76H305v-9H282.418z"/>
	<polygon fill="none" points="137,112 137,116 111,116 111,118 137,118 137,121 152,121 152,112 	"/>
	<polygon fill="none" points="412,116 386,116 386,118 412,118 412,121 427,121 427,112 412,112 	"/>
	<rect x="332" y="112" fill="none" width="2" height="6"/>
	<rect x="152" y="112" width="27" height="9"/>
	<rect x="427" y="112" width="27" height="9"/>
	<polygon points="86,118 64,118 64,112 37,112 37,121 86,121 	"/>
	<polygon points="334,112 334,118 332,118 332,112 305,112 305,121 361,121 361,112 	"/>
	<polygon points="363,121 412,121 412,118 386,118 386,116 412,116 412,112 363,112 	"/>
	<path d="M282.418,112H226v2.74c0,2.222-0.015,4.304,0.257,6.26h57.132c0.034-0.578,0.058-1.162,0.058-1.76
		C283.446,116.722,283.085,114.285,282.418,112z M248,118v-2h12v2H248z"/>
	<polygon points="111,118 111,116 137,116 137,112 88,112 88,121 137,121 137,118 	"/>
</g>
<g class="lines2">
	<rect x="64" y="94" fill="none" width="24" height="9"/>
	<path fill="none" d="M199.454,103l4.19-7.961c-0.846-0.282-1.64-0.633-2.39-1.039H179v9H199.454z"/>
	<path fill="none" d="M270,97v1.239c3,1.04,5.421,2.687,7.368,4.761H305v-9h-22v3H270z"/>
	<rect x="332" y="94" fill="none" width="2" height="9"/>
	<rect x="361" y="94" fill="none" width="2" height="9"/>
	<rect x="137" y="94" fill="none" width="15" height="9"/>
	<rect x="412" y="94" fill="none" width="15" height="9"/>
	<path fill="none" d="M217.841,103h11.636c-1.811-2.533-3.078-5.552-3.695-9h-3.691c-0.536,1.438-1.179,2.905-1.946,4.438
		L217.841,103z"/>
	<rect x="305" y="94" width="27" height="9"/>
	<rect x="334" y="94" width="27" height="9"/>
	<rect x="37" y="94" width="27" height="9"/>
	<path d="M277.368,103c-1.947-2.074-4.368-3.721-7.368-4.761V97h13v-3h-57.218c0.617,3.448,1.885,6.467,3.695,9H277.368z"/>
	<rect x="427" y="94" width="27" height="9"/>
	<path d="M199.454,103h18.388l2.304-4.562c0.767-1.534,1.41-3,1.946-4.438h-20.836c0.75,0.405,1.544,0.757,2.39,1.039L199.454,103z"
		/>
	<rect x="152" y="94" width="27" height="9"/>
	<rect x="88" y="94" width="49" height="9"/>
	<rect x="363" y="94" width="49" height="9"/>
</g>
<g class="lines4">
	<path fill="none" d="M229.883,75h-6.463c0.599,1.716,0.926,3.578,0.926,5.538c0,1.203-0.051,2.344-0.13,3.462h1.606
		C226.499,80.565,227.88,77.55,229.883,75z"/>
	<path fill="none" d="M305.661,84c0.735-3.451,2.032-6.458,3.836-9H277.97c1.932,2.574,3.306,5.598,4.112,9H305.661z"/>
	<rect x="64" y="75" fill="none" width="24" height="9"/>
	<rect x="137" y="75" fill="none" width="2" height="9"/>
	<path fill="none" d="M193.994,84c-0.228-1.113-0.35-2.271-0.35-3.462c0-1.959,0.327-3.821,0.925-5.538H192v9H193.994z"/>
	<rect x="412" y="75" fill="none" width="2" height="9"/>
	<path fill="none" d="M363,84v-9h-7.011c1.804,2.542,3.101,5.549,3.836,9H363z"/>
	<rect x="37" y="75" width="27" height="9"/>
	<rect x="88" y="75" width="49" height="9"/>
	<path d="M193.994,84h30.222c0.079-1.119,0.13-2.26,0.13-3.462c0-1.959-0.327-3.821-0.926-5.538h-28.852
		c-0.598,1.716-0.925,3.578-0.925,5.538C193.644,81.729,193.766,82.887,193.994,84z"/>
	<rect x="139" y="75" width="53" height="9"/>
	<rect x="414" y="75" width="53" height="9"/>
	<path d="M305.661,84h54.164c-0.735-3.451-2.032-6.458-3.836-9h-46.492C307.693,77.542,306.396,80.549,305.661,84z"/>
	<rect x="363" y="75" width="49" height="9"/>
	<path d="M282.082,84c-0.807-3.402-2.181-6.426-4.112-9h-48.087c-2.003,2.55-3.384,5.565-4.061,9H282.082z"/>
</g>
<g class="lines1">
	<rect x="86" y="121" fill="none" width="2" height="10"/>
	<rect x="137" y="121" fill="none" width="15" height="10"/>
	<rect x="361" y="121" fill="none" width="2" height="10"/>
	<path fill="none" d="M305,121h-21.611c-0.223,3.79-1.172,7.132-2.74,10h25.12c-0.541-2.393-0.769-5.128-0.769-8.26V121z"/>
	<path fill="none" d="M179,121v10h50.393c-1.557-2.828-2.604-6.161-3.136-10H179z"/>
	<rect x="412" y="121" fill="none" width="15" height="10"/>
	<rect x="37" y="121" width="49" height="10"/>
	<rect x="427" y="121" width="27" height="10"/>
	<path d="M305,121v1.74c0,3.132,0.228,5.867,0.769,8.26H361v-10H305z"/>
	<path d="M226.257,121c0.532,3.839,1.58,7.172,3.136,10h51.255c1.568-2.868,2.518-6.21,2.74-10H226.257z"/>
	<rect x="363" y="121" width="49" height="10"/>
	<rect x="152" y="121" width="27" height="10"/>
	<rect x="88" y="121" width="49" height="10"/>
</g>
<g class="lines2">
	<path fill="none" d="M225.782,94c-0.281-1.57-0.44-3.221-0.44-4.962c0-1.768,0.167-3.446,0.48-5.038h-1.606
		c-0.246,3.502-0.89,6.683-2.125,10H225.782z"/>
	<path fill="none" d="M283,91.738V94h22v-2.762c0-2.591,0.186-5.006,0.661-7.238h-23.579C282.652,86.401,283,88.986,283,91.738z"/>
	<path fill="none" d="M179,91v3h22.254c-3.84-2.078-6.379-5.691-7.261-10H192v7H179z"/>
	<path fill="none" d="M361,94h2V84h-3.175c0.476,2.232,1.175,4.647,1.175,7.238V94z"/>
	<rect x="64" y="84" fill="none" width="24" height="10"/>
	<polygon fill="none" points="111,91 111,93 137,93 137,94 152,94 152,91 139,91 139,84 137,84 137,91 	"/>
	<polygon fill="none" points="412,91 386,91 386,93 412,93 412,94 427,94 427,91 414,91 414,84 412,84 	"/>
	<rect x="332" y="89" fill="none" width="2" height="5"/>
	<path d="M283,91.738c0-2.752-0.348-5.337-0.918-7.738h-56.26c-0.313,1.592-0.48,3.27-0.48,5.038c0,1.741,0.159,3.392,0.44,4.962
		H283V91.738z M248,93v-2h12v2H248z"/>
	<rect x="37" y="84" width="27" height="10"/>
	<polygon points="414,91 427,91 427,94 454,94 454,91 467,91 467,84 414,84 	"/>
	<polygon points="412,94 412,93 386,93 386,91 412,91 412,84 363,84 363,94 	"/>
	<path d="M305,94h27v-5h2v5h27v-2.762c0-2.591-0.699-5.006-1.175-7.238h-54.164c-0.476,2.232-0.661,4.647-0.661,7.238V94z"/>
	<path d="M201.254,94h20.836c1.235-3.317,1.879-6.498,2.125-10h-30.222C194.875,88.309,197.414,91.922,201.254,94z"/>
	<polygon points="137,94 137,93 111,93 111,91 137,91 137,84 88,84 88,94 	"/>
	<polygon points="152,91 152,94 179,94 179,91 192,91 192,84 139,84 139,91 	"/>
</g>
<g class="lines3">
	<polygon fill="none" points="238,177 238,167 229.706,167 230.773,177 	"/>
	<rect x="370" y="167" fill="none" width="3" height="10"/>
	<rect x="338" y="167" fill="none" width="2" height="10"/>
	<path fill="none" d="M177.099,177l1.067-10h-10.712c1.299,2.879,2.096,6.21,2.322,10H177.099z"/>
	<path fill="none" d="M103,167h-4.865c1.285,2.95,2.107,6.294,2.448,10H103V167z"/>
	<path fill="none" d="M307,177v-10h-4.374c1.335,2.878,2.196,6.208,2.516,10H307z"/>
	<path fill="none" d="M403,177h2.67c0.341-3.706,1.163-7.05,2.448-10H403V177z"/>
	<path d="M98.135,167H40.018c-1.285,2.95-2.107,6.294-2.448,10h63.014C100.242,173.294,99.42,169.95,98.135,167z"/>
	<path d="M405.67,177h63.015c-0.341-3.706-1.163-7.05-2.448-10h-58.118C406.833,169.95,406.011,173.294,405.67,177z"/>
	<rect x="340" y="167" width="30" height="10"/>
	<polygon points="230.773,177 229.706,167 178.166,167 177.099,177 	"/>
	<rect x="307" y="167" width="31" height="10"/>
	<path d="M169.776,177c-0.226-3.79-1.023-7.121-2.322-10H103v10H169.776z"/>
	<rect x="373" y="167" width="30" height="10"/>
	<path d="M305.142,177c-0.319-3.792-1.181-7.122-2.516-10H238v10H305.142z"/>
</g>
<g class="lines2">
	<polygon fill="none" points="133,213 133,223 136.11,223 134.571,213 	"/>
	<polygon fill="none" points="234.613,213 235.68,223 238,223 238,213 	"/>
	<rect x="338" y="213" fill="none" width="2" height="10"/>
	<rect x="269" y="213" fill="none" width="38" height="10"/>
	<path fill="none" d="M162.843,213c0.737,1.612,1.4,3.515,1.992,5.819l1.087,4.181h6.27l1.067-10H162.843z"/>
	<rect x="370" y="213" fill="none" width="3" height="10"/>
	<rect x="203" y="213" fill="none" width="2" height="10"/>
	<path fill="none" d="M403,223h4.491c-1.086-2.979-1.738-6.321-1.936-10H403V223z"/>
	<rect x="101" y="213" fill="none" width="2" height="10"/>
	<path d="M101,213H37v3.881c0,2.208,0.515,4.235,0.75,6.119H101V213z"/>
	<path d="M438,213h-2l0,0h-30.444c0.197,3.679,0.85,7.021,1.936,10h59.372c1.086-2.979,1.738-6.321,1.936-10H438L438,213z"/>
	<rect x="340" y="213" width="30" height="10"/>
	<rect x="373" y="213" width="30" height="10"/>
	<rect x="307" y="213" width="31" height="10"/>
	<rect x="103" y="213" width="30" height="10"/>
	<path d="M162.843,213h-28.271l1.539,10h29.812l-1.087-4.181C164.243,216.515,163.58,214.612,162.843,213z"/>
	<polygon points="173.259,213 172.192,223 203,223 203,213 	"/>
	<rect x="238" y="213" width="31" height="10"/>
	<polygon points="205,213 205,223 235.68,223 234.613,213 	"/>
</g>
<g class="lines1">
	<path fill="none" d="M167.454,167h10.712l0.96-9H159.95C163.203,160.232,165.753,163.231,167.454,167z"/>
	<path fill="none" d="M98.135,167H103v-9H91.458C94.322,160.395,96.568,163.406,98.135,167z"/>
	<path fill="none" d="M302.626,167H307v-9h-11.925C298.306,160.233,300.875,163.225,302.626,167z"/>
	<polygon fill="none" points="238,167 238,158 228.746,158 229.706,167 	"/>
	<rect x="338" y="158" fill="none" width="2" height="9"/>
	<rect x="370" y="158" fill="none" width="3" height="9"/>
	<path fill="none" d="M408.118,167c1.566-3.594,3.813-6.605,6.678-9H403v9H408.118z"/>
	<path d="M408.118,167h58.118c-1.566-3.594-3.813-6.605-6.678-9h-44.763C411.932,160.395,409.685,163.406,408.118,167z"/>
	<path d="M91.458,158H46.695c-2.864,2.395-5.111,5.406-6.677,9h58.117C96.568,163.406,94.322,160.395,91.458,158z"/>
	<path d="M167.454,167c-1.701-3.769-4.251-6.768-7.503-9H103v9H167.454z"/>
	<rect x="340" y="158" width="30" height="9"/>
	<rect x="373" y="158" width="30" height="9"/>
	<rect x="307" y="158" width="31" height="9"/>
	<path d="M302.626,167c-1.751-3.775-4.32-6.767-7.551-9H238v9H302.626z"/>
	<polygon points="229.706,167 228.746,158 179.125,158 178.166,167 	"/>
</g>
<g class="lines4">
	<path d="M436.266,151c-8.988,0-16.256,2.641-21.47,7h44.763c-5.214-4.359-12.482-7-21.47-7H436.266z"/>
	<path d="M276.781,153H238v5h57.075C290.273,154.681,284.012,153,276.781,153z"/>
	<rect x="340" y="153" width="30" height="5"/>
	<rect x="373" y="153" width="30" height="5"/>
	<rect x="307" y="153" width="31" height="5"/>
	<polygon points="228.217,153 179.654,153 179.125,158 228.746,158 	"/>
	<path d="M141.351,153H103v5h56.95C155.11,154.679,148.732,153,141.351,153z"/>
	<path d="M69.988,151h-1.824c-8.988,0-16.255,2.641-21.469,7h44.763C86.243,153.641,78.976,151,69.988,151z"/>
</g>
<g class="lines1">
	<rect x="307" y="232" width="31" height="7"/>
	<rect x="238" y="232" width="31" height="7"/>
	<rect x="340" y="232" width="30" height="7"/>
	<polygon points="205,239 237.337,239 236.64,232 205,232 	"/>
	<polygon points="170.534,239 203,239 203,232 171.232,232 	"/>
	<polygon points="138.5,239 169.964,239 168.263,232 137.494,232 	"/>
	<path d="M436.266,240h1.823c10.019,0,17.897-2.619,23.178-8h-48.179C418.369,237.381,426.247,240,436.266,240z"/>
	<rect x="373" y="232" width="30" height="7"/>
	<rect x="103" y="232" width="30" height="7"/>
	<path d="M55.966,240.251c9.144,0,12.929-3.889,14.835-8.251H40.375C43.343,237.567,48.52,240.251,55.966,240.251z"/>
	<polygon points="76.486,239 101,239 101,232 73.444,232 	"/>
</g>
<g class="lines2">
	<polygon fill="none" points="103,186 101,186 101,195 70,195 70,186 68,186 68,195 103,195 	"/>
	<rect x="370" y="186" fill="none" width="3" height="9"/>
	<path fill="none" d="M176.139,186h-6.699c-0.586,3.485-1.797,6.47-3.501,9h9.24L176.139,186z"/>
	<polygon fill="none" points="238,195 238,186 231.733,186 232.693,195 	"/>
	<rect x="403" y="186" fill="none" width="2" height="9"/>
	<path fill="none" d="M307,195v-9h-1.897c-0.318,3.368-1.069,6.365-2.204,9H307z"/>
	<rect x="37" y="186" width="31" height="9"/>
	<rect x="405" y="186" width="31" height="9"/>
	<rect x="438" y="186" width="31" height="9"/>
	<rect x="70" y="186" width="31" height="9"/>
	<rect x="373" y="186" width="30" height="9"/>
	<path d="M302.898,195c1.135-2.635,1.886-5.632,2.204-9H238v9H302.898z"/>
	<rect x="307" y="186" width="63" height="9"/>
	<path d="M232.693,195l-0.96-9h-55.594l-0.96,9H232.693z M211,187v2h-14v-2H211z"/>
	<path d="M169.44,186H103v9h62.938C167.643,192.47,168.854,189.485,169.44,186z"/>
</g>
<g class="lines1">
	<rect x="338" y="209" fill="none" width="2" height="4"/>
	<rect x="370" y="204" fill="none" width="3" height="9"/>
	<rect x="101" y="204" fill="none" width="2" height="9"/>
	<path fill="none" d="M295.937,204c-4.903,3.741-11.484,6-19.155,6H269v3h38v-9H295.937z"/>
	<path fill="none" d="M155,204v0.797c3,1.74,5.882,3.913,7.843,8.203h10.416l0.96-9H155z"/>
	<polygon fill="none" points="233.653,204 234.613,213 238,213 238,204 	"/>
	<path fill="none" d="M403,213h2.556c-0.042-0.783-0.556-1.575-0.556-2.389V204h-2V213z"/>
	<rect x="68" y="204" fill="none" width="2" height="7"/>
	<rect x="436" y="204" fill="none" width="2" height="9"/>
	<polygon points="101,204 70,204 70,211 68,211 68,204 37,204 37,213 101,213 	"/>
	<path d="M405,210.611c0,0.813,0.514,1.606,0.556,2.389H436v-9h-31V210.611z"/>
	<path d="M468.799,213c0.042-0.783,0.201-1.575,0.201-2.389V204h-31v9H468.799z"/>
	<polygon points="307,204 307,213 338,213 338,209 340,209 340,213 370,213 370,204 	"/>
	<rect x="373" y="204" width="30" height="9"/>
	<path d="M276.781,210c7.671,0,14.252-2.259,19.155-6H238v9h31v-3H276.781z"/>
	<polygon points="174.219,204 173.259,213 203,213 203,211 205,211 205,213 234.613,213 233.653,204 	"/>
	<path d="M155,204.797V204h-52v9h30v-3h1.169l0.402,3h28.271C160.882,208.71,158,206.538,155,204.797z"/>
</g>
<g class="lines2">
	<polygon fill="none" points="103,195 68,195 68,204 70,204 70,197 101,197 101,204 103,204 	"/>
	<path fill="none" d="M302.898,195c-1.602,3.72-3.967,6.715-6.962,9H307v-9H302.898z"/>
	<rect x="370" y="195" fill="none" width="3" height="9"/>
	<polygon fill="none" points="232.693,195 233.653,204 238,204 238,195 	"/>
	<path fill="none" d="M165.938,195c-2.62,3.888-5.938,6.717-10.938,8.658V204h19.219l0.96-9H165.938z"/>
	<rect x="403" y="195" fill="none" width="2" height="9"/>
	<rect x="37" y="195" width="31" height="9"/>
	<rect x="405" y="195" width="31" height="9"/>
	<rect x="438" y="197" width="31" height="7"/>
	<rect x="373" y="195" width="30" height="9"/>
	<rect x="70" y="197" width="31" height="7"/>
	<path d="M155,203.658c5-1.941,8.318-4.77,10.938-8.658H103v9h52V203.658z"/>
	<polygon points="175.179,195 174.219,204 233.653,204 232.693,195 	"/>
	<path d="M302.898,195H238v9h57.937C298.932,201.715,301.297,198.72,302.898,195z"/>
	<rect x="307" y="195" width="63" height="9"/>
</g>
<g class="lines1">
	<path fill="none" d="M103,177h-2.417c0.118,1.282,0.417,2.603,0.417,3.972V186h2V177z"/>
	<rect x="370" y="177" fill="none" width="3" height="9"/>
	<rect x="338" y="177" fill="none" width="2" height="5"/>
	<path fill="none" d="M305,182.226c0,1.308,0.217,2.562,0.103,3.774H307v-9h-1.858c0.092,1.096-0.142,2.229-0.142,3.402V182.226z"/>
	<rect x="129" y="180" fill="none" width="14" height="2"/>
	<path fill="none" d="M170,181.086c0,1.744-0.301,3.372-0.56,4.914h6.699l0.96-9h-7.323c0.044,0.739,0.224,1.488,0.224,2.262
		V181.086z"/>
	<rect x="264" y="180" fill="none" width="13" height="2"/>
	<polygon fill="none" points="238,186 238,177 230.773,177 231.733,186 	"/>
	<path fill="none" d="M403,186h2v-5.028c0-1.369,0.552-2.689,0.67-3.972H403V186z"/>
	<rect x="68" y="178" fill="none" width="2" height="8"/>
	<rect x="436" y="178" fill="none" width="2" height="8"/>
	<path d="M68,178h2v8h31v-5.028c0-1.369-0.299-2.689-0.417-3.972H37.569c-0.118,1.282-0.569,2.603-0.569,3.972V186h31V178z"/>
	<path d="M405,180.972V186h31v-8h2v8h31v-5.028c0-1.369-0.197-2.689-0.315-3.972H405.67C405.552,178.282,405,179.603,405,180.972z"
		/>
	<rect x="373" y="177" width="30" height="9"/>
	<path d="M170,181.086v-1.824c0-0.773-0.18-1.523-0.224-2.262H103v9h66.44C169.699,184.458,170,182.83,170,181.086z M129,182v-2h14
		v2H129z"/>
	<polygon points="231.733,186 230.773,177 177.099,177 176.139,186 	"/>
	<polygon points="370,186 370,177 340,177 340,182 338,182 338,177 307,177 307,186 	"/>
	<path d="M305.103,186c0.114-1.212-0.103-2.466-0.103-3.774v-1.824c0-1.173,0.233-2.306,0.142-3.402H238v9H305.103z M277,180v2h-13
		v-2H277z"/>
</g>
<rect x="295" y="302" fill="none" width="14" height="2"/>
<polygon fill="none" points="373,281 373,278 371.429,278 371.831,281 "/>
<rect x="301" y="278.251" fill="none" width="2" height="2"/>
<path fill="none" d="M435.198,259h-2.642l1.518,3.263C434.367,261.18,434.728,260,435.198,259z"/>
<rect x="69" y="277.251" fill="none" width="0" height="2"/>
<rect x="246" y="398" fill="none" width="12" height="2"/>
<rect x="158.5" y="374.5" width="0" height="27"/>
<g class="lines2">
	<polygon fill="none" points="270.32,268 269.36,259 268,259 268,268 	"/>
	<rect x="403" y="259" fill="none" width="2" height="9"/>
	<rect x="199" y="259" fill="none" width="38" height="9"/>
	<rect x="301" y="259" fill="none" width="2" height="9"/>
	<polygon fill="none" points="373,268 373,259 368.506,259 369.891,268 	"/>
	<polygon fill="none" points="340.078,268 337.737,259 334.768,259 333.809,268 	"/>
	<rect x="166" y="259" fill="none" width="2" height="9"/>
	<path fill="none" d="M103,268v-9H92.912c2.433,3,4.315,6,5.597,9H103z"/>
	<rect x="133" y="259" fill="none" width="3" height="9"/>
	<path d="M468.25,268c-0.448-3-1.326-6-2.625-9h-30.427c-0.471,1-0.831,2.18-1.124,3.263L432.557,259H405v9H468.25z"/>
	<rect x="373" y="259" width="30" height="9"/>
	<polygon points="369.891,268 368.506,259 337.737,259 340.078,268 	"/>
	<polygon points="333.809,268 334.768,259 303,259 303,268 	"/>
	<polygon points="301,268 301,259 269.36,259 270.32,268 	"/>
	<rect x="103" y="259" width="30" height="9"/>
	<rect x="136" y="259" width="30" height="9"/>
	<rect x="168" y="259" width="31" height="9"/>
	<rect x="237" y="259" width="31" height="9"/>
	<path d="M92.912,259H44.733c-2.433,3-4.315,6-5.597,9h59.372C97.228,265,95.345,262,92.912,259z"/>
</g>
<g class="lines1">
	<path fill="none" d="M282.58,416h-6.463c-3.598,5-9.193,8-16.256,9h32.016C287.305,424,284.066,421,282.58,416z"/>
	<path fill="none" d="M228.03,416h-31.527c-3.271,5-8.227,8-14.618,9h61.346C236.497,424,231.413,421,228.03,416z"/>
	<path d="M297.056,425.764c1.854,0,3.566,0.236,5.13-0.764h-10.309C293.453,426,295.182,425.764,297.056,425.764z"/>
	<rect x="442" y="416" width="27" height="8"/>
	<rect x="369" y="416" width="49" height="8"/>
	<rect x="314" y="416" width="53" height="8"/>
	<rect x="94" y="416" width="49" height="8"/>
	<path d="M251.355,425.764c3.023,0,5.865,0.236,8.506-0.764H243.23C245.716,426,248.425,425.764,251.355,425.764z"/>
	<path d="M172.457,426h1.6c2.806,0,5.417,0,7.828-1h-17.256C167.04,426,169.651,426,172.457,426z"/>
	<rect x="39" y="416" width="53" height="8"/>
	<path d="M291.877,425h10.309c4.535-1,7.763-4,9.246-9H282.58C284.066,421,287.305,424,291.877,425z"/>
	<path d="M276.117,416H228.03c3.383,5,8.467,8,15.2,9h16.631C266.924,424,272.52,421,276.117,416z"/>
	<path d="M196.503,416h-46.492c3.271,5,8.227,8,14.618,9h17.256C188.276,424,193.232,421,196.503,416z"/>
</g>
<g class="lines2">
	<rect x="418" y="351" fill="none" width="2" height="9"/>
	<rect x="79" y="351" fill="none" width="15" height="9"/>
	<rect x="143" y="351" fill="none" width="2" height="9"/>
	<path fill="none" d="M276.607,360H327v-9h-59.935C271.221,353,274.415,356,276.607,360z"/>
	<path fill="none" d="M200.231,360h25.12c2.14-4,5.432-7,9.615-9h-39.733C197.662,353,199.326,356,200.231,360z"/>
	<path fill="none" d="M174.505,351h-6.938l3.19,6.859C171.408,355.455,172.41,353,174.505,351z"/>
	<rect x="354" y="351" fill="none" width="15" height="9"/>
	<rect x="327" y="349" width="27" height="2"/>
	<rect x="420" y="349" width="49" height="2"/>
	<rect x="369" y="349" width="49" height="2"/>
	<rect x="94" y="349" width="49" height="2"/>
	<rect x="52" y="349" width="27" height="2"/>
	<path d="M184.758,347.759c-4.992,0-8.165,1.241-10.253,3.241h20.729C192.622,349,189.143,347.759,184.758,347.759z"/>
	<polygon points="166.757,349 145,349 145,351 167.566,351 	"/>
	<path d="M250.456,347.759c-5.918,0-11.174,1.241-15.489,3.241h32.099C262.615,349,257.064,347.759,250.456,347.759z"/>
	<rect x="420" y="351" width="49" height="9"/>
	<rect x="327" y="351" width="27" height="9"/>
	<rect x="369" y="351" width="49" height="9"/>
	<rect x="52" y="351" width="27" height="9"/>
	<path d="M225.352,360h51.256c-2.192-4-5.387-7-9.542-9h-32.099C230.783,353,227.491,356,225.352,360z"/>
	<path d="M200.231,360c-0.905-4-2.569-7-4.998-9h-20.729c-2.095,2-3.097,4.455-3.748,6.859l-3.19-6.859H145v9H200.231z"/>
	<rect x="94" y="351" width="49" height="9"/>
</g>
<g class="lines3">
	<rect x="418" y="379" fill="none" width="24" height="9"/>
	<rect x="79" y="379" fill="none" width="15" height="9"/>
	<rect x="354" y="379" fill="none" width="15" height="9"/>
	<path fill="none" d="M228.632,388c-2.32-2-4.044-5-5.05-9H201v9H228.632z"/>
	<polygon fill="none" points="145,388 172,388 172,388 174,388 174,379 172,379 172,386 145,386 145,379 143,379 143,388 145,388
		"/>
	<path fill="none" d="M267,380v1.012c4,1.505,7.186,3.988,9.522,6.988h11.636l2.697-5h18.501l-2.81,5H327v-9h-47v1H267z"/>
	<rect x="174" y="379" width="27" height="9"/>
	<path d="M276.522,388c-2.337-3-5.522-5.483-9.522-6.988V380h13v-1h-56.418c1.006,4,2.729,7,5.05,9H276.522z"/>
	<rect x="145" y="379" width="27" height="7"/>
	<polygon points="290.855,383 288.158,388 306.547,388 309.356,383 	"/>
	<rect x="327" y="379" width="27" height="9"/>
	<rect x="442" y="379" width="27" height="9"/>
	<rect x="52" y="379" width="27" height="9"/>
	<rect x="94" y="379" width="49" height="9"/>
	<rect x="369" y="379" width="49" height="9"/>
</g>
<g class="lines4">
	<polygon fill="none" points="418,379 442,379 442,373 420,373 420,370 418,370 	"/>
	<rect x="143" y="370" fill="none" width="2" height="9"/>
	<rect x="246" y="373" fill="none" width="12" height="2"/>
	<path fill="none" d="M280,379h47v-9h-47.257c0.271,2,0.257,4.289,0.257,6.511V379z"/>
	<path fill="none" d="M223.582,379c-0.667-2-1.028-4.722-1.028-7.24c0-0.598,0.023-0.76,0.058-1.76H201v9H223.582z"/>
	<polygon fill="none" points="369,379 369,375 395,375 395,373 369,373 369,370 354,370 354,379 	"/>
	<polygon fill="none" points="94,375 120,375 120,373 94,373 94,370 79,370 79,379 94,379 	"/>
	<rect x="172" y="373" fill="none" width="2" height="6"/>
	<rect x="327" y="370" width="27" height="9"/>
	<rect x="52" y="370" width="27" height="9"/>
	<polygon points="420,373 442,373 442,379 469,379 469,370 420,370 	"/>
	<polygon points="172,379 172,373 174,373 174,379 201,379 201,370 145,370 145,379 	"/>
	<polygon points="143,370 94,370 94,373 120,373 120,375 94,375 94,379 143,379 	"/>
	<path d="M223.582,379H280v-2.489c0-2.222,0.015-4.511-0.257-6.511h-57.132c-0.034,1-0.058,1.162-0.058,1.76
		C222.554,374.278,222.915,377,223.582,379z M258,373v2h-12v-2H258z"/>
	<polygon points="395,373 395,375 369,375 369,379 418,379 418,370 369,370 369,373 	"/>
</g>
<g class="lines1">
	<rect x="418" y="388" fill="none" width="24" height="9"/>
	<path fill="none" d="M306.547,388l-4.191,7.961c0.846,0.282,1.641,1.039,2.391,1.039H327v-9H306.547z"/>
	<path fill="none" d="M236,394v-0.987c-3-1.041-5.421-3.013-7.368-5.013H201v9h22v-3H236z"/>
	<rect x="172" y="388" fill="none" width="2" height="9"/>
	<rect x="143" y="388" fill="none" width="2" height="9"/>
	<rect x="354" y="388" fill="none" width="15" height="9"/>
	<rect x="79" y="388" fill="none" width="15" height="9"/>
	<path fill="none" d="M288.158,388h-11.636c1.811,3,3.078,6,3.695,9h3.691c0.536-1,1.179-2.904,1.946-4.438L288.158,388z"/>
	<rect x="174" y="388" width="27" height="9"/>
	<rect x="145" y="388" width="27" height="9"/>
	<rect x="442" y="388" width="27" height="9"/>
	<path d="M228.632,388c1.947,2,4.368,3.972,7.368,5.013V394h-13v3h57.218c-0.617-3-1.885-6-3.695-9H228.632z"/>
	<rect x="52" y="388" width="27" height="9"/>
	<path d="M306.547,388h-18.389l-2.303,4.562c-0.768,1.534-1.41,3.438-1.946,4.438h20.837c-0.75,0-1.545-0.757-2.391-1.039
		L306.547,388z"/>
	<rect x="327" y="388" width="27" height="9"/>
	<rect x="369" y="388" width="49" height="9"/>
	<rect x="94" y="388" width="49" height="9"/>
</g>
<g class="lines2">
	<path fill="none" d="M276.117,416h6.463c-0.599-1-0.926-3.578-0.926-5.537c0-1.203,0.051-2.463,0.13-3.463h-1.606
		C279.502,411,278.12,414,276.117,416z"/>
	<path fill="none" d="M200.339,407c-0.735,4-2.032,7-3.836,9h31.527c-1.932-2-3.306-5-4.112-9H200.339z"/>
	<rect x="418" y="407" fill="none" width="24" height="9"/>
	<rect x="367" y="407" fill="none" width="2" height="9"/>
	<path fill="none" d="M312.006,407c0.229,1,0.351,2.271,0.351,3.463c0,1.959-0.327,4.537-0.925,5.537H314v-9H312.006z"/>
	<rect x="92" y="407" fill="none" width="2" height="9"/>
	<path fill="none" d="M143,407v9h7.011c-1.804-2-3.101-5-3.836-9H143z"/>
	<rect x="442" y="407" width="27" height="9"/>
	<rect x="369" y="407" width="49" height="9"/>
	<path d="M312.006,407h-30.222c-0.079,1-0.13,2.26-0.13,3.463c0,1.959,0.327,4.537,0.926,5.537h28.852
		c0.598-1,0.925-3.578,0.925-5.537C312.356,409.271,312.234,408,312.006,407z"/>
	<rect x="314" y="407" width="53" height="9"/>
	<rect x="39" y="407" width="53" height="9"/>
	<path d="M200.339,407h-54.164c0.735,4,2.032,7,3.836,9h46.492C198.307,414,199.604,411,200.339,407z"/>
	<rect x="94" y="407" width="49" height="9"/>
	<path d="M223.918,407c0.807,4,2.181,7,4.112,9h48.087c2.003-2,3.385-5,4.061-9H223.918z"/>
</g>
<g class="lines1">
	<rect x="418" y="360" fill="none" width="2" height="10"/>
	<rect x="354" y="360" fill="none" width="15" height="10"/>
	<rect x="143" y="360" fill="none" width="2" height="10"/>
	<path fill="none" d="M201,370h21.611c0.223-4,1.172-7,2.74-10h-25.12c0.541,3,0.769,5.379,0.769,8.511V370z"/>
	<path fill="none" d="M327,370v-10h-50.393c1.557,3,2.604,6,3.136,10H327z"/>
	<rect x="79" y="360" fill="none" width="15" height="10"/>
	<rect x="420" y="360" width="49" height="10"/>
	<rect x="52" y="360" width="27" height="10"/>
	<path d="M201,370v-1.489c0-3.132-0.228-5.511-0.769-8.511H145v10H201z"/>
	<path d="M279.743,370c-0.532-4-1.579-7-3.136-10h-51.256c-1.568,3-2.518,6-2.74,10H279.743z"/>
	<rect x="94" y="360" width="49" height="10"/>
	<rect x="327" y="360" width="27" height="10"/>
	<rect x="369" y="360" width="49" height="10"/>
</g>
<g class="lines2">
	<path fill="none" d="M280.218,397c0.281,2,0.44,3.221,0.44,4.962c0,1.769-0.168,4.038-0.48,5.038h1.606c0.245-3,0.89-6,2.125-10
		H280.218z"/>
	<path fill="none" d="M223,399.513V397h-22v3.013c0,2.591-0.186,4.987-0.661,6.987h23.579C223.348,405,223,402.265,223,399.513z"/>
	<path fill="none" d="M327,400v-3h-22.254c3.84,2,6.379,6,7.26,10H314v-7H327z"/>
	<path fill="none" d="M145,397h-2v10h3.175c-0.476-2-1.175-4.396-1.175-6.987V397z"/>
	<rect x="418" y="397" fill="none" width="24" height="10"/>
	<polygon fill="none" points="395,400 395,398 369,398 369,397 354,397 354,400 367,400 367,407 369,407 369,400 	"/>
	<polygon fill="none" points="94,400 120,400 120,398 94,398 94,397 79,397 79,400 92,400 92,407 94,407 	"/>
	<rect x="172" y="397" fill="none" width="2" height="5"/>
	<path d="M223,399.513c0,2.752,0.348,5.487,0.918,7.487h56.26c0.312-1,0.48-3.27,0.48-5.038c0-1.741-0.159-2.962-0.44-4.962H223
		V399.513z M258,398v2h-12v-2H258z"/>
	<rect x="442" y="397" width="27" height="10"/>
	<polygon points="92,400 79,400 79,397 52,397 52,400 39,400 39,407 92,407 	"/>
	<polygon points="94,397 94,398 120,398 120,400 94,400 94,407 143,407 143,397 	"/>
	<path d="M201,397h-27v5h-2v-5h-27v3.013c0,2.591,0.699,4.987,1.175,6.987h54.164c0.476-2,0.661-4.396,0.661-6.987V397z"/>
	<path d="M304.746,397h-20.837c-1.235,4-1.88,7-2.125,10h30.222C311.125,403,308.586,399,304.746,397z"/>
	<polygon points="369,397 369,398 395,398 395,400 369,400 369,407 418,407 418,397 	"/>
	<polygon points="354,400 354,397 327,397 327,400 314,400 314,407 367,407 367,400 	"/>
</g>
<g class="lines1">
	<polygon fill="none" points="268,314 268,324 276.294,324 275.227,314 	"/>
	<rect x="133" y="314" fill="none" width="3" height="10"/>
	<rect x="166" y="314" fill="none" width="2" height="10"/>
	<path fill="none" d="M328.901,314l-1.067,10h10.713c-1.299-3-2.097-6-2.322-10H328.901z"/>
	<path fill="none" d="M403,324h4.865c-1.285-3-2.107-6-2.448-10H403V324z"/>
	<path fill="none" d="M199,314v10h4.374c-1.335-3-2.196-6-2.516-10H199z"/>
	<path fill="none" d="M103,314h-2.67c-0.341,4-1.163,7-2.448,10H103V314z"/>
	<path d="M407.865,324h58.117c1.285-3,2.107-6,2.448-10h-63.014C405.758,318,406.58,321,407.865,324z"/>
	<path d="M100.33,314H37.315c0.341,4,1.163,7,2.448,10h58.118C99.167,321,99.989,318,100.33,314z"/>
	<rect x="136" y="314" width="30" height="10"/>
	<polygon points="275.227,314 276.294,324 327.834,324 328.901,314 	"/>
	<rect x="168" y="314" width="31" height="10"/>
	<path d="M336.225,314c0.226,4,1.023,7,2.322,10H403v-10H336.225z"/>
	<rect x="103" y="314" width="30" height="10"/>
	<path d="M200.858,314c0.319,4,1.181,7,2.516,10H268v-10H200.858z"/>
</g>
<g class="lines2">
	<polygon fill="none" points="373,278 373,268 369.891,268 371.429,278 	"/>
	<polygon fill="none" points="271.387,278 270.32,268 268,268 268,278 	"/>
	<rect x="166" y="268" fill="none" width="2" height="10"/>
	<rect x="199" y="268" fill="none" width="38" height="10"/>
	<path fill="none" d="M343.157,278c-0.737-1-1.399-3.515-1.991-5.819L340.078,268h-6.27l-1.067,10H343.157z"/>
	<rect x="133" y="268" fill="none" width="3" height="10"/>
	<rect x="301" y="268" fill="none" width="2" height="10"/>
	<path fill="none" d="M103,268h-4.491c1.086,3,1.738,7,1.936,10H103V268z"/>
	<rect x="403" y="268" fill="none" width="2" height="10"/>
	<path d="M405,278h64v-3.63c0-2.208-0.515-4.37-0.75-6.37H405V278z"/>
	<path d="M68,278h2l0,0h30.444c-0.197-3-0.85-7-1.936-10H39.137c-1.086,3-1.738,7-1.936,10H68L68,278z"/>
	<rect x="136" y="268" width="30" height="10"/>
	<rect x="103" y="268" width="30" height="10"/>
	<rect x="168" y="268" width="31" height="10"/>
	<rect x="373" y="268" width="30" height="10"/>
	<path d="M343.157,278h28.271l-1.538-10h-29.812l1.088,4.181C341.758,274.485,342.42,277,343.157,278z"/>
	<polygon points="332.741,278 333.809,268 303,268 303,278 	"/>
	<rect x="237" y="268" width="31" height="10"/>
	<polygon points="301,278 301,268 270.32,268 271.387,278 	"/>
</g>
<g class="lines1">
	<path fill="none" d="M338.547,324h-10.713l-0.959,9h19.175C342.797,331,340.247,328,338.547,324z"/>
	<path fill="none" d="M407.865,324H403v9h11.543C411.678,331,409.432,328,407.865,324z"/>
	<path fill="none" d="M203.374,324H199v9h11.925C207.694,331,205.125,328,203.374,324z"/>
	<polygon fill="none" points="268,324 268,333 277.254,333 276.294,324 	"/>
	<rect x="166" y="324" fill="none" width="2" height="9"/>
	<rect x="133" y="324" fill="none" width="3" height="9"/>
	<path fill="none" d="M97.882,324c-1.566,4-3.813,7-6.678,9H103v-9H97.882z"/>
	<path d="M97.882,324H39.764c1.566,4,3.813,7,6.678,9h44.763C94.068,331,96.315,328,97.882,324z"/>
	<path d="M414.543,333h44.762c2.865-2,5.111-5,6.678-9h-58.117C409.432,328,411.678,331,414.543,333z"/>
	<path d="M338.547,324c1.7,4,4.25,7,7.503,9H403v-9H338.547z"/>
	<rect x="136" y="324" width="30" height="9"/>
	<rect x="103" y="324" width="30" height="9"/>
	<rect x="168" y="324" width="31" height="9"/>
	<path d="M203.374,324c1.751,4,4.32,7,7.551,9H268v-9H203.374z"/>
	<polygon points="276.294,324 277.254,333 326.875,333 327.834,324 	"/>
</g>
<g class="lines4">
	<path d="M69.734,340c8.988,0,16.256-2,21.47-7H46.441c5.214,5,12.482,7,21.47,7H69.734z"/>
	<path d="M229.219,338H268v-5h-57.075C215.727,337,221.988,338,229.219,338z"/>
	<rect x="136" y="333" width="30" height="5"/>
	<rect x="103" y="333" width="30" height="5"/>
	<rect x="168" y="333" width="31" height="5"/>
	<polygon points="277.783,338 326.346,338 326.875,333 277.254,333 	"/>
	<path d="M364.649,338H403v-5h-56.95C350.89,337,357.268,338,364.649,338z"/>
	<path d="M436.012,340h1.824c8.988,0,16.255-2,21.469-7h-44.762C419.757,338,427.023,340,436.012,340z"/>
</g>
<g class="lines1">
	<rect x="168" y="252" width="31" height="7"/>
	<rect x="237" y="252" width="31" height="7"/>
	<rect x="136" y="252" width="30" height="7"/>
	<polygon points="301,252 268.662,252 269.36,259 301,259 	"/>
	<polygon points="335.466,252 303,252 303,259 334.768,259 	"/>
	<polygon points="367.5,252 336.035,252 337.737,259 368.506,259 	"/>
	<path d="M69.734,251h-1.823c-10.019,0-17.897,3-23.178,8h48.179C87.631,254,79.753,251,69.734,251z"/>
	<rect x="103" y="252" width="30" height="7"/>
	<rect x="373" y="252" width="30" height="7"/>
	<path d="M450.033,250.749c-9.144,0-12.929,4.251-14.835,8.251h30.427C462.656,254,457.48,250.749,450.033,250.749z"/>
	<polygon points="429.514,252 405,252 405,259 432.557,259 	"/>
</g>
<g class="lines2">
	<polygon fill="none" points="403,305 405,305 405,296 436,296 436,305 438,305 438,296 403,296 	"/>
	<rect x="133" y="296" fill="none" width="3" height="9"/>
	<path fill="none" d="M329.861,305h6.699c0.586-3,1.797-6,3.501-9h-9.24L329.861,305z"/>
	<polygon fill="none" points="268,296 268,305 274.268,305 273.307,296 	"/>
	<rect x="101" y="296" fill="none" width="2" height="9"/>
	<path fill="none" d="M199,296v9h1.897c0.318-3,1.069-6,2.204-9H199z"/>
	<rect x="438" y="296" width="31" height="9"/>
	<rect x="70" y="296" width="31" height="9"/>
	<rect x="37" y="296" width="31" height="9"/>
	<rect x="405" y="296" width="31" height="9"/>
	<rect x="103" y="296" width="30" height="9"/>
	<path d="M203.102,296c-1.135,3-1.886,6-2.204,9H268v-9H203.102z"/>
	<rect x="136" y="296" width="63" height="9"/>
	<path d="M273.307,296l0.961,9h55.594l0.96-9H273.307z M295,304v-2h14v2H295z"/>
	<path d="M336.561,305H403v-9h-62.938C338.357,299,337.146,302,336.561,305z"/>
</g>
<g class="lines1">
	<rect x="166" y="278" fill="none" width="2" height="4"/>
	<rect x="133" y="278" fill="none" width="3" height="9"/>
	<rect x="403" y="278" fill="none" width="2" height="9"/>
	<path fill="none" d="M210.063,287c4.903-3,11.484-6,19.155-6H237v-3h-38v9H210.063z"/>
	<path fill="none" d="M351,287v-0.546c-3-1.74-5.882-3.454-7.843-8.454h-10.416l-0.96,9H351z"/>
	<polygon fill="none" points="272.348,287 271.387,278 268,278 268,287 	"/>
	<path fill="none" d="M103,278h-2.556c0.042,1,0.556,1.826,0.556,2.64V287h2V278z"/>
	<rect x="436" y="280" fill="none" width="2" height="7"/>
	<rect x="68" y="278" fill="none" width="2" height="9"/>
	<polygon points="405,287 436,287 436,280 438,280 438,287 469,287 469,278 405,278 	"/>
	<path d="M101,280.64c0-0.813-0.514-1.64-0.556-2.64H70v9h31V280.64z"/>
	<path d="M37.201,278c-0.042,1-0.201,1.826-0.201,2.64V287h31v-9H37.201z"/>
	<polygon points="199,287 199,278 168,278 168,282 166,282 166,278 136,278 136,287 	"/>
	<rect x="103" y="278" width="30" height="9"/>
	<path d="M229.219,281c-7.671,0-14.252,3-19.155,6H268v-9h-31v3H229.219z"/>
	<polygon points="331.781,287 332.741,278 303,278 303,280 301,280 301,278 271.387,278 272.348,287 	"/>
	<path d="M351,286.454V287h52v-9h-30v3h-1.169l-0.402-3h-28.271C345.118,283,348,284.714,351,286.454z"/>
</g>
<g class="lines2">
	<polygon fill="none" points="403,296 438,296 438,287 436,287 436,294 405,294 405,287 403,287 	"/>
	<path fill="none" d="M203.102,296c1.602-3,3.967-6,6.962-9H199v9H203.102z"/>
	<rect x="133" y="287" fill="none" width="3" height="9"/>
	<polygon fill="none" points="273.307,296 272.348,287 268,287 268,296 	"/>
	<path fill="none" d="M340.062,296c2.62-4,5.938-6.466,10.938-8.407V287h-19.219l-0.96,9H340.062z"/>
	<rect x="101" y="287" fill="none" width="2" height="9"/>
	<rect x="438" y="287" width="31" height="9"/>
	<rect x="70" y="287" width="31" height="9"/>
	<rect x="37" y="287" width="31" height="7"/>
	<rect x="103" y="287" width="30" height="9"/>
	<rect x="405" y="287" width="31" height="7"/>
	<path d="M351,287.593c-5,1.941-8.318,4.407-10.938,8.407H403v-9h-52V287.593z"/>
	<polygon points="330.821,296 331.781,287 272.348,287 273.307,296 	"/>
	<path d="M203.102,296H268v-9h-57.937C207.068,290,204.703,293,203.102,296z"/>
	<rect x="136" y="287" width="63" height="9"/>
</g>
<g class="lines3">
	<path fill="none" d="M403,314h2.417c-0.118-1-0.417-2.352-0.417-3.721V305h-2V314z"/>
	<rect x="133" y="305" fill="none" width="3" height="9"/>
	<rect x="166" y="309" fill="none" width="2" height="5"/>
	<path fill="none" d="M201,309.025c0-1.308-0.217-3.025-0.103-4.025H199v9h1.858c-0.092-1,0.142-1.978,0.142-3.151V309.025z"/>
	<rect x="363" y="309" fill="none" width="14" height="2"/>
	<path fill="none" d="M336,310.165c0-1.744,0.301-3.165,0.561-5.165h-6.699l-0.96,9h7.323c-0.045,0-0.225-1.237-0.225-2.011V310.165
		z"/>
	<rect x="229" y="309" fill="none" width="13" height="2"/>
	<polygon fill="none" points="268,305 268,314 275.227,314 274.268,305 	"/>
	<path fill="none" d="M103,305h-2v5.279c0,1.369-0.552,2.721-0.67,3.721H103V305z"/>
	<rect x="436" y="305" fill="none" width="2" height="8"/>
	<rect x="68" y="305" fill="none" width="2" height="8"/>
	<path d="M438,313h-2v-8h-31v5.279c0,1.369,0.299,2.721,0.417,3.721h63.014c0.118-1,0.569-2.352,0.569-3.721V305h-31V313z"/>
	<path d="M101,310.279V305H70v8h-2v-8H37v5.279c0,1.369,0.197,2.721,0.315,3.721h63.015C100.448,313,101,311.648,101,310.279z"/>
	<rect x="103" y="305" width="30" height="9"/>
	<path d="M336,310.165v1.824c0,0.773,0.18,2.011,0.225,2.011H403v-9h-66.439C336.301,307,336,308.421,336,310.165z M377,309v2h-14
		v-2H377z"/>
	<polygon points="274.268,305 275.227,314 328.901,314 329.861,305 	"/>
	<polygon points="136,305 136,314 166,314 166,309 168,309 168,314 199,314 199,305 	"/>
	<path d="M200.897,305c-0.114,1,0.103,2.718,0.103,4.025v1.823c0,1.174-0.233,2.151-0.142,3.151H268v-9H200.897z M229,311v-2h13v2
		H229z"/>
</g>
</svg>
