<?xml version="1.0" encoding="utf-8"?>
<!-- Generator: Adobe Illustrator 16.0.0, SVG Export Plug-In . SVG Version: 6.00 Build 0)  -->
<!DOCTYPE svg PUBLIC "-//W3C//DTD SVG 1.1//EN" "http://www.w3.org/Graphics/SVG/1.1/DTD/svg11.dtd">
<svg version="1.1" xmlns="http://www.w3.org/2000/svg" xmlns:xlink="http://www.w3.org/1999/xlink" x="0px" y="0px" width="500px"
	 height="500px" viewBox="0 0 500 500" enable-background="new 0 0 500 500" xml:space="preserve">
	 <style>
	@keyframes slide {
	0% {
		transform: translate(0px, -116px);
		opacity:0;
	}
	5% {
		transform: translate(0px, 0px);
		opacity:1;
	}
	20% {
		transform: translate(0px, 0px);
	}
	25% {
		transform: translate(0px, 116px);
	}
	40% {
	 transform: translate(0px, 116px);
	}
	45% {
	 transform: translate(0px, 232px);
	}
	60% {
	 transform: translate(0px, 232px);
	 opacity:1;
	}
	65% {
	 transform: translate(0px, 348px);
	 opacity:0;
	}
	100%{
	transform: translate(0px, 348px);
	opacity:0;
	}
	}
	@keyframes slide2 {
		0% {
			transform: translate(0px,  -85.5px);
		}
	 60% {
			transform: translate(0px,  -85.5px);
		}
	 65% {
			transform: translate(0px, 0px);
		}
		85% {
				transform: translate(0px, 0px);
			}
		90% {
				transform: translate(0px,  0px);
			opacity:1
			}
	 100% {
		 transform: translate(0px,  0px);
		 opacity:0;
	 }
	}
	svg{
	background-color:black;
	}
	#head .line{
	-webkit-animation: slide 5s linear infinite;
	-webkit-animation-fill-mode: forwards;

	}
	#body .line{
	-webkit-animation: slide2 5s linear infinite;
	-webkit-animation-fill-mode: forwards;

	}
	}
	</style>
<g id="background">
	<rect width="100%" height="100%"/>
</g>
<g id="body">
	<g display="inline">
		<defs>
			<rect id="SVGID_1_" x="16" y="56" width="476" height="53"/>
		</defs>
		<clipPath id="SVGID_2_">
			<use xlink:href="#SVGID_1_"  overflow="visible"/>
		</clipPath>
		<g clip-path="url(#SVGID_2_)">
			<g class="line">
			<rect x="23" y="58" fill="none" width="469" height="407"/>
			<path fill="#FFFFFF" d="M56.656,69.088H45.96V100H34.424V69.088h-10.64V59.4h32.872V69.088z"/>
			<path fill="#FFFFFF" d="M83.2,100H71.664V84.936L57.16,59.4h12.824l7.672,15.344L85.271,59.4h12.376L83.2,84.936V100z"/>
			<path fill="#FFFFFF" d="M113.104,90.256V100h-11.536V59.4h16.576c10.696,0,16.912,5.544,16.912,15.288
				c0,9.912-6.216,15.568-16.912,15.568H113.104z M113.104,67.744v14.168h2.52c5.04,0,7.504-1.904,7.504-7.224
				c0-5.04-2.408-6.944-7.504-6.944H113.104z"/>
			<path fill="#FFFFFF" d="M159.807,58.616c13.104,0,20.608,7.952,20.608,21.056c0,13.16-7.504,21.112-20.608,21.112
				c-13.16,0-20.608-7.952-20.608-21.112C139.199,66.568,146.647,58.616,159.807,58.616z M159.807,92.216
				c5.208,0,8.68-3.976,8.68-12.544c0-8.512-3.472-12.488-8.68-12.488c-5.264,0-8.68,3.976-8.68,12.488
				C151.127,88.24,154.543,92.216,159.807,92.216z"/>
			<path fill="#FFFFFF" d="M206.119,100.784c-13.216,0-20.776-7.896-20.776-21.112c0-13.104,7.84-21.056,21.168-21.056
				c5.096,0,9.744,1.008,13.552,2.296l-2.128,8.736c-3.08-0.84-6.104-1.512-9.576-1.512c-6.776,0-11.088,3.64-11.088,11.872
				c0,8.008,4.088,12.096,11.088,12.096h0.784l-0.616-12.152h11.648v18.704C216.143,100,211.047,100.784,206.119,100.784z"/>
			<path fill="#FFFFFF" d="M242.574,87.456h-3.584V100h-11.536V59.4h16.464c10.64,0,16.52,5.152,16.52,13.944
				c0,5.992-2.52,9.968-7.168,12.152L262.342,100h-13.16L242.574,87.456z M238.99,67.52v11.816h3.304c4.2,0,6.272-1.68,6.272-5.992
				c0-4.144-2.24-5.824-7.112-5.824H238.99z"/>
			<path fill="#FFFFFF" d="M288.941,92.384h-12.208L274.661,100h-11.928l13.608-40.6h13.439l13.552,40.6h-12.319L288.941,92.384z
				 M282.837,69.704l-3.976,14.616h7.896L282.837,69.704z"/>
			<path fill="#FFFFFF" d="M319.013,90.256V100h-11.536V59.4h16.576c10.696,0,16.912,5.544,16.912,15.288
				c0,9.912-6.216,15.568-16.912,15.568H319.013z M319.013,67.744v14.168h2.521c5.04,0,7.504-1.904,7.504-7.224
				c0-5.04-2.408-6.944-7.504-6.944H319.013z"/>
			<path fill="#FFFFFF" d="M372.269,84.88h-13.944V100h-11.536V59.4h11.536v15.624h13.944V59.4h11.479V100h-11.479V84.88z"/>
			<path fill="#FFFFFF" d="M392.036,59.4h11.536V100h-11.536V59.4z"/>
			<path fill="#FFFFFF" d="M430.563,58.616c4.48,0,8.513,0.784,12.097,2.016l-2.129,8.792c-2.575-0.728-5.264-1.176-7.672-1.176
				c-6.271,0-10.64,3.808-10.64,11.424c0,7.728,4.368,11.48,10.64,11.48c2.521,0,5.152-0.448,7.784-1.176l2.128,8.848
				c-3.64,1.232-7.616,1.96-12.208,1.96c-12.487,0-20.384-7.784-20.384-21.112C410.18,66.456,418.076,58.616,430.563,58.616z"/>
			<path fill="#FFFFFF" d="M449.043,89.696c2.856,0.952,6.889,1.904,10.92,1.904c4.704,0,6.44-1.12,6.44-2.968
				c0-1.96-1.344-3.08-6.776-4.536c-9.128-2.52-12.712-6.832-12.712-12.544c0-7.336,6.049-12.936,17.024-12.936
				c4.424,0,9.52,0.84,13.439,2.072l-2.239,8.904c-2.576-0.84-6.44-1.792-10.36-1.792c-4.312,0-5.992,1.232-5.992,3.024
				c0,1.96,1.568,2.968,6.776,4.312c9.912,2.576,13.552,6.776,13.552,13.216c0,7.56-5.712,12.432-17.808,12.432
				c-4.76,0-10.304-0.896-14.225-2.072L449.043,89.696z"/>
			</g>
		</g>
	</g>
	<g display="inline">
		<defs>
			<rect id="SVGID_3_" x="16" y="133" width="476" height="53"/>
		</defs>
		<clipPath id="SVGID_4_">
			<use xlink:href="#SVGID_3_"  overflow="visible"/>
		</clipPath>
		<g clip-path="url(#SVGID_4_)">
			<g class="line">
			<rect x="23" y="58" fill="none" width="469" height="407"/>
			<path fill="#FFFFFF" d="M45.417,161.399H32.165L29.204,170H23.47l12.596-34.073h5.687L54.3,170h-5.875L45.417,161.399z
				 M38.744,142.178l-5.029,14.71h10.151L38.744,142.178z"/>
			<path fill="#FFFFFF" d="M72.161,135.927h11.703c10.386,0,16.59,5.687,16.59,16.919c0,11.373-6.204,17.154-16.59,17.154H72.161
				V135.927z M77.519,140.439v25.049h5.358c7.472,0,12.078-3.29,12.078-12.642c0-9.118-4.559-12.407-12.078-12.407H77.519z"/>
			<path fill="#FFFFFF" d="M108.444,135.927h22.183v4.512h-16.825v10.386h14.851v4.418h-14.851v10.245h17.013V170h-22.371V135.927z"
				/>
			<path fill="#FFFFFF" d="M138.148,164.267c2.443,0.799,5.499,1.691,9.07,1.691c5.733,0,8.177-1.833,8.177-4.747
				c0-2.679-1.833-4.464-7.989-6.109c-7.332-1.974-10.386-5.217-10.386-10.058c0-5.405,4.652-9.681,12.548-9.681
				c3.384,0,6.909,0.658,9.775,1.692l-1.175,4.371c-2.444-0.752-4.981-1.457-8.318-1.457c-5.17,0-7.473,1.974-7.473,4.7
				c0,2.82,2.115,4.512,7.52,5.922c7.942,2.068,10.95,5.311,10.95,10.386c0,5.64-4.559,9.587-12.783,9.587
				c-4.417,0-8.271-0.799-11.138-1.88L138.148,164.267z"/>
			<path fill="#FFFFFF" d="M168.839,135.927h5.358V170h-5.358V135.927z"/>
			<path fill="#FFFFFF" d="M199.294,170.564c-11.044,0-17.107-6.909-17.107-17.718c0-10.575,6.204-17.483,17.201-17.483
				c3.995,0,7.144,0.611,10.246,1.645l-1.316,4.512c-2.491-0.752-5.452-1.457-8.413-1.457c-7.425,0-12.219,4.653-12.219,12.783
				c0,8.506,4.653,13.206,12.125,13.206c1.692,0,3.525-0.188,5.264-0.47l-0.188-8.318h-6.486v-4.512h11.703v16.073
				C206.813,169.906,203.336,170.564,199.294,170.564z"/>
			<path fill="#FFFFFF" d="M241.969,135.927h5.216V170h-4.888l-18.282-24.956V170H218.8v-34.073h4.888l18.282,24.956V135.927z"/>
			<path fill="#FFFFFF" d="M275.574,156.324V170h-5.357v-34.073h21.713v4.512h-16.355v11.467h14.757v4.417H275.574z"/>
			<path fill="#FFFFFF" d="M299.686,135.927h22.183v4.512h-16.825v10.386h14.852v4.418h-14.852v10.245h17.013V170h-22.37V135.927z"
				/>
			<path fill="#FFFFFF" d="M329.39,164.267c2.443,0.799,5.498,1.691,9.07,1.691c5.733,0,8.178-1.833,8.178-4.747
				c0-2.679-1.833-4.464-7.99-6.109c-7.331-1.974-10.386-5.217-10.386-10.058c0-5.405,4.652-9.681,12.548-9.681
				c3.384,0,6.909,0.658,9.775,1.692l-1.175,4.371c-2.443-0.752-4.981-1.457-8.318-1.457c-5.17,0-7.473,1.974-7.473,4.7
				c0,2.82,2.115,4.512,7.52,5.922c7.942,2.068,10.95,5.311,10.95,10.386c0,5.64-4.559,9.587-12.783,9.587
				c-4.418,0-8.271-0.799-11.138-1.88L329.39,164.267z"/>
			<path fill="#FFFFFF" d="M382.263,140.439h-10.527V170h-5.358v-29.561H355.85v-4.512h26.413V140.439z"/>
			<path fill="#FFFFFF" d="M388.374,135.927h5.357V170h-5.357V135.927z"/>
			<path fill="#FFFFFF" d="M411.779,170l-12.407-34.073h5.875l9.493,27.728l9.446-27.728h5.733L417.466,170H411.779z"/>
			<path fill="#FFFFFF" d="M451.213,161.399h-13.254L434.998,170h-5.733l12.596-34.073h5.687L460.095,170h-5.874L451.213,161.399z
				 M444.539,142.178l-5.029,14.71h10.152L444.539,142.178z"/>
			<path fill="#FFFFFF" d="M465.736,135.927h5.357v29.561h15.604V170h-20.961V135.927z"/>
		</g>
	</g>
	</g>
	<g display="inline">
		<defs>
			<rect id="SVGID_5_" x="16" y="202" width="476" height="53"/>
		</defs>
		<clipPath id="SVGID_6_">
			<use xlink:href="#SVGID_5_"  overflow="visible"/>
		</clipPath>
		<g clip-path="url(#SVGID_6_)">
			<g class="line">
			<rect x="23" y="58" fill="none" width="469" height="407"/>
			<path fill="#FFFFFF" d="M33.527,226.324V240H28.17v-34.073h21.712v4.512H33.527v11.467h14.757v4.417H33.527z"/>
			<path fill="#FFFFFF" d="M71.55,205.363c10.01,0,16.261,6.908,16.261,17.483c0,10.762-6.25,17.718-16.261,17.718
				c-10.011,0-16.261-6.956-16.261-17.718C55.289,212.271,61.539,205.363,71.55,205.363z M71.55,235.958
				c6.392,0,10.762-4.841,10.762-13.112c0-8.037-4.324-12.877-10.762-12.877c-6.439,0-10.763,4.841-10.763,12.877
				C60.787,231.117,65.111,235.958,71.55,235.958z"/>
			<path fill="#FFFFFF" d="M107.881,228.251h-6.721V240h-5.357v-34.073h10.292c9.07,0,14.005,4.042,14.005,10.903
				c0,5.499-2.585,8.789-7.002,10.386L121.557,240H115.4L107.881,228.251z M101.16,210.439v13.3h6.062
				c4.747,0,7.426-2.209,7.426-6.909c0-4.089-3.102-6.392-9.541-6.392H101.16z"/>
			<path fill="#FFFFFF" d="M146.655,230.601V240h-5.357v-34.073h10.527c9.07,0,14.475,4.229,14.475,11.984
				c0,8.178-5.404,12.689-14.475,12.689H146.655z M146.655,210.439v15.65h4.183c6.392,0,10.011-2.538,10.011-8.178
				c0-5.075-3.572-7.472-10.011-7.472H146.655z"/>
			<path fill="#FFFFFF" d="M173.821,205.927h22.183v4.512h-16.825v10.386h14.851v4.418h-14.851v10.245h17.013V240h-22.37V205.927z"
				/>
			<path fill="#FFFFFF" d="M218.563,205.363c10.011,0,16.261,6.908,16.261,17.483c0,10.762-6.25,17.718-16.261,17.718
				c-10.01,0-16.261-6.956-16.261-17.718C202.303,212.271,208.553,205.363,218.563,205.363z M218.563,235.958
				c6.392,0,10.763-4.841,10.763-13.112c0-8.037-4.324-12.877-10.763-12.877c-6.438,0-10.762,4.841-10.762,12.877
				C207.801,231.117,212.125,235.958,218.563,235.958z"/>
			<path fill="#FFFFFF" d="M248.174,230.601V240h-5.358v-34.073h10.527c9.07,0,14.476,4.229,14.476,11.984
				c0,8.178-5.405,12.689-14.476,12.689H248.174z M248.174,210.439v15.65h4.183c6.392,0,10.01-2.538,10.01-8.178
				c0-5.075-3.571-7.472-10.01-7.472H248.174z"/>
			<path fill="#FFFFFF" d="M275.34,205.927h5.357v29.561h15.604V240H275.34V205.927z"/>
			<path fill="#FFFFFF" d="M302.411,205.927h22.183v4.512h-16.825v10.386h14.851v4.418h-14.851v10.245h17.013V240h-22.37V205.927z"
				/>
		</g>
	</g>
	</g>
	<g display="inline">
		<defs>
			<rect id="SVGID_7_" x="16" y="272" width="476" height="53"/>
		</defs>
		<clipPath id="SVGID_8_">
			<use xlink:href="#SVGID_7_"  overflow="visible"/>
		</clipPath>
		<g clip-path="url(#SVGID_8_)">
			<g class="line">
			<rect x="23" y="58" fill="none" width="469" height="407"/>
			<path fill="#FFFFFF" d="M46.404,284.34L39.214,310h-5.452L23.47,275.927h5.734l7.425,27.212l7.332-27.212h5.028l7.426,27.118
				l7.332-27.118h5.592L59,310h-5.452L46.404,284.34z"/>
			<path fill="#FFFFFF" d="M98.01,295.196H80.339V310h-5.357v-34.073h5.357v14.758H98.01v-14.758h5.357V310H98.01V295.196z"/>
			<path fill="#FFFFFF" d="M127.62,275.363c10.01,0,16.261,6.908,16.261,17.482c0,10.763-6.25,17.719-16.261,17.719
				c-10.011,0-16.261-6.956-16.261-17.719C111.359,282.271,117.609,275.363,127.62,275.363z M127.62,305.958
				c6.392,0,10.762-4.841,10.762-13.112c0-8.036-4.324-12.877-10.762-12.877c-6.439,0-10.763,4.841-10.763,12.877
				C116.857,301.117,121.181,305.958,127.62,305.958z"/>
			<path fill="#FFFFFF" d="M164.092,275.927h5.358v19.646c0,7.19,2.96,10.386,8.365,10.386s8.365-3.195,8.365-10.386v-19.646h5.358
				v19.927c0,9.964-4.793,14.711-13.723,14.711s-13.723-4.747-13.723-14.711V275.927z"/>
			<path fill="#FFFFFF" d="M200.282,304.267c2.443,0.799,5.499,1.691,9.07,1.691c5.733,0,8.177-1.833,8.177-4.746
				c0-2.679-1.833-4.465-7.989-6.11c-7.332-1.974-10.386-5.217-10.386-10.057c0-5.405,4.652-9.682,12.548-9.682
				c3.384,0,6.909,0.658,9.775,1.691l-1.175,4.371c-2.444-0.752-4.981-1.457-8.318-1.457c-5.17,0-7.473,1.974-7.473,4.7
				c0,2.819,2.115,4.512,7.52,5.921c7.942,2.068,10.95,5.311,10.95,10.387c0,5.64-4.559,9.588-12.783,9.588
				c-4.417,0-8.271-0.8-11.138-1.881L200.282,304.267z"/>
			<path fill="#FFFFFF" d="M230.973,275.927h22.183v4.512h-16.825v10.387h14.851v4.418h-14.851v10.245h17.013V310h-22.371V275.927z"
				/>
			<path fill="#FFFFFF" d="M296.677,280.438h-10.527V310h-5.358v-29.562h-10.527v-4.512h26.413V280.438z"/>
			<path fill="#FFFFFF" d="M315.947,310h-5.357v-13.019l-12.596-21.055h6.156L313.409,292l9.117-16.073h6.016l-12.595,21.055V310z"
				/>
			<path fill="#FFFFFF" d="M339.447,300.601V310h-5.357v-34.073h10.527c9.07,0,14.475,4.23,14.475,11.984
				c0,8.178-5.404,12.689-14.475,12.689H339.447z M339.447,280.438v15.65h4.183c6.392,0,10.011-2.538,10.011-8.178
				c0-5.075-3.572-7.473-10.011-7.473H339.447z"/>
			<path fill="#FFFFFF" d="M366.613,275.927h22.183v4.512h-16.825v10.387h14.852v4.418h-14.852v10.245h17.013V310h-22.37V275.927z"
				/>
		</g>
	</g>
	</g>
	<g display="inline">
		<defs>
			<rect id="SVGID_9_" x="16" y="426" width="476" height="53"/>
		</defs>
		<clipPath id="SVGID_10_">
			<use xlink:href="#SVGID_9_"  overflow="visible"/>
		</clipPath>
		<g clip-path="url(#SVGID_10_)">
			<g class="line">
			<rect x="23" y="58" fill="none" width="469" height="407"/>
			<path fill="#FFFFFF" d="M39.223,435.1h-5.156V450h-5.561v-14.9h-5.128v-4.669h15.845V435.1z"/>
			<path fill="#FFFFFF" d="M53.857,442.712h-6.721V450h-5.561v-19.569h5.561v7.53h6.721v-7.53h5.533V450h-5.533V442.712z"/>
			<path fill="#FFFFFF" d="M63.392,430.431h13.982v4.237h-8.422v3.752h7.369v3.671h-7.369v3.671h8.502V450H63.392V430.431z"/>
			<path fill="#FFFFFF" d="M96.68,430.053c2.159,0,4.103,0.378,5.83,0.972l-1.025,4.237c-1.242-0.351-2.538-0.566-3.698-0.566
				c-3.023,0-5.128,1.835-5.128,5.506c0,3.726,2.105,5.534,5.128,5.534c1.215,0,2.483-0.216,3.752-0.567l1.026,4.266
				c-1.754,0.594-3.671,0.944-5.884,0.944c-6.02,0-9.826-3.752-9.826-10.177C86.854,433.831,90.66,430.053,96.68,430.053z"/>
			<path fill="#FFFFFF" d="M114.364,430.053c6.316,0,9.933,3.833,9.933,10.148c0,6.344-3.617,10.177-9.933,10.177
				c-6.343,0-9.934-3.833-9.934-10.177C104.431,433.886,108.021,430.053,114.364,430.053z M114.364,446.248
				c2.51,0,4.184-1.917,4.184-6.047c0-4.103-1.673-6.019-4.184-6.019c-2.538,0-4.184,1.916-4.184,6.019
				C110.18,444.331,111.827,446.248,114.364,446.248z"/>
			<path fill="#FFFFFF" d="M136.612,430.053c6.316,0,9.933,3.833,9.933,10.148c0,6.344-3.617,10.177-9.933,10.177
				c-6.343,0-9.934-3.833-9.934-10.177C126.678,433.886,130.269,430.053,136.612,430.053z M136.612,446.248
				c2.51,0,4.184-1.917,4.184-6.047c0-4.103-1.673-6.019-4.184-6.019c-2.538,0-4.184,1.916-4.184,6.019
				C132.428,444.331,134.074,446.248,136.612,446.248z"/>
			<path fill="#FFFFFF" d="M155.296,445.304V450h-5.561v-19.569h7.99c5.156,0,8.152,2.672,8.152,7.368
				c0,4.778-2.996,7.505-8.152,7.505H155.296z M155.296,434.452v6.829h1.214c2.43,0,3.617-0.918,3.617-3.482
				c0-2.429-1.161-3.347-3.617-3.347H155.296z"/>
			<path fill="#FFFFFF" d="M168.69,430.431h13.982v4.237h-8.421v3.752h7.369v3.671h-7.369v3.671h8.502V450H168.69V430.431z"/>
			<path fill="#FFFFFF" d="M193.312,443.953h-1.728V450h-5.561v-19.569h7.936c5.128,0,7.962,2.482,7.962,6.721
				c0,2.889-1.214,4.805-3.455,5.857L202.84,450h-6.343L193.312,443.953z M191.584,434.344v5.696h1.592
				c2.024,0,3.023-0.811,3.023-2.889c0-1.997-1.08-2.808-3.428-2.808H191.584z"/>
			<path fill="#FFFFFF" d="M212.078,430.431h5.534v10.932c0,3.212,1.134,4.454,3.266,4.454s3.266-1.242,3.266-4.454v-10.932h5.534
				v11.606c0,5.426-3.078,8.341-8.8,8.341c-5.723,0-8.8-2.915-8.8-8.341V430.431z"/>
			<path fill="#FFFFFF" d="M245.825,430.431h5.506V450h-4.48l-7.801-10.419V450h-5.533v-19.569h4.508l7.801,10.419V430.431z"/>
			<path fill="#FFFFFF" d="M255.332,430.431h5.561V450h-5.561V430.431z"/>
			<path fill="#FFFFFF" d="M274.014,430.053c6.316,0,9.934,3.833,9.934,10.148c0,6.344-3.617,10.177-9.934,10.177
				c-6.344,0-9.934-3.833-9.934-10.177C264.08,433.886,267.67,430.053,274.014,430.053z M274.014,446.248
				c2.511,0,4.184-1.917,4.184-6.047c0-4.103-1.673-6.019-4.184-6.019c-2.537,0-4.184,1.916-4.184,6.019
				C269.83,444.331,271.477,446.248,274.014,446.248z"/>
			<path fill="#FFFFFF" d="M299.447,430.431h5.506V450h-4.48l-7.801-10.419V450h-5.534v-19.569h4.508l7.802,10.419V430.431z"/>
			<path fill="#FFFFFF" d="M320.428,429.081h4.67l-6.748,24.968h-4.67L320.428,429.081z"/>
			<path fill="#FFFFFF" d="M332.525,445.789c0.513,0.108,1.134,0.216,1.619,0.216c1.35,0,2.052-0.54,2.052-2.213v-13.361h5.561
				v13.55c0,4.346-1.755,6.397-6.02,6.397c-1.377,0-2.834-0.243-3.806-0.54L332.525,445.789z"/>
			<path fill="#FFFFFF" d="M345.404,430.431h5.533v10.932c0,3.212,1.134,4.454,3.266,4.454c2.133,0,3.267-1.242,3.267-4.454v-10.932
				h5.533v11.606c0,5.426-3.077,8.341-8.8,8.341c-5.722,0-8.799-2.915-8.799-8.341V430.431z"/>
			<path fill="#FFFFFF" d="M379.15,430.431h5.506V450h-4.48l-7.801-10.419V450h-5.534v-19.569h4.508l7.802,10.419V430.431z"/>
			<path fill="#FFFFFF" d="M388.657,430.431h13.982v4.237h-8.422v3.752h7.369v3.671h-7.369v3.671h8.503V450h-14.063V430.431z"/>
			<path fill="#FFFFFF" d="M415.603,450v-13.982l-2.915,1.161l-1.566-4.076l5.48-2.672h4.534V450H415.603z"/>
			<path fill="#FFFFFF" d="M428.616,450v-13.982l-2.915,1.161l-1.566-4.076l5.48-2.672h4.534V450H428.616z"/>
			<path fill="#FFFFFF" d="M437.823,439.823h13.389v4.347h-13.389V439.823z"/>
			<path fill="#FFFFFF" d="M453.348,450v-3.806l6.127-5.075c2.078-1.7,2.915-2.672,2.915-3.94c0-1.565-1.134-2.483-3.4-2.483
				c-1.566,0-3.32,0.459-4.535,0.998l-1.241-4.184c1.7-0.729,4.13-1.457,6.883-1.457c5.074,0,7.882,2.78,7.882,6.37
				c0,2.591-1.188,4.534-3.752,6.586l-3.077,2.483h7.342V450H453.348z"/>
			<path fill="#FFFFFF" d="M474.434,450v-13.982l-2.915,1.161l-1.566-4.076l5.48-2.672h4.534V450H474.434z"/>
		</g>
	</g>
</g>
</g>
<g id="head">
	<g>
		<defs>
			<rect id="SVGID_11_" x="6" y="175" width="490" height="113"/>
		</defs>
		<clipPath id="SVGID_12_">
			<use xlink:href="#SVGID_11_"  overflow="visible"/>
		</clipPath>
		<g clip-path="url(#SVGID_12_)">
			<g class="line">
			<rect x="17.575" y="-44.5" fill="none" width="471.401" height="408.268"/>
			<path fill="#FFFFFF" d="M20.291,24.443v-38.779c0-20.436,12.311-32.008,33.239-32.008h1.97c20.928,0,33.239,11.572,33.239,32.008
				V0.438H55.746v-17.481h-2.462v35.578h2.462V2.899h32.993v44.935H62.517l-4.924-10.587c-1.6,5.909-4.924,12.434-17.235,12.434
				C26.938,49.681,20.291,41.679,20.291,24.443z"/>
			<path fill="#FFFFFF" d="M91.202-44.497h41.364c18.22,0,30.777,9.233,30.777,28.315v1.97c0,12.68-6.647,20.313-15.881,24.375
				v1.231c4.801,2.585,8.125,6.032,10.464,15.142l5.54,21.298h-33.978l-4.678-30.408h-1.231v30.408H91.202V-44.497z M134.043-12.735
				v-2.462h-14.773v2.462H134.043z"/>
			<path fill="#FFFFFF" d="M173.931-44.497h52.444l9.849,92.331h-35.085V18.165h-2.462v29.669h-34.593L173.931-44.497z
				 M208.155-5.349v-2.462h-16.004v2.462H208.155z"/>
			<path fill="#FFFFFF" d="M237.457-44.497h41.365c18.22,0,30.776,9.603,30.776,29.546v1.97c0,19.943-12.557,29.546-30.776,29.546
				h-8.372v31.27h-32.993V-44.497z M279.067-12.735v-2.462h-13.542v2.462H279.067z"/>
			<path fill="#FFFFFF" d="M379.895-44.497v92.331h-32.992V15.703h-2.463v32.131h-32.992v-92.331h32.992v31.393h2.463v-31.393
				H379.895z"/>
			<path fill="#FFFFFF" d="M382.358-44.497h32.992v92.331h-32.992V-44.497z"/>
			<path fill="#FFFFFF" d="M417.813,17.672v-32.008c0-20.436,12.311-32.008,33.239-32.008h1.969
				c20.929,0,33.239,11.572,33.239,32.008V0.438h-32.992v-17.481h-2.463v37.425h2.463V2.899h32.992v14.773
				c0,20.436-12.311,32.008-33.239,32.008h-1.969C430.124,49.681,417.813,38.108,417.813,17.672z"/>
			<path fill="#FFFFFF" d="M153.495,140.189V101.41c0-20.436,12.311-32.008,33.239-32.008h1.97
				c20.928,0,33.239,11.572,33.239,32.008v14.773H188.95V98.702h-2.462v35.578h2.462v-15.635h32.993v44.935h-26.222l-4.924-10.587
				c-1.601,5.909-4.924,12.434-17.235,12.434C160.143,165.427,153.495,157.425,153.495,140.189z"/>
			<path fill="#FFFFFF" d="M253.706,100.549v2.462h31.516v28.808h-31.516v2.462h31.516v29.3h-60.815V71.249h60.815v29.3H253.706z"/>
			<path fill="#FFFFFF" d="M353.056,100.549h-16.25v63.031h-32.993v-63.031h-16.127v-29.3h65.37V100.549z"/>
			<path fill="#FFFFFF" d="M161.62,250.025v29.3h-59.584v-92.331h32.993v63.031H161.62z"/>
			<path fill="#FFFFFF" d="M193.383,216.294v2.462h31.516v28.808h-31.516v2.462h31.516v29.3h-60.815v-92.331h60.815v29.3H193.383z"
				/>
			<path fill="#FFFFFF" d="M292.732,216.294h-16.25v63.031h-32.993v-63.031h-16.127v-29.3h65.371V216.294z"/>
			<path fill="#FFFFFF" d="M332.375,203.983c0,8.125-1.354,14.403-5.171,22.036l-6.155,12.188h-22.775l8.618-16.373
				c-7.756-2.586-12.312-9.603-12.312-17.851c0-10.465,7.264-18.836,18.836-18.836C325.111,185.147,332.375,193.519,332.375,203.983
				z"/>
			<path fill="#FFFFFF" d="M334.221,246.086v-4.309h16.127v-1.231c-10.218-3.939-16.743-13.172-16.743-26.099
				c0-18.466,14.281-29.3,36.071-29.3c22.897,0,34.839,12.927,34.839,32.624v6.771h-15.512v1.231
				c9.972,3.816,16.128,14.157,16.128,25.853c0,18.959-14.035,29.546-34.348,29.546C346.9,281.172,334.221,269.846,334.221,246.086z
				 M376.446,218.756v-2.462h-14.772v2.462H376.446z M376.446,250.025v-2.462h-14.772v2.462H376.446z"/>
		</g>
	</g>
	</g>
	<g>
		<defs>
			<rect id="SVGID_13_" x="6" y="120" width="490" height="56"/>
		</defs>
		<clipPath id="SVGID_14_">
			<use xlink:href="#SVGID_13_"  overflow="visible"/>
		</clipPath>
		<g clip-path="url(#SVGID_14_)">
			<g class="line">
			<rect x="17.575" y="-107.5" fill="none" width="471.401" height="408.268"/>
			<path fill="#FFFFFF" d="M20.291-38.557v-38.779c0-20.436,12.311-32.008,33.239-32.008h1.97c20.928,0,33.239,11.572,33.239,32.008
				v14.773H55.746v-17.481h-2.462v35.578h2.462v-15.635h32.993v44.935H62.517l-4.924-10.587c-1.6,5.909-4.924,12.434-17.235,12.434
				C26.938-13.319,20.291-21.321,20.291-38.557z"/>
			<path fill="#FFFFFF" d="M91.202-107.497h41.364c18.22,0,30.777,9.233,30.777,28.315v1.97c0,12.68-6.647,20.313-15.881,24.375
				v1.231c4.801,2.585,8.125,6.032,10.464,15.142l5.54,21.298h-33.978l-4.678-30.408h-1.231v30.408H91.202V-107.497z
				 M134.043-75.735v-2.462h-14.773v2.462H134.043z"/>
			<path fill="#FFFFFF" d="M173.931-107.497h52.444l9.849,92.331h-35.085v-29.669h-2.462v29.669h-34.593L173.931-107.497z
				 M208.155-68.349v-2.462h-16.004v2.462H208.155z"/>
			<path fill="#FFFFFF" d="M237.457-107.497h41.365c18.22,0,30.776,9.603,30.776,29.546v1.97c0,19.943-12.557,29.546-30.776,29.546
				h-8.372v31.27h-32.993V-107.497z M279.067-75.735v-2.462h-13.542v2.462H279.067z"/>
			<path fill="#FFFFFF" d="M379.895-107.497v92.331h-32.992v-32.131h-2.463v32.131h-32.992v-92.331h32.992v31.393h2.463v-31.393
				H379.895z"/>
			<path fill="#FFFFFF" d="M382.358-107.497h32.992v92.331h-32.992V-107.497z"/>
			<path fill="#FFFFFF" d="M417.813-45.328v-32.008c0-20.436,12.311-32.008,33.239-32.008h1.969
				c20.929,0,33.239,11.572,33.239,32.008v14.773h-32.992v-17.481h-2.463v37.425h2.463v-17.481h32.992v14.773
				c0,20.436-12.311,32.008-33.239,32.008h-1.969C430.124-13.319,417.813-24.892,417.813-45.328z"/>
			<path fill="#FFFFFF" d="M153.495,77.189V38.41c0-20.436,12.311-32.008,33.239-32.008h1.97c20.928,0,33.239,11.572,33.239,32.008
				v14.773H188.95V35.702h-2.462V71.28h2.462V55.646h32.993v44.935h-26.222l-4.924-10.587c-1.601,5.909-4.924,12.434-17.235,12.434
				C160.143,102.427,153.495,94.425,153.495,77.189z"/>
			<path fill="#FFFFFF" d="M253.706,37.549v2.462h31.516v28.808h-31.516v2.462h31.516v29.3h-60.815V8.249h60.815v29.3H253.706z"/>
			<path fill="#FFFFFF" d="M353.056,37.549h-16.25v63.031h-32.993V37.549h-16.127v-29.3h65.37V37.549z"/>
			<path fill="#FFFFFF" d="M161.62,187.025v29.3h-59.584v-92.331h32.993v63.031H161.62z"/>
			<path fill="#FFFFFF" d="M193.383,153.294v2.462h31.516v28.808h-31.516v2.462h31.516v29.3h-60.815v-92.331h60.815v29.3H193.383z"
				/>
			<path fill="#FFFFFF" d="M292.732,153.294h-16.25v63.031h-32.993v-63.031h-16.127v-29.3h65.371V153.294z"/>
			<path fill="#FFFFFF" d="M332.375,140.983c0,8.125-1.354,14.403-5.171,22.036l-6.155,12.188h-22.775l8.618-16.373
				c-7.756-2.586-12.312-9.603-12.312-17.851c0-10.465,7.264-18.836,18.836-18.836C325.111,122.147,332.375,130.519,332.375,140.983
				z"/>
			<path fill="#FFFFFF" d="M334.221,183.086v-4.309h16.127v-1.231c-10.218-3.939-16.743-13.172-16.743-26.099
				c0-18.466,14.281-29.3,36.071-29.3c22.897,0,34.839,12.927,34.839,32.624v6.771h-15.512v1.231
				c9.972,3.816,16.128,14.157,16.128,25.853c0,18.959-14.035,29.546-34.348,29.546C346.9,218.172,334.221,206.846,334.221,183.086z
				 M376.446,155.756v-2.462h-14.772v2.462H376.446z M376.446,187.025v-2.462h-14.772v2.462H376.446z"/>
		</g>
	</g>
	</g>
	<g>
		<defs>
			<rect id="SVGID_15_" x="6" y="87" width="490" height="27"/>
		</defs>
		<clipPath id="SVGID_16_">
			<use xlink:href="#SVGID_15_"  overflow="visible"/>
		</clipPath>
		<g clip-path="url(#SVGID_16_)">
			<g class="line">
			<rect x="17.575" y="-141.5" fill="none" width="471.401" height="408.268"/>
			<path fill="#FFFFFF" d="M20.291-72.557v-38.779c0-20.436,12.311-32.008,33.239-32.008h1.97c20.928,0,33.239,11.572,33.239,32.008
				v14.773H55.746v-17.481h-2.462v35.578h2.462v-15.635h32.993v44.935H62.517l-4.924-10.587c-1.6,5.909-4.924,12.434-17.235,12.434
				C26.938-47.319,20.291-55.321,20.291-72.557z"/>
			<path fill="#FFFFFF" d="M91.202-141.497h41.364c18.22,0,30.777,9.233,30.777,28.315v1.97c0,12.68-6.647,20.313-15.881,24.375
				v1.231c4.801,2.585,8.125,6.032,10.464,15.142l5.54,21.298h-33.978l-4.678-30.408h-1.231v30.408H91.202V-141.497z
				 M134.043-109.735v-2.462h-14.773v2.462H134.043z"/>
			<path fill="#FFFFFF" d="M173.931-141.497h52.444l9.849,92.331h-35.085v-29.669h-2.462v29.669h-34.593L173.931-141.497z
				 M208.155-102.349v-2.462h-16.004v2.462H208.155z"/>
			<path fill="#FFFFFF" d="M237.457-141.497h41.365c18.22,0,30.776,9.603,30.776,29.546v1.97c0,19.943-12.557,29.546-30.776,29.546
				h-8.372v31.27h-32.993V-141.497z M279.067-109.735v-2.462h-13.542v2.462H279.067z"/>
			<path fill="#FFFFFF" d="M379.895-141.497v92.331h-32.992v-32.131h-2.463v32.131h-32.992v-92.331h32.992v31.393h2.463v-31.393
				H379.895z"/>
			<path fill="#FFFFFF" d="M382.358-141.497h32.992v92.331h-32.992V-141.497z"/>
			<path fill="#FFFFFF" d="M417.813-79.328v-32.008c0-20.436,12.311-32.008,33.239-32.008h1.969
				c20.929,0,33.239,11.572,33.239,32.008v14.773h-32.992v-17.481h-2.463v37.425h2.463v-17.481h32.992v14.773
				c0,20.436-12.311,32.008-33.239,32.008h-1.969C430.124-47.319,417.813-58.892,417.813-79.328z"/>
			<path fill="#FFFFFF" d="M153.495,43.189V4.41c0-20.436,12.311-32.008,33.239-32.008h1.97c20.928,0,33.239,11.572,33.239,32.008
				v14.773H188.95V1.702h-2.462V37.28h2.462V21.646h32.993V66.58h-26.222l-4.924-10.587c-1.601,5.909-4.924,12.434-17.235,12.434
				C160.143,68.427,153.495,60.425,153.495,43.189z"/>
			<path fill="#FFFFFF" d="M253.706,3.549v2.462h31.516v28.808h-31.516v2.462h31.516v29.3h-60.815v-92.331h60.815v29.3H253.706z"/>
			<path fill="#FFFFFF" d="M353.056,3.549h-16.25V66.58h-32.993V3.549h-16.127v-29.3h65.37V3.549z"/>
			<path fill="#FFFFFF" d="M161.62,153.025v29.3h-59.584V89.994h32.993v63.031H161.62z"/>
			<path fill="#FFFFFF" d="M193.383,119.294v2.462h31.516v28.808h-31.516v2.462h31.516v29.3h-60.815V89.994h60.815v29.3H193.383z"/>
			<path fill="#FFFFFF" d="M292.732,119.294h-16.25v63.031h-32.993v-63.031h-16.127v-29.3h65.371V119.294z"/>
			<path fill="#FFFFFF" d="M332.375,106.983c0,8.125-1.354,14.403-5.171,22.036l-6.155,12.188h-22.775l8.618-16.373
				c-7.756-2.586-12.312-9.603-12.312-17.851c0-10.465,7.264-18.836,18.836-18.836C325.111,88.147,332.375,96.519,332.375,106.983z"
				/>
			<path fill="#FFFFFF" d="M334.221,149.086v-4.309h16.127v-1.231c-10.218-3.939-16.743-13.172-16.743-26.099
				c0-18.466,14.281-29.3,36.071-29.3c22.897,0,34.839,12.927,34.839,32.624v6.771h-15.512v1.231
				c9.972,3.816,16.128,14.157,16.128,25.853c0,18.959-14.035,29.546-34.348,29.546C346.9,184.172,334.221,172.846,334.221,149.086z
				 M376.446,121.756v-2.462h-14.772v2.462H376.446z M376.446,153.025v-2.462h-14.772v2.462H376.446z"/>
		</g>
	</g>
	</g>
	<g>
		<defs>
			<rect id="SVGID_17_" x="6" y="68" width="490" height="13"/>
		</defs>
		<clipPath id="SVGID_18_">
			<use xlink:href="#SVGID_17_"  overflow="visible"/>
		</clipPath>
		<g clip-path="url(#SVGID_18_)">
			<g class="line">
			<rect x="17.575" y="-160.5" fill="none" width="471.401" height="408.268"/>
			<path fill="#FFFFFF" d="M20.291-91.557v-38.779c0-20.436,12.311-32.008,33.239-32.008h1.97c20.928,0,33.239,11.572,33.239,32.008
				v14.773H55.746v-17.481h-2.462v35.578h2.462v-15.635h32.993v44.935H62.517l-4.924-10.587c-1.6,5.909-4.924,12.434-17.235,12.434
				C26.938-66.319,20.291-74.321,20.291-91.557z"/>
			<path fill="#FFFFFF" d="M91.202-160.497h41.364c18.22,0,30.777,9.233,30.777,28.315v1.97c0,12.68-6.647,20.313-15.881,24.375
				v1.231c4.801,2.585,8.125,6.032,10.464,15.142l5.54,21.298h-33.978l-4.678-30.408h-1.231v30.408H91.202V-160.497z
				 M134.043-128.735v-2.462h-14.773v2.462H134.043z"/>
			<path fill="#FFFFFF" d="M173.931-160.497h52.444l9.849,92.331h-35.085v-29.669h-2.462v29.669h-34.593L173.931-160.497z
				 M208.155-121.349v-2.462h-16.004v2.462H208.155z"/>
			<path fill="#FFFFFF" d="M237.457-160.497h41.365c18.22,0,30.776,9.603,30.776,29.546v1.97c0,19.943-12.557,29.546-30.776,29.546
				h-8.372v31.27h-32.993V-160.497z M279.067-128.735v-2.462h-13.542v2.462H279.067z"/>
			<path fill="#FFFFFF" d="M379.895-160.497v92.331h-32.992v-32.131h-2.463v32.131h-32.992v-92.331h32.992v31.393h2.463v-31.393
				H379.895z"/>
			<path fill="#FFFFFF" d="M382.358-160.497h32.992v92.331h-32.992V-160.497z"/>
			<path fill="#FFFFFF" d="M417.813-98.328v-32.008c0-20.436,12.311-32.008,33.239-32.008h1.969
				c20.929,0,33.239,11.572,33.239,32.008v14.773h-32.992v-17.481h-2.463v37.425h2.463v-17.481h32.992v14.773
				c0,20.436-12.311,32.008-33.239,32.008h-1.969C430.124-66.319,417.813-77.892,417.813-98.328z"/>
			<path fill="#FFFFFF" d="M153.495,24.189V-14.59c0-20.436,12.311-32.008,33.239-32.008h1.97c20.928,0,33.239,11.572,33.239,32.008
				V0.184H188.95v-17.481h-2.462V18.28h2.462V2.646h32.993V47.58h-26.222l-4.924-10.587c-1.601,5.909-4.924,12.434-17.235,12.434
				C160.143,49.427,153.495,41.425,153.495,24.189z"/>
			<path fill="#FFFFFF" d="M253.706-15.451v2.462h31.516v28.808h-31.516v2.462h31.516v29.3h-60.815v-92.331h60.815v29.3H253.706z"/>
			<path fill="#FFFFFF" d="M353.056-15.451h-16.25V47.58h-32.993v-63.031h-16.127v-29.3h65.37V-15.451z"/>
			<path fill="#FFFFFF" d="M161.62,134.025v29.3h-59.584V70.994h32.993v63.031H161.62z"/>
			<path fill="#FFFFFF" d="M193.383,100.294v2.462h31.516v28.808h-31.516v2.462h31.516v29.3h-60.815V70.994h60.815v29.3H193.383z"/>
			<path fill="#FFFFFF" d="M292.732,100.294h-16.25v63.031h-32.993v-63.031h-16.127v-29.3h65.371V100.294z"/>
			<path fill="#FFFFFF" d="M332.375,87.983c0,8.125-1.354,14.403-5.171,22.036l-6.155,12.188h-22.775l8.618-16.373
				c-7.756-2.586-12.312-9.603-12.312-17.851c0-10.465,7.264-18.836,18.836-18.836C325.111,69.147,332.375,77.519,332.375,87.983z"
				/>
			<path fill="#FFFFFF" d="M334.221,130.086v-4.309h16.127v-1.231c-10.218-3.939-16.743-13.172-16.743-26.099
				c0-18.466,14.281-29.3,36.071-29.3c22.897,0,34.839,12.927,34.839,32.624v6.771h-15.512v1.231
				c9.972,3.816,16.128,14.157,16.128,25.853c0,18.959-14.035,29.546-34.348,29.546C346.9,165.172,334.221,153.846,334.221,130.086z
				 M376.446,102.756v-2.462h-14.772v2.462H376.446z M376.446,134.025v-2.462h-14.772v2.462H376.446z"/>
		</g>
	</g>
</g>
	<g>
		<defs>
			<rect id="SVGID_19_" x="7" y="290" width="490" height="56"/>
		</defs>
		<clipPath id="SVGID_20_">
			<use xlink:href="#SVGID_19_"  overflow="visible"/>
		</clipPath>
		<g clip-path="url(#SVGID_20_)">
			<g class="line">
			<rect x="17.575" y="18" fill="none" width="471.401" height="408.268"/>
			<path fill="#FFFFFF" d="M20.291,86.943V48.165c0-20.436,12.311-32.008,33.239-32.008h1.97c20.928,0,33.239,11.572,33.239,32.008
				v14.773H55.746V45.456h-2.462v35.578h2.462V65.399h32.993v44.935H62.517l-4.924-10.587c-1.6,5.909-4.924,12.434-17.235,12.434
				C26.938,112.181,20.291,104.179,20.291,86.943z"/>
			<path fill="#FFFFFF" d="M91.202,18.003h41.364c18.22,0,30.777,9.233,30.777,28.315v1.97c0,12.68-6.647,20.313-15.881,24.375
				v1.231c4.801,2.585,8.125,6.032,10.464,15.142l5.54,21.298h-33.978l-4.678-30.408h-1.231v30.408H91.202V18.003z M134.043,49.765
				v-2.462h-14.773v2.462H134.043z"/>
			<path fill="#FFFFFF" d="M173.931,18.003h52.444l9.849,92.331h-35.085V80.665h-2.462v29.669h-34.593L173.931,18.003z
				 M208.155,57.151v-2.462h-16.004v2.462H208.155z"/>
			<path fill="#FFFFFF" d="M237.457,18.003h41.365c18.22,0,30.776,9.603,30.776,29.546v1.97c0,19.943-12.557,29.546-30.776,29.546
				h-8.372v31.27h-32.993V18.003z M279.067,49.765v-2.462h-13.542v2.462H279.067z"/>
			<path fill="#FFFFFF" d="M379.895,18.003v92.331h-32.992V78.203h-2.463v32.131h-32.992V18.003h32.992v31.393h2.463V18.003H379.895
				z"/>
			<path fill="#FFFFFF" d="M382.358,18.003h32.992v92.331h-32.992V18.003z"/>
			<path fill="#FFFFFF" d="M417.813,80.172V48.165c0-20.436,12.311-32.008,33.239-32.008h1.969
				c20.929,0,33.239,11.572,33.239,32.008v14.773h-32.992V45.456h-2.463v37.425h2.463V65.399h32.992v14.773
				c0,20.436-12.311,32.008-33.239,32.008h-1.969C430.124,112.181,417.813,100.608,417.813,80.172z"/>
			<path fill="#FFFFFF" d="M153.495,202.689V163.91c0-20.436,12.311-32.008,33.239-32.008h1.97
				c20.928,0,33.239,11.572,33.239,32.008v14.773H188.95v-17.481h-2.462v35.578h2.462v-15.635h32.993v44.935h-26.222l-4.924-10.587
				c-1.601,5.909-4.924,12.434-17.235,12.434C160.143,227.927,153.495,219.925,153.495,202.689z"/>
			<path fill="#FFFFFF" d="M253.706,163.049v2.462h31.516v28.808h-31.516v2.462h31.516v29.3h-60.815v-92.331h60.815v29.3H253.706z"
				/>
			<path fill="#FFFFFF" d="M353.056,163.049h-16.25v63.031h-32.993v-63.031h-16.127v-29.3h65.37V163.049z"/>
			<path fill="#FFFFFF" d="M161.62,312.525v29.3h-59.584v-92.331h32.993v63.031H161.62z"/>
			<path fill="#FFFFFF" d="M193.383,278.794v2.462h31.516v28.808h-31.516v2.462h31.516v29.3h-60.815v-92.331h60.815v29.3H193.383z"
				/>
			<path fill="#FFFFFF" d="M292.732,278.794h-16.25v63.031h-32.993v-63.031h-16.127v-29.3h65.371V278.794z"/>
			<path fill="#FFFFFF" d="M332.375,266.483c0,8.125-1.354,14.403-5.171,22.036l-6.155,12.188h-22.775l8.618-16.373
				c-7.756-2.586-12.312-9.603-12.312-17.851c0-10.465,7.264-18.836,18.836-18.836C325.111,247.647,332.375,256.019,332.375,266.483
				z"/>
			<path fill="#FFFFFF" d="M334.221,308.586v-4.309h16.127v-1.231c-10.218-3.939-16.743-13.172-16.743-26.099
				c0-18.466,14.281-29.3,36.071-29.3c22.897,0,34.839,12.927,34.839,32.624v6.771h-15.512v1.231
				c9.972,3.816,16.128,14.157,16.128,25.853c0,18.959-14.035,29.546-34.348,29.546C346.9,343.672,334.221,332.346,334.221,308.586z
				 M376.446,281.256v-2.462h-14.772v2.462H376.446z M376.446,312.525v-2.462h-14.772v2.462H376.446z"/>
		</g>
	</g>
	</g>
	<g>
		<defs>
			<rect id="SVGID_21_" x="7" y="352" width="490" height="27"/>
		</defs>
		<clipPath id="SVGID_22_">
			<use xlink:href="#SVGID_21_"  overflow="visible"/>
		</clipPath>
		<g clip-path="url(#SVGID_22_)">
			<g class="line">
			<rect x="17.575" y="52" fill="none" width="471.401" height="408.268"/>
			<path fill="#FFFFFF" d="M20.291,120.943V82.165c0-20.436,12.311-32.008,33.239-32.008h1.97c20.928,0,33.239,11.572,33.239,32.008
				v14.773H55.746V79.456h-2.462v35.578h2.462V99.399h32.993v44.935H62.517l-4.924-10.587c-1.6,5.909-4.924,12.434-17.235,12.434
				C26.938,146.181,20.291,138.179,20.291,120.943z"/>
			<path fill="#FFFFFF" d="M91.202,52.003h41.364c18.22,0,30.777,9.233,30.777,28.315v1.97c0,12.68-6.647,20.313-15.881,24.375
				v1.231c4.801,2.585,8.125,6.032,10.464,15.142l5.54,21.298h-33.978l-4.678-30.408h-1.231v30.408H91.202V52.003z M134.043,83.765
				v-2.462h-14.773v2.462H134.043z"/>
			<path fill="#FFFFFF" d="M173.931,52.003h52.444l9.849,92.331h-35.085v-29.669h-2.462v29.669h-34.593L173.931,52.003z
				 M208.155,91.151v-2.462h-16.004v2.462H208.155z"/>
			<path fill="#FFFFFF" d="M237.457,52.003h41.365c18.22,0,30.776,9.603,30.776,29.546v1.97c0,19.943-12.557,29.546-30.776,29.546
				h-8.372v31.27h-32.993V52.003z M279.067,83.765v-2.462h-13.542v2.462H279.067z"/>
			<path fill="#FFFFFF" d="M379.895,52.003v92.331h-32.992v-32.131h-2.463v32.131h-32.992V52.003h32.992v31.393h2.463V52.003
				H379.895z"/>
			<path fill="#FFFFFF" d="M382.358,52.003h32.992v92.331h-32.992V52.003z"/>
			<path fill="#FFFFFF" d="M417.813,114.172V82.165c0-20.436,12.311-32.008,33.239-32.008h1.969
				c20.929,0,33.239,11.572,33.239,32.008v14.773h-32.992V79.456h-2.463v37.425h2.463V99.399h32.992v14.773
				c0,20.436-12.311,32.008-33.239,32.008h-1.969C430.124,146.181,417.813,134.608,417.813,114.172z"/>
			<path fill="#FFFFFF" d="M153.495,236.689V197.91c0-20.436,12.311-32.008,33.239-32.008h1.97
				c20.928,0,33.239,11.572,33.239,32.008v14.773H188.95v-17.481h-2.462v35.578h2.462v-15.635h32.993v44.935h-26.222l-4.924-10.587
				c-1.601,5.909-4.924,12.434-17.235,12.434C160.143,261.927,153.495,253.925,153.495,236.689z"/>
			<path fill="#FFFFFF" d="M253.706,197.049v2.462h31.516v28.808h-31.516v2.462h31.516v29.3h-60.815v-92.331h60.815v29.3H253.706z"
				/>
			<path fill="#FFFFFF" d="M353.056,197.049h-16.25v63.031h-32.993v-63.031h-16.127v-29.3h65.37V197.049z"/>
			<path fill="#FFFFFF" d="M161.62,346.525v29.3h-59.584v-92.331h32.993v63.031H161.62z"/>
			<path fill="#FFFFFF" d="M193.383,312.794v2.462h31.516v28.808h-31.516v2.462h31.516v29.3h-60.815v-92.331h60.815v29.3H193.383z"
				/>
			<path fill="#FFFFFF" d="M292.732,312.794h-16.25v63.031h-32.993v-63.031h-16.127v-29.3h65.371V312.794z"/>
			<path fill="#FFFFFF" d="M332.375,300.483c0,8.125-1.354,14.403-5.171,22.036l-6.155,12.188h-22.775l8.618-16.373
				c-7.756-2.586-12.312-9.603-12.312-17.851c0-10.465,7.264-18.836,18.836-18.836C325.111,281.647,332.375,290.019,332.375,300.483
				z"/>
			<path fill="#FFFFFF" d="M334.221,342.586v-4.309h16.127v-1.231c-10.218-3.939-16.743-13.172-16.743-26.099
				c0-18.466,14.281-29.3,36.071-29.3c22.897,0,34.839,12.927,34.839,32.624v6.771h-15.512v1.231
				c9.972,3.816,16.128,14.157,16.128,25.853c0,18.959-14.035,29.546-34.348,29.546C346.9,377.672,334.221,366.346,334.221,342.586z
				 M376.446,315.256v-2.462h-14.772v2.462H376.446z M376.446,346.525v-2.462h-14.772v2.462H376.446z"/>
		</g>
	</g>
	</g>
	<g>
		<defs>
			<rect id="SVGID_23_" x="7" y="385" width="490" height="13"/>
		</defs>
		<clipPath id="SVGID_24_">
			<use xlink:href="#SVGID_23_"  overflow="visible"/>
		</clipPath>
		<g clip-path="url(#SVGID_24_)">
			<g class="line">
			<rect x="17.575" y="71" fill="none" width="471.401" height="408.268"/>
			<path fill="#FFFFFF" d="M20.291,139.943v-38.779c0-20.436,12.311-32.008,33.239-32.008h1.97
				c20.928,0,33.239,11.572,33.239,32.008v14.773H55.746V98.456h-2.462v35.578h2.462v-15.635h32.993v44.935H62.517l-4.924-10.587
				c-1.6,5.909-4.924,12.434-17.235,12.434C26.938,165.181,20.291,157.179,20.291,139.943z"/>
			<path fill="#FFFFFF" d="M91.202,71.003h41.364c18.22,0,30.777,9.233,30.777,28.315v1.97c0,12.68-6.647,20.313-15.881,24.375
				v1.231c4.801,2.585,8.125,6.032,10.464,15.142l5.54,21.298h-33.978l-4.678-30.408h-1.231v30.408H91.202V71.003z M134.043,102.765
				v-2.462h-14.773v2.462H134.043z"/>
			<path fill="#FFFFFF" d="M173.931,71.003h52.444l9.849,92.331h-35.085v-29.669h-2.462v29.669h-34.593L173.931,71.003z
				 M208.155,110.151v-2.462h-16.004v2.462H208.155z"/>
			<path fill="#FFFFFF" d="M237.457,71.003h41.365c18.22,0,30.776,9.603,30.776,29.546v1.97c0,19.943-12.557,29.546-30.776,29.546
				h-8.372v31.27h-32.993V71.003z M279.067,102.765v-2.462h-13.542v2.462H279.067z"/>
			<path fill="#FFFFFF" d="M379.895,71.003v92.331h-32.992v-32.131h-2.463v32.131h-32.992V71.003h32.992v31.393h2.463V71.003
				H379.895z"/>
			<path fill="#FFFFFF" d="M382.358,71.003h32.992v92.331h-32.992V71.003z"/>
			<path fill="#FFFFFF" d="M417.813,133.172v-32.008c0-20.436,12.311-32.008,33.239-32.008h1.969
				c20.929,0,33.239,11.572,33.239,32.008v14.773h-32.992V98.456h-2.463v37.425h2.463v-17.481h32.992v14.773
				c0,20.436-12.311,32.008-33.239,32.008h-1.969C430.124,165.181,417.813,153.608,417.813,133.172z"/>
			<path fill="#FFFFFF" d="M153.495,255.689V216.91c0-20.436,12.311-32.008,33.239-32.008h1.97
				c20.928,0,33.239,11.572,33.239,32.008v14.773H188.95v-17.481h-2.462v35.578h2.462v-15.635h32.993v44.935h-26.222l-4.924-10.587
				c-1.601,5.909-4.924,12.434-17.235,12.434C160.143,280.927,153.495,272.925,153.495,255.689z"/>
			<path fill="#FFFFFF" d="M253.706,216.049v2.462h31.516v28.808h-31.516v2.462h31.516v29.3h-60.815v-92.331h60.815v29.3H253.706z"
				/>
			<path fill="#FFFFFF" d="M353.056,216.049h-16.25v63.031h-32.993v-63.031h-16.127v-29.3h65.37V216.049z"/>
			<path fill="#FFFFFF" d="M161.62,365.525v29.3h-59.584v-92.331h32.993v63.031H161.62z"/>
			<path fill="#FFFFFF" d="M193.383,331.794v2.462h31.516v28.808h-31.516v2.462h31.516v29.3h-60.815v-92.331h60.815v29.3H193.383z"
				/>
			<path fill="#FFFFFF" d="M292.732,331.794h-16.25v63.031h-32.993v-63.031h-16.127v-29.3h65.371V331.794z"/>
			<path fill="#FFFFFF" d="M332.375,319.483c0,8.125-1.354,14.403-5.171,22.036l-6.155,12.188h-22.775l8.618-16.373
				c-7.756-2.586-12.312-9.603-12.312-17.851c0-10.465,7.264-18.836,18.836-18.836C325.111,300.647,332.375,309.019,332.375,319.483
				z"/>
			<path fill="#FFFFFF" d="M334.221,361.586v-4.309h16.127v-1.231c-10.218-3.939-16.743-13.172-16.743-26.099
				c0-18.466,14.281-29.3,36.071-29.3c22.897,0,34.839,12.927,34.839,32.624v6.771h-15.512v1.231
				c9.972,3.816,16.128,14.157,16.128,25.853c0,18.959-14.035,29.546-34.348,29.546C346.9,396.672,334.221,385.346,334.221,361.586z
				 M376.446,334.256v-2.462h-14.772v2.462H376.446z M376.446,365.525v-2.462h-14.772v2.462H376.446z"/>
		</g>
	</g>
	</g>

</g>
</svg>
