<?xml version="1.0" encoding="utf-8"?>
<!-- Generator: Adobe Illustrator 16.0.0, SVG Export Plug-In . SVG Version: 6.00 Build 0)  -->
<!DOCTYPE svg PUBLIC "-//W3C//DTD SVG 1.1//EN" "http://www.w3.org/Graphics/SVG/1.1/DTD/svg11.dtd">
<svg version="1.1" xmlns="http://www.w3.org/2000/svg" xmlns:xlink="http://www.w3.org/1999/xlink" x="0px" y="0px" width="1500px"
	 height="250px" viewBox="0 0 1500 250" enable-background="new 0 0 1500 250" xml:space="preserve">
	 <style>
	@keyframes slide {
	0% {
		transform: translate(0px, -119.5px);
		opacity:0;
	}
	5% {
		transform: translate(0px, 0px);
		opacity:1;
	}
	15% {
		transform: translate(0px, 0px);
	}
	20% {
		transform: translate(0px, 119.5px);
	}
	30% {
	 transform: translate(0px, 119.5px);
	}
	35% {
	 transform: translate(0px, 239px);
	}
	45% {
	 transform: translate(0px, 239px);
	 opacity:1;
	}
	50% {
	 transform: translate(0px, 358.5px);
	 opacity:0;
	}
	100%{
	transform: translate(0px, 358.5px);
	opacity:0;
	}
	}
	@keyframes slide2 {
		0% {
			transform: translate(0px,  -200.5px);
		}
	 45% {
			transform: translate(0px,  -200.5px);
			opacity:0
		}
	 50% {
			transform: translate(0px, 0px);
			opacity:1
		}
		65% {
				transform: translate(0px, 0px);
				opacity:1
			}
		70%{
		transform: translate(0px,  100px);
		opacity:0;
		}
	 100% {
	 transform: translate(0px,  100px);
		 opacity:0;
	 }
	}
	@keyframes slide3 {
		0% {
			transform: translate(0px,  -85.5px);
		}
	 65% {
			transform: translate(0px,  -85.5px);
		}
	 70% {
			transform: translate(0px, 0px);
		}
		90% {
				transform: translate(0px, 0px);
				opacity:1
			}
			95%{
			transform: translate(0px,  0px);
			opacity:0;
			}
		 100% {
		 transform: translate(0px,  0px);
			 opacity:0;
		 }
	}
	svg{
	background-color:black;
	}
	#head .line{
	-webkit-animation: slide 7s linear infinite;
	-webkit-animation-fill-mode: forwards;

	}
	#banner .line{
	-webkit-animation: slide2 7s linear infinite;
	-webkit-animation-fill-mode: forwards;
	}
	#body .line{
	-webkit-animation: slide3 7s linear infinite;
	-webkit-animation-fill-mode: forwards;
	}

	}
	</style>
<g id="background">
	<rect width="1500" height="250"/>
</g>
<g id="banner">
	<g display="inline">
		<defs>
			<rect id="SVGID_1_" x="92" y="54" width="1325" height="148"/>
		</defs>
		<clipPath id="SVGID_2_">
			<use xlink:href="#SVGID_1_"  overflow="visible"/>
		</clipPath>
		<g clip-path="url(#SVGID_2_)">
			<g class="line">
			<rect x="114.559" y="59.039" fill="none" width="1306.123" height="1133.463"/>
			<path fill="#FFFFFF" d="M208.291,89.915h-29.788v86.09h-32.128v-86.09h-29.632V62.934h91.548V89.915z"/>
			<path fill="#FFFFFF" d="M282.212,176.005h-32.127v-41.953l-40.394-71.118h35.715l21.367,42.733l21.21-42.733h34.467
				l-40.238,71.118V176.005z"/>
			<path fill="#FFFFFF" d="M365.491,148.868v27.137h-32.128V62.934h46.164c29.789,0,47.1,15.44,47.1,42.577
				c0,27.605-17.312,43.357-47.1,43.357H365.491z M365.491,86.172v39.458h7.018c14.037,0,20.898-5.303,20.898-20.119
				c0-14.036-6.706-19.339-20.898-19.339H365.491z"/>
			<path fill="#FFFFFF" d="M495.558,60.75c36.495,0,57.394,22.146,57.394,58.641c0,36.65-20.899,58.797-57.394,58.797
				c-36.65,0-57.393-22.146-57.393-58.797C438.165,82.896,458.907,60.75,495.558,60.75z M495.558,154.326
				c14.504,0,24.174-11.073,24.174-34.935c0-23.706-9.669-34.779-24.174-34.779c-14.66,0-24.174,11.073-24.174,34.779
				C471.384,143.253,480.897,154.326,495.558,154.326z"/>
			<path fill="#FFFFFF" d="M624.531,178.188c-36.807,0-57.861-21.99-57.861-58.797c0-36.495,21.834-58.641,58.953-58.641
				c14.192,0,27.137,2.807,37.743,6.394l-5.927,24.33c-8.578-2.339-17-4.211-26.669-4.211c-18.871,0-30.88,10.137-30.88,33.063
				c0,22.303,11.385,33.688,30.88,33.688h2.184l-1.716-33.843h32.44v52.09C652.448,176.005,638.255,178.188,624.531,178.188z"/>
			<path fill="#FFFFFF" d="M726.055,141.07h-9.981v34.935h-32.128V62.934h45.852c29.633,0,46.009,14.349,46.009,38.834
				c0,16.688-7.019,27.76-19.963,33.843l25.266,40.394h-36.651L726.055,141.07z M716.074,85.548v32.908h9.202
				c11.697,0,17.467-4.679,17.467-16.688c0-11.541-6.238-16.22-19.807-16.22H716.074z"/>
			<path fill="#FFFFFF" d="M855.186,154.794h-33.999l-5.771,21.211h-33.22l37.898-113.071h37.431l37.742,113.071h-34.312
				L855.186,154.794z M838.186,91.63l-11.072,40.706h21.99L838.186,91.63z"/>
			<path fill="#FFFFFF" d="M938.932,148.868v27.137h-32.128V62.934h46.164c29.788,0,47.101,15.44,47.101,42.577
				c0,27.605-17.312,43.357-47.101,43.357H938.932z M938.932,86.172v39.458h7.019c14.036,0,20.898-5.303,20.898-20.119
				c0-14.036-6.706-19.339-20.898-19.339H938.932z"/>
			<path fill="#FFFFFF" d="M1087.245,133.896h-38.834v42.109h-32.128V62.934h32.128v43.513h38.834V62.934h31.972v113.071h-31.972
				V133.896z"/>
			<path fill="#FFFFFF" d="M1142.295,62.934h32.128v113.071h-32.128V62.934z"/>
			<path fill="#FFFFFF" d="M1249.592,60.75c12.477,0,23.706,2.183,33.688,5.614l-5.927,24.486
				c-7.174-2.027-14.66-3.275-21.366-3.275c-17.468,0-29.633,10.605-29.633,31.816c0,21.522,12.165,31.972,29.633,31.972
				c7.018,0,14.348-1.248,21.678-3.275l5.927,24.642c-10.138,3.432-21.21,5.459-33.999,5.459c-34.779,0-56.77-21.679-56.77-58.797
				C1192.822,82.585,1214.812,60.75,1249.592,60.75z"/>
			<path fill="#FFFFFF" d="M1301.055,147.309c7.954,2.651,19.184,5.303,30.412,5.303c13.101,0,17.936-3.12,17.936-8.267
				c0-5.458-3.743-8.577-18.871-12.633c-25.422-7.018-35.403-19.027-35.403-34.935c0-20.431,16.844-36.027,47.412-36.027
				c12.321,0,26.514,2.339,37.431,5.771l-6.238,24.797c-7.175-2.339-17.936-4.991-28.853-4.991c-12.009,0-16.688,3.431-16.688,8.422
				c0,5.459,4.367,8.266,18.872,12.009c27.604,7.174,37.742,18.871,37.742,36.807c0,21.055-15.908,34.623-49.596,34.623
				c-13.257,0-28.696-2.495-39.613-5.771L1301.055,147.309z"/>
		</g>
	</g>
	</g>
</g>
<g id="body">
	<g display="inline">
		<defs>
			<rect id="SVGID_3_" x="92" y="61" width="1329" height="65"/>
		</defs>
		<clipPath id="SVGID_4_">
			<use xlink:href="#SVGID_3_"  overflow="visible"/>
		</clipPath>
		<g clip-path="url(#SVGID_4_)">
			<g class="line">
			<rect x="79.012" y="-22.388" fill="none" width="1342.108" height="499.033"/>
			<path fill="#FFFFFF" d="M122.626,93.336h-14.871l-3.322,9.65H98l14.133-38.232h6.381l14.08,38.232h-6.592L122.626,93.336z
				 M115.138,71.768l-5.643,16.506h11.391L115.138,71.768z"/>
			<path fill="#FFFFFF" d="M152.625,64.754h13.131c11.654,0,18.615,6.381,18.615,18.984c0,12.762-6.961,19.248-18.615,19.248
				h-13.131V64.754z M158.637,69.816v28.107h6.012c8.385,0,13.553-3.691,13.553-14.186c0-10.23-5.115-13.922-13.553-13.922H158.637z
				"/>
			<path fill="#FFFFFF" d="M193.33,64.754h24.891v5.062h-18.879v11.654h16.664v4.957h-16.664v11.496h19.09v5.062H193.33V64.754z"/>
			<path fill="#FFFFFF" d="M226.652,96.553c2.742,0.896,6.17,1.898,10.178,1.898c6.434,0,9.176-2.057,9.176-5.326
				c0-3.006-2.057-5.01-8.965-6.855c-8.227-2.215-11.654-5.854-11.654-11.285c0-6.064,5.221-10.863,14.08-10.863
				c3.797,0,7.752,0.738,10.969,1.898l-1.318,4.904c-2.742-0.844-5.59-1.635-9.334-1.635c-5.801,0-8.385,2.215-8.385,5.273
				c0,3.164,2.373,5.062,8.438,6.645c8.912,2.32,12.287,5.959,12.287,11.654c0,6.328-5.115,10.758-14.344,10.758
				c-4.957,0-9.281-0.896-12.498-2.109L226.652,96.553z"/>
			<path fill="#FFFFFF" d="M261.083,64.754h6.012v38.232h-6.012V64.754z"/>
			<path fill="#FFFFFF" d="M295.252,103.619c-12.393,0-19.195-7.752-19.195-19.881c0-11.865,6.961-19.617,19.301-19.617
				c4.482,0,8.016,0.686,11.496,1.846l-1.477,5.062c-2.795-0.844-6.117-1.635-9.439-1.635c-8.332,0-13.711,5.221-13.711,14.344
				c0,9.545,5.221,14.818,13.605,14.818c1.898,0,3.955-0.211,5.906-0.527l-0.211-9.334h-7.277v-5.062h13.131v18.035
				C303.69,102.881,299.788,103.619,295.252,103.619z"/>
			<path fill="#FFFFFF" d="M343.129,64.754h5.854v38.232h-5.484l-20.514-28.002v28.002h-5.854V64.754h5.484l20.514,28.002V64.754z"
				/>
			<path fill="#FFFFFF" d="M380.825,87.641v15.346h-6.012V64.754h24.363v5.062h-18.352v12.867h16.559v4.957H380.825z"/>
			<path fill="#FFFFFF" d="M407.873,64.754h24.891v5.062h-18.879v11.654h16.664v4.957h-16.664v11.496h19.09v5.062h-25.102V64.754z"
				/>
			<path fill="#FFFFFF" d="M441.196,96.553c2.742,0.896,6.17,1.898,10.178,1.898c6.434,0,9.176-2.057,9.176-5.326
				c0-3.006-2.057-5.01-8.965-6.855c-8.227-2.215-11.654-5.854-11.654-11.285c0-6.064,5.221-10.863,14.08-10.863
				c3.797,0,7.752,0.738,10.969,1.898l-1.318,4.904c-2.742-0.844-5.59-1.635-9.334-1.635c-5.801,0-8.385,2.215-8.385,5.273
				c0,3.164,2.373,5.062,8.438,6.645c8.912,2.32,12.287,5.959,12.287,11.654c0,6.328-5.115,10.758-14.344,10.758
				c-4.957,0-9.281-0.896-12.498-2.109L441.196,96.553z"/>
			<path fill="#FFFFFF" d="M500.517,69.816h-11.812v33.17h-6.012v-33.17H470.88v-5.062h29.637V69.816z"/>
			<path fill="#FFFFFF" d="M507.368,64.754h6.012v38.232h-6.012V64.754z"/>
			<path fill="#FFFFFF" d="M533.627,102.986l-13.922-38.232h6.592l10.652,31.113l10.6-31.113h6.434l-13.975,38.232H533.627z"/>
			<path fill="#FFFFFF" d="M577.867,93.336h-14.871l-3.322,9.65h-6.434l14.133-38.232h6.381l14.08,38.232h-6.592L577.867,93.336z
				 M570.378,71.768l-5.643,16.506h11.391L570.378,71.768z"/>
			<path fill="#FFFFFF" d="M594.156,64.754h6.012v33.17h17.508v5.062h-23.52V64.754z"/>
			<path fill="#FFFFFF" d="M643.72,87.641v15.346h-6.012V64.754h24.363v5.062H643.72v12.867h16.559v4.957H643.72z"/>
			<path fill="#FFFFFF" d="M686.377,64.121c11.232,0,18.246,7.752,18.246,19.617c0,12.076-7.014,19.881-18.246,19.881
				s-18.246-7.805-18.246-19.881C668.131,71.873,675.145,64.121,686.377,64.121z M686.377,98.451
				c7.172,0,12.076-5.432,12.076-14.713c0-9.018-4.852-14.449-12.076-14.449s-12.076,5.432-12.076,14.449
				C674.301,93.02,679.152,98.451,686.377,98.451z"/>
			<path fill="#FFFFFF" d="M727.134,89.803h-7.541v13.184h-6.012V64.754h11.549c10.178,0,15.715,4.535,15.715,12.234
				c0,6.17-2.9,9.861-7.857,11.654l9.492,14.344h-6.908L727.134,89.803z M719.593,69.816V84.74h6.803
				c5.326,0,8.332-2.479,8.332-7.752c0-4.588-3.48-7.172-10.705-7.172H719.593z"/>
			<path fill="#FFFFFF" d="M770.633,92.439v10.547h-6.012V64.754h11.812c10.178,0,16.242,4.746,16.242,13.447
				c0,9.176-6.064,14.238-16.242,14.238H770.633z M770.633,69.816v17.561h4.693c7.172,0,11.232-2.848,11.232-9.176
				c0-5.695-4.008-8.385-11.232-8.385H770.633z"/>
			<path fill="#FFFFFF" d="M801.107,64.754h24.891v5.062h-18.879v11.654h16.664v4.957h-16.664v11.496h19.09v5.062h-25.102V64.754z"
				/>
			<path fill="#FFFFFF" d="M851.306,64.121c11.232,0,18.246,7.752,18.246,19.617c0,12.076-7.014,19.881-18.246,19.881
				s-18.246-7.805-18.246-19.881C833.06,71.873,840.073,64.121,851.306,64.121z M851.306,98.451c7.172,0,12.076-5.432,12.076-14.713
				c0-9.018-4.852-14.449-12.076-14.449s-12.076,5.432-12.076,14.449C839.229,93.02,844.081,98.451,851.306,98.451z"/>
			<path fill="#FFFFFF" d="M884.522,92.439v10.547h-6.012V64.754h11.812c10.178,0,16.242,4.746,16.242,13.447
				c0,9.176-6.064,14.238-16.242,14.238H884.522z M884.522,69.816v17.561h4.693c7.172,0,11.232-2.848,11.232-9.176
				c0-5.695-4.008-8.385-11.232-8.385H884.522z"/>
			<path fill="#FFFFFF" d="M914.997,64.754h6.012v33.17h17.508v5.062h-23.52V64.754z"/>
			<path fill="#FFFFFF" d="M945.367,64.754h24.891v5.062h-18.879v11.654h16.664v4.957h-16.664v11.496h19.09v5.062h-25.102V64.754z"
				/>
			<path fill="#FFFFFF" d="M1014.652,74.193l-8.068,28.793h-6.117l-11.549-38.232h6.434l8.332,30.533l8.227-30.533h5.643
				l8.332,30.428l8.227-30.428h6.275l-11.602,38.232h-6.117L1014.652,74.193z"/>
			<path fill="#FFFFFF" d="M1072.547,86.375h-19.828v16.611h-6.012V64.754h6.012v16.559h19.828V64.754h6.012v38.232h-6.012V86.375z"
				/>
			<path fill="#FFFFFF" d="M1105.763,64.121c11.232,0,18.246,7.752,18.246,19.617c0,12.076-7.014,19.881-18.246,19.881
				s-18.246-7.805-18.246-19.881C1087.517,71.873,1094.53,64.121,1105.763,64.121z M1105.763,98.451
				c7.172,0,12.076-5.432,12.076-14.713c0-9.018-4.852-14.449-12.076-14.449s-12.076,5.432-12.076,14.449
				C1093.687,93.02,1098.538,98.451,1105.763,98.451z"/>
			<path fill="#FFFFFF" d="M1146.676,64.754h6.012v22.043c0,8.068,3.322,11.654,9.387,11.654s9.387-3.586,9.387-11.654V64.754h6.012
				v22.359c0,11.18-5.379,16.506-15.398,16.506s-15.398-5.326-15.398-16.506V64.754z"/>
			<path fill="#FFFFFF" d="M1187.275,96.553c2.742,0.896,6.17,1.898,10.178,1.898c6.434,0,9.176-2.057,9.176-5.326
				c0-3.006-2.057-5.01-8.965-6.855c-8.227-2.215-11.654-5.854-11.654-11.285c0-6.064,5.221-10.863,14.08-10.863
				c3.797,0,7.752,0.738,10.969,1.898l-1.318,4.904c-2.742-0.844-5.59-1.635-9.334-1.635c-5.801,0-8.385,2.215-8.385,5.273
				c0,3.164,2.373,5.062,8.438,6.645c8.912,2.32,12.287,5.959,12.287,11.654c0,6.328-5.115,10.758-14.344,10.758
				c-4.957,0-9.281-0.896-12.498-2.109L1187.275,96.553z"/>
			<path fill="#FFFFFF" d="M1221.706,64.754h24.891v5.062h-18.879v11.654h16.664v4.957h-16.664v11.496h19.09v5.062h-25.102V64.754z"
				/>
			<path fill="#FFFFFF" d="M1295.421,69.816h-11.812v33.17h-6.012v-33.17h-11.812v-5.062h29.637V69.816z"/>
			<path fill="#FFFFFF" d="M1317.037,102.986h-6.012V88.379l-14.133-23.625h6.908l10.389,18.035l10.23-18.035h6.75l-14.133,23.625
				V102.986z"/>
			<path fill="#FFFFFF" d="M1343.398,92.439v10.547h-6.012V64.754h11.812c10.178,0,16.242,4.746,16.242,13.447
				c0,9.176-6.064,14.238-16.242,14.238H1343.398z M1343.398,69.816v17.561h4.693c7.172,0,11.232-2.848,11.232-9.176
				c0-5.695-4.008-8.385-11.232-8.385H1343.398z"/>
			<path fill="#FFFFFF" d="M1373.873,64.754h24.891v5.062h-18.879v11.654h16.664v4.957h-16.664v11.496h19.09v5.062h-25.102V64.754z"
				/>
		</g>
	</g>
	</g>
	<g display="inline">
		<defs>
			<rect id="SVGID_5_" x="88" y="144" width="1292" height="65"/>
		</defs>
		<clipPath id="SVGID_6_">
			<use xlink:href="#SVGID_5_"  overflow="visible"/>
		</clipPath>
		<g clip-path="url(#SVGID_6_)">
			<g class="line">
			<rect x="97.636" y="-281.503" fill="none" width="1228.078" height="499.033"/>
			<path fill="#FFFFFF" d="M122.085,155.691h-7.77v22.455h-8.38v-22.455h-7.729v-7.038h23.879V155.691z"/>
			<path fill="#FFFFFF" d="M144.13,167.163h-10.129v10.983h-8.38v-29.493h8.38v11.35h10.129v-11.35h8.339v29.493h-8.339V167.163z"/>
			<path fill="#FFFFFF" d="M158.486,148.653h21.072v6.387h-12.692v5.654h11.106v5.533h-11.106v5.532h12.814v6.387h-21.194V148.653z"
				/>
			<path fill="#FFFFFF" d="M208.64,148.084c3.255,0,6.184,0.569,8.787,1.465l-1.546,6.387c-1.871-0.529-3.824-0.854-5.573-0.854
				c-4.556,0-7.729,2.767-7.729,8.299c0,5.613,3.173,8.339,7.729,8.339c1.831,0,3.743-0.325,5.655-0.854l1.546,6.427
				c-2.645,0.896-5.533,1.424-8.869,1.424c-9.071,0-14.807-5.654-14.807-15.336C193.833,153.779,199.568,148.084,208.64,148.084z"/>
			<path fill="#FFFFFF" d="M235.282,148.084c9.519,0,14.97,5.776,14.97,15.296c0,9.56-5.451,15.336-14.97,15.336
				c-9.56,0-14.97-5.776-14.97-15.336C220.312,153.86,225.722,148.084,235.282,148.084z M235.282,172.492
				c3.783,0,6.305-2.889,6.305-9.112c0-6.184-2.522-9.072-6.305-9.072c-3.824,0-6.306,2.889-6.306,9.072
				C228.977,169.604,231.458,172.492,235.282,172.492z"/>
			<path fill="#FFFFFF" d="M268.798,148.084c9.519,0,14.97,5.776,14.97,15.296c0,9.56-5.451,15.336-14.97,15.336
				c-9.56,0-14.97-5.776-14.97-15.336C253.828,153.86,259.238,148.084,268.798,148.084z M268.798,172.492
				c3.783,0,6.305-2.889,6.305-9.112c0-6.184-2.522-9.072-6.305-9.072c-3.824,0-6.306,2.889-6.306,9.072
				C262.492,169.604,264.974,172.492,268.798,172.492z"/>
			<path fill="#FFFFFF" d="M296.943,171.068v7.078h-8.38v-29.493h12.042c7.77,0,12.285,4.027,12.285,11.105
				c0,7.201-4.516,11.31-12.285,11.31H296.943z M296.943,154.715v10.292h1.831c3.661,0,5.451-1.383,5.451-5.248
				c0-3.661-1.749-5.044-5.451-5.044H296.943z"/>
			<path fill="#FFFFFF" d="M317.117,148.653h21.072v6.387h-12.692v5.654h11.106v5.533h-11.106v5.532h12.814v6.387h-21.194V148.653z"
				/>
			<path fill="#FFFFFF" d="M354.214,169.034h-2.604v9.112h-8.38v-29.493h11.96c7.729,0,12,3.743,12,10.13
				c0,4.353-1.831,7.24-5.207,8.827l6.59,10.536h-9.56L354.214,169.034z M351.61,154.552v8.584h2.4c3.051,0,4.556-1.221,4.556-4.353
				c0-3.011-1.627-4.231-5.167-4.231H351.61z"/>
			<path fill="#FFFFFF" d="M382.481,148.653h8.339v16.476c0,4.841,1.708,6.712,4.922,6.712s4.922-1.871,4.922-6.712v-16.476h8.339
				v17.492c0,8.177-4.638,12.57-13.262,12.57s-13.262-4.394-13.262-12.57V148.653z"/>
			<path fill="#FFFFFF" d="M433.327,148.653h8.298v29.493h-6.752l-11.757-15.702v15.702h-8.339v-29.493h6.793l11.757,15.703V148.653
				z"/>
			<path fill="#FFFFFF" d="M447.642,148.653h8.38v29.493h-8.38V148.653z"/>
			<path fill="#FFFFFF" d="M475.791,148.084c9.519,0,14.97,5.776,14.97,15.296c0,9.56-5.451,15.336-14.97,15.336
				c-9.56,0-14.97-5.776-14.97-15.336C460.82,153.86,466.23,148.084,475.791,148.084z M475.791,172.492
				c3.783,0,6.305-2.889,6.305-9.112c0-6.184-2.522-9.072-6.305-9.072c-3.824,0-6.306,2.889-6.306,9.072
				C469.485,169.604,471.966,172.492,475.791,172.492z"/>
			<path fill="#FFFFFF" d="M514.106,148.653h8.298v29.493h-6.752l-11.757-15.702v15.702h-8.339v-29.493h6.793l11.757,15.703V148.653
				z"/>
			<path fill="#FFFFFF" d="M545.709,146.619h7.038l-10.17,37.629h-7.038L545.709,146.619z"/>
			<path fill="#FFFFFF" d="M584.433,148.653h8.298v29.493h-6.752l-11.757-15.702v15.702h-8.339v-29.493h6.793l11.757,15.703V148.653
				z"/>
			<path fill="#FFFFFF" d="M598.748,148.653h21.072v6.387h-12.692v5.654h11.105v5.533h-11.105v5.532h12.814v6.387h-21.194V148.653z"
				/>
			<path fill="#FFFFFF" d="M643.248,161.549l-4.149,16.598h-8.665l-8.583-29.493h9.194l3.742,20.95l4.922-20.95h7.404l4.922,20.95
				l3.702-20.95h8.909l-8.625,29.493h-8.624L643.248,161.549z"/>
			<path fill="#FFFFFF" d="M692.22,178.146h-8.38v-10.943l-10.536-18.55h9.315l5.573,11.146l5.533-11.146h8.99l-10.496,18.55
				V178.146z"/>
			<path fill="#FFFFFF" d="M718.089,148.084c9.519,0,14.97,5.776,14.97,15.296c0,9.56-5.451,15.336-14.97,15.336
				c-9.56,0-14.97-5.776-14.97-15.336C703.119,153.86,708.529,148.084,718.089,148.084z M718.089,172.492
				c3.783,0,6.305-2.889,6.305-9.112c0-6.184-2.522-9.072-6.305-9.072c-3.824,0-6.306,2.889-6.306,9.072
				C711.784,169.604,714.265,172.492,718.089,172.492z"/>
			<path fill="#FFFFFF" d="M748.839,169.034h-2.604v9.112h-8.38v-29.493h11.96c7.729,0,12,3.743,12,10.13
				c0,4.353-1.83,7.24-5.207,8.827l6.59,10.536h-9.56L748.839,169.034z M746.235,154.552v8.584h2.4c3.051,0,4.556-1.221,4.556-4.353
				c0-3.011-1.627-4.231-5.167-4.231H746.235z"/>
			<path fill="#FFFFFF" d="M775.276,164.926v13.221h-8.38v-29.493h8.38v13.872l9.112-13.872h9.641l-10.617,14.971l11.105,14.522
				H784.47L775.276,164.926z"/>
			<path fill="#FFFFFF" d="M821.442,148.084c3.254,0,6.183,0.569,8.786,1.465l-1.545,6.387c-1.872-0.529-3.824-0.854-5.573-0.854
				c-4.557,0-7.729,2.767-7.729,8.299c0,5.613,3.173,8.339,7.729,8.339c1.83,0,3.742-0.325,5.654-0.854l1.546,6.427
				c-2.645,0.896-5.532,1.424-8.868,1.424c-9.072,0-14.808-5.654-14.808-15.336C806.635,153.779,812.37,148.084,821.442,148.084z"/>
			<path fill="#FFFFFF" d="M834.741,148.653h8.38v29.493h-8.38V148.653z"/>
			<path fill="#FFFFFF" d="M870.577,155.691h-7.77v22.455h-8.38v-22.455h-7.729v-7.038h23.879V155.691z"/>
			<path fill="#FFFFFF" d="M889.857,178.146h-8.381v-10.943l-10.536-18.55h9.316l5.573,11.146l5.532-11.146h8.99l-10.495,18.55
				V178.146z"/>
			<path fill="#FFFFFF" d="M918.858,146.619h7.037l-10.17,37.629h-7.037L918.858,146.619z"/>
			<path fill="#FFFFFF" d="M937.079,171.801c0.773,0.162,1.709,0.325,2.44,0.325c2.034,0,3.092-0.813,3.092-3.336v-20.137h8.381
				v20.422c0,6.549-2.645,9.641-9.072,9.641c-2.074,0-4.271-0.366-5.735-0.813L937.079,171.801z"/>
			<path fill="#FFFFFF" d="M956.481,148.653h8.339v16.476c0,4.841,1.709,6.712,4.923,6.712c3.213,0,4.922-1.871,4.922-6.712v-16.476
				h8.339v17.492c0,8.177-4.637,12.57-13.261,12.57c-8.625,0-13.262-4.394-13.262-12.57V148.653z"/>
			<path fill="#FFFFFF" d="M1007.327,148.653h8.299v29.493h-6.753l-11.757-15.702v15.702h-8.339v-29.493h6.793l11.757,15.703
				V148.653z"/>
			<path fill="#FFFFFF" d="M1021.643,148.653h21.072v6.387h-12.692v5.654h11.105v5.533h-11.105v5.532h12.813v6.387h-21.193V148.653z
				"/>
			<path fill="#FFFFFF" d="M1062.236,178.146v-21.072l-4.394,1.749l-2.359-6.143l8.258-4.027h6.834v29.493H1062.236z"/>
			<path fill="#FFFFFF" d="M1081.842,178.146v-21.072l-4.394,1.749l-2.359-6.143l8.258-4.027h6.834v29.493H1081.842z"/>
			<path fill="#FFFFFF" d="M1095.711,162.811h20.177v6.549h-20.177V162.811z"/>
			<path fill="#FFFFFF" d="M1119.098,178.146v-5.736l9.234-7.647c3.133-2.562,4.394-4.027,4.394-5.939
				c0-2.359-1.708-3.742-5.126-3.742c-2.359,0-5.003,0.691-6.834,1.505l-1.871-6.306c2.562-1.098,6.224-2.196,10.373-2.196
				c7.648,0,11.879,4.19,11.879,9.601c0,3.905-1.79,6.834-5.654,9.926l-4.638,3.742h11.064v6.794H1119.098z"/>
			<path fill="#FFFFFF" d="M1150.866,178.146v-21.072l-4.394,1.749l-2.359-6.143l8.258-4.027h6.834v29.493H1150.866z"/>
		</g>
	</g>
</g>
</g>
<g id="head">
	<g>
		<defs>
			<rect id="SVGID_7_" x="140" y="72" width="1171" height="107"/>
		</defs>
		<clipPath id="SVGID_8_">
			<use xlink:href="#SVGID_7_"  overflow="visible"/>
		</clipPath>
		<g clip-path="url(#SVGID_8_)">
			<g class="line">
			<rect x="152.704" y="-163.967" fill="none" width="1186.92" height="423.047"/>
			<path fill="#FFFFFF" d="M216.57-92.527v-40.183c0-21.176,12.757-33.167,34.442-33.167h2.041
				c21.686,0,34.442,11.991,34.442,33.167v15.308h-34.188v-18.114h-2.551v36.866h2.551v-16.201h34.188v46.561h-27.171l-5.103-10.97
				c-1.658,6.123-5.103,12.884-17.859,12.884C223.459-66.377,216.57-74.669,216.57-92.527z"/>
			<path fill="#FFFFFF" d="M290.049-163.963h42.861c18.879,0,31.891,9.566,31.891,29.339v2.041c0,13.14-6.889,21.048-16.456,25.258
				v1.275c4.975,2.679,8.419,6.251,10.843,15.69l5.74,22.068h-35.208l-4.847-31.508h-1.276v31.508h-33.549V-163.963z
				 M334.44-131.052v-2.552h-15.308v2.552H334.44z"/>
			<path fill="#FFFFFF" d="M375.773-163.963h54.342l10.205,95.672h-36.356v-30.742h-2.551v30.742h-35.845L375.773-163.963z
				 M411.235-123.398v-2.551h-16.583v2.551H411.235z"/>
			<path fill="#FFFFFF" d="M441.599-163.963h42.861c18.879,0,31.891,9.949,31.891,30.615v2.041
				c0,20.665-13.012,30.615-31.891,30.615h-8.675v32.4h-34.187V-163.963z M484.715-131.052v-2.552h-14.032v2.552H484.715z"/>
			<path fill="#FFFFFF" d="M589.192-163.963v95.672h-34.188v-33.294h-2.551v33.294h-34.188v-95.672h34.188v32.528h2.551v-32.528
				H589.192z"/>
			<path fill="#FFFFFF" d="M591.745-163.963h34.187v95.672h-34.187V-163.963z"/>
			<path fill="#FFFFFF" d="M628.484-99.544v-33.166c0-21.176,12.756-33.167,34.442-33.167h2.041
				c21.686,0,34.442,11.991,34.442,33.167v15.308h-34.187v-18.114h-2.552v38.779h2.552v-18.114h34.187v15.308
				c0,21.176-12.756,33.167-34.442,33.167h-2.041C641.24-66.377,628.484-78.368,628.484-99.544z"/>
			<path fill="#FFFFFF" d="M789.216-98.65v30.359h-61.74v-95.672h34.187v65.312H789.216z"/>
			<path fill="#FFFFFF" d="M822.13-133.604v2.552h32.656v29.85H822.13v2.552h32.656v30.359H791.77v-95.672h63.017v30.359H822.13z"/>
			<path fill="#FFFFFF" d="M925.075-133.604h-16.838v65.312H874.05v-65.312h-16.711v-30.359h67.736V-133.604z"/>
			<path fill="#FFFFFF" d="M966.153-146.359c0,8.419-1.403,14.925-5.357,22.834l-6.378,12.629h-23.6l8.93-16.967
				c-8.037-2.679-12.757-9.949-12.757-18.496c0-10.843,7.526-19.518,19.518-19.518C958.627-165.877,966.153-157.202,966.153-146.359
				z"/>
			<path fill="#FFFFFF" d="M968.066-102.732v-4.465h16.711v-1.276c-10.588-4.082-17.349-13.648-17.349-27.043
				c0-19.135,14.798-30.36,37.376-30.36c23.727,0,36.101,13.395,36.101,33.805v7.016h-16.073v1.275
				c10.333,3.955,16.711,14.67,16.711,26.789c0,19.645-14.542,30.615-35.59,30.615C981.206-66.377,968.066-78.113,968.066-102.732z
				 M1011.821-131.052v-2.552h-15.308v2.552H1011.821z M1011.821-98.65v-2.552h-15.308v2.552H1011.821z"/>
			<path fill="#FFFFFF" d="M1068.972-92.527v-40.183c0-21.176,12.757-33.167,34.442-33.167h2.041
				c21.686,0,34.442,11.991,34.442,33.167v15.308h-34.188v-18.114h-2.551v36.866h2.551v-16.201h34.188v46.561h-27.171l-5.103-10.97
				c-1.659,6.123-5.103,12.884-17.859,12.884C1075.86-66.377,1068.972-74.669,1068.972-92.527z"/>
			<path fill="#FFFFFF" d="M1172.811-133.604v2.552h32.656v29.85h-32.656v2.552h32.656v30.359h-63.017v-95.672h63.017v30.359
				H1172.811z"/>
			<path fill="#FFFFFF" d="M1275.756-133.604h-16.838v65.312h-34.188v-65.312h-16.711v-30.359h67.736V-133.604z"/>
			<path fill="#FFFFFF" d="M216.57,27.409v-40.183c0-21.176,12.757-33.167,34.442-33.167h2.041
				c21.686,0,34.442,11.991,34.442,33.167V2.534h-34.188V-15.58h-2.551v36.866h2.551V5.085h34.188v46.561h-27.171l-5.103-10.97
				c-1.658,6.123-5.103,12.884-17.859,12.884C223.459,53.56,216.57,45.268,216.57,27.409z"/>
			<path fill="#FFFFFF" d="M320.409-13.667v2.552h32.656v29.85h-32.656v2.552h32.656v30.359h-63.016v-95.672h63.016v30.359H320.409z
				"/>
			<path fill="#FFFFFF" d="M423.354-13.667h-16.838v65.312h-34.187v-65.312h-16.71v-30.359h67.736V-13.667z"/>
			<path fill="#FFFFFF" d="M451.421,27.409v-40.183c0-21.176,12.756-33.167,34.442-33.167h2.041
				c21.686,0,34.442,11.991,34.442,33.167V2.534h-34.187V-15.58h-2.552v36.866h2.552V5.085h34.187v46.561h-27.171l-5.103-10.97
				c-1.658,6.123-5.103,12.884-17.859,12.884C458.309,53.56,451.421,45.268,451.421,27.409z"/>
			<path fill="#FFFFFF" d="M524.898-44.026h42.861c18.88,0,31.891,9.566,31.891,29.339v2.041c0,13.14-6.888,21.048-16.456,25.258
				v1.275c4.975,2.679,8.419,6.251,10.843,15.69l5.74,22.068h-35.208l-4.847-31.508h-1.276v31.508h-33.549V-44.026z M569.291-11.115
				v-2.552h-15.308v2.552H569.291z"/>
			<path fill="#FFFFFF" d="M610.623-44.026h54.342l10.205,95.672h-36.355V20.903h-2.551v30.742h-35.845L610.623-44.026z
				 M646.086-3.462v-2.551h-16.583v2.551H646.086z"/>
			<path fill="#FFFFFF" d="M676.448-44.026h42.861c18.88,0,31.892,9.949,31.892,30.615v2.041c0,20.665-13.012,30.615-31.892,30.615
				h-8.674v32.4h-34.188V-44.026z M719.565-11.115v-2.552h-14.032v2.552H719.565z"/>
			<path fill="#FFFFFF" d="M824.043-44.026v95.672h-34.188V18.352h-2.551v33.294h-34.188v-95.672h34.188v32.528h2.551v-32.528
				H824.043z"/>
			<path fill="#FFFFFF" d="M826.596-44.026h34.188v95.672h-34.188V-44.026z"/>
			<path fill="#FFFFFF" d="M863.335,20.393v-33.166c0-21.176,12.757-33.167,34.442-33.167h2.041
				c21.686,0,34.442,11.991,34.442,33.167V2.534h-34.188V-15.58h-2.551v38.779h2.551V5.085h34.188v15.308
				c0,21.176-12.757,33.167-34.442,33.167h-2.041C876.092,53.56,863.335,41.568,863.335,20.393z"/>
			<path fill="#FFFFFF" d="M1024.068,21.286v30.359h-61.741v-95.672h34.188v65.312H1024.068z"/>
			<path fill="#FFFFFF" d="M1056.981-13.667v2.552h32.656v29.85h-32.656v2.552h32.656v30.359h-63.017v-95.672h63.017v30.359
				H1056.981z"/>
			<path fill="#FFFFFF" d="M1159.927-13.667h-16.838v65.312h-34.188v-65.312h-16.711v-30.359h67.736V-13.667z"/>
			<path fill="#FFFFFF" d="M1201.005-26.423c0,8.419-1.403,14.925-5.357,22.834L1189.27,9.04h-23.6l8.93-16.967
				c-8.037-2.679-12.757-9.949-12.757-18.496c0-10.843,7.526-19.518,19.518-19.518C1193.479-45.94,1201.005-37.266,1201.005-26.423z
				"/>
			<path fill="#FFFFFF" d="M1202.918,17.204v-4.465h16.711v-1.276c-10.588-4.082-17.349-13.648-17.349-27.043
				c0-19.135,14.798-30.36,37.376-30.36c23.727,0,36.101,13.395,36.101,33.805v7.016h-16.073v1.275
				c10.333,3.955,16.711,14.67,16.711,26.789c0,19.645-14.542,30.615-35.59,30.615C1216.058,53.56,1202.918,41.823,1202.918,17.204z
				 M1246.673-11.115v-2.552h-15.308v2.552H1246.673z M1246.673,21.286v-2.552h-15.308v2.552H1246.673z"/>
			<path fill="#FFFFFF" d="M278.312,141.222v30.36H216.57V75.909h34.188v65.312H278.312z"/>
			<path fill="#FFFFFF" d="M311.225,106.27v2.551h32.656v29.851h-32.656v2.551h32.656v30.36h-63.016V75.909h63.016v30.36H311.225z"
				/>
			<path fill="#FFFFFF" d="M414.17,106.27h-16.838v65.312h-34.187V106.27h-16.71v-30.36h67.736V106.27z"/>
			<path fill="#FFFFFF" d="M455.248,93.513c0,8.42-1.403,14.925-5.357,22.834l-6.378,12.629h-23.599l8.929-16.966
				c-8.037-2.679-12.756-9.95-12.756-18.497c0-10.843,7.526-19.517,19.518-19.517C447.722,73.996,455.248,82.67,455.248,93.513z"/>
			<path fill="#FFFFFF" d="M457.161,137.14v-4.465h16.711v-1.275c-10.588-4.082-17.349-13.649-17.349-27.044
				c0-19.134,14.797-30.359,37.376-30.359C517.626,73.996,530,87.39,530,107.8v7.017h-16.073v1.275
				c10.333,3.954,16.71,14.67,16.71,26.788c0,19.646-14.542,30.615-35.59,30.615C470.3,173.495,457.161,161.76,457.161,137.14z
				 M500.916,108.82v-2.551h-15.308v2.551H500.916z M500.916,141.222v-2.551h-15.308v2.551H500.916z"/>
			<path fill="#FFFFFF" d="M558.066,147.345v-40.183c0-21.176,12.756-33.166,34.442-33.166h2.041
				c21.686,0,34.442,11.99,34.442,33.166v15.308h-34.187v-18.114h-2.552v36.866h2.552v-16.2h34.187v46.561H601.82l-5.103-10.971
				c-1.658,6.123-5.103,12.884-17.859,12.884C564.955,173.495,558.066,165.204,558.066,147.345z"/>
			<path fill="#FFFFFF" d="M661.904,106.27v2.551h32.656v29.851h-32.656v2.551h32.656v30.36h-63.017V75.909h63.017v30.36H661.904z"
				/>
			<path fill="#FFFFFF" d="M764.85,106.27h-16.838v65.312h-34.187V106.27h-16.711v-30.36h67.736V106.27z"/>
			<path fill="#FFFFFF" d="M792.917,147.345v-40.183c0-21.176,12.757-33.166,34.442-33.166h2.041
				c21.686,0,34.442,11.99,34.442,33.166v15.308h-34.188v-18.114h-2.551v36.866h2.551v-16.2h34.188v46.561h-27.171l-5.103-10.971
				c-1.659,6.123-5.103,12.884-17.859,12.884C799.806,173.495,792.917,165.204,792.917,147.345z"/>
			<path fill="#FFFFFF" d="M866.396,75.909h42.861c18.88,0,31.892,9.567,31.892,29.34v2.041c0,13.139-6.889,21.048-16.456,25.258
				v1.275c4.975,2.679,8.419,6.251,10.843,15.69l5.74,22.068h-35.207l-4.848-31.508h-1.275v31.508h-33.55V75.909z M910.788,108.82
				v-2.551H895.48v2.551H910.788z"/>
			<path fill="#FFFFFF" d="M952.12,75.909h54.342l10.205,95.673h-36.355v-30.743h-2.551v30.743h-35.846L952.12,75.909z
				 M987.583,116.475v-2.552H971v2.552H987.583z"/>
			<path fill="#FFFFFF" d="M1017.945,75.909h42.861c18.88,0,31.891,9.95,31.891,30.615v2.041c0,20.665-13.011,30.615-31.891,30.615
				h-8.674v32.401h-34.188V75.909z M1061.062,108.82v-2.551h-14.032v2.551H1061.062z"/>
			<path fill="#FFFFFF" d="M1165.54,75.909v95.673h-34.188v-33.294h-2.551v33.294h-34.188V75.909h34.188v32.528h2.551V75.909
				H1165.54z"/>
			<path fill="#FFFFFF" d="M1168.093,75.909h34.188v95.673h-34.188V75.909z"/>
			<path fill="#FFFFFF" d="M1204.832,140.329v-33.167c0-21.176,12.757-33.166,34.442-33.166h2.041
				c21.686,0,34.442,11.99,34.442,33.166v15.308h-34.188v-18.114h-2.551v38.78h2.551v-18.114h34.188v15.308
				c0,21.176-12.757,33.166-34.442,33.166h-2.041C1217.589,173.495,1204.832,161.505,1204.832,140.329z"/>
		</g>
	</g>
	</g>
	<g>
		<defs>
			<rect id="SVGID_9_" x="140" y="34" width="1199" height="29"/>
		</defs>
		<clipPath id="SVGID_10_">
			<use xlink:href="#SVGID_9_"  overflow="visible"/>
		</clipPath>
		<g clip-path="url(#SVGID_10_)">
			<g class="line">
			<rect x="152.704" y="-202.204" fill="none" width="1186.92" height="423.049"/>
			<path fill="#FFFFFF" d="M216.57-130.765v-40.183c0-21.176,12.757-33.167,34.442-33.167h2.041
				c21.686,0,34.442,11.991,34.442,33.167v15.308h-34.188v-18.114h-2.551v36.866h2.551v-16.201h34.188v46.561h-27.171l-5.103-10.97
				c-1.658,6.123-5.103,12.884-17.859,12.884C223.459-104.614,216.57-112.906,216.57-130.765z"/>
			<path fill="#FFFFFF" d="M290.049-202.2h42.861c18.879,0,31.891,9.567,31.891,29.339v2.041c0,13.139-6.889,21.048-16.456,25.257
				v1.276c4.975,2.679,8.419,6.25,10.843,15.69l5.74,22.068h-35.208l-4.847-31.508h-1.276v31.508h-33.549V-202.2z M334.44-169.289
				v-2.551h-15.308v2.551H334.44z"/>
			<path fill="#FFFFFF" d="M375.773-202.2h54.342l10.205,95.672h-36.356v-30.743h-2.551v30.743h-35.845L375.773-202.2z
				 M411.235-161.635v-2.551h-16.583v2.551H411.235z"/>
			<path fill="#FFFFFF" d="M441.599-202.2h42.861c18.879,0,31.891,9.95,31.891,30.615v2.041c0,20.665-13.012,30.615-31.891,30.615
				h-8.675v32.401h-34.187V-202.2z M484.715-169.289v-2.551h-14.032v2.551H484.715z"/>
			<path fill="#FFFFFF" d="M589.192-202.2v95.672h-34.188v-33.294h-2.551v33.294h-34.188V-202.2h34.188v32.528h2.551V-202.2H589.192
				z"/>
			<path fill="#FFFFFF" d="M591.745-202.2h34.187v95.672h-34.187V-202.2z"/>
			<path fill="#FFFFFF" d="M628.484-137.781v-33.167c0-21.176,12.756-33.167,34.442-33.167h2.041
				c21.686,0,34.442,11.991,34.442,33.167v15.308h-34.187v-18.114h-2.552v38.779h2.552v-18.114h34.187v15.308
				c0,21.175-12.756,33.167-34.442,33.167h-2.041C641.24-104.614,628.484-116.605,628.484-137.781z"/>
			<path fill="#FFFFFF" d="M789.216-136.888v30.36h-61.74V-202.2h34.187v65.312H789.216z"/>
			<path fill="#FFFFFF" d="M822.13-171.84v2.551h32.656v29.85H822.13v2.552h32.656v30.36H791.77V-202.2h63.017v30.36H822.13z"/>
			<path fill="#FFFFFF" d="M925.075-171.84h-16.838v65.312H874.05v-65.312h-16.711v-30.36h67.736V-171.84z"/>
			<path fill="#FFFFFF" d="M966.153-184.597c0,8.419-1.403,14.925-5.357,22.834l-6.378,12.629h-23.6l8.93-16.966
				c-8.037-2.679-12.757-9.95-12.757-18.497c0-10.843,7.526-19.517,19.518-19.517C958.627-204.114,966.153-195.439,966.153-184.597z
				"/>
			<path fill="#FFFFFF" d="M968.066-140.97v-4.465h16.711v-1.276c-10.588-4.082-17.349-13.649-17.349-27.043
				c0-19.134,14.798-30.36,37.376-30.36c23.727,0,36.101,13.394,36.101,33.804v7.016h-16.073v1.275
				c10.333,3.955,16.711,14.67,16.711,26.789c0,19.645-14.542,30.615-35.59,30.615C981.206-104.614,968.066-116.35,968.066-140.97z
				 M1011.821-169.289v-2.551h-15.308v2.551H1011.821z M1011.821-136.888v-2.552h-15.308v2.552H1011.821z"/>
			<path fill="#FFFFFF" d="M1068.972-130.765v-40.183c0-21.176,12.757-33.167,34.442-33.167h2.041
				c21.686,0,34.442,11.991,34.442,33.167v15.308h-34.188v-18.114h-2.551v36.866h2.551v-16.201h34.188v46.561h-27.171l-5.103-10.97
				c-1.659,6.123-5.103,12.884-17.859,12.884C1075.86-104.614,1068.972-112.906,1068.972-130.765z"/>
			<path fill="#FFFFFF" d="M1172.811-171.84v2.551h32.656v29.85h-32.656v2.552h32.656v30.36h-63.017V-202.2h63.017v30.36H1172.811z"
				/>
			<path fill="#FFFFFF" d="M1275.756-171.84h-16.838v65.312h-34.188v-65.312h-16.711v-30.36h67.736V-171.84z"/>
			<path fill="#FFFFFF" d="M216.57-10.828v-40.183c0-21.176,12.757-33.167,34.442-33.167h2.041
				c21.686,0,34.442,11.991,34.442,33.167v15.308h-34.188v-18.114h-2.551v36.866h2.551v-16.201h34.188v46.561h-27.171l-5.103-10.97
				c-1.658,6.123-5.103,12.884-17.859,12.884C223.459,15.322,216.57,7.03,216.57-10.828z"/>
			<path fill="#FFFFFF" d="M320.409-51.904v2.551h32.656v29.85h-32.656v2.552h32.656v30.36h-63.016v-95.672h63.016v30.36H320.409z"
				/>
			<path fill="#FFFFFF" d="M423.354-51.904h-16.838v65.312h-34.187v-65.312h-16.71v-30.36h67.736V-51.904z"/>
			<path fill="#FFFFFF" d="M451.421-10.828v-40.183c0-21.176,12.756-33.167,34.442-33.167h2.041
				c21.686,0,34.442,11.991,34.442,33.167v15.308h-34.187v-18.114h-2.552v36.866h2.552v-16.201h34.187v46.561h-27.171l-5.103-10.97
				c-1.658,6.123-5.103,12.884-17.859,12.884C458.309,15.322,451.421,7.03,451.421-10.828z"/>
			<path fill="#FFFFFF" d="M524.898-82.264h42.861c18.88,0,31.891,9.567,31.891,29.339v2.041c0,13.139-6.888,21.048-16.456,25.257
				v1.276c4.975,2.679,8.419,6.25,10.843,15.69l5.74,22.068h-35.208L559.724-18.1h-1.276v31.508h-33.549V-82.264z M569.291-49.353
				v-2.551h-15.308v2.551H569.291z"/>
			<path fill="#FFFFFF" d="M610.623-82.264h54.342l10.205,95.672h-36.355v-30.743h-2.551v30.743h-35.845L610.623-82.264z
				 M646.086-41.699v-2.551h-16.583v2.551H646.086z"/>
			<path fill="#FFFFFF" d="M676.448-82.264h42.861c18.88,0,31.892,9.95,31.892,30.615v2.041c0,20.665-13.012,30.615-31.892,30.615
				h-8.674v32.401h-34.188V-82.264z M719.565-49.353v-2.551h-14.032v2.551H719.565z"/>
			<path fill="#FFFFFF" d="M824.043-82.264v95.672h-34.188v-33.294h-2.551v33.294h-34.188v-95.672h34.188v32.528h2.551v-32.528
				H824.043z"/>
			<path fill="#FFFFFF" d="M826.596-82.264h34.188v95.672h-34.188V-82.264z"/>
			<path fill="#FFFFFF" d="M863.335-17.844v-33.167c0-21.176,12.757-33.167,34.442-33.167h2.041
				c21.686,0,34.442,11.991,34.442,33.167v15.308h-34.188v-18.114h-2.551v38.779h2.551v-18.114h34.188v15.308
				c0,21.175-12.757,33.167-34.442,33.167h-2.041C876.092,15.322,863.335,3.331,863.335-17.844z"/>
			<path fill="#FFFFFF" d="M1024.068-16.951v30.36h-61.741v-95.672h34.188v65.312H1024.068z"/>
			<path fill="#FFFFFF" d="M1056.981-51.904v2.551h32.656v29.85h-32.656v2.552h32.656v30.36h-63.017v-95.672h63.017v30.36H1056.981z
				"/>
			<path fill="#FFFFFF" d="M1159.927-51.904h-16.838v65.312h-34.188v-65.312h-16.711v-30.36h67.736V-51.904z"/>
			<path fill="#FFFFFF" d="M1201.005-64.66c0,8.419-1.403,14.925-5.357,22.834l-6.378,12.629h-23.6l8.93-16.966
				c-8.037-2.679-12.757-9.95-12.757-18.497c0-10.843,7.526-19.517,19.518-19.517C1193.479-84.177,1201.005-75.503,1201.005-64.66z"
				/>
			<path fill="#FFFFFF" d="M1202.918-21.033v-4.465h16.711v-1.276c-10.588-4.082-17.349-13.649-17.349-27.043
				c0-19.134,14.798-30.36,37.376-30.36c23.727,0,36.101,13.394,36.101,33.804v7.016h-16.073v1.275
				c10.333,3.955,16.711,14.67,16.711,26.789c0,19.645-14.542,30.615-35.59,30.615C1216.058,15.322,1202.918,3.586,1202.918-21.033z
				 M1246.673-49.353v-2.551h-15.308v2.551H1246.673z M1246.673-16.951v-2.552h-15.308v2.552H1246.673z"/>
			<path fill="#FFFFFF" d="M278.312,102.984v30.36H216.57V37.672h34.188v65.312H278.312z"/>
			<path fill="#FFFFFF" d="M311.225,68.032v2.551h32.656v29.85h-32.656v2.551h32.656v30.36h-63.016V37.672h63.016v30.36H311.225z"/>
			<path fill="#FFFFFF" d="M414.17,68.032h-16.838v65.312h-34.187V68.032h-16.71v-30.36h67.736V68.032z"/>
			<path fill="#FFFFFF" d="M455.248,55.276c0,8.419-1.403,14.925-5.357,22.834l-6.378,12.628h-23.599l8.929-16.966
				c-8.037-2.679-12.756-9.95-12.756-18.497c0-10.843,7.526-19.517,19.518-19.517C447.722,35.759,455.248,44.433,455.248,55.276z"/>
			<path fill="#FFFFFF" d="M457.161,98.902v-4.464h16.711v-1.276c-10.588-4.082-17.349-13.649-17.349-27.043
				c0-19.134,14.797-30.36,37.376-30.36c23.727,0,36.101,13.394,36.101,33.804v7.016h-16.073v1.275
				c10.333,3.955,16.71,14.67,16.71,26.789c0,19.645-14.542,30.615-35.59,30.615C470.3,135.258,457.161,123.522,457.161,98.902z
				 M500.916,70.583v-2.551h-15.308v2.551H500.916z M500.916,102.984v-2.551h-15.308v2.551H500.916z"/>
			<path fill="#FFFFFF" d="M558.066,109.107V68.925c0-21.176,12.756-33.167,34.442-33.167h2.041
				c21.686,0,34.442,11.991,34.442,33.167v15.308h-34.187V66.119h-2.552v36.866h2.552v-16.2h34.187v46.561H601.82l-5.103-10.971
				c-1.658,6.123-5.103,12.884-17.859,12.884C564.955,135.258,558.066,126.967,558.066,109.107z"/>
			<path fill="#FFFFFF" d="M661.904,68.032v2.551h32.656v29.85h-32.656v2.551h32.656v30.36h-63.017V37.672h63.017v30.36H661.904z"/>
			<path fill="#FFFFFF" d="M764.85,68.032h-16.838v65.312h-34.187V68.032h-16.711v-30.36h67.736V68.032z"/>
			<path fill="#FFFFFF" d="M792.917,109.107V68.925c0-21.176,12.757-33.167,34.442-33.167h2.041
				c21.686,0,34.442,11.991,34.442,33.167v15.308h-34.188V66.119h-2.551v36.866h2.551v-16.2h34.188v46.561h-27.171l-5.103-10.971
				c-1.659,6.123-5.103,12.884-17.859,12.884C799.806,135.258,792.917,126.967,792.917,109.107z"/>
			<path fill="#FFFFFF" d="M866.396,37.672h42.861c18.88,0,31.892,9.567,31.892,29.34v2.041c0,13.139-6.889,21.048-16.456,25.258
				v1.275c4.975,2.679,8.419,6.25,10.843,15.69l5.74,22.068h-35.207l-4.848-31.508h-1.275v31.508h-33.55V37.672z M910.788,70.583
				v-2.551H895.48v2.551H910.788z"/>
			<path fill="#FFFFFF" d="M952.12,37.672h54.342l10.205,95.673h-36.355v-30.743h-2.551v30.743h-35.846L952.12,37.672z
				 M987.583,78.237v-2.551H971v2.551H987.583z"/>
			<path fill="#FFFFFF" d="M1017.945,37.672h42.861c18.88,0,31.891,9.95,31.891,30.615v2.041c0,20.666-13.011,30.615-31.891,30.615
				h-8.674v32.401h-34.188V37.672z M1061.062,70.583v-2.551h-14.032v2.551H1061.062z"/>
			<path fill="#FFFFFF" d="M1165.54,37.672v95.673h-34.188v-33.294h-2.551v33.294h-34.188V37.672h34.188v32.529h2.551V37.672
				H1165.54z"/>
			<path fill="#FFFFFF" d="M1168.093,37.672h34.188v95.673h-34.188V37.672z"/>
			<path fill="#FFFFFF" d="M1204.832,102.092V68.925c0-21.176,12.757-33.167,34.442-33.167h2.041
				c21.686,0,34.442,11.991,34.442,33.167v15.308h-34.188V66.119h-2.551v38.779h2.551V86.784h34.188v15.308
				c0,21.175-12.757,33.166-34.442,33.166h-2.041C1217.589,135.258,1204.832,123.267,1204.832,102.092z"/>
		</g>
	</g>
	</g>
	<g>
		<defs>
			<rect id="SVGID_11_" x="140" y="11" width="1199" height="15"/>
		</defs>
		<clipPath id="SVGID_12_">
			<use xlink:href="#SVGID_11_"  overflow="visible"/>
		</clipPath>
		<g clip-path="url(#SVGID_12_)">
			<g class="line">
			<rect x="152.704" y="-227.131" fill="none" width="1186.92" height="423.048"/>
			<path fill="#FFFFFF" d="M216.57-155.692v-40.183c0-21.176,12.757-33.167,34.442-33.167h2.041
				c21.686,0,34.442,11.991,34.442,33.167v15.308h-34.188v-18.114h-2.551v36.866h2.551v-16.201h34.188v46.561h-27.171l-5.103-10.97
				c-1.658,6.123-5.103,12.884-17.859,12.884C223.459-129.542,216.57-137.834,216.57-155.692z"/>
			<path fill="#FFFFFF" d="M290.049-227.128h42.861c18.879,0,31.891,9.567,31.891,29.339v2.041c0,13.139-6.889,21.048-16.456,25.257
				v1.276c4.975,2.679,8.419,6.25,10.843,15.69l5.74,22.068h-35.208l-4.847-31.508h-1.276v31.508h-33.549V-227.128z M334.44-194.217
				v-2.551h-15.308v2.551H334.44z"/>
			<path fill="#FFFFFF" d="M375.773-227.128h54.342l10.205,95.672h-36.356v-30.743h-2.551v30.743h-35.845L375.773-227.128z
				 M411.235-186.563v-2.551h-16.583v2.551H411.235z"/>
			<path fill="#FFFFFF" d="M441.599-227.128h42.861c18.879,0,31.891,9.95,31.891,30.615v2.041c0,20.665-13.012,30.615-31.891,30.615
				h-8.675v32.401h-34.187V-227.128z M484.715-194.217v-2.551h-14.032v2.551H484.715z"/>
			<path fill="#FFFFFF" d="M589.192-227.128v95.672h-34.188v-33.294h-2.551v33.294h-34.188v-95.672h34.188v32.528h2.551v-32.528
				H589.192z"/>
			<path fill="#FFFFFF" d="M591.745-227.128h34.187v95.672h-34.187V-227.128z"/>
			<path fill="#FFFFFF" d="M628.484-162.708v-33.167c0-21.176,12.756-33.167,34.442-33.167h2.041
				c21.686,0,34.442,11.991,34.442,33.167v15.308h-34.187v-18.114h-2.552v38.779h2.552v-18.114h34.187v15.308
				c0,21.175-12.756,33.167-34.442,33.167h-2.041C641.24-129.542,628.484-141.533,628.484-162.708z"/>
			<path fill="#FFFFFF" d="M789.216-161.815v30.36h-61.74v-95.672h34.187v65.312H789.216z"/>
			<path fill="#FFFFFF" d="M822.13-196.768v2.551h32.656v29.85H822.13v2.552h32.656v30.36H791.77v-95.672h63.017v30.36H822.13z"/>
			<path fill="#FFFFFF" d="M925.075-196.768h-16.838v65.312H874.05v-65.312h-16.711v-30.36h67.736V-196.768z"/>
			<path fill="#FFFFFF" d="M966.153-209.524c0,8.419-1.403,14.925-5.357,22.834l-6.378,12.629h-23.6l8.93-16.966
				c-8.037-2.679-12.757-9.95-12.757-18.497c0-10.843,7.526-19.517,19.518-19.517C958.627-229.042,966.153-220.367,966.153-209.524z
				"/>
			<path fill="#FFFFFF" d="M968.066-165.897v-4.465h16.711v-1.276c-10.588-4.082-17.349-13.649-17.349-27.043
				c0-19.134,14.798-30.36,37.376-30.36c23.727,0,36.101,13.394,36.101,33.804v7.016h-16.073v1.275
				c10.333,3.955,16.711,14.67,16.711,26.789c0,19.645-14.542,30.615-35.59,30.615C981.206-129.542,968.066-141.278,968.066-165.897
				z M1011.821-194.217v-2.551h-15.308v2.551H1011.821z M1011.821-161.815v-2.552h-15.308v2.552H1011.821z"/>
			<path fill="#FFFFFF" d="M1068.972-155.692v-40.183c0-21.176,12.757-33.167,34.442-33.167h2.041
				c21.686,0,34.442,11.991,34.442,33.167v15.308h-34.188v-18.114h-2.551v36.866h2.551v-16.201h34.188v46.561h-27.171l-5.103-10.97
				c-1.659,6.123-5.103,12.884-17.859,12.884C1075.86-129.542,1068.972-137.834,1068.972-155.692z"/>
			<path fill="#FFFFFF" d="M1172.811-196.768v2.551h32.656v29.85h-32.656v2.552h32.656v30.36h-63.017v-95.672h63.017v30.36H1172.811
				z"/>
			<path fill="#FFFFFF" d="M1275.756-196.768h-16.838v65.312h-34.188v-65.312h-16.711v-30.36h67.736V-196.768z"/>
			<path fill="#FFFFFF" d="M216.57-35.756v-40.183c0-21.176,12.757-33.167,34.442-33.167h2.041
				c21.686,0,34.442,11.991,34.442,33.167v15.308h-34.188v-18.114h-2.551v36.866h2.551V-58.08h34.188v46.561h-27.171l-5.103-10.97
				c-1.658,6.123-5.103,12.884-17.859,12.884C223.459-9.605,216.57-17.897,216.57-35.756z"/>
			<path fill="#FFFFFF" d="M320.409-76.832v2.551h32.656v29.85h-32.656v2.552h32.656v30.36h-63.016v-95.672h63.016v30.36H320.409z"
				/>
			<path fill="#FFFFFF" d="M423.354-76.832h-16.838v65.312h-34.187v-65.312h-16.71v-30.36h67.736V-76.832z"/>
			<path fill="#FFFFFF" d="M451.421-35.756v-40.183c0-21.176,12.756-33.167,34.442-33.167h2.041
				c21.686,0,34.442,11.991,34.442,33.167v15.308h-34.187v-18.114h-2.552v36.866h2.552V-58.08h34.187v46.561h-27.171l-5.103-10.97
				c-1.658,6.123-5.103,12.884-17.859,12.884C458.309-9.605,451.421-17.897,451.421-35.756z"/>
			<path fill="#FFFFFF" d="M524.898-107.191h42.861c18.88,0,31.891,9.567,31.891,29.339v2.041c0,13.139-6.888,21.048-16.456,25.257
				v1.276c4.975,2.679,8.419,6.25,10.843,15.69l5.74,22.068h-35.208l-4.847-31.508h-1.276v31.508h-33.549V-107.191z M569.291-74.28
				v-2.551h-15.308v2.551H569.291z"/>
			<path fill="#FFFFFF" d="M610.623-107.191h54.342l10.205,95.672h-36.355v-30.743h-2.551v30.743h-35.845L610.623-107.191z
				 M646.086-66.626v-2.551h-16.583v2.551H646.086z"/>
			<path fill="#FFFFFF" d="M676.448-107.191h42.861c18.88,0,31.892,9.95,31.892,30.615v2.041c0,20.665-13.012,30.615-31.892,30.615
				h-8.674v32.401h-34.188V-107.191z M719.565-74.28v-2.551h-14.032v2.551H719.565z"/>
			<path fill="#FFFFFF" d="M824.043-107.191v95.672h-34.188v-33.294h-2.551v33.294h-34.188v-95.672h34.188v32.528h2.551v-32.528
				H824.043z"/>
			<path fill="#FFFFFF" d="M826.596-107.191h34.188v95.672h-34.188V-107.191z"/>
			<path fill="#FFFFFF" d="M863.335-42.772v-33.167c0-21.176,12.757-33.167,34.442-33.167h2.041
				c21.686,0,34.442,11.991,34.442,33.167v15.308h-34.188v-18.114h-2.551v38.779h2.551V-58.08h34.188v15.308
				c0,21.175-12.757,33.167-34.442,33.167h-2.041C876.092-9.605,863.335-21.597,863.335-42.772z"/>
			<path fill="#FFFFFF" d="M1024.068-41.879v30.36h-61.741v-95.672h34.188v65.312H1024.068z"/>
			<path fill="#FFFFFF" d="M1056.981-76.832v2.551h32.656v29.85h-32.656v2.552h32.656v30.36h-63.017v-95.672h63.017v30.36H1056.981z
				"/>
			<path fill="#FFFFFF" d="M1159.927-76.832h-16.838v65.312h-34.188v-65.312h-16.711v-30.36h67.736V-76.832z"/>
			<path fill="#FFFFFF" d="M1201.005-89.588c0,8.419-1.403,14.925-5.357,22.834l-6.378,12.629h-23.6l8.93-16.966
				c-8.037-2.679-12.757-9.95-12.757-18.497c0-10.843,7.526-19.517,19.518-19.517
				C1193.479-109.105,1201.005-100.431,1201.005-89.588z"/>
			<path fill="#FFFFFF" d="M1202.918-45.961v-4.465h16.711v-1.276c-10.588-4.082-17.349-13.649-17.349-27.043
				c0-19.134,14.798-30.36,37.376-30.36c23.727,0,36.101,13.394,36.101,33.804v7.016h-16.073v1.275
				c10.333,3.955,16.711,14.67,16.711,26.789c0,19.645-14.542,30.615-35.59,30.615C1216.058-9.605,1202.918-21.341,1202.918-45.961z
				 M1246.673-74.28v-2.551h-15.308v2.551H1246.673z M1246.673-41.879v-2.552h-15.308v2.552H1246.673z"/>
			<path fill="#FFFFFF" d="M278.312,78.058v30.36H216.57V12.745h34.188v65.312H278.312z"/>
			<path fill="#FFFFFF" d="M311.225,43.105v2.551h32.656v29.85h-32.656v2.552h32.656v30.36h-63.016V12.745h63.016v30.36H311.225z"/>
			<path fill="#FFFFFF" d="M414.17,43.105h-16.838v65.312h-34.187V43.105h-16.71v-30.36h67.736V43.105z"/>
			<path fill="#FFFFFF" d="M455.248,30.349c0,8.419-1.403,14.925-5.357,22.834l-6.378,12.629h-23.599l8.929-16.966
				c-8.037-2.679-12.756-9.95-12.756-18.497c0-10.843,7.526-19.517,19.518-19.517C447.722,10.832,455.248,19.506,455.248,30.349z"/>
			<path fill="#FFFFFF" d="M457.161,73.976v-4.465h16.711v-1.276c-10.588-4.082-17.349-13.649-17.349-27.043
				c0-19.134,14.797-30.36,37.376-30.36c23.727,0,36.101,13.394,36.101,33.804v7.016h-16.073v1.275
				c10.333,3.955,16.71,14.67,16.71,26.789c0,19.645-14.542,30.615-35.59,30.615C470.3,110.331,457.161,98.595,457.161,73.976z
				 M500.916,45.656v-2.551h-15.308v2.551H500.916z M500.916,78.058v-2.552h-15.308v2.552H500.916z"/>
			<path fill="#FFFFFF" d="M558.066,84.181V43.998c0-21.176,12.756-33.167,34.442-33.167h2.041
				c21.686,0,34.442,11.991,34.442,33.167v15.308h-34.187V41.191h-2.552v36.866h2.552V61.857h34.187v46.561H601.82l-5.103-10.97
				c-1.658,6.123-5.103,12.884-17.859,12.884C564.955,110.331,558.066,102.039,558.066,84.181z"/>
			<path fill="#FFFFFF" d="M661.904,43.105v2.551h32.656v29.85h-32.656v2.552h32.656v30.36h-63.017V12.745h63.017v30.36H661.904z"/>
			<path fill="#FFFFFF" d="M764.85,43.105h-16.838v65.312h-34.187V43.105h-16.711v-30.36h67.736V43.105z"/>
			<path fill="#FFFFFF" d="M792.917,84.181V43.998c0-21.176,12.757-33.167,34.442-33.167h2.041
				c21.686,0,34.442,11.991,34.442,33.167v15.308h-34.188V41.191h-2.551v36.866h2.551V61.857h34.188v46.561h-27.171l-5.103-10.97
				c-1.659,6.123-5.103,12.884-17.859,12.884C799.806,110.331,792.917,102.039,792.917,84.181z"/>
			<path fill="#FFFFFF" d="M866.396,12.745h42.861c18.88,0,31.892,9.567,31.892,29.339v2.041c0,13.139-6.889,21.048-16.456,25.257
				v1.276c4.975,2.679,8.419,6.25,10.843,15.69l5.74,22.068h-35.207l-4.848-31.508h-1.275v31.508h-33.55V12.745z M910.788,45.656
				v-2.551H895.48v2.551H910.788z"/>
			<path fill="#FFFFFF" d="M952.12,12.745h54.342l10.205,95.672h-36.355V77.675h-2.551v30.743h-35.846L952.12,12.745z
				 M987.583,53.31v-2.551H971v2.551H987.583z"/>
			<path fill="#FFFFFF" d="M1017.945,12.745h42.861c18.88,0,31.891,9.95,31.891,30.615v2.041c0,20.665-13.011,30.615-31.891,30.615
				h-8.674v32.401h-34.188V12.745z M1061.062,45.656v-2.551h-14.032v2.551H1061.062z"/>
			<path fill="#FFFFFF" d="M1165.54,12.745v95.672h-34.188V75.124h-2.551v33.294h-34.188V12.745h34.188v32.528h2.551V12.745H1165.54
				z"/>
			<path fill="#FFFFFF" d="M1168.093,12.745h34.188v95.672h-34.188V12.745z"/>
			<path fill="#FFFFFF" d="M1204.832,77.165V43.998c0-21.176,12.757-33.167,34.442-33.167h2.041
				c21.686,0,34.442,11.991,34.442,33.167v15.308h-34.188V41.191h-2.551v38.779h2.551V61.857h34.188v15.308
				c0,21.175-12.757,33.167-34.442,33.167h-2.041C1217.589,110.331,1204.832,98.34,1204.832,77.165z"/>
		</g>
	</g>
	</g>
	<g>
		<defs>
			<rect id="SVGID_13_" x="143" y="184" width="1196" height="31"/>
		</defs>
		<clipPath id="SVGID_14_">
			<use xlink:href="#SVGID_13_"  overflow="visible"/>
		</clipPath>
		<g clip-path="url(#SVGID_14_)">
			<g class="line">
			<rect x="152.704" y="-124.962" fill="none" width="1186.92" height="423.047"/>
			<path fill="#FFFFFF" d="M216.57-53.523v-40.182c0-21.176,12.757-33.167,34.442-33.167h2.041
				c21.686,0,34.442,11.991,34.442,33.167v15.308h-34.188v-18.114h-2.551v36.866h2.551v-16.2h34.188v46.561h-27.171l-5.103-10.971
				c-1.658,6.123-5.103,12.884-17.859,12.884C223.459-27.373,216.57-35.664,216.57-53.523z"/>
			<path fill="#FFFFFF" d="M290.049-124.959h42.861c18.879,0,31.891,9.567,31.891,29.34v2.041c0,13.139-6.889,21.048-16.456,25.258
				v1.275c4.975,2.679,8.419,6.25,10.843,15.69l5.74,22.068h-35.208l-4.847-31.508h-1.276v31.508h-33.549V-124.959z M334.44-92.047
				v-2.551h-15.308v2.551H334.44z"/>
			<path fill="#FFFFFF" d="M375.773-124.959h54.342l10.205,95.673h-36.356v-30.743h-2.551v30.743h-35.845L375.773-124.959z
				 M411.235-84.394v-2.551h-16.583v2.551H411.235z"/>
			<path fill="#FFFFFF" d="M441.599-124.959h42.861c18.879,0,31.891,9.95,31.891,30.615v2.041c0,20.666-13.012,30.615-31.891,30.615
				h-8.675v32.401h-34.187V-124.959z M484.715-92.047v-2.551h-14.032v2.551H484.715z"/>
			<path fill="#FFFFFF" d="M589.192-124.959v95.673h-34.188V-62.58h-2.551v33.294h-34.188v-95.673h34.188v32.529h2.551v-32.529
				H589.192z"/>
			<path fill="#FFFFFF" d="M591.745-124.959h34.187v95.673h-34.187V-124.959z"/>
			<path fill="#FFFFFF" d="M628.484-60.539v-33.167c0-21.176,12.756-33.167,34.442-33.167h2.041
				c21.686,0,34.442,11.991,34.442,33.167v15.308h-34.187v-18.114h-2.552v38.779h2.552v-18.114h34.187v15.308
				c0,21.175-12.756,33.167-34.442,33.167h-2.041C641.24-27.373,628.484-39.364,628.484-60.539z"/>
			<path fill="#FFFFFF" d="M789.216-59.646v30.36h-61.74v-95.673h34.187v65.312H789.216z"/>
			<path fill="#FFFFFF" d="M822.13-94.599v2.551h32.656v29.85H822.13v2.551h32.656v30.36H791.77v-95.673h63.017v30.36H822.13z"/>
			<path fill="#FFFFFF" d="M925.075-94.599h-16.838v65.312H874.05v-65.312h-16.711v-30.36h67.736V-94.599z"/>
			<path fill="#FFFFFF" d="M966.153-107.355c0,8.419-1.403,14.925-5.357,22.834l-6.378,12.628h-23.6l8.93-16.966
				c-8.037-2.679-12.757-9.95-12.757-18.497c0-10.843,7.526-19.517,19.518-19.517C958.627-126.872,966.153-118.198,966.153-107.355z
				"/>
			<path fill="#FFFFFF" d="M968.066-63.729v-4.464h16.711v-1.276c-10.588-4.082-17.349-13.649-17.349-27.043
				c0-19.134,14.798-30.36,37.376-30.36c23.727,0,36.101,13.394,36.101,33.804v7.016h-16.073v1.275
				c10.333,3.955,16.711,14.67,16.711,26.789c0,19.645-14.542,30.615-35.59,30.615C981.206-27.373,968.066-39.108,968.066-63.729z
				 M1011.821-92.047v-2.551h-15.308v2.551H1011.821z M1011.821-59.646v-2.551h-15.308v2.551H1011.821z"/>
			<path fill="#FFFFFF" d="M1068.972-53.523v-40.182c0-21.176,12.757-33.167,34.442-33.167h2.041
				c21.686,0,34.442,11.991,34.442,33.167v15.308h-34.188v-18.114h-2.551v36.866h2.551v-16.2h34.188v46.561h-27.171l-5.103-10.971
				c-1.659,6.123-5.103,12.884-17.859,12.884C1075.86-27.373,1068.972-35.664,1068.972-53.523z"/>
			<path fill="#FFFFFF" d="M1172.811-94.599v2.551h32.656v29.85h-32.656v2.551h32.656v30.36h-63.017v-95.673h63.017v30.36H1172.811z
				"/>
			<path fill="#FFFFFF" d="M1275.756-94.599h-16.838v65.312h-34.188v-65.312h-16.711v-30.36h67.736V-94.599z"/>
			<path fill="#FFFFFF" d="M216.57,66.413V26.231c0-21.176,12.757-33.167,34.442-33.167h2.041c21.686,0,34.442,11.991,34.442,33.167
				v15.308h-34.188V23.424h-2.551V60.29h2.551v-16.2h34.188V90.65h-27.171l-5.103-10.971c-1.658,6.123-5.103,12.884-17.859,12.884
				C223.459,92.564,216.57,84.272,216.57,66.413z"/>
			<path fill="#FFFFFF" d="M320.409,25.338v2.551h32.656v29.85h-32.656v2.551h32.656v30.36h-63.016V-5.022h63.016v30.36H320.409z"/>
			<path fill="#FFFFFF" d="M423.354,25.338h-16.838V90.65h-34.187V25.338h-16.71v-30.36h67.736V25.338z"/>
			<path fill="#FFFFFF" d="M451.421,66.413V26.231c0-21.176,12.756-33.167,34.442-33.167h2.041
				c21.686,0,34.442,11.991,34.442,33.167v15.308h-34.187V23.424h-2.552V60.29h2.552v-16.2h34.187V90.65h-27.171l-5.103-10.971
				c-1.658,6.123-5.103,12.884-17.859,12.884C458.309,92.564,451.421,84.272,451.421,66.413z"/>
			<path fill="#FFFFFF" d="M524.898-5.022h42.861c18.88,0,31.891,9.567,31.891,29.34v2.041c0,13.139-6.888,21.048-16.456,25.258
				v1.275c4.975,2.679,8.419,6.25,10.843,15.69l5.74,22.068h-35.208l-4.847-31.508h-1.276V90.65h-33.549V-5.022z M569.291,27.889
				v-2.551h-15.308v2.551H569.291z"/>
			<path fill="#FFFFFF" d="M610.623-5.022h54.342L675.17,90.65h-36.355V59.908h-2.551V90.65h-35.845L610.623-5.022z M646.086,35.543
				v-2.551h-16.583v2.551H646.086z"/>
			<path fill="#FFFFFF" d="M676.448-5.022h42.861c18.88,0,31.892,9.95,31.892,30.615v2.041c0,20.666-13.012,30.615-31.892,30.615
				h-8.674V90.65h-34.188V-5.022z M719.565,27.889v-2.551h-14.032v2.551H719.565z"/>
			<path fill="#FFFFFF" d="M824.043-5.022V90.65h-34.188V57.356h-2.551V90.65h-34.188V-5.022h34.188v32.529h2.551V-5.022H824.043z"
				/>
			<path fill="#FFFFFF" d="M826.596-5.022h34.188V90.65h-34.188V-5.022z"/>
			<path fill="#FFFFFF" d="M863.335,59.397V26.231c0-21.176,12.757-33.167,34.442-33.167h2.041
				c21.686,0,34.442,11.991,34.442,33.167v15.308h-34.188V23.424h-2.551v38.779h2.551V44.09h34.188v15.308
				c0,21.175-12.757,33.167-34.442,33.167h-2.041C876.092,92.564,863.335,80.573,863.335,59.397z"/>
			<path fill="#FFFFFF" d="M1024.068,60.29v30.36h-61.741V-5.022h34.188V60.29H1024.068z"/>
			<path fill="#FFFFFF" d="M1056.981,25.338v2.551h32.656v29.85h-32.656v2.551h32.656v30.36h-63.017V-5.022h63.017v30.36H1056.981z"
				/>
			<path fill="#FFFFFF" d="M1159.927,25.338h-16.838V90.65h-34.188V25.338h-16.711v-30.36h67.736V25.338z"/>
			<path fill="#FFFFFF" d="M1201.005,12.582c0,8.419-1.403,14.925-5.357,22.834l-6.378,12.628h-23.6l8.93-16.966
				c-8.037-2.679-12.757-9.95-12.757-18.497c0-10.843,7.526-19.517,19.518-19.517C1193.479-6.936,1201.005,1.739,1201.005,12.582z"
				/>
			<path fill="#FFFFFF" d="M1202.918,56.208v-4.464h16.711v-1.276c-10.588-4.082-17.349-13.649-17.349-27.043
				c0-19.134,14.798-30.36,37.376-30.36c23.727,0,36.101,13.394,36.101,33.804v7.016h-16.073v1.275
				c10.333,3.955,16.711,14.67,16.711,26.789c0,19.645-14.542,30.615-35.59,30.615C1216.058,92.564,1202.918,80.828,1202.918,56.208
				z M1246.673,27.889v-2.551h-15.308v2.551H1246.673z M1246.673,60.29v-2.551h-15.308v2.551H1246.673z"/>
			<path fill="#FFFFFF" d="M278.312,180.227v30.36H216.57v-95.673h34.188v65.312H278.312z"/>
			<path fill="#FFFFFF" d="M311.225,145.274v2.552h32.656v29.85h-32.656v2.551h32.656v30.36h-63.016v-95.673h63.016v30.36H311.225z"
				/>
			<path fill="#FFFFFF" d="M414.17,145.274h-16.838v65.312h-34.187v-65.312h-16.71v-30.36h67.736V145.274z"/>
			<path fill="#FFFFFF" d="M455.248,132.518c0,8.42-1.403,14.926-5.357,22.834l-6.378,12.629h-23.599l8.929-16.966
				c-8.037-2.679-12.756-9.95-12.756-18.497c0-10.842,7.526-19.517,19.518-19.517C447.722,113.001,455.248,121.675,455.248,132.518z
				"/>
			<path fill="#FFFFFF" d="M457.161,176.145v-4.465h16.711v-1.275c-10.588-4.082-17.349-13.649-17.349-27.043
				c0-19.135,14.797-30.36,37.376-30.36c23.727,0,36.101,13.394,36.101,33.804v7.017h-16.073v1.275
				c10.333,3.954,16.71,14.67,16.71,26.788c0,19.646-14.542,30.615-35.59,30.615C470.3,212.5,457.161,200.765,457.161,176.145z
				 M500.916,147.826v-2.552h-15.308v2.552H500.916z M500.916,180.227v-2.551h-15.308v2.551H500.916z"/>
			<path fill="#FFFFFF" d="M558.066,186.35v-40.183c0-21.175,12.756-33.166,34.442-33.166h2.041
				c21.686,0,34.442,11.991,34.442,33.166v15.308h-34.187v-18.113h-2.552v36.865h2.552v-16.2h34.187v46.561H601.82l-5.103-10.971
				c-1.658,6.123-5.103,12.884-17.859,12.884C564.955,212.5,558.066,204.209,558.066,186.35z"/>
			<path fill="#FFFFFF" d="M661.904,145.274v2.552h32.656v29.85h-32.656v2.551h32.656v30.36h-63.017v-95.673h63.017v30.36H661.904z"
				/>
			<path fill="#FFFFFF" d="M764.85,145.274h-16.838v65.312h-34.187v-65.312h-16.711v-30.36h67.736V145.274z"/>
			<path fill="#FFFFFF" d="M792.917,186.35v-40.183c0-21.175,12.757-33.166,34.442-33.166h2.041
				c21.686,0,34.442,11.991,34.442,33.166v15.308h-34.188v-18.113h-2.551v36.865h2.551v-16.2h34.188v46.561h-27.171l-5.103-10.971
				c-1.659,6.123-5.103,12.884-17.859,12.884C799.806,212.5,792.917,204.209,792.917,186.35z"/>
			<path fill="#FFFFFF" d="M866.396,114.914h42.861c18.88,0,31.892,9.567,31.892,29.34v2.041c0,13.139-6.889,21.048-16.456,25.258
				v1.275c4.975,2.679,8.419,6.251,10.843,15.69l5.74,22.068h-35.207l-4.848-31.508h-1.275v31.508h-33.55V114.914z M910.788,147.826
				v-2.552H895.48v2.552H910.788z"/>
			<path fill="#FFFFFF" d="M952.12,114.914h54.342l10.205,95.673h-36.355v-30.743h-2.551v30.743h-35.846L952.12,114.914z
				 M987.583,155.479v-2.552H971v2.552H987.583z"/>
			<path fill="#FFFFFF" d="M1017.945,114.914h42.861c18.88,0,31.891,9.95,31.891,30.615v2.041c0,20.666-13.011,30.615-31.891,30.615
				h-8.674v32.401h-34.188V114.914z M1061.062,147.826v-2.552h-14.032v2.552H1061.062z"/>
			<path fill="#FFFFFF" d="M1165.54,114.914v95.673h-34.188v-33.294h-2.551v33.294h-34.188v-95.673h34.188v32.529h2.551v-32.529
				H1165.54z"/>
			<path fill="#FFFFFF" d="M1168.093,114.914h34.188v95.673h-34.188V114.914z"/>
			<path fill="#FFFFFF" d="M1204.832,179.334v-33.167c0-21.175,12.757-33.166,34.442-33.166h2.041
				c21.686,0,34.442,11.991,34.442,33.166v15.308h-34.188v-18.113h-2.551v38.779h2.551v-18.114h34.188v15.308
				c0,21.176-12.757,33.166-34.442,33.166h-2.041C1217.589,212.5,1204.832,200.51,1204.832,179.334z"/>
		</g>
	</g>
	</g>
	<g>
		<defs>
			<rect id="SVGID_15_" x="143" y="223" width="1196" height="15"/>
		</defs>
		<clipPath id="SVGID_16_">
			<use xlink:href="#SVGID_15_"  overflow="visible"/>
		</clipPath>
		<g clip-path="url(#SVGID_16_)">
			<g class="line">
			<rect x="152.704" y="-100.032" fill="none" width="1186.92" height="423.047"/>
			<path fill="#FFFFFF" d="M216.57-28.593v-40.182c0-21.176,12.757-33.167,34.442-33.167h2.041
				c21.686,0,34.442,11.991,34.442,33.167v15.308h-34.188v-18.114h-2.551v36.866h2.551v-16.2h34.188v46.561h-27.171l-5.103-10.971
				c-1.658,6.123-5.103,12.884-17.859,12.884C223.459-2.442,216.57-10.733,216.57-28.593z"/>
			<path fill="#FFFFFF" d="M290.049-100.028h42.861c18.879,0,31.891,9.567,31.891,29.34v2.041c0,13.139-6.889,21.048-16.456,25.258
				v1.275c4.975,2.679,8.419,6.25,10.843,15.69l5.74,22.068h-35.208l-4.847-31.508h-1.276v31.508h-33.549V-100.028z M334.44-67.117
				v-2.551h-15.308v2.551H334.44z"/>
			<path fill="#FFFFFF" d="M375.773-100.028h54.342L440.32-4.355h-36.356v-30.743h-2.551v30.743h-35.845L375.773-100.028z
				 M411.235-59.463v-2.551h-16.583v2.551H411.235z"/>
			<path fill="#FFFFFF" d="M441.599-100.028h42.861c18.879,0,31.891,9.95,31.891,30.615v2.041c0,20.666-13.012,30.615-31.891,30.615
				h-8.675v32.401h-34.187V-100.028z M484.715-67.117v-2.551h-14.032v2.551H484.715z"/>
			<path fill="#FFFFFF" d="M589.192-100.028v95.673h-34.188v-33.294h-2.551v33.294h-34.188v-95.673h34.188V-67.5h2.551v-32.529
				H589.192z"/>
			<path fill="#FFFFFF" d="M591.745-100.028h34.187v95.673h-34.187V-100.028z"/>
			<path fill="#FFFFFF" d="M628.484-35.608v-33.167c0-21.176,12.756-33.167,34.442-33.167h2.041
				c21.686,0,34.442,11.991,34.442,33.167v15.308h-34.187v-18.114h-2.552v38.779h2.552v-18.114h34.187v15.308
				c0,21.175-12.756,33.167-34.442,33.167h-2.041C641.24-2.442,628.484-14.433,628.484-35.608z"/>
			<path fill="#FFFFFF" d="M789.216-34.716v30.36h-61.74v-95.673h34.187v65.312H789.216z"/>
			<path fill="#FFFFFF" d="M822.13-69.668v2.551h32.656v29.85H822.13v2.551h32.656v30.36H791.77v-95.673h63.017v30.36H822.13z"/>
			<path fill="#FFFFFF" d="M925.075-69.668h-16.838v65.312H874.05v-65.312h-16.711v-30.36h67.736V-69.668z"/>
			<path fill="#FFFFFF" d="M966.153-82.424c0,8.419-1.403,14.925-5.357,22.834l-6.378,12.628h-23.6l8.93-16.966
				c-8.037-2.679-12.757-9.95-12.757-18.497c0-10.843,7.526-19.517,19.518-19.517C958.627-101.941,966.153-93.267,966.153-82.424z"
				/>
			<path fill="#FFFFFF" d="M968.066-38.798v-4.464h16.711v-1.276c-10.588-4.082-17.349-13.649-17.349-27.043
				c0-19.134,14.798-30.36,37.376-30.36c23.727,0,36.101,13.394,36.101,33.804v7.016h-16.073v1.275
				c10.333,3.955,16.711,14.67,16.711,26.789c0,19.645-14.542,30.615-35.59,30.615C981.206-2.442,968.066-14.178,968.066-38.798z
				 M1011.821-67.117v-2.551h-15.308v2.551H1011.821z M1011.821-34.716v-2.551h-15.308v2.551H1011.821z"/>
			<path fill="#FFFFFF" d="M1068.972-28.593v-40.182c0-21.176,12.757-33.167,34.442-33.167h2.041
				c21.686,0,34.442,11.991,34.442,33.167v15.308h-34.188v-18.114h-2.551v36.866h2.551v-16.2h34.188v46.561h-27.171l-5.103-10.971
				c-1.659,6.123-5.103,12.884-17.859,12.884C1075.86-2.442,1068.972-10.733,1068.972-28.593z"/>
			<path fill="#FFFFFF" d="M1172.811-69.668v2.551h32.656v29.85h-32.656v2.551h32.656v30.36h-63.017v-95.673h63.017v30.36H1172.811z
				"/>
			<path fill="#FFFFFF" d="M1275.756-69.668h-16.838v65.312h-34.188v-65.312h-16.711v-30.36h67.736V-69.668z"/>
			<path fill="#FFFFFF" d="M216.57,91.344V51.162c0-21.176,12.757-33.167,34.442-33.167h2.041c21.686,0,34.442,11.991,34.442,33.167
				v15.308h-34.188V48.355h-2.551v36.866h2.551v-16.2h34.188v46.561h-27.171l-5.103-10.971c-1.658,6.123-5.103,12.884-17.859,12.884
				C223.459,117.495,216.57,109.203,216.57,91.344z"/>
			<path fill="#FFFFFF" d="M320.409,50.269v2.551h32.656v29.85h-32.656v2.551h32.656v30.36h-63.016V19.908h63.016v30.36H320.409z"/>
			<path fill="#FFFFFF" d="M423.354,50.269h-16.838v65.312h-34.187V50.269h-16.71v-30.36h67.736V50.269z"/>
			<path fill="#FFFFFF" d="M451.421,91.344V51.162c0-21.176,12.756-33.167,34.442-33.167h2.041
				c21.686,0,34.442,11.991,34.442,33.167v15.308h-34.187V48.355h-2.552v36.866h2.552v-16.2h34.187v46.561h-27.171l-5.103-10.971
				c-1.658,6.123-5.103,12.884-17.859,12.884C458.309,117.495,451.421,109.203,451.421,91.344z"/>
			<path fill="#FFFFFF" d="M524.898,19.908h42.861c18.88,0,31.891,9.567,31.891,29.34v2.041c0,13.139-6.888,21.048-16.456,25.258
				v1.275c4.975,2.679,8.419,6.25,10.843,15.69l5.74,22.068h-35.208l-4.847-31.508h-1.276v31.508h-33.549V19.908z M569.291,52.82
				v-2.551h-15.308v2.551H569.291z"/>
			<path fill="#FFFFFF" d="M610.623,19.908h54.342l10.205,95.673h-36.355V84.838h-2.551v30.743h-35.845L610.623,19.908z
				 M646.086,60.474v-2.551h-16.583v2.551H646.086z"/>
			<path fill="#FFFFFF" d="M676.448,19.908h42.861c18.88,0,31.892,9.95,31.892,30.615v2.041c0,20.666-13.012,30.615-31.892,30.615
				h-8.674v32.401h-34.188V19.908z M719.565,52.82v-2.551h-14.032v2.551H719.565z"/>
			<path fill="#FFFFFF" d="M824.043,19.908v95.673h-34.188V82.287h-2.551v33.294h-34.188V19.908h34.188v32.529h2.551V19.908H824.043
				z"/>
			<path fill="#FFFFFF" d="M826.596,19.908h34.188v95.673h-34.188V19.908z"/>
			<path fill="#FFFFFF" d="M863.335,84.328V51.162c0-21.176,12.757-33.167,34.442-33.167h2.041
				c21.686,0,34.442,11.991,34.442,33.167v15.308h-34.188V48.355h-2.551v38.779h2.551V69.021h34.188v15.308
				c0,21.175-12.757,33.167-34.442,33.167h-2.041C876.092,117.495,863.335,105.503,863.335,84.328z"/>
			<path fill="#FFFFFF" d="M1024.068,85.221v30.36h-61.741V19.908h34.188v65.312H1024.068z"/>
			<path fill="#FFFFFF" d="M1056.981,50.269v2.551h32.656v29.85h-32.656v2.551h32.656v30.36h-63.017V19.908h63.017v30.36H1056.981z"
				/>
			<path fill="#FFFFFF" d="M1159.927,50.269h-16.838v65.312h-34.188V50.269h-16.711v-30.36h67.736V50.269z"/>
			<path fill="#FFFFFF" d="M1201.005,37.512c0,8.419-1.403,14.925-5.357,22.834l-6.378,12.628h-23.6l8.93-16.966
				c-8.037-2.679-12.757-9.95-12.757-18.497c0-10.843,7.526-19.517,19.518-19.517C1193.479,17.995,1201.005,26.669,1201.005,37.512z
				"/>
			<path fill="#FFFFFF" d="M1202.918,81.139v-4.464h16.711v-1.276c-10.588-4.082-17.349-13.649-17.349-27.043
				c0-19.134,14.798-30.36,37.376-30.36c23.727,0,36.101,13.394,36.101,33.804v7.016h-16.073v1.275
				c10.333,3.955,16.711,14.67,16.711,26.789c0,19.645-14.542,30.615-35.59,30.615
				C1216.058,117.495,1202.918,105.759,1202.918,81.139z M1246.673,52.82v-2.551h-15.308v2.551H1246.673z M1246.673,85.221V82.67
				h-15.308v2.551H1246.673z"/>
			<path fill="#FFFFFF" d="M278.312,205.157v30.36H216.57v-95.673h34.188v65.312H278.312z"/>
			<path fill="#FFFFFF" d="M311.225,170.205v2.551h32.656v29.851h-32.656v2.551h32.656v30.36h-63.016v-95.673h63.016v30.36H311.225z
				"/>
			<path fill="#FFFFFF" d="M414.17,170.205h-16.838v65.312h-34.187v-65.312h-16.71v-30.36h67.736V170.205z"/>
			<path fill="#FFFFFF" d="M455.248,157.449c0,8.419-1.403,14.925-5.357,22.833l-6.378,12.629h-23.599l8.929-16.966
				c-8.037-2.679-12.756-9.95-12.756-18.496c0-10.844,7.526-19.518,19.518-19.518C447.722,137.932,455.248,146.605,455.248,157.449z
				"/>
			<path fill="#FFFFFF" d="M457.161,201.075v-4.465h16.711v-1.275c-10.588-4.082-17.349-13.649-17.349-27.043
				c0-19.135,14.797-30.36,37.376-30.36c23.727,0,36.101,13.395,36.101,33.805v7.016h-16.073v1.275
				c10.333,3.955,16.71,14.67,16.71,26.788c0,19.646-14.542,30.615-35.59,30.615C470.3,237.431,457.161,225.695,457.161,201.075z
				 M500.916,172.756v-2.551h-15.308v2.551H500.916z M500.916,205.157v-2.551h-15.308v2.551H500.916z"/>
			<path fill="#FFFFFF" d="M558.066,211.28v-40.183c0-21.175,12.756-33.166,34.442-33.166h2.041
				c21.686,0,34.442,11.991,34.442,33.166v15.308h-34.187v-18.113h-2.552v36.865h2.552v-16.2h34.187v46.561H601.82l-5.103-10.971
				c-1.658,6.123-5.103,12.884-17.859,12.884C564.955,237.431,558.066,229.14,558.066,211.28z"/>
			<path fill="#FFFFFF" d="M661.904,170.205v2.551h32.656v29.851h-32.656v2.551h32.656v30.36h-63.017v-95.673h63.017v30.36H661.904z
				"/>
			<path fill="#FFFFFF" d="M764.85,170.205h-16.838v65.312h-34.187v-65.312h-16.711v-30.36h67.736V170.205z"/>
			<path fill="#FFFFFF" d="M792.917,211.28v-40.183c0-21.175,12.757-33.166,34.442-33.166h2.041
				c21.686,0,34.442,11.991,34.442,33.166v15.308h-34.188v-18.113h-2.551v36.865h2.551v-16.2h34.188v46.561h-27.171l-5.103-10.971
				c-1.659,6.123-5.103,12.884-17.859,12.884C799.806,237.431,792.917,229.14,792.917,211.28z"/>
			<path fill="#FFFFFF" d="M866.396,139.845h42.861c18.88,0,31.892,9.567,31.892,29.34v2.041c0,13.139-6.889,21.048-16.456,25.258
				v1.275c4.975,2.679,8.419,6.251,10.843,15.69l5.74,22.068h-35.207l-4.848-31.508h-1.275v31.508h-33.55V139.845z M910.788,172.756
				v-2.551H895.48v2.551H910.788z"/>
			<path fill="#FFFFFF" d="M952.12,139.845h54.342l10.205,95.673h-36.355v-30.743h-2.551v30.743h-35.846L952.12,139.845z
				 M987.583,180.41v-2.551H971v2.551H987.583z"/>
			<path fill="#FFFFFF" d="M1017.945,139.845h42.861c18.88,0,31.891,9.95,31.891,30.615v2.041c0,20.665-13.011,30.615-31.891,30.615
				h-8.674v32.401h-34.188V139.845z M1061.062,172.756v-2.551h-14.032v2.551H1061.062z"/>
			<path fill="#FFFFFF" d="M1165.54,139.845v95.673h-34.188v-33.294h-2.551v33.294h-34.188v-95.673h34.188v32.529h2.551v-32.529
				H1165.54z"/>
			<path fill="#FFFFFF" d="M1168.093,139.845h34.188v95.673h-34.188V139.845z"/>
			<path fill="#FFFFFF" d="M1204.832,204.265v-33.167c0-21.175,12.757-33.166,34.442-33.166h2.041
				c21.686,0,34.442,11.991,34.442,33.166v15.308h-34.188v-18.113h-2.551v38.779h2.551v-18.114h34.188v15.308
				c0,21.176-12.757,33.166-34.442,33.166h-2.041C1217.589,237.431,1204.832,225.44,1204.832,204.265z"/>
		</g>
	</g>
	</g>
</g>
</svg>
